<mxfile host="Electron" agent="Mozilla/5.0 (Windows NT 10.0; Win64; x64) AppleWebKit/537.36 (KHTML, like Gecko) draw.io/26.0.16 Chrome/132.0.6834.196 Electron/34.2.0 Safari/537.36" version="26.0.16">
  <diagram name="Page-1" id="3uYCJ-w4eUSSvAxL9ND-">
    <mxGraphModel dx="867" dy="551" grid="1" gridSize="10" guides="1" tooltips="1" connect="1" arrows="1" fold="1" page="1" pageScale="1" pageWidth="1920" pageHeight="1200" math="0" shadow="0">
      <root>
        <mxCell id="0" />
        <mxCell id="1" parent="0" />
        <mxCell id="J40c5jk9J6KKINpNhk3b-1" value="&lt;font style=&quot;font-size: 22px;&quot;&gt;&lt;b&gt;HIGH LEVEL ARCHITECTURE&lt;/b&gt;&lt;/font&gt;" style="text;html=1;align=center;verticalAlign=middle;whiteSpace=wrap;rounded=0;" parent="1" vertex="1">
          <mxGeometry x="10" y="10" width="330" height="30" as="geometry" />
        </mxCell>
        <mxCell id="J40c5jk9J6KKINpNhk3b-4" value="" style="rounded=0;whiteSpace=wrap;html=1;gradientColor=none;fillColor=none;dashed=1;" parent="1" vertex="1">
          <mxGeometry x="40" y="80" width="140" height="470" as="geometry" />
        </mxCell>
        <mxCell id="J40c5jk9J6KKINpNhk3b-5" value="&lt;font style=&quot;font-size: 15px;&quot;&gt;&lt;b&gt;Sources&lt;/b&gt;&lt;/font&gt;" style="text;html=1;align=center;verticalAlign=middle;whiteSpace=wrap;rounded=0;fillColor=default;" parent="1" vertex="1">
          <mxGeometry x="80" y="60" width="60" height="30" as="geometry" />
        </mxCell>
        <mxCell id="J40c5jk9J6KKINpNhk3b-7" value="" style="rounded=0;whiteSpace=wrap;html=1;dashed=1;" parent="1" vertex="1">
          <mxGeometry x="235" y="77.5" width="520" height="472.5" as="geometry" />
        </mxCell>
        <mxCell id="J40c5jk9J6KKINpNhk3b-8" value="&lt;font style=&quot;font-size: 15px;&quot;&gt;&lt;b&gt;Data Warehouse&lt;/b&gt;&lt;/font&gt;" style="text;html=1;align=center;verticalAlign=middle;whiteSpace=wrap;rounded=0;fillColor=default;" parent="1" vertex="1">
          <mxGeometry x="430" y="60" width="130" height="30" as="geometry" />
        </mxCell>
        <mxCell id="J40c5jk9J6KKINpNhk3b-9" value="" style="rounded=0;whiteSpace=wrap;html=1;dashed=1;" parent="1" vertex="1">
          <mxGeometry x="830" y="80" width="120" height="475" as="geometry" />
        </mxCell>
        <mxCell id="J40c5jk9J6KKINpNhk3b-10" value="&lt;font style=&quot;font-size: 15px;&quot;&gt;&lt;b&gt;Consume&lt;/b&gt;&lt;/font&gt;" style="text;html=1;align=center;verticalAlign=middle;whiteSpace=wrap;rounded=0;fillColor=default;" parent="1" vertex="1">
          <mxGeometry x="860" y="60" width="60" height="30" as="geometry" />
        </mxCell>
        <mxCell id="J40c5jk9J6KKINpNhk3b-15" value="&lt;b&gt;Bronze Layer&lt;/b&gt;" style="rounded=0;whiteSpace=wrap;html=1;fillColor=#ffe6cc;strokeColor=#d79b00;" parent="1" vertex="1">
          <mxGeometry x="275" y="97.5" width="130" height="30" as="geometry" />
        </mxCell>
        <mxCell id="J40c5jk9J6KKINpNhk3b-16" value="" style="rounded=0;whiteSpace=wrap;html=1;fillColor=none;strokeColor=#d79b00;" parent="1" vertex="1">
          <mxGeometry x="275" y="132.5" width="130" height="407.5" as="geometry" />
        </mxCell>
        <mxCell id="J40c5jk9J6KKINpNhk3b-19" value="&lt;b&gt;Silver Layer&lt;/b&gt;" style="rounded=0;whiteSpace=wrap;html=1;fillColor=#f5f5f5;strokeColor=#666666;fontColor=#333333;" parent="1" vertex="1">
          <mxGeometry x="440" y="100" width="140" height="30" as="geometry" />
        </mxCell>
        <mxCell id="J40c5jk9J6KKINpNhk3b-20" value="" style="rounded=0;whiteSpace=wrap;html=1;fillColor=none;strokeColor=#666666;fontColor=#333333;" parent="1" vertex="1">
          <mxGeometry x="440" y="135" width="140" height="405" as="geometry" />
        </mxCell>
        <mxCell id="J40c5jk9J6KKINpNhk3b-23" value="&lt;b&gt;Gold Layer&lt;/b&gt;" style="rounded=0;whiteSpace=wrap;html=1;fillColor=#fff2cc;strokeColor=#d6b656;" parent="1" vertex="1">
          <mxGeometry x="610" y="100" width="130" height="30" as="geometry" />
        </mxCell>
        <mxCell id="J40c5jk9J6KKINpNhk3b-24" value="" style="rounded=0;whiteSpace=wrap;html=1;fillColor=none;strokeColor=#d6b656;" parent="1" vertex="1">
          <mxGeometry x="610" y="135" width="130" height="405" as="geometry" />
        </mxCell>
        <mxCell id="J40c5jk9J6KKINpNhk3b-26" value="&lt;b&gt;CRM&lt;/b&gt;" style="image;aspect=fixed;html=1;points=[];align=center;fontSize=12;image=img/lib/azure2/general/Folder_Blank.svg;" parent="1" vertex="1">
          <mxGeometry x="91.52" y="210" width="36.96" height="30" as="geometry" />
        </mxCell>
        <mxCell id="J40c5jk9J6KKINpNhk3b-28" value="" style="image;aspect=fixed;html=1;points=[];align=center;fontSize=12;image=img/lib/azure2/general/File.svg;" parent="1" vertex="1">
          <mxGeometry x="112.25" y="220" width="16.23" height="20" as="geometry" />
        </mxCell>
        <mxCell id="J40c5jk9J6KKINpNhk3b-29" value="&lt;b&gt;ERP&lt;/b&gt;" style="image;aspect=fixed;html=1;points=[];align=center;fontSize=12;image=img/lib/azure2/general/Folder_Blank.svg;" parent="1" vertex="1">
          <mxGeometry x="91.52" y="305" width="36.96" height="30" as="geometry" />
        </mxCell>
        <mxCell id="J40c5jk9J6KKINpNhk3b-30" value="" style="image;aspect=fixed;html=1;points=[];align=center;fontSize=12;image=img/lib/azure2/general/File.svg;" parent="1" vertex="1">
          <mxGeometry x="112.25" y="320" width="16.23" height="20" as="geometry" />
        </mxCell>
        <mxCell id="J40c5jk9J6KKINpNhk3b-34" value="" style="endArrow=none;html=1;rounded=0;" parent="1" edge="1">
          <mxGeometry width="50" height="50" relative="1" as="geometry">
            <mxPoint x="62.5" y="389.38" as="sourcePoint" />
            <mxPoint x="162.5" y="389.38" as="targetPoint" />
          </mxGeometry>
        </mxCell>
        <mxCell id="J40c5jk9J6KKINpNhk3b-35" value="&lt;font style=&quot;font-size: 13px;&quot;&gt;&lt;b style=&quot;&quot;&gt;Object Type: &lt;/b&gt;CSV File&lt;/font&gt;&lt;div&gt;&lt;font style=&quot;font-size: 13px;&quot;&gt;&lt;b style=&quot;&quot;&gt;Interface: &lt;/b&gt;Files in Folder&lt;/font&gt;&lt;/div&gt;" style="text;html=1;align=left;verticalAlign=middle;whiteSpace=wrap;rounded=0;" parent="1" vertex="1">
          <mxGeometry x="45" y="430" width="135" height="30" as="geometry" />
        </mxCell>
        <mxCell id="J40c5jk9J6KKINpNhk3b-36" value="&lt;b&gt;Raw&lt;/b&gt;" style="html=1;verticalLabelPosition=bottom;align=center;labelBackgroundColor=#ffffff;verticalAlign=top;strokeWidth=2;strokeColor=#d79b00;shadow=0;dashed=0;shape=mxgraph.ios7.icons.data;fillColor=#ffe6cc;" parent="1" vertex="1">
          <mxGeometry x="314" y="205" width="52" height="60" as="geometry" />
        </mxCell>
        <mxCell id="J40c5jk9J6KKINpNhk3b-37" value="&lt;font style=&quot;font-size: 10px;&quot;&gt;&lt;b&gt;Cleaned, Unstructured&lt;/b&gt;&lt;/font&gt;&lt;div&gt;&lt;font style=&quot;font-size: 10px;&quot;&gt;&lt;b&gt;Data&lt;/b&gt;&lt;/font&gt;&lt;/div&gt;" style="html=1;verticalLabelPosition=bottom;align=center;labelBackgroundColor=#ffffff;verticalAlign=top;strokeWidth=2;strokeColor=#666666;shadow=0;dashed=0;shape=mxgraph.ios7.icons.data;fillColor=#f5f5f5;fontColor=#333333;" parent="1" vertex="1">
          <mxGeometry x="489" y="210" width="52" height="60" as="geometry" />
        </mxCell>
        <mxCell id="J40c5jk9J6KKINpNhk3b-38" value="&lt;b&gt;&lt;font style=&quot;font-size: 10px;&quot;&gt;Business Ready Data&lt;/font&gt;&lt;/b&gt;" style="html=1;verticalLabelPosition=bottom;align=center;labelBackgroundColor=#ffffff;verticalAlign=top;strokeWidth=2;strokeColor=#d6b656;shadow=0;dashed=0;shape=mxgraph.ios7.icons.data;fillColor=#fff2cc;" parent="1" vertex="1">
          <mxGeometry x="649" y="210" width="52" height="60" as="geometry" />
        </mxCell>
        <mxCell id="J40c5jk9J6KKINpNhk3b-40" value="" style="shape=singleArrow;whiteSpace=wrap;html=1;fillColor=#dae8fc;strokeColor=#6c8ebf;" parent="1" vertex="1">
          <mxGeometry x="180" y="230" width="90" height="30" as="geometry" />
        </mxCell>
        <mxCell id="J40c5jk9J6KKINpNhk3b-44" value="" style="shape=singleArrow;whiteSpace=wrap;html=1;fillColor=#dae8fc;strokeColor=#6c8ebf;" parent="1" vertex="1">
          <mxGeometry x="400" y="230" width="80" height="30" as="geometry" />
        </mxCell>
        <mxCell id="J40c5jk9J6KKINpNhk3b-45" value="" style="shape=singleArrow;whiteSpace=wrap;html=1;fillColor=#dae8fc;strokeColor=#6c8ebf;" parent="1" vertex="1">
          <mxGeometry x="550" y="230" width="80" height="30" as="geometry" />
        </mxCell>
        <mxCell id="J40c5jk9J6KKINpNhk3b-46" value="&lt;font style=&quot;font-size: 10px;&quot;&gt;&lt;b style=&quot;&quot;&gt;Object Type: &lt;/b&gt;Tables&lt;/font&gt;&lt;div&gt;&lt;font style=&quot;font-size: 10px;&quot;&gt;&lt;b&gt;Load:&amp;nbsp;&lt;/b&gt;&amp;nbsp;&lt;/font&gt;&lt;/div&gt;&lt;div&gt;&lt;ul&gt;&lt;li&gt;&lt;font style=&quot;font-size: 10px;&quot;&gt;Batch Processing&lt;/font&gt;&lt;/li&gt;&lt;li&gt;&lt;font style=&quot;font-size: 10px;&quot;&gt;Full Load&lt;/font&gt;&lt;/li&gt;&lt;li&gt;&lt;font style=&quot;font-size: 10px;&quot;&gt;Truncate &amp;amp; Insert&lt;/font&gt;&lt;/li&gt;&lt;/ul&gt;&lt;b&gt;&lt;font style=&quot;font-size: 10px;&quot;&gt;No transformations&lt;/font&gt;&lt;/b&gt;&lt;/div&gt;&lt;div&gt;&lt;b&gt;&lt;font style=&quot;font-size: 10px;&quot;&gt;Data Model: None (as-is)&lt;/font&gt;&lt;/b&gt;&lt;/div&gt;" style="text;html=1;align=left;verticalAlign=middle;whiteSpace=wrap;rounded=0;" parent="1" vertex="1">
          <mxGeometry x="280" y="360" width="130" height="80" as="geometry" />
        </mxCell>
        <mxCell id="J40c5jk9J6KKINpNhk3b-47" value="&lt;div style=&quot;line-height: 90%;&quot;&gt;&lt;font style=&quot;line-height: 90%; font-size: 10px;&quot;&gt;&lt;b style=&quot;&quot;&gt;Object Type: &lt;/b&gt;Tables&lt;/font&gt;&lt;div&gt;&lt;b&gt;&lt;font style=&quot;line-height: 90%; font-size: 10px;&quot;&gt;Load:&amp;nbsp;&lt;/font&gt;&lt;/b&gt;&lt;/div&gt;&lt;div&gt;&lt;ul&gt;&lt;li&gt;&lt;font style=&quot;line-height: 90%; font-size: 10px;&quot;&gt;Batch processing&amp;nbsp;&lt;/font&gt;&lt;/li&gt;&lt;li&gt;&lt;font style=&quot;line-height: 90%; font-size: 10px;&quot;&gt;Full Load&lt;/font&gt;&lt;/li&gt;&lt;li&gt;&lt;font style=&quot;line-height: 90%; font-size: 10px;&quot;&gt;Truncate &amp;amp; Insert&lt;/font&gt;&lt;/li&gt;&lt;/ul&gt;&lt;b&gt;&lt;font style=&quot;line-height: 90%; font-size: 10px;&quot;&gt;Transformations:&lt;/font&gt;&lt;/b&gt;&lt;/div&gt;&lt;div&gt;&lt;ul&gt;&lt;li&gt;&lt;font style=&quot;line-height: 90%; font-size: 10px;&quot;&gt;Data Cleansing&lt;/font&gt;&lt;/li&gt;&lt;li&gt;&lt;font style=&quot;line-height: 90%; font-size: 10px;&quot;&gt;Data Standardisation&lt;/font&gt;&lt;/li&gt;&lt;li&gt;&lt;font style=&quot;line-height: 90%; font-size: 10px;&quot;&gt;Data Normalisation&lt;/font&gt;&lt;/li&gt;&lt;li&gt;&lt;font style=&quot;line-height: 90%; font-size: 10px;&quot;&gt;Derived Columns&amp;nbsp;&lt;br&gt;&lt;/font&gt;&lt;/li&gt;&lt;li&gt;&lt;font style=&quot;line-height: 90%; font-size: 10px;&quot;&gt;Data Enrichment&lt;/font&gt;&lt;/li&gt;&lt;/ul&gt;&lt;font style=&quot;line-height: 90%; font-size: 10px;&quot;&gt;&lt;b style=&quot;&quot;&gt;Data Model: &lt;/b&gt;None (as-is)&lt;/font&gt;&lt;/div&gt;&lt;/div&gt;" style="text;html=1;align=left;verticalAlign=middle;whiteSpace=wrap;rounded=0;" parent="1" vertex="1">
          <mxGeometry x="445" y="410" width="130" height="50" as="geometry" />
        </mxCell>
        <mxCell id="J40c5jk9J6KKINpNhk3b-56" value="" style="endArrow=none;html=1;rounded=0;" parent="1" edge="1">
          <mxGeometry width="50" height="50" relative="1" as="geometry">
            <mxPoint x="290" y="318.75" as="sourcePoint" />
            <mxPoint x="390" y="318.75" as="targetPoint" />
          </mxGeometry>
        </mxCell>
        <mxCell id="J40c5jk9J6KKINpNhk3b-57" value="" style="endArrow=none;html=1;rounded=0;" parent="1" edge="1">
          <mxGeometry width="50" height="50" relative="1" as="geometry">
            <mxPoint x="465" y="319.37" as="sourcePoint" />
            <mxPoint x="565" y="319.37" as="targetPoint" />
          </mxGeometry>
        </mxCell>
        <mxCell id="J40c5jk9J6KKINpNhk3b-58" value="" style="endArrow=none;html=1;rounded=0;" parent="1" edge="1">
          <mxGeometry width="50" height="50" relative="1" as="geometry">
            <mxPoint x="625" y="320" as="sourcePoint" />
            <mxPoint x="725" y="320" as="targetPoint" />
          </mxGeometry>
        </mxCell>
        <mxCell id="J40c5jk9J6KKINpNhk3b-59" value="&lt;div style=&quot;line-height: 100%;&quot;&gt;&lt;font style=&quot;font-size: 10px; line-height: 100%;&quot;&gt;&lt;b&gt;Object Type:&amp;nbsp;&lt;/b&gt;&amp;nbsp;Views&lt;/font&gt;&lt;div&gt;&lt;b&gt;&lt;font style=&quot;font-size: 10px; line-height: 100%;&quot;&gt;No Load&lt;/font&gt;&lt;/b&gt;&lt;/div&gt;&lt;div&gt;&lt;b&gt;&lt;font style=&quot;font-size: 10px; line-height: 100%;&quot;&gt;Tranformations:&amp;nbsp;&lt;/font&gt;&lt;/b&gt;&lt;/div&gt;&lt;div&gt;&lt;ul&gt;&lt;li&gt;&lt;font style=&quot;font-size: 10px; line-height: 100%;&quot;&gt;Data Integrations&lt;/font&gt;&lt;/li&gt;&lt;li&gt;&lt;font style=&quot;font-size: 10px; line-height: 100%;&quot;&gt;Aggregations&lt;/font&gt;&lt;/li&gt;&lt;li&gt;&lt;font style=&quot;font-size: 10px; line-height: 100%;&quot;&gt;Business Logics&lt;/font&gt;&lt;/li&gt;&lt;/ul&gt;&lt;b&gt;&lt;font style=&quot;font-size: 10px; line-height: 100%;&quot;&gt;Data Model:&amp;nbsp;&lt;/font&gt;&lt;/b&gt;&lt;/div&gt;&lt;div&gt;&lt;ul&gt;&lt;li&gt;&lt;font style=&quot;font-size: 10px; line-height: 100%;&quot;&gt;Star Schema&lt;/font&gt;&lt;/li&gt;&lt;li&gt;&lt;font style=&quot;font-size: 10px; line-height: 100%;&quot;&gt;Flat Table&lt;/font&gt;&lt;/li&gt;&lt;li&gt;&lt;font style=&quot;font-size: 10px; line-height: 100%;&quot;&gt;Aggregate Table&lt;/font&gt;&lt;/li&gt;&lt;/ul&gt;&lt;/div&gt;&lt;/div&gt;" style="text;html=1;align=left;verticalAlign=middle;whiteSpace=wrap;rounded=0;" parent="1" vertex="1">
          <mxGeometry x="617.5" y="340" width="115" height="190" as="geometry" />
        </mxCell>
        <mxCell id="J40c5jk9J6KKINpNhk3b-60" value="&lt;b&gt;&amp;nbsp;&lt;/b&gt;" style="image;aspect=fixed;html=1;points=[];align=center;fontSize=12;image=img/lib/azure2/power_platform/PowerBI.svg;" parent="1" vertex="1">
          <mxGeometry x="860" y="184.5" width="27.75" height="37" as="geometry" />
        </mxCell>
        <mxCell id="J40c5jk9J6KKINpNhk3b-62" value="" style="shape=image;verticalLabelPosition=bottom;labelBackgroundColor=default;verticalAlign=top;aspect=fixed;imageAspect=0;image=data:image/png,iVBORw0KGgoAAAANSUhEUgAAAgAAAAIACAYAAAD0eNT6AAAAAXNSR0IArs4c6QAAIABJREFUeAHtfQeYFdX5/tm+sLvUhWVh6W3ZpS+9Lxhb7ARFjaJEinSIDXuiEUXBKEGNSrAlsTfsiMaYGBBQ+duNJYqoFJFmfunnz3fdwcvduXfKd2bmzMzL8yz33pk5Z855z3u+7z1dCPwDAkAACAABIAAEgAAQAAJAAAgAASAABIAAEAACQAAIAAEgAASAABAAAkAACAABIAAEgAAQAAJAAAgAASAABIAAEAACQAAIAAEgAASAABAAAkAACAABIAAEgAAQAAJAAAgAASAABIAAEAACQAAIAAEgAASAABAAAkAACAABIAAEgAAQAAJAAAgAASAABIAAEAACQAAIAAEgAASAABAAAkAACAABIAAEgAAQAAJAAAgAASAABIAAEAACQAAIAAEgAASAABAAAkAACAABIAAEgAAQAAJAAAgAASAABIAAEAACQAAIAAEgAASAABAAAkAACAABIAAEgAAQAAJAAAgAASAABIAAEAACQAAIAAEgAASAABAAAkAACAABIAAEgAAQAAJAAAgAASAABIAAEAACQAAIAAEgAASAABAAAkAACAABIAAEgAAQAAJAAAgAASAABIAAEAACQAAIAAEgAASAABAAAkAACAABIAAEgAAQAAJAAAgAASAABIAAEAACQAAIAAEgAASAABAAAkAACAABIAAEgAAQAAJAAAgAASAABIAAEAACQAAIAAEgAASAABAAAkAACAABIAAEgAAQAAJAAAgAASAABIAAEAACQAAIAAEgAASAABAAAkAACAABIAAEgAAQAAJAAAgAASAABIAAEAACQAAIAAEgAASAABAAAkAACAABIAAEgAAQAAJAAAgAASAABIAAEAACQAAIAAEgAASAABAAAkAACAABIAAEgAAQAAJAAAgAASAABIAAEAACQAAIAAEgAASAABAAAkAACAABIAAEgAAQAAJAAAgAASAABIAAEAACQAAIAAEgAASAABAAAkAACAABIAAEgAAQAAJAAAgAASAABIAAEAACQAAIAAEgAASAABAAAkAACAABIAAEgAAQAAJAAAgAASAABIAAEAACQAAIAAEgAASAABAAAkAACAABIAAEgAAQAAJAAAgAgSggUCaEOEkIcb0Q4hkhxPtCiJ1CiH8KIST+gAE4AA6AA+CACw6QDyFfQj7l6TofQ76mZRQcZ5jz0EwIMVMIsU4I8T8XBQthAHEEDoAD4AA44IYD5HP+IoSYIYRoGmZHGra0txZCLBVC7IPTh6IHB8ABcAAcCJgDe4UQ1wkhysPmTMOU3lwhxFwhxJ6AC9uNWkQYtDLAAXAAHIg2B77d71AvF0Lkh8mxhiGtXYUQr8HxQ+mDA+AAOAAOaM6BDUKIzmFwrGFI47FCiN2aFziUfbSVPcoX5QsOgANOOEA+6+gwOFid0zhJCPFvOH8ofnAAHAAHwIGQceA/QoipOjtYndN2Fmb3o8KHrMI7aSHgWbQowYHoc4BWC/xEZ0erY9qo25/UEyoIMAAHwAFwABwIMweoFxvDATaVRheM+UP4QPyBA+AAOBAhDtDqte42fWBsH8vDbH9U+ghV+jC3WpB2tLrBAbUcoNUBtJwd/9IgcB6MPwQAOAAOgAPgQEQ5sCCN74v9Zdrhj3ZUguoEBuAAOAAOgANR5AANBbSKvbc3AYC2941igSNPKFdwABwAB8ABgwOLTfxfrC/RwT7Y2x8VxKgg+AQXwAFwIKocoJ5uHCCUJHlmofWP3g9wABwAB8CBmHDg7CT/F/uvdKSvErVXXV0tFy9eLDds2CC3bdsmv/32W/wBA3AAHAAHwAHHHCAfQr6EfEpVVZUSH1Xn616JvdevA6BMxY5/BQUF8pe//KXcu3ev40KGSIBIAgfAAXAAHMjEgT179silS5fK/Px8FUKAdghsAREgxEnc1j85/6effhqOHwofHAAHwAFwwFMOPPXUU6pEwAQIACGu5wqAG264wdMCz6QKcQ+tBnAAHAAH4sWBJUuWqOgFWAIBIMTTHAFAY/7o9o9X5YOxRXmDA+BAkByg4YDKykquCHgCAkCIDzkCgCZnBEkEvBuGCBwAB8CB+HFg0aJFXAHwPgSAEDs4AmDjxo0QABjzAwfAAXAAHPCVA+vXr+cKgG0QAEL8kyMAtm7d6muhQ+nHT+mjzFHm4AA4kMoB8j0c3yWE+AcEAHP9f2qh4DcqKjgADoAD4IAfHGAKABIQsf/HUlF+FDLeAWMCDoAD4AA4kMoBCAC+foEAwNgdhnHAAXAAHAgdByAAIABCR9pUFYvfaNmAA+AAOOCcAxAAEAAQAGi5gAPgADgQQw5AAEAAoOLHsOKjteS8tQTMgFnUOAABAAEAAQABAA6AA+BADDkAAQABgIofw4oftZYM8oPWOTjgnAMQABAAEAAQAOAAOAAOxJADEAAQAKj4Maz4aC05by0BM2AWNQ5AAEAAQABAAIAD4AA4EEMOQABAAKDix7DiR60lg/ygdQ4OOOcABAAEAAQABAA4AA6AAzHkAAQABAAqfgwrPlpLzltLwAyYRY0DEAAQABAAEADgADgADsSQAxAAEACo+DGs+FFrySA/aJ2DA845AAEAAQABAAEADoAD4EAMOQABAAGAih/Dio/WkvPWEjADZlHjAAQABAAEAAQAOAAOgAMx5AAEAAQAKn4MK37UWjLID1rn4IBzDkAAQABAAEAAgAPgADgQQw5AAEAAoOLHsOKjteS8tQTMgFnUOAABAAEAAQABAA6AA+BADDkAAQABgIofw4oftZYM8oPWOTjgnAMQABAAEAAQALHhwJ49e+TatWvlsmXL5FlnnSUPPfRQWVlZKSsqKmSTJk0Sf+3bt5fV1dXyqKOOknPnzpW33367fPvttyOB0bp16+S0adNk165dZW5urszPz5fdunWTU6dOlXSP60Q3bNggZ82aJXv06CGLioqkAgcT6TgII8Jq5syZcv369Wz8nZafgvLhe9CQx8AiqNMCw/POVS4wizdmu3fvlvfff7889dRTZbNmzVzX17Zt2yYM9erVq+W+fft8N9YcHu/YsUNOnjxZZmVlpc1/dna2nDJlity5c6fjvH3zzTcJYZGTk5M2fgXOJtJxE3YkzghLTlk7CaugTELuvvnJZ5HSSWHh2Xg7MpS/s/LfvHmzvPjii2Xr1q1ZddTMSFKr7cYbb5Rff/21b8babfmT8x85cqRtDEaNGuVIBJDDGjNmjO34zfDENXEAv9GjR/smAhTgzvegIY/hQMG5AdNtpUY4Z84AeMUHr23btslLL71UNmrUiFU37dRnGjq4+eabJQ0t6MoxGuqwk5fkZ2hIwG5+qNWaHBbfv3fmbrGYPn26bfztlpPZc27TlxQu5O6bn3wW+c0KBdfi46xQ1mrL+tFHH5U0hp9koHz5XlNTI1999VVfjLYTztB8B+rad4oHhbGTHxrzR7c/3+Gnlg9hStg6KWs3z6a+18VvvgcNeQyOK1cyyG4KDWHUOg3gGX48qSv+jDPOYNXF5Hrp5jtNqLvqqqu0mh9ALXk3eaEwdlqhNHnNbfwIl1k4zJ49GwIgBOKAVQHgfMLvfFCGwZbhe++9J/v378+qhyqd0QknnCC3bt3qufG2wzua4e82b7Q6wuod9Izb+BEuswCoqqqyxN+qfKzuKyiDELhob5PIqgBWBYT7wToX4K83/q+99pps06YNqw4qMIL13j9o0CC5ZcsWzw24FT8bNGhQL21280tL1KziLy4udh2/3XTE9TnC1gp/7n0F2HrrXUMQO6sCcAswbOFpidEzzzwjFy5cKMePH59ouZktzSopKZG9e/eWxx57rJw/f7586KGHJE3uClt+kV7vBASNUZeWlrLqnwIDmPb9xN/PP/88UM5yHDQEQOYWupfcobghAELg/bkkiIODIKe/YsUKecghh8iGDRumNZhWWNIYKy1RWrJkifzqq68CNaxxKDed8/jBBx9o2fJP5fDw4cMDXSrI6aKnpY5WHODEn4oVfh8sODAEAAFgWQGtKmiQ98lIU+u9efPmrp1+OqNA6pg2LaEu4CDziHd718JPh+327dtlz549lXMqHde41ydMmBAYRzmT9M4++2zLdNOuf1x8EP5gx2/ggUmAEACWFTCdkQzyOnXVUxc/p7VvVAKrT1ouQ+ucP/vss1BiFWQ5hfXdkyZNCp3ToU2DgsCbtpd1s0yPlgHa2Zp248aNruK3qtdxv09lRth6zRkFOIfDS3uYSpYx8rqA/Y7/nnvu8WTnNSui0j7uS5cu1WoJlt/Yx+F9xC8rLuh4n8Tw66+/7rlBN+OAm416KIxZXGbXaLmgjpiHOU0zZsywjb9Zmdi9pgAjD11rOKJmkd9uQen+HI3zc9YcKyBiohzoAJcvvvjCl8qje5lELX20tK68vJxV31TxzE08tF1uEGXidKteSqeTLY6dxu8GuziFqa2tlbt27fKFKwpwDYeX9jCVLIMUhEFQ/c53331X9uvXj4WDAiIeeH+nTp0SJ76pzifi83+8PxnzefPmHShjlXzxM667777bF8OejBt9JydNLfVMwwHU7U8tf7eHAVnF7yfOYXwXlQ21/P1y/sQLBTh56FrDETULxNSKGrbfb775pqRT0hQQSWkctA/8iy++GIixDVsZhiG9n3zyiS9zSrzmMW3Ms3fv3sB4SdvL0uQymmFOE2lpaIJm8tOEPztj/lZcMY4DpvhxHLD55L5kjlEZEFZz5szxZcw/tfyS0+Lyezi8tIepZDmu1AIJ0+9NmzZpvRQLIiDYFrtKLnvR+s9pVC6LBp0hm024Rbac/qwsP/cN2Wr+q4nvzSbcLIsGni7pGZeGMW04msegEhvEFR2e+12WCrjtoWsNR9RpK7odcP0ucFXv+/jjj7V2/gb2tKEQHYiiKt+Ix39jS13SZptFGWXs9DOnpEw2OfoaWX7O67L8vP+X+e/cN2STI3+hVAgMGzYMfPzWfx6h7tbH3GndMXk+HF7aw1TGTgDs3r1bjhgxgpVvEyJ5Fl/nzp3ll19+CaMbUqN71113KeNGgx6Hy1bz/pLZ6ZuIglZzX5ENKg9Xko6srCxJQ2dwSPUdEjDxFxMFdthD1xqOqFlGIYyEnzt3LivPCkjn+P1HH300lgiGVAAcd9xxjsvbjGNFNafK8vM2OXb+3/cSbJIUh1ncTq9dcsklEAAh5WMYbXa6NDvlrcnz4fDSHqaSZRDSFYyu15944glJLRgTImh/7frrr4fRDZnRpdnrNFGKy7fCLqMTY/zfO3OLrn+TXoDvwm6Shd1/wE7P0KFDwcWQcVFXm8xJF7deeehXQxM1yxhwCs/vsLQ8Jcx7fzdt2lRu3rwZhjdEhvfZZ59l1S8ycDklrWSrea8wWv4HiwUaQqB5BBzjmZubi/MsQsRDv22tX+/jcLgubGgctVcJZRkCvwpaxXuuvvpqVl4VkI39fic7nKnADHHwxjQXLVrELvPGh1+uzPkbPQhNfngVO110Kib4weMH8OPhp8Ame+VXQxMvyxCEhcC0ux4tq1NAmEDjoJZXUFuyhqWsdUrnSSedxOILLeOzNds/bZf/wa1/QwBQnDnFLVlpu/baayEA0AsQKAcU2PPQOGqvEsoyAjoZ20xpWbx4MSufZkRrV5Yn559UKp9Y3EF+dF+l3P1MtfzHCz3lh/dVyiev7SAXnFQq27bMU/5e9ALwWg2ZeKL63pAhQ1jlX9T/ZOWtf0ME0B4CZry2ew08DA8PVfNal/jscjXDc1751dDEyzICuhAhUzr27dsnu3btyspnMoHal+XJ3yysSDj7f/+hl8z0939resq7Lm4r25SqEwK0NwDtK58pz7inh3Hm7jLZ7Ec3eSYAmo1fxqoTtLoBPNODZ3Eth2S77PJ7aBy1VwllGYEwEI9m/rskR71wE8c1kTuerMro9M0EwddPVssJtY3rxec2XUEdzxqG8tYpjdztZFtMecIzAUC7B7rlH4UbPnw4BACGAALlAIe/dWG98quhiZdlBHQytunSMmXKFFYeDZLNnVAq//Vi5ha/mfM3rlHYWeObK0lLUCezpcMY181bgnl5vJ4fN5v+GF38Vp+0bbDBbTefgwYNCtT4g3PmnIsTLm54mxImNI7aq4SyjEAYyEY76aUUuuPfJ45t7LjVbzj+5M9/vtBLHjmkxPH7U9NfWFgod+zYAQOseQuMTqhLLTsnv3UWAAMGDAD/NOdfGOwzJ41O6lKaZ73yq6GJl2WgOIXnR9i33nqLlT8iDU32++bpaiUCgMQADSGomBNAQxt+YIh3uG9pcVee6DwEMHLkSPAPAiBQDqRx6k5sfmgctVcJdQJWvWd1dw633nprvTQ7JQ1N4ktuxav4ftOCNux0nXfeeYFWPt3LXof0tWvXjlXOzX603LM5ANxJgOPHjwf/IAAC5YBTW27yvFd+NTTxsgyUDkY2UxrISZoUuu1rFS3ybM32dyoK/v58T0lxc9IGA+y+ZZ6JMyrv0Za5nDJu2H+iZwKAuwxw5syZgRp/leWEuPSvS2ZlxKlbdWFD46i9SijLQJkVik7XJkyYwMrfuae0UN76N8TC9ON4EwL79+8PA6x5C2zSpEks/tE2wF5tBJRd3IKVtiBWoqxbt07S/gO0rJc2xcrPz5fdunWTU6dOlXSPa3s2bNggZ82aJXv06CG5KzgUOCdW+fjxfsKIsCIxuH79ejb+TstPQR698quhiZdFMqcF5vfzNTU1rPw9fnUHzwTAo4s6sNJGZ8z7jSfe56ylpGL76caHXaa8F6DJkVeyuEeGd/Xq1b7xjya8Tp48OeNBXjThklb87Ny503G66NAmEhY5OTlsXBQ4pVCmgbAjDAlLv+yEAqxD46i9SiiLbH4VtNv3cDcA+uSBSs8EwNt3d2NhT+SnTY7cYoNwzpy5G7xefvlldhnTwT1qDwN6hb0NcEFBgW+rUMj504RDu8Z+1KhRjkQAOSxaVms3fjwnMmI1evRo30SAgrLwyq+GJt6MhWkFsBuj6GcY7hLAPc+qm/1vdP0bn7Q5kBW+VvchALx34hy+7tmzR8kZFAWdFR4H3HUcm3fkZDm4OAl71llnOU4vDQnYfQe1Wq3qGe5ndvqp+EyfPt02/nbLyey51Pe6+B0aR+1VQlnkNysUna516MDrZocA0NvB6sS1dGnhHghkGLWimlNl+XmbGMMBm2TDfrzDiYy0/OIXv/DFwK9du1a62UuBwrz66quWaaQxf3T7O3PuBgcyfRKmhG26OqHqeqY02LznlV8NTbyRFgCdOnVi5U/nIYCsrCwMAWg+CZAM3UMPPcTiYLIhK6w8zNVwQNncP8vC7j9Qkg5yrh988IHnxp2wo5Z8cv6dfLfTCqXJa07ixLP2xcLs2bM954iC8giNo/YqoawKoErJeRWPk7FDMzJ5OQnwkavas7Bv1aqV5xXMq3KJU7zPP/88q5xTeZlT3EI2+eFVsvyc16x7A855XTY58gpJqwlS43H7u7a21jfe0Qx/t+msrKy0TCc94zZ+hMssBqqqqizx59oBBWXglV8NTbysCsAtQK/Dn3LKKaz8nXOyd8sApx3LWwZIR816jR/i5w2BrFy5UtK2zQoMVb04copbyqIBp0k6MbDltKdlq59ukGVz/iRbTn9G0gZCdE+l4zfy8Mgjj/jGuwYNGtTLt5EOq09aombF3+LiYtfxW70/7vcJWyv8ufcVYBwaR+1VQlkVgFuAXodfuHAhK3+0Ze8/XuipfCWAio2AJk6c6HkF87p8ohr/3r175TnnnJNx2ZoC48Xitpv39+zZ09dhJ46DhgDI3EJ3U/5OwkAAeOWy1cbLMiK6G/B77rmHlT8i/B0Xqd8KeLmCrYAvv/xyCAAN5wBs3bpVHnXUUWzeOTG2fj376KOP+so5Thc9bVBjZZ848fuFeVjfgyEAtY7aq9hYhsqqggV9/7PPPnM1izi50rVtmSd3PqVuOSAdBtS6lLcNMKXvxRdftDRwQeMft/e//fbbsrqav7wzmX+6fD/88MN95xtnkt7ZZ59tmV7a9U8XfKOWDkwC9Mplq42XVQHCYOB79erFyiNVzPGjG8t/vdiLPRSg6jhgOmVu9+7dlgYuDOUTlTQ+++yzsrS0lM01HR0B8e3dd9/1nW+0vaybZXq0UsHO1rQbN250Fb+OZaRTmqjMCFuv67aCPKv1piGMjWWwvC5gFfHPnTuXlUeDZDNPaM4SASQgKA4jPs7n0Ucf7XnlUoF9XOJYvnx5Yl96TpnqHJYmMwZVlm426qEwdtNLywV1xj6MaZsxY4Zt/O2Wk9lzCrAJoctWm2QW+c0KRbdr1BJQQJREHBNqG8vtT1Q57gmgbn/qRVCVjt/+9re+VDDdylK39FAvDBk7VeWqYzxOdtXzonycbtVL2/p+/fXXtuuH0/h1LCOd0kTLRHft2mUbfw5nFORbrTcNYWws48UpPD/Dco9lTSYazQlYcUGF/L811qsDaLb/bxZWKBnzN9LQunVrdP9rMPlvy5Ytctw4/ra6Rrnq+HnIIYdowTVy0tRSzzQcQN3+1PJ3exiQVfw6lo9OaaKyITHsl/Mn/6Eg/yF02WqTzALRTyfOedftt9/OyqcZ0dqV5cm5E0olbRb04X2VctuqKrlvdU/5we+6y1XXdEjcUzHZL/XdF154oS/qmoN31MO+8cYbiSNpU8smSr9pEy1a0aBTWdL2sjS5jGaY0zKzhg0bSprJTxP+7Iz5W+XFOA6Y4sdxwNbLCKkMCKs5c+b4MuafWn4K6ptabxrC2FiOMbVAdPxNB7K4OVBEAblY2Jq9nyrcJ598opVR1rHMvUzTY489Jhs3VjecY1bOQV8bO3as3L59O3imQU+Tl1wOe9wK6kkIXbbaJLOclO4Eou7AE044gZVHBSRT9v4rrrgCRjlAo7xs2TKZl8dfwqkTp1LTMnnyZN+Oc9XdfiB9vJ0wvcYvlbsufqv1piGMjeWcvC5gTvybN2+WtF2uC1JoGYZONnQyuYmDHcIebPhoDHrSpEme8oLGsOkvKL5S79LNN98MgRmgwES9O7jeWeGhoK6E0GWrTTLL4FgVUFD3aUOWrl27svKmgFxK33/yySf7ug1rUGWn23s//fRTOXz4cKVlmcotcr733nuvfOGFFwLZSIhmbgexzl+3skZ6nDngoPFKrUcufqv1piGMjWXYgiaA2fv//Oc/y7KyMla+XBDJl/fRFrNfffUVWmk+tdLWrVsn27fnndpoxSWKn95jcJlmUV933XWSTnu0Csu93717d3n//fcfeLeRBnyGyxHGtby4/A+hv1aeZJaR0Y14jz/+eGJ2sAJisHDx8v3Us+HHLlu6la3f6aEWObXMvSxL6lmgHgazvO3YsSMhBLzYr37EiBHyd7/7naQJsmbvxjUIgDBwQEHdVO5QwxYhy8DpRJLbbrst8hO0DMKTY6KDjnTCPypp2bdvn7zssss8H4+nOQU0t8AObs8//3xiqVWXLl1c1Vdao923b1956aWXSlrCaOedeAYiQHcOGPaQ8Rk2f608va4MigG4LgShk/GysrJYeTHyFJZPyu/8+fPRilM4HECt7hNPPNFTHpEzvuaaa1w74ffff1/+/ve/lxdccIGkeSG0Xr9fv36SxEGnTp0S32kZ3+mnny5p1cjDDz8sv/zyS9fv06WOIx0QJKkcUGCrlTvUsEXIMnapBeL3b+rCpK1KFRAhtHGQA8DeAHzj+OGHH8oBAwZ4ygPquXnwwQfhjBWKNr9tDt7Hr2uqMFRg98Pmr5Wnl2XwVBWkm3iitsafQ+Y2bdrIl156CY7FpWN55ZVXZNu2bVl1war8OnfuLF977TWUkcsycmMjEEYfZ+1FWVjVORv3lTvUsEXIMnpeFKqdOD///HM5bNgwVtptkCNU8RcUFEg6lc4Ofnjme8N45513JraU9ZIP1CVPZwcA9+9xBxbAgssBBXU2bP5aeXpZTo5bgG7Ce73GP8jNWBQQWk6ZMsX25DI3+EclzN69e+U555zj+dwROiCFTg2MCm7IBxy3LhxQYC+VO9SwRRgqAfDqq69KOg1PQcGbxkGTqGiW9N133y07duxo+oxX71YZL00Ke++99+B00nQ30yE3xxxzjKflm5ubK5csWYIySFMGujgRpCO8gkaBzQybv1aeXpYR9LPyeL3Gf/DgwfKzzz47YLBpjsH1118ve/bsycLIjKSNGjVSHmfqe2gzpOeee+5AfvwsK53fRT1I1dXVnuJfWloqn332WWAP5w8OeMiBVJvn4rdyhxq2CFmG0C9D7/Uaf9phL9PpZ3/6058SR45ythdu0aKFpINWnn766cTSPdrtzeuDZSj+a6+9FkaozgiRUybn7MJQ2A5D4oJEhl91A+8JbwsWZccrOwX1OGz+Wnl6bRs2M7D9ILDXa/zpqGAnO6LRcrGVK1fKc889V06YMCGxdIyGC+iPZuNXVFRI6k0gUTFr1iy5YsUKuWnTJlOHsHr1al+2LZ44cWJGgeNHOQb9jl/96lcyPz+fxXezOpB8jcqchheCzivez3MswC8c+CXXPZfflTvUsEXIMoheVhRyyjShzWXBWoajjXRoxzcv82AnbhIUfpxa2Lt3b/nWW28Fnl87mKh8hibg0UQ8r3hE8RKXaEIhTSxUmXbEdbAjojMTpk2bljjoi+ZYkKDr1q1bYi+Q5PMU3OK2YcOGhGjv0aOHLCoq8pQzXvLRr7gJI8Jq5syZcv369b5zX0E+w+avlaeXRXK3Fc0qHO3IRq0pBQVsGgd1jd96662+EzZdvmlLWD82NGratKl89NFHtcl3OjxUXaeld7QEzyseUbyFhYWJHiFVaUY8Bzt9woPsAQ2fZdrtk1bvUIOB5u44xZDqHwkL2qXRS65EOW7CjjC0u7210zIye14BnsodatgiZBHerFC41zZv3pzoQldQuKZ5o93YHnvsMcdGgpsvO+FJlJBD8SrvFC8ZSur5oD3v7aQprM/49C0ZAAAgAElEQVTQag7OnA07ZVBeXo4NmDyc5EXcI+dPu13aKQ96ZtSoUY5EADmsMWPG2I7fbjri+tzo0aN9EwEKMA6bv1aeXhbxVTsHr9f408x4Oi5YdbpVxkfpa9euHatc7FQM6mGJ6tHCJPAaN27sKYY1NTXyr3/9q9ZcUsnLoOKiOTp2+Jz8DPWm2U0vtVqTw+K7YOMxffp02/jbLSez5xSUlXKHGrYIWYVtVihur5HjIwetoFBN46DWYFhmZ9NyRK+7rgnnKB4tTAfteN2VSwcGUcvULdcRrn43vxkma9eudXUqI/Vy0Z4hZnEmX6Mxf6+54pU90zlewpSwTcbai+8KMAibv1aeXlNnaRdYVYXqxxp/GlpQlV4/4qFJkAsWLMg47mm3nDI9F5Wjhakrl47YzZRX7j1yLLQqJerDJ37w2847OPNi7LRCafIalxMIb95jMHv2bM/trQLslTvUsEXIqgB2KrHVM0Gv8bdKX9D3f/vb30py0grInjaOsB8t/Omnn8rhw4enzZ8K7KgM7r33Xs+NWtB80+n9NMPfbdlVVlZalhU94zZ+hDN3/AYuVVVVlvhzuWa8i/EZNn+tPL2sCsAtQN3W+HPz41V4OkXO6wltVIlqa2sP2g3Rq/yojJeWf7Vv357FYysDQvGrWGamMt9xiKtBgwauy5WWqFlh5LWwtuJVlO8Ttlb4c+8rwE+5Qw1bhK4rGIHvtgDjssbfLT5m4WjC3tFHH80qLzsVhiYg0s6HZmmwc43WA99yyy2JnRMPP/zwxDphOmq3SZMmiT/aEZFaB4cccoikbtply5YlxmvddKtTi9xrI049C9TDYCfveMbe2L5dnDhlCwGQuYVuxxZwnoEACIcUYDkUuxU5+bm4rfFPzjv3OzlJ6jXxeuISLUX89a9/bcvp0eY3tL3xGWecIWlZnFuj0bx5c3nqqafKhx56yPL0PMKBljLSmLzb99kJR3nyc10zlx9RC8/poqcNaqzw4MRvhz9xfgZDABAA9SpgnNf4WxkjJ/dpmRtt6uO1gcl0tDD1SCxatMiTJYu0pTI5eNrIJxUXEpC0BbOXeSeBtXjx4nrvTk0Lfqtt8afiyZmkd/bZZ1uWH23V7SWP4hw3JgFCABxUAbHGX62xJDxpe1+vjQyda0DbFRvGmXZau/rqq2WzZs08fzet5b/kkksOLLmjdff9+/f39L30TlqVYuQXn2p56wRPGk5y09tFPUN2tqbduHGjq/i9rnNhj5/KjLB1UtZunlWAUzi8tIepZBlTu4WGNf7eGFFqDdNBPwoqQsY4jKOF16xZk9h73ev3pcZPBy0tXbqUNcSQGqfZb5poSTsI2uU1nvOG18m4utmoh8Ikx5HpO81DMeMCrrmfQ0Bnb2TCXNU9BWXkoWsNR9Qs8tspSKzx995I+nW0sNdj7goqtGs+jxs3Tn7xxRe+GC479QbPfFdvnG7VS9v6fv3117bL0Wn8QXI0DO+mlUS7du2yjT+H5wrwCIeX9jCVrg0mgW9VeLS3vZdn3tN2ttu3b7dMh1U6o3Dfr6OFFVQ6Fue8eD+NNdOpgVHgQRTzQE6aWuqZhgNInFLL3+1hQFbxe8G7KMVJZUMtf7+cP/FcAX4eutZwRM0CMZOxwRp/71v+qfj7dbSwgorH4p2q99NxssuXL4fj9/hAn1Seuv1N28vS5DKaYU7LzBo2bChpJj9N+LMz5m/1XuM4YIofxwFbDwFQGRBWc+bM8WXMP7X8FNiBcHhpxalsL4Q4fn+cl3MBTC0Q+o01/v47/uRyoNYSZwtVLifCEr60tFQ+99xzcP4hcf7JHMf3YG2MLvgrsDWKXau+0Y0QQtwghPhAAWgHWm+pRMAaf30qph9HC6vkkp9xVVdXy3feeQfOH84fHAgxBxTYDH09toKUNRRCzBdCvKcAqANOPzkucviGCMAaf32cv1Emfh0tnMwJ3b/TvJGtW7ce4K2BFT714y/KBGWSiQMKbI0CN6tfFHlCiAVCiK0KADJ1/Ea8FRUViR3j3nzzTU/3qqdlaOTMMpEB98yNhV9HCxuc0PWTDjw699xzJe1cCK6YcwW4AJcwcUCBrdHPezNTNEYI8Y4CYDI6/tT4M83OTX3W6W9am02b3oSJmLql1a+jhZ2WrV/P06EyK1euBIdC3N2rW51CeoIXSwrsB9Pd6hM8d39SaFLffxWA4sj5e/m+gQMH4iAWhUb7gQcekI0aNdKmfL3kjhF3q1at5EsvvQTnr5BHcH7BOz+UAZYBGvKjVAjxJ8PgReWTxmqT5xiA8GqMjl9HC+vAw5qamoO2MQaH1HAIOAJHHTigwMYYPjS0n51Vz+xXACq7hXnWWWcllhPqQLIopsGvo4WD5NKJJ54IAYlWP3p+IswBBfYltI6fEt5RCLFZAQhsh60qDTRRizYQiqLT1S1PXh8t3LhFoRxyfDt58uV95OzfDJPnPzhaXvRYrZy9Ypg8+Wd9E/calRYq5x7tCEccovzphjnSg5YzOKCOAwr8TmgFQCshxIcKAFBugN2mibYMprXrqCDqKogdLB988EGlHGjcslAeM78q4ewvXjVWZvq78NFaedw51bKkeYGyNNBRwpjp7y+H7PAMz6BMVHPAra9JChdKAZAvhPhzUiaUGc+g4qQtJemMe9UEQXzWRocOa1JV7tWjyuS5947K6PTNBMG5942SVSNaKkvHs88+Cy5FuOsX9dq6XscBIwV2K5QCYLmCjCsztty0YI1/sJX5jDPOUMKFwce2lRc/nrnFb+b8D1x7fKwceHSFkrTQHJI4GEDkMdi6A/yDxZ/re8Lo/Q8VQvxPQcaVGFpuOrDGP9gKRCfgNW/enM2FqpFljlv9Bxx/0jDBRY/Xyi4D+elp0aIF5gCgBwAiMOIc4PqfsAmAYiHEpwoyzTb4KtIwePBgSdsHQ0UHJwJod0VuWdJkv/MeGK1EAJAooCEEFXMCNm3aBG5F3AHAdgRnO3TAnmu7wiYALlOQYbbBV5EGrPHXo+LSUbjc8qRJfGatec61I2d2Z6frtttugwCAAAAHIswBru0KkwBoKYTYqyDDbMPKTcNPfvITrPHXpFJOmTKFxYdGpQW2Zvs7FQMXPlIrKW4O1+hIZB1aKUiDHmIX5RC9cuDYh7qwodEAP1OQ2YMMatvCfDmnXSv5SN/u8t3hfeW2MQPk7rED5TvD+8hH+3aXc9uVy4rC/IPCqEgDtTpRGfWojCNGjGCV77AftVfe+jfEwoAj27DSdthhh4FnmghN1Hc96nvUykGBPwqFACgQQnylILMJg9qusEDeWtUp4ez3jRskM/3tGjtQ/qa6s2xdoE4I9OrVC4ZZE8NcWVnJcrITL+vjmQA46dLerLT17dsXPNOEZ1FzPMiPHoJGgU8MhQAYryCjCWM6oay5/GJ0TUanbyYIvhxdI08oa8YyyMl5eO6552CcNTDOtAQzuVycfp+zcrhnAuDsW4aw0ta6dWtwTAOOwVnq4SyjWA5O7ZXJ86EQAPeaJNyxcZzVrpXca9HiN3P+xjUKO6NtK8fvNUv79OnTYZw1MM75+byenQseGuOZAKDNgcy4Y/canXoYRaOHPMGhggPfccCuLcjwnPYCgHb9Y0/+G1/WzHGr33D8yZ8kAlT0BLRv3x7GWQMBUFRUxHKyOguA0tJScEwDjsFZQbB4xYEMjt2uXdNeAAzmZpIm+20d47zbP9nxJ3+n4YByBXMCNmzYAAMdsIGO8hAAnQngleFBvHBq4EDwHOD6Ru29vxBiATeTNIkv2YGr+H5bdSe7CivtczfffDMMdMACgHZi5PDL00mAl/AmAVLeYKSDN9IoA5SBVxzg2K66sNprgJWcTLYpyLc129+pKPhm7EBJcXPSNnv2bBjogAXAyJEjWWU4dLx3ywBrmMsADz30UPArYH55ZfgRL0QFcYDjf8IiAP7IyeSC9uXKW/+GWKBJhZy01dbWwkAHbKCnTZvGKkPasveix2qVTwRUsRHQrFmzfOfXq6++KmfMmCF79OghaX4F/dH3mTNnyvXr1/ueHjhKOMooc4Djf8IiAFh7/z/Ut5tnAuDhvrztWrt37w6DGLAAuOGGG1gCgCrRsQuqlAuAI2bwuEXporz5Zfx27twpaVfF7OzstHjm5ORIElzffPONb+nyK/94D4RGEByIgwDYycnk+yP6eiYA3hrWJ62xs5NmmoAWBGnwzu+N1R/+8AdWGVI5NyotlOfdr/gwoGa8bYApXdQa96OsyfmPGmV/yeLo0aMhAgIWvn7wAu/43s54hYUdP2PxjPZzAP5pkYGMBnx77QDPBADFzUlbYWGhLwbaK/JFId49e/ZIWi7HKUcK22N4S3nx42PZPQGqjgMuLy/37Tjgs846yzF+2AfDe+cQhfqJPGTmCdduae/9hRAsAfCVwuV/xti/8UlLCzkF0LBhQwgADVpCp5xyCqscDQ4MPLqCJwIeHyspDiM+zuePf/xjX7hFvQyZuv3T5YGGA7AMNrNxh/MDPlYcSFe/HFzXXgOwhgDeGNrbsx4AOjTIAdD1nq2oqPDFSFuRKO73f/e739UrG7flWjWipTzn3lGOewLOvXdUohfB7XtTwz344IO+cIsm96W+2+5vrIKBg4u77eHm325dy/Cc9gKANQmQJuoZLXbVnzTBMAOwlvd69+7ti5Hmkizq4WlSGnWZc8oyOSzNCThmXg954aPWqwNotv8x86tkiYIxfyMNHTp0kHv37vWFW5zDlKqqqnxJY9T5i/zFV0gZdZ7xqb0AYC0DnFpR5pkA4C4DHDNmDAygBkMAZEAvv/xyZQLAqIyNWxTKwce2lbRZ0OwVw+Q5vx8lFz48Rs68baiceHmfxD2Vjt9475VXXukbr4qLi13jRmHhvOLrvFD2/LI36jzjU3sB8BtG5hKb9dCRvqpb/xRnRSFvI6CpU6fCAGoiAD777DNJczI4XNMhLB0AtHnzZt94xc0znADfCQDD+GLIrX/ae38hxHxuJpdVdlQuAG6p4m8FfPvtt/tmqGEkrI3EhRdeGHoBcNVVV/nKKW7dBC+teQmMgFE6DnDrXxgEwCBuJungHpWrAbaMrmG3/ilPmzZt8tVYpyMRrn9nYHbs2CE7duwYWhHQqVMnSWvy/SxPbt30M614Fxxp1DjArX9hEAB5+w8E2sPN6JGlTeSesYPYPQF0HPDxLZuxnQStPd+3b5+vxjpq5PciPzR7nsu1IMJnZWXJhx9+2Hc+cfPqRRkiTjj6uHCAW//CIAAojb9XkFE5raKMJQLI+dOkQhVpmTx5su/GOi6VgptPmpuhooz9jGPu3LmB8ImbR25ZITycfZw5wK1/YREAJyjIaMKoH1HaRH45usZxTwANIRzTsqkyx7BmzZpADHacK4vdvNOywEGDBikra1XcTRfP4MGD5a5duwLhU7o02b1ut0zwHBw9OFCfA3brWYbnQqEB8oUQX2bIhCNj3aogT95Y2UHaWR1Az9xa1Yl99G9y2umcdnT/1yezThX8gw8+kK1bt3bEq+Qy9us7jft/+OGHgTh/Ki9uPnUqc6RF7zqJ8qlfPtz6FwrvX5fIyxRk9iCD1bogX55V0VLShj4bh/SStLXvtjED5LvD+8oH+nSTc9uVSxILqt/r90xtVJz6FccOJjRJU2cRQDtJvvPOO4E5f8KQWzfslAOeccdf4BZ93Lj1L0wCoMX+JYG7FWSYbbQ4aaAd57Zv3x6o0YZhsG8YdBUB5PzfeOONwHnEqQsUFly0x8WvvvpKrly5Up5xxhmypqYmcYBVXh6/cUJx0IRkivPMM8+Ud9xxh9y6dSvKRZP9SazqB7f+hUkAUFovUZDhQAXAsmXLULlCUrmMyvf+++/LgQMHBsqbZN4PGzZMfvLJJ1rwKDldbr4bGOPTXAiQyDv99NN93aSKNsSaNGkSlimHwE65qXMpYUKlAYqEEJ+kZEAbw2yVrm7dusndu3drYbhhcM0NbjpcaH39lClTAucaHb1LkxTTpdPv61act7rvd3rD8j7ak2LOnDkyNzc3MM5R78C8efPk119/rQ3fwlJ+fqXTqn7ZuB8qAUCJPUQI8T8bGQus4piljSrTiy++iIoUAlWdqfLef//9sn379r5ziyb7rVq1Sjv+mHHdybVMWMf1Hg070UFJTnD08llaEfPRRx9px7248iM53wrKPXQCgBJ8o4KM+1rB/DygJZkg+O6spW8HL2qdXXDBBbJBgwaec6ikpESef/75kt5pJ21+P8Oth36nV/f3vfLKK4kxeS6uqsO3adNGrlu3TksO6l6mXqZPQTmHUgDQ7oAvK8i85wac0njooYdi2V/IW/5mlZgOELrkkktkWZmazaGS+dyiRYvECYVffPGF1kY3Oc1uvpvhGtdr1PKnCXlucPQjDImAjz/+WGs+xo07Cso9lAKAEl0mhPirAgA8rXB9+/aVW7ZsQaWJoAAwjA3ND7jnnnvkxIkTZdOm7jeLaty4sTz11FMlbUfs957+Rl6cfnLrn9P3RfV56uHRqds/XbnScEBYuBlVriTnK105ObgeWgFACW8vhPjMQWY9dfap6ejZs6evR7MmEwPf1Xf928GUJnmuXr1aLl26VP7kJz+RQ4cOTRww1Lx5c1lYWCizs7MlfafNoIYMGZJY1nXDDTfIl156SavJfXbySs+kct7pb7vvifpzNOHPKXZBPb9w4UI0aDRp0CjgQKgFACW+oxDiPQVAKK2ApOY//fRTVBRNKkrUHUhQ+ePWu6DSrdN7aalfkLP9nZZhcXExhgI0sWtOy87k+dALAMpAcyHEH00yp9Sp243/hBNOwGYamlQQnQx9FNNit06key6KmDjNE63zT4ePrtdpSazTfOJ59b2SCvgRCQFAmcjd/9/lQoj/KADFVYUkFX/FFVdgwh+cf2yMI7euxd0p0A5/tPEOF0e/wxcVFaGRo4GdU1DukREARkZGCCH+nwJgHFVKGs99+eWXY2P44264kf/vWjPcehZ3HGl7Xy6GQYW/8847Ye8CFgEKyt7wm5H6pGWCc1WeIJgO6Hbt2kmqCDjdT333VtydQxjyn65e2L0ehjx6mUba298uVro9N3nyZAgACACthUMDIcRsIcTbXlUebJMJx++lg9A9bm690j1/XqePDuHhYhhUeDofw2t8EH9m+6qg7LV24CoTN1QIsVQI8a4C0A5UWhA0M0GBT7Tx4daluPODloRyMQwqPG1WFffyCzr/CspepY8NTVwVQohj94N3GRfAoAmA90fbwepevqg/PP7l5+eHVgAUFBRAAGAIIDROP11CWRVQdwON9PEMNPDLjB8EQGZ8rPjDwS8nO0v++w+9WH+c91NYq/zhPo8fVvhxyy+dU4zTdQiAgFWsFclx31sjwsGXa4A4745CWA5+EAD61gu/uMnhT13YOPl607xCAEAAoCXjkgNcA+SXodT1PRz8IAAgADj8gQD4Tg9AALg0/roaVaTLP8PINUBxLysOfhAA/vFcV55y+AMBAAGAli/ED4sDXAOkq2H1K10c/CAAIAA4/IEAgABgGX+/jCTeo6+h4xqguJctBz8IAH3rhV+85vAHAgACAAIAPQAsDnANkF+GUtf3cPCDAIAA4PAHAgACgGX8dTWqSJd/hpFrgOJeVhz8IAD847muPOXwBwIgRgJg69at8pVXXkmcW7Bo0SI5Z84cefLJJ8sf/OAHsn///rJbt26yoqJCNmnSRNJ536nEotO/6F5paans3LlzIkxtba2ko4/PPvtsefnll8tbb71VPvHEE/Ktt96Su3fvhriIQe9CKk+c/lZlWOlUPTpYh/bWp+11iad5eXn1eOw0fRQHxUVxnnnmmfKOO+5Qegqe0/QkPw8BAAGQzAeX37/zgjH+n2UkVBkwVfG888478r777pO/+MUvEgZr5MiRsry8nJVHN8Qiw0lC4dBDD5Xz58+XK1askGvXrpW7du2CMIiQMHDDjeQwXN6/8cYb8vTTT/f1SF06vnfSpEly06ZNbC4nY+H0OwQABIBTzpg8H2PXH/IegG3btslVq1bJhQsXJhxtGPYVb9CggRwxYoQ8//zz5WOPPaa0NcV1Jgjv3KCaGBRHYtMt5jt27Ej0YuXm5jp6Hze9yeFJ5M6bN09yDgRLjs/pdwgA53x1yzddwznljMnzEAAmoNg2Kn4Sg7rVn3nmGXnOOefIIUOGKOni5ORdRdicnBzZp08fOWPGDHnPPffIzz//nN2q8rNM4v4uLgfc4Ect76qqKtt1lJtGq/CDBg2SH330kSveWsWd6T4EAARAJn7YvAcBYBMoU4PjxoA5CbN582Z5yy23yOOOO042atTINA2c9OsWlgTB8OHD5ZVXXik3btzoyqg6wRfP8owolz9O8ad5LDQmz32v6vBt2rSR69atc8xXTjogAHjcdco9HZ/n8KcuLAQAB0QvSEFO/1e/+pUcN26cDLKLk4OLqrCVlZXy4osvlq+//rpj4+pF2SDOg40ut5yd4Ektfx2dv4EBiYCPP/7YEU+NsG4+IQAO5qITLkXlWTe8SQkDAZACiKPWhSoi0eS4+++/Xx5zzDEyzEeEcrC0CktDBddee60kgaQKd8TDM6JWZWZ13y7+NOavU7d/unzRcMDOnTtt8zNdPHauQwDwuGuXezo/Z4cnFs9AAFgAlFEQcMnx9ttvJ2bJt2jRIuN7OGmMWlg6h5yWH9KSw3379tk2ttyyQvj6BpfLLbuY0rJV7rv8Ck+Tcu3mi5MmCID6fLSLe1Se4/CnLiwEAAdEN0Qip0Uz4I844giZnZ0dGsPGwcmrsN27d5e//OUvsZogoKWF3HK1U39oqV+YhsJoHw27QwEc/CAAIAA4/KkLCwHAAdGOATOeoW7+22+/XVZXV8PpC6EUg8aNGydWR/ztb3+z3foyygWf7g0pp+5QWDvY0zp/7nv8Dj9lyhRbeeOkCwLAPW/t8C4Mz3D4UxcWAoADoh2S0JjgddddJ9u2bRs6Q8bBJoiwtM/AtGnT5LvvvmvLANspPzyT3tByy9gKW9rhjzbe4b7H7/C0cybtvmmVP066IADS89IK96jc5/CnLiwEAAfETESiFv+NN94oaXYw5x0I67y3gCZSTp8+3fX67EzlinvfG14uN62wpO19ue8IKvydd97pqQDIzhby33/oxfrjYmNVfrj/fV3xAgtu+cXe+3MBNCtUGuMnw9WhQ4fQGi8uLrqEp9bjggUL5BdffGFpjM3KEtcyGzBuOVvhS3v7c98RVPjJkydbco6TNgiAzNy04lYU7nP4Uxc29hqAZWBSSfTSSy/JoUOHsuJUUKh4f8ocg6ZNm8rFixfjkCLFkwW5XE2tP6m/6RAe7juCCk9LAlPzk/qbkzYMAUAAcPhTFxYCgAOiUaE//PBDOWHCBJmVlRVag8XBISxhaS35k08+aWmYjXLFZ2Yjyy13K3zDcL5FOgxoaa9V/tKFtXMdPQCZuWmFfRTu2+GJxTMQABYAZXToe/fulcuWLZMlJSUZn+O8A2GdzwGwwoz2EcCKAb4BtcLZ6r6VEQ7zpli0X4VV/qzwyXQfPQB8/lqVj+73M/HD5j0IAJtAmTr4/v37m17nxOlV2EZF2bK6Y6H84dASOf245vKqqa3YaR93Rmc58OgK2W1wqWzVqUQWNAzudDanuNGwwPLly7GZEGNYwCnmqc9bGdjU5538zsnKkvvGDWL9OXmf2bNe5g89ABAAZpxzeA0CwCFgbKfp9fvy87Jk364N5OmHN5XXziiXzy7tKL98rIfpbGFuWi5eNVam/s1ZOVyeekVfedjUbrLPIeWyRfsimZWt79DI2LFj5fvvv2/ZWrMy5nG8z+WPFWac+CEArFcIcPClsFblh/veihRu+cXe+ysAMHBBUNwgWx4yoFj+7Cdl8sUbO8m9z/U0dfZmS4a4+U91/ul+n//AaHn61f3lmB93kh37NJV5BTmB45acd9pI6LbbboNBc9gbkIyhm+9WDsJNnEYYCAAIACt+hf2+wXXGZ+w1gFaOyG5B9uhQIM87pYX84686y/9bY9/hp4oAu+9L91w6h291feEjY+RpV/WTQ45vJ5tX6LPRy/HHH48lgw5EQDpe2L1uZYDtxmP2HAQABIAVv8J+34z3Dq9BADgELBDBkJUl5NCeDeXis8vle7/tbruFn+rwU39z827l6O3en3HrUEnzCco6FQeCbzIOtH8DLecMu3HwI/3JuLn5bpVGN3EaYSAAIACs+BX2+wbXGZ8QAAzwPHdW7cvy5EWnt1Tq9JNFADfvdh28k+em3zRYjpzYQTYqLfQc33T5z8vLk4sWLYIIsOgNSIef3etWBthuPGbPQQBAAFjxK+z3zXjv8BoEgEPAPHdKeblZcuK4JvL5X3aS/3zBuhInO3Sn37l5d+LYnT570WO18qRLe8uug0oDm0R44oknyu3bt0MIpBECXP5YGWBO/BAA1raDgy+FtSo/3MckQN0VhucO3W4lo2V6s8Y3lx/dV6msi99KENhNW7rnnDp1t8/PWjFMDvtRe1lY5P8yw169esm3334bxs5EBKTjhd3rVg7Cbjxmz0VdAGAfAG+dqxU3dbhvxnuH13T3z56nL3ABQN38y+a1lrueqfbN8RvCwCFZ6mHl1qG7DXfuvaPkuDO7yKIm+fXSws1LpvClpaVyzZo1EAEpIiATZnbuWRlRO3GkeybqAiBK+wDQqY90fgqd/UDbP1N9o2G4dGVr9zrFQXFRnGeeeaa84447bJ3SaMVLXe7bxSHDc547WN1fwCZZBnAzxt2m9DvH/+1q97P4DUfu9tNt2o1wbh05N9z5D46Wh0zuIosa+ycECgsL5d133w0RkCQCDB64/bQypG7jpXAQAPoPAbzxxhvy9NNP9/XIZzogbNKkSXLTpk2hr8uc+lEXVnf/7Hn6MjppBQDXi7+saa5cMqvc0Xp9tw7eKhw3f1xHzg1P+wvUntZJ5jfwZ1+B7MTpmVcAACAASURBVOxsedVVV4XecFg5Xrv3ufyxeg8nfggAfQXAjh075Jw5c2Rurv9DeganqHdg3rx58uuvvw5tfTbywvj03MHq/oJ6DpoBZsa4aHLfgpNK5c6n/O/qTycEuHnlOnBV4effPULWHNFGZuf4s+MgGQ469tnKgUX9Ppc/Vvhw4ocA0FMAUMubDuXilK3KsHRq40cffRTKuqwAB939s+fp84WIPxhYLN+6q5vvY/zpHL9xnUsgVQ5cVTxTlw2SbXs09qVM6bx3OgzKyolF+T6XP1bYcOKHANBPALzyyiuJMXlOuXoRtk2bNnLdunWhq8sKsPDcwer8gjMUAJjR2VS0yJMPXtleO8cfVQGQEBKPj5VHzamUDUr4k4is+EHLBHfv3h06w2HleO3et8LH6r7Ve6zCZ7oPAaCXAKCWP03Iy1RmQd4jEfDxxx+Hqi4rwEtn/+xp2k4TQvxXAYBpCT3piKZy+xNV2jp/EgHc/KtquXsRz4J7RsrKYS3YebTCaMKECXLPnj2hMhxWjtfufStsrO5bvccqfKb7EAD6CAAa89ep2z8db2g4YOfOnaGpy+ny4eC6p05W18hPFUL8xwFIjpwIze5//OoOWjv+SPcApJxQePy51Z73BkycODGWIoBbh7wUANlZgnUUMB0lrHX+sgXbxnidP6N8acIf911+hV+4cCEEgK6eW0G6TvbS+Z84trH2rX7D+Ue9ByC5V2HuncNlh95NPTVCp512WuwmBnKNsuEg0n1y4ocA0KMHgJb6BTnb3ymHiouLQzMU4DRvJs8rcKnhieJoIcS/TUBgO4aCvCx549zWbEWe7Jz9+M7FItnJ6v6dthYefWpHT7cVnjt3bmhaD+mcrpPrXP5YvYsTPwSAHgKA1vlzyjGIsFOmTAlFPVaATXi8NzOlg4UQ3yoArB6ZO5Tny7W/7hI65x+nHoBkcXLaov6e7iQYp30CuPUJAkDUsyd2MQ3DToC0wx9tvGM3T7o8V1RUFIodAxXgxXSr4QjeRQixTQFY9Yh8+OASuW2V3hP9MvUkcDFJdqxh+j5n5TBZ3qWkXnly8aDwWVlZcsWKFaFoQVg5YKv7XLy8jB89AMH3AND2vlyOBBX+zjvv1L4OK8AmHB6ckcoWQoi/KgCqHpFnHN9c/uOF4LbxzeTY7d7j4hImp5+a1gseGiN7jmlVr1y5mFD4goIC+fzzz2tvQKwcsNV9LlZexg8BELwAoL39uRwJKjzt82HFz6DvK8CG4Vr1D1oghPiLApAOIjGdwnX97PCN95uJAi42qU41dL8fHytHTuxwUPlyMTHC05rnqJ8iaOTV7aeVAXUbL4WDAAheANAhPJwyDDLswIEDIQD09/EZU3i7agIVN8iWj4VkiZ+Zw0+9xsUndA4/ZYmgkX7aOMiLbYRp7fPWrVu1NyRWjjjdfS5/0sVrXOfEDwEQvABo3rx5aAVAixYttK+3nPpRFzajAw3zzakKwDmIvE2Kc+TLyzuHcrJfquM3fnMxMhxoFD5PurS3zM3PPqjMufhQ+PHjx2tvSAyH6/STi4/V+zjxQwAELwDy8/07rZPDFbOwNIxnxc+g75ul2+G1MPv4tGkfIoT4h0MgMhr+piU58pWbo+X8SQRwMYqC40/OA60Q8OJkwauvvlp7Y+LGmHH5Y/VOTvzYCTB4AcApv6zsLJlcN91857yfwlrxM+j73Pyl9aAhvlEmhPhcATAHnCMd3/v6b7pGquWPHoCxaY3LpGv6y4KGao8ppaNHV69erb1BcWrQuPXM6n2c+NEDAAHA4Q+FteJn0Pe5+QuxnzdNepYQ4mkFoBzk/HU8xc9w4NxPLlZuVHkYwpAIyCvMOcADLk4Uvm3btnLLli3aGxUnRo2Li9W7OPFDAEAAcPhDYa34GfR9bv5MvWiIL85WAMgBo9+oKFu+ems4N/ixKwy4eIXBmbtN46lX9lM+J+DYY4/V3qg4MWpc/li9ixM/hgAgADj8obBW/Az6Pjd/Ifb19ZJeLYT4uwJAEgKgQUG2fPHGTpHs9k8WB1y83DrXsISjiYGqVwfcfPPN2hsWu4aNyx+r93DiRw8ABACHPxTWip9B3+fmr54XDekFWu//ugIwEs4/LzcrUkv9kh1+6ncuZmFx5Jx00hJBLk7J4Wmb0bfeekt742LHuCXny813q3e4idMIAwEAAWBwwe2nFT+Dvu82X0nhQuryD0721UkZYhvr286riHzL3xACXNw4jjVMYVVvFjR27NhInBzI5Y+VAeXEDwEAAcDhD4W14mfQ97n5O9iNhvNXH5Un/M35UWlsnD+JAC6BwuTEWWl9fKzybYOXL1+uvYGxMnBc/ngZPwQABIDX/LTir9f3ufkLp8v/PtU5Qoh1CkBIOMJDBhTL/1sT7r39jZa93U8udiynmmZXPl3jpLMDVB4g1KhRo9CcO57OkHH5ky5e4zon/qgLgKwswW6scPClsEY5pfvkxI99AL71FN+6svnem4bw2xwOwZLD0pG+Xz7Wg12h7DpeXZ5LxsDNd12dtVfpmnvncFnSrIDdc2JgfdJJJ1lW8nTGVYfrRj7cflrlwW28FC7qAiAMxwFzyg8CAAIgkyapEELs4RDMCEsz/jfdEc2NfqyEhoGB20+vHK3O8Z52VT9JxsktZsnh6Ojgp59+OrQiIDkvbr5DAAjXPEIPQPrNvAz74YaTyWGs+Bn0/eS0uvyeycdqfe8+lxmuV+FuWtAmdi1/QxhwMTQqWtw+R53SsR6P3GJZWVkpd+3aFUoR4DbPRjgrA2o85+Yz6j0AkRcAWdgK2Mv6UVentHby6RI3WAjxPzdGITXM8aMaxdb5kwhIxcPp77g5fiO/Fz1eKzv2acrGz8B7yZIlEADf1u/yNPBx8xl1AYAhAPQAuKkXKWHS+Vhtr9N2v39OyYQrQ9yuLE9uW1UFASDcd0MaDjGOnzQfoEFJnivupfK3tLRUfvnll6ETAan5cPrbyxZO1AUAegAgAJzWN5PntXX06RL2I5NMODbCpJ7X3BD9nf6Mrv50n1ws4+j4k/N83E+rHHMvHeYLFiyAAEjpBUiHlZ3rEAAhXwaIIQBLe2CnHlg8k87Pank9XwjxV4sM2TLIU45pFuuWvyEIuFgmO8O4fu8+tIUtzllhXVhYKD/88EPLSm/VavbzvlWerO5bpdUqfKb7EAAQAJn4YeeeFT+Dvm8nDxbPaOno0yXqbIvM2DLErUvz5I4n4931DwFg3X1oV9DMv2eEsqGA6dOnQwAk9QJw6jsEAAQAhz8UNmgHb/V+bv7SOVodr+cJIT5RkGF5/8/bo/X/h++MAxdPu04y6s8dOVPNeQEFBQXy/fff197wGIaJyx8jnnSfnPijLgAwCdBaxHP4Q2HT8VKX69z86ejo06VpsoLMymNHxHvWv9HyNz65mEbdsdvNH60KqKhsbKsHygrzqVOnam94DANolRer+0Y86T6twme6H3UBgEmAEACZ+G/zXjp/q9X1XBVj/4X5WfKv93ZH67+u9U8iwCZJ0j5n10HG4bkpNw5SskFQw4YN5ebNm0MhArj8Sef4jeuc+CEAMATA4Q+FNXio6yc3f1p5+QyJ+bGCjMpzT2kB55/k/CEArFsQToVLv8NapxVLTjj8s5/9THvjQ0bRSZ7MnrUyrGZh7F6LugDAEIB1/bXLlXTPWfEz6Pvp0u3gega3q8+tTQ4yZGqUWjTJxcS/FOcPAWBtQJwKgHl3jZD5DXJMOeiEw23atAnF7oBO8mT2rJUBNQtj91qWEHLfuEGsP7vvSvecp/mL+mFAWAZo2QhIxzsH1/Xx8mlSMspBZtIa3mXzWqP1DwEgnTp0N8+P+XGntDx0wuWVK1daGgArB+P1fSf5MXvWKn1mYexegwDAEIBdrqR7zoqfQd9Pl24H19O4XX0us/f879q2IHbH/BqT/Kw+HRDF1Km5cZBRD3P+A6Nlw8b8HQIHDBgAAcDYpRICAAKAa9+CdvBW7+fmTx83b56SciHEv7iZXHFBBVr/Jq1/DAGoHwIwxM24MzqbCianXF6zZo3WIsBpflKf99LAYQ4ABEAq35z+tuJn0Ped5sfkeXPPq8nVn5kk2JFhbV+WJ//+fE8IAAgAX7r/DQFAvQBFjfMdcdWM6+PHj4cAcNkLgB4ACACzOuXkWtAO3ur9TvKS5llNXH39ZOQIIbakSbRtw4qx/8xGgIuv4fDwWb83Yewkfi8AbQy0ZcsWbUUAlz9eGjgIgMx1X0UPoKflh0mAlvWeW//qu119rhzKzVyrZrlyz7PVaP2naf2rMABw/PUdv4HJOfeOkvmF/BUBy5cvtzQEVobYq/vcOmqVLk78UR8CwEZA6eueUQc5/KGwVvwM+j43f/q4+/opuYubuSvOKoPzz+D8IQCsDYhhSNx+Djy6wnZvVTq+jx49WltDlC7Ndq9bGVC78Zg9hx4A9ACY8cLJNSt+Bn3fSV7SPFvf82pwpUgIsTdNgm0Z1Py8LLnlkR4QABAAvo79pwqFmbcNZe8OmJOTo+0pgZw6SmGtDCgnfggACAAOf+zw04q/Xt/n5k8DX2+aBPbOfycf0gTO38L5owfA+x4AEgRdBjS3JVozVearr77a0ll6bWzM4s+UZjv3zOJMvmYnjnTPYAgAAiAdN+xeT+aijt/t5iPDc6YOOOiLT2VIsC1j+sINnSAAIAACbf0bvQEnXtzbFmczcb6mpgYCwOFqAPQAQABkqlN27uno9JPTZCcPFs8E7evrvb9YCPEPi0RnNKg9OhTIf71oTX5qAcf9j4MzhTWcHD7T9yZc+GitLGlekJGzdsrhjTfe0E4E2El3pmeSjZnZ90xhre6hB8DavllhaHXfrMySr1mFz3Q/C6sALOt7Jvxs3qvngIO+cILNhKc1qNecXR57x25X2HCxhuNP7/iTsRk+oX1avtotgyuuuMLSICQbXz++2017uues0pgunJ3r6AEItwAQWfwGhh2eZHrGip9B38+Udpv3gvb39d6/0mbCTQ0qLY358L5KCACbvRscrClsspPD9/RiYOqyQaZ8dYJ/bW0tBICDYQAIgHALAPQAfGtZ353YjzTP1nPAQV7IFkJ8lSahtgzo8F5FcP42nT8mAaZ32F6ImRbti2xxOB3/CwsL5Y4dOyyNgp+tknRptXvdKq124zF7DgIAAsCMF06uWfEz6PtO8pLm2SD9fb13D0mTSNuG84a5OPXPbvc/BIC/AmDMafxTAletWgUBYLMXAAIg3AIAQwDx6wG4mCMAcrKz5OaHsfYfAsBfx263t2D6TYNtC9l09WD+/PkQABAACR5FfSdACID4CYDn0hk+O9eHVDdE97+D7n/0APgvFJq1bsgSAX379oUAgACIhQDAHIB4CYBcIcQeO44+3TOXnoGtf520/iEA/BcAg49tyxIA2dnZ8tNPP9VGBKSri3avW42h2o3H7DkMAYR7CAACIF4CYLBZJXZy7U83dUYPAHoAtF6Z8ONf9GMJAKoPd911FwSAjV4ACIBwCwAMAcRLAJzrxNmnPtu0JEf+44WeEAAQAFoLgIUPj5G5+dksETBz5kwIAAgAGfU5AOgBiJcAeCTVqTv5feLYxnD+Dp0/hgD8HwKgCYMdejdlCYAhQ4ZAAEAARF4AoAcgXgLgb04cfuqzy+Zh+Z/T8X8IgGAEwKhTOrIEAO0HsGvXLi1EQGo9dPobcwCEay5EvQcAAiA+AqCJEOJ/To1H8vNrf90FPQDoAdC6+99YLnjaVfx5AGvXroUAsOgFwBwAzAFI9hFuvlsJ1KDvu8lTSph6m/EEcWF0SqIcqeLC/Cz57WqM/6MHIJgWveHY7X6e98BomZWd5YjjqfVjxYoVEAAQAOxGTyqvnP62coBO4zvoeZwFYFnHD8LLoj6keTYIf1/vnXPSJM6WkRzWE+v/3Th/DAEEJxhK2/K2Bf7pT39qaRysjLOK+5x6S2Gt0sCJHz0A6AHg8McOP6346/V9bv7qeeKALtzOycjcCaVsJezWgYY9HAd3Cmu31YvnDhYbvce2siVu05XPEUccYek8vTY+FH+69Nm9bpVGu/GYPRd1AUB55tofM9ycXPOy/DAHID5zAF52QrrUZ28/v4JdEbgVKazhU7F0+huO/WDHbhePQ8/qynKenTp1ggCw6PKEAEAPgFN7lvq8lcAJ+n5qel38DqjNf/Brt7hI+AED+vJybADkVoBwcKewdh0enjtYKJz8s74H+OumDPLz8+XevXsDFwFu0p4cxsqAJj/r9HvUBQBWARxcp8xsjFPOpD5vxc+g76em18Xvgz1xAL8KhRD/dZHwAwZ026oq9AC4WAFAooGDO4U1q3S4Zm2YZv9mGBv7jz/+GAIgQy8ABAB6ALj2LWgHb/V+bv4C8Pf1XlnJyURZ01w4f5fOHwLA2lF7JmYeHyvzC3NYIuDll1+GAIAAYNk/ju2lsJ46KKwC8Bbf7+pOPYfs94UjOCQc1aeIVQHcdp1HJRwHewrrmYNcFaBz9undZR2LWQLg3nvvtTQQVgaae5/LH6v3c+PfN26Q5Pxx3+91/rh2SOv8QQBY1m9u+fnt7M3edzYnE6cd1hQCAD0AoRQiXQeVsgTAkiVLLA2ElQPi3ufUXQpr9X5u/BznT2G57/c6f5EWAAoaGF6Xn1X5en2fmz8zh+z3tUs5mTj3lBYQABAAoRQAA35YwXIwCxYssHSguhsgq/RxbAPmAGAOAIc/FNaKn0Hf5+bPb2dv9r4bOJlYOqscAgACIJQCYOykziwBcOKJJwZuoDh1146B5cQPAQABwOGPHX5CAJi5dGfX7uYU0j2XtoUACFAAcMoOYd0fBEPYjRo1KnABQMsROeW4devWjHngxE1hMQSQWQRw8bVygNz4uXOMuO+3yl/Q97n5c+aqvXn6KU4m1tzQCQIAAoDlhDj8CzJs3759MzpPP4xTs2bNWNhv3LgxYx64+EIAQABwOORHHeK8g5O3urDeeHUHsa7jZOL133SFAIAAYDkhDv+CDNulS5eMzpNjWOyG7dyZN4yxePHijHng4gsBAAHA4ZDdehDUc5y81YV14Kq9efQdTibe/113CAAXAuDrJ6vlhae1jKXj5PBNp7BlZWUZnacfRukHP/gBi0NVVVVyz549afPBxRsCAAKAwyE/6hDnHZy81YX1xqs7iPVDTiY+e6gHBIADAUDHJtPEyRZNclmGm1NmCMsb+zfwKy4uTus4OUbFSdhZs2axebR06dK0+TDy6vYTAgACwC13KJyTuhDEs5y81YV14Kq9efRTTiZ2PIltgO2sBf7nC73knRe1lR3KeZO2OGWFsGocv4FjYWFh4AbqzjvvZAsAmkj45JNPmubFyKvbTwgACAC33KFwQTh1J+/k5K0urDde3UGsX3Ay8ffne6IHwKIH4InFHWSfLoVsQ80pJ4RV6/wJz9zc3MAN1N/+9jeZlZXF5haJANrYKHU4gMsbCAAIAA6HnDjjIJ7l5K0urANX7c2j291mgk7D+teLmQlup3Uc1Wf+cksXWduft92s27JBOPUO3wzTffv2BS4CBg4cyBYARt569OghFy1aJNevXy9piaBx3e0nBEBm++gWVyOcldMznnP7iWWA32as325xTQrnjVd3EOuupMQ4rvDoAahfwd+9p5v80ZjGkgQSB1uE1R8/HY4Evv7668GzDIcSoR7pX4+8KqOioiJJonbmzJkJUWslmJzeV5BuB67am0dd9wBQ5nc/U40hgLohgM0P95DTjm0u83L5XbIKiAWn4LFT0GEIgAzW559/LmlCIjgTX0eHsrcu+5ycHDlt2jT5zTffZGzVOxEBCnD3xqs7iHUzJxPbn8AkQGNJX1FhNoywx06Xw1XVYRs2bKjMkDgxOmbPzpkzB9yLEfdUczlO8Y0ePVqZCFCAmwNX7c2jH3Ay8cWj8V0GiCV91qqbwy3dwzZu3FgbAfDRRx+hFwACACLQJgemT5+upO4qsFHeeHUHsW7iZOKj+ypjNwSAJX3xdvxGfWnVqpUSI2LWondzjSbvGWnDJzgKDqTnAA0HbNiwgV1/FWDswFV78+haTibW39YlVgIAS/rSVyoOj8IYtnv37mwD4sbRpwuze/du2a9fP4gAm63AMHIOaVZnf2bPns2uvwrKwxuv7iDWFziZePq6jrEQAFjSp67icfimU9hBgwaxDUg6Z+72+ptvvilLSkogAiACwAELDtA22G7rmRFOgT1y4Kq9efQ+TiaifhwwlvTB8aerH7QPv2EIdPp84IEHEpsUpUs3roPT4IBIzJnh1lsFOHrj1R3EeiMnEzfMbR3JHgBdlvT1LmkoH+nbnX2uOndDliiG/3mXtqxW0kknnaSlACCjdtNNNynZIZBjGxAWQkNnDqg4y0NB/hy4am8evZiTCTrRLko7+emypK9DgwK5orqz3DN2EJz/OG8wmFpRxhIAc+fO1VYAGCKA9irg1G+EhROPKgcwBPCdoJjCKeCTD2kSCQGgy5K+5nm5cnG3dnJn7UA4fo8cv9GbcURpE5ZzvPrqq7UWACQCaDigUaNGrHxy7APCQkDoygFMAvxOABzLKaBBPRqGWgDosqSvKCdbnt+xtfxydA0cv8eO3xAAPYsbshwjncTHHUP0IzxNDMTqADhijp2PWlhaBrhx40Z2/VWAizf9+g5ireFkonmjnNAKAB2W9OVlZcmzKlrKj0b2g+P3yfGTANg7bpAszslhCYA1a9awDYgfAoDeQUsEaZ8AbBkMIcCx91EJO2PGDCV1VwEeDly1N4824mYibNsB67CkL0sIeXzLZnLT0N5w/D46fqP1/97wviznT3Xmk08+UWJE/BIB9J6PP/5Y0twFCAEIAa7dD2v42tpauWvXLiV1VwEG3nh1h7F+xckIOdQwTATUZUnfqKaN5EsDq+H4A3D8hgB4tG93lgBQMYPYT8ef+q4tW7ZIOkVw8ODBWC1gsV6cYxsRVh+hRd3+1PJX5fypTikoX4eu2pvHX+Zk5JZz2mgtALCkz5tZ9IYzDePn1V3bsSpvr169lLQgUh1zEL8//fRTeffdd0s6UOiwww6TXbt2lc2bN5cFBQUsjDg2BWH1cZxhLgsS6jTbn7itYsw/tX4qwMYbj+4w1t9wMjLlmGZaCgBa0nfR6S1l0Kf0YUmffgLk9NYtWM5t/PjxkREAqUYNv79F2X4LDOzUA47frAvr0FV78/hCTkYGVDbQSgBgSZ9+Dle3XoKq4gYsAXDZZZfBScBJgAMx5wDHb+okAI7kZKQgL0v+/fmegYuAf73YS/7+8nayU+t8lnHnYEFhG+ZkywXty+UXWNKn5TyHr8bUyOwsXhfrgw8+COMfc+Nvp4WIZ6Ldk8D1Fd60553HWsbNSNCnAmJJH1r9dnsZnuxfyRaI7777LgQABAA4EHMOcP2mc1ftXYjNnMxcN7M8kB4ALOmD47fr+I3nLu1cwRIAzZo1k/v27YPxj7nxR+s+2q17O+XL8Zl1Yb3z6A5jfpSTmR8OLfFVAHx4X6X88aFNZBazK5eTZwo7uHGxXF3TQ8uubsPh4fNgkTS6KW9r3MMPPxzOH84fHAAHWA0J3QTAJRxnWNIw25d5AF8+1kOee0oLSfMOOOnlhu1R1EDe3asLHH+Aa/ndCJsdtQNkg+xsFncuvfRSGH8Yf3AAHGDZEd0EwKFcp/jy8s6e9QJgSd/BrVg3zg9hBskn+vHH/1etWgXjD+MPDoADkRIARUKIf3JEwOWTy5QLAF2W9JXm45S+KAgIWp3B4XheXp7cunUrjD+MPzgQcw589dVXLFsihPiHw2F6zx//I8c49u+mbj8AnNKHFr8XgqNrw0JWpR0yZAgMf8wNv53JYXgm+hMEX331VZYtEUJs89yjO3zB5RwBQGH/+vvu7F6AJ6/tIPt04Rlqbj5wSl/0BMjGIb24FVZecMEFEAAQAOAAOJA4XZPpZ9536J89f3w0M0Ny8dnulwNiSV/0nK4XrXi3cV7GXP5HdeOZZ56B8YfxBwdizoE9e/bIykr2fKInPPfoDl9QIIT4liMChlQ3dNwDoMspfbQ8DKf0RVeE9C0pYvUAlJSUyG+++QbGP+bGH9370e/etyrja6+9lmVL6nzsEof+2ZfHH+EIAFqX//H9lbZEAE7pi66zddtK9yrcegXd/yeccAKcP5w/OBBzDjzxxBOSJgNz/GRd2B/54tEdvuR0bsasVgNgSR8cv1eOPl283Nn/VCduv/12GP+YG3+rliHuR7d3gLr9Fy9erMr5/1cIUerQN/vyeDMhxL85IqB9q3xJs/j//YeD/7CkD44/nYP28vqesYNk6wLeAVE5OTly8+bNEAAQAOBAjDhAS35ptv+iRYtUjPkn9xr82Rdv7vIlz3MEAIV96tqOBwQAlvTB8Xvp4K3ifrhv9+SKh++CdxIi1zYgPPAHB8R0l77Zl2CzuAX0ozGNEwIAS/rg/K0ctNf3Dy9tAqcPpw8OgAO6cGCPEKKpL57c5UvKucMA+XlZcnRf3qxrrgjJEkIe37KZ3DS0N/bsD9me/apEwZvD+sjsgA+M4vIY4dFiBgcixYFrXPplX4PRGkVdFJPjdGBJH3oeSETMadfKMXfCzHukPbw2C2UXi7LbLYQo89WTu3wZLVEInfHEKX1w/EbvwZeja2Tj3JzQcTiM9Q5pDp+tRJkFUmZzXfpj34PRpkA7wkKSDg0K5IrqzpJmfBsOAJ/xxuJyBTv/hYX/SGcgxhziMoSNxADryqtCiFzfPTnjhcsCBMtW5WqWlyt/3qWtpHPe4fDj7fCTy5/40KpAyWYdtnioez1B+iAQwIFAOfCNEKITwxcHErSPrqQpysmW53dsLambN9nw4ztEAHHgum7t4bjROgMHwAEdOED76vwwEA+u4KUv6CQCcEofHLyVyNs6pkaW5aP1r1O9RVoCbX3q4ATjmob/CSHOVOCHA4viGF0q7xGlTbCkL6bL+aycfvL9GRoQ8gAADl1JREFUizq1iauxQb7R4gUH9OHAf4QQUwLz3IpenC2E+GuQIgBL+tDqT3bwmb5/Oqq/LMHMfzgBfZwAyiKeZbErzN3+qdphdhACoHdJQ/lI3+4Y40er3zYHplaUweDG0+Ci3FHuunCAZvuHbsJfqtNP/l0shPjaLxGAJX1o8Wdq5ae798qgnjInK0sXI4B0wCGBA/HiAG3yMy9sS/2SHX2m7xd6LQBK83Pl4m7t5M7agbZbfOmcAa7HS0TsHTdIDm1SAoMbL4OL8kZ568CBvUKIxUKIlpkcaNjvlQghtnshAmhJ3wVY0gfRwxjquLWqkw6GAGmAQwIH4sGB/woh6EhfOtVP64N9VAqP81UKACzpi1cr3atemY9H9pO0IZRKbiIuLFsDB8ABIcQ/6hq+7wohnhRCXCeEoG3yS1U61rDEVSSE2KqiYtAubTilDwJAhSg4tmUzVc7/QyFEflgqI9IJBIAAEPAbgfkqBADFcUfPzuj2ZnR7q3CeYY/jrp5dVDl/imeC35UJ7wMCQAAIhAkBaiG9p0IE0Elt7wzvAxEAEeCKAx+M6Cubq+v6/4sQIitMFRFpBQJAAAgEgcBRKgQAxTGsSYncPRaz/sPeEvc7/XTq45hmjVS1/mm7zuFBVCS8EwgAASAQRgSeViUCrujS1lUL0G+ng/fpM2fhMrVH/d4bxgqINAMBIAAEgkKgWghBpxyxW2G0GmB1TQ+IAAwF2OLAszU9JHFGBfeEELSGt11QlQjvBQJAAAiEFYGlioywbJmfJ98f0deWA0BLXJ+WuN9lQRwhrqjiXd3OXWGtf0g3EAACQCAwBBoKIWjplBKD3Kekodw2ZgBEAHoCTDmwo3aAHNCoSAnX6ji7QQiRE1jtwYuBABAAAiFHYJwQgiZRKTHMp5SXmhp/v1uaeJ9evQy01e/JrUqVcKyOqzR81T/kdQ/JBwJAAAgEjsDtqgQAxYNJgXo5Xx3EEG0VrZJjQoglgdcaJAAIAAEgEAEEmgghtqgy0FlCyF9XdUJPAIYCEhy4qUdH1c7/bSFEgwjUO2QBCAABIKAFAoepHArIzcqSD/TpBhEQcxHwYJ9uKmf8k5Cgvb37aFFjkAggAASAQIQQuFZVLwDF0yA7Wz6H5YGxFUFP9q+UhdnZqlv/CyJU35AVIAAEgIA2CNA2wa+qFAFNcnPly4OqY+sEdRh/DyINzw+okkU5Oaqd/2ohRLY2tQUJAQJAAAhEDIEuQog9KkUAnRnwwoAqiICYDAeQ82+Uq9z50ymWbSJW15AdIAAEgIB2CJysUgBQXMU5OZJ2gAuiNYp3+rcq4an+lV60/GnJ32jtagkSBASAABCIKAJK5wOQCGiYky1X9auECIhoT8DDfbsn5n2oFo/Y7S+iFgbZAgJAQFsEaIe1Z1Qbc5oUdkfPzhABERMBtOwzP1vZ/v7Jcwd+q20NQcKAABAAAhFGoKkQ4gPVIoD2CbikU4Wk3eHQPR9uDKgML+zYRlKZquaJEOINIQRtV41/QAAIAAEgEAACPfZ3we7ywLhL2jZ4Z+1AiICQCiHa21/x9r7JImKzEKIiAL7jlUAACAABIJCEQG3dBizJBlrJ9xFNS+TfRvaHCAiZCKBT/WrUHuyTzKdvhBA9k/iHr0AACAABIBAgAscKIf7jRU8AHQ+LyYHhGQpYXdNDlqk90jfZ+f9TCHFIgDzHq4EAEAACQMAEgbO9EAAUJ20d/LPObTEvQOOegD1jB8nLOlckysojHvxXCDHRhHe4BASAABAAAhogcLlHxj/RCjyseRP56SgMCeg2OfKDEX3lqKaNklvqqr/TkdTTNeA3kgAEgAAQAAIZEFjspQigIYHf9eqKeQGa9Abc3auLbJaXq9rhJ8dHzn9mBr7hFhAAAkAACGiEwM+9FAEU9/Etm2GCYIAi4JOR/eRxLZslO2qvvp+nEa+RFCAABIAAELCBwJVei4DS/Fx5Z88u6A3wUQjQ2v7bqjt53eo3xMRPbfAMjwABIAAEgICGCJzvtQig+Gn8ee3gnhACHguBvwzuKYc1KTGcs5ef1O0/X0M+I0lAAAgAASDgAIF5Qgiawe2lw0jMPp9S0VJ+hkmCyoUQTbycWlEmc7I82c43lRf/EEKc6IBfeBQIAAEgAAQ0RmCCEOL/vBYBFH/TvFx5Tbd2cnvtAOWOULfZ916nZ+uYAYltmUvUH9+b6vSN33TU9DiNeYykAQEgAASAgAsERgohdvohAugdrQry5GIIAVciiLbxXdK9vZcb+hgOP/nzKyFEjQteIQgQAAJAAAiEAIEqIcQnfokAQwhQj8C2MegRsOox+GpMjbyyS1u/HT+JgNeEEO1CwF8kEQgAASAABBgIlAohVvspAuhdNDQwv325fHt4H1etYivnGeb77w7vK3/aoVw2yfV0PX9yaz/5+3041Y9RmxAUCAABIBAyBHKEENcIIWi2d7Iz8Pw7TWQ7ukVT+US/ylhvLUzL+Z7sXymPadHUr8l9qWVLE0MvFkJkhYy7SC4QAAJAAAgoQIAmB+71WwQY7+vYoEBe0LG1fG1I79j0Cmwa2juR5/aFBakO2c/fO4QQRyngD6IAAkAACACBECNA8wI2GU45qM++JUVyUdd2krrDw9ydb5b2N4f1kb/o2lYOalzsp5NP964XhRBtQsxXJB0IAAEgAAQUIlAghFgSxJCAmeCoKm6QmC/wdP9K+c3YgaETBJTm52p6JFr6vYobpnPEfl//9/79IC4RQtDwD/4BASAABIAAEDgIATrr/XMzpxzUNVoDf9T+cfIrurRNOFUdVxPQsr3nB1QlejAOL20ii3Jy/HbuVu/7SAgx4qCSxg8gAASAABAAAikINBdC/D4oh2/13tysLNmvpEjSroO/rOwgn+pfKT8a2c+3XgLa6fDZmh6Jd1MaBjQqknn+7NBn5eTN7tNEv18KIYpSyhg/gQAQAAJAAAikReBIv/cMsHL+me43zs2RAxsVyxNbNZcz27ZKrKe/taqTfKxfd/nnQT0ljcO/NayP/Hx0/8SfMVa/dUxN4jc5dnrmjwOrE2FW9uwsr+vWXs5tV544+ZAcPR1+lCkNmt17RwgxNG3p4gYQAAJAAAgAgQwINNy/RnyxEILGj8Pk/OKcVtrL/wohBM3rwD8gAASAABAAAiwE+uzfI/5liADtRdAjQojOrJJGYCAABIAAEAACJgjQJMG3IAS0EwLvCiGOMCkvXAICQAAIAAEgoAyBvP2HCs0RQmyHEAhcCNCKjelCiFxlpYuIgAAQAAJAAAhYINBECPFzIcQ3EAK+C4Ev9+M+VwhRaFFGuA0EgAAQAAJAwDMESuqcETmlOE++8yPv1OtyPg7v8YzLiBgIAAEgAARcIFC8/1yBnwohtkAIKBdCNMY/DY7fBSsRBAgAASAABHxDgLaaPbruyGHfTxuMmPj4Ux2WOLHPN/riRUAACAABIKACgV5CiJuDPHEwhIJgqxDieiFEtYoCQBxAAAgAASAABIJEoIEQgo4eXiWE+FcInbLX4/v/qesxIYzygywovBsIAAEgAASAgFcIlNUtI1yry+mDAQkSEkKrhRAz9veSECb4BwSAABAAAkAgNgiU7z998CwhxKNCiH0BOWKvW/fJ8X8rhHhICHGaEKJpbEoZGQUCQAAIAAEgkAEBWtNOu9ktFUKsj8j5A9TKp4l8tF/CaOzPn6H0cQsIAAEgAASAQB0CtL/AYXUH27y4f9hgZwh6CGgvhCfqHD6JGVoaiX9AAAgAASAABIAAE4H2dcviLt4/S/4BIcQmIcSeAIQBiZF1QojfCiEuqUtTa2beEBwIAAEgAASAABBwiECpEGKgEOLEus2IrhFC3C6EoNPx/rh/BcLb+8fdP9o/4W5bXU8COXA6NpfG52lcnn5vrnuGRMUrQojHhBC31fVA0NkHE4UQQ4QQzR2mDY8DASAABIAAEAACQAAIAAEgAASAABAAAkAACAABIAAEgAAQAAJAAAgAASAABIAAEAACQAAIAAEgAASAABAAAkAACAABIAAEgAAQAAJAAAgAASAABIAAEAACQAAIAAEgAASAABAAAkAACAABIAAEgAAQAAJAAAgAASAABIAAEAACQAAIAAEgAASAABAAAkAACAABIAAEgAAQAAJAAAgAASAABIAAEAACQAAIAAEgAASAABAAAkAACAABIAAEgAAQAAJAAAgAASAABIAAEAACQAAIAAEgAASAABAAAkAACAABIAAEgAAQAAJAAAgAASAABIAAEAACQAAIAAEgAASAABAAAkAACAABIAAEgAAQAAJAAAgAASAABIAAEAACQAAIAAEgAASAABAAAkAACAABIAAEgAAQAAJAAAgAASAABIAAEAACQAAIAAEgAASAABAAAkAACAABIAAEgAAQAAJAAAgAASAABIAAEAACQAAIAAEgAASAABAAAkAACAABIAAEgAAQAAJAAAgAASAABIAAEAACQAAIAAEgAASAABAAAkAACAABIAAEgAAQAAJAAAgAASAABIAAEAACQAAIAAEgAASAABAAAkAACAABIAAEgAAQAAJAAAgAASAABIAAEAACQAAIAAEgAASAABAAAkAACAABIAAEgAAQAAJAAAgAASAABIAAEAACQAAIAAEgAASAABAAAkAACAABIAAEgAAQAAJAAAgAASAABIAAEAACQAAIAAEgAASAABAAAkAACAABIAAEgAAQAAJAAAgAASAABIAAEAACQAAIAAEgAASAABAAAkAACAABIAAEgAAQAAJAAAgAASAABIAAEAACQAAIAAEgAASAABAAAkAACAABIAAEgAAQAAJAAAgAASAABIAAEAACQAAIAAEgAASAABAAAkAACAABIAAEgAAQAAJAAAgAASAABIAAEAACQAAIAAEgAASAABAAAkAACAABXxH4/xTuwTPgOqpwAAAAAElFTkSuQmCC;" parent="1" vertex="1">
          <mxGeometry x="887.75" y="180" width="46" height="46" as="geometry" />
        </mxCell>
        <mxCell id="J40c5jk9J6KKINpNhk3b-63" value="&lt;b&gt;BI &amp;amp; Reporting&lt;/b&gt;" style="text;html=1;align=center;verticalAlign=middle;whiteSpace=wrap;rounded=0;" parent="1" vertex="1">
          <mxGeometry x="845" y="221.5" width="90" height="30" as="geometry" />
        </mxCell>
        <mxCell id="J40c5jk9J6KKINpNhk3b-66" value="&lt;font style=&quot;font-size: 11px;&quot;&gt;&lt;b&gt;Ad-Hoc SQL Queries&lt;/b&gt;&lt;/font&gt;" style="sketch=0;html=1;aspect=fixed;strokeColor=none;shadow=0;fillColor=#3B8DF1;verticalAlign=top;labelPosition=center;verticalLabelPosition=bottom;shape=mxgraph.gcp2.big_query" parent="1" vertex="1">
          <mxGeometry x="872.06" y="283.75" width="45.79" height="46.25" as="geometry" />
        </mxCell>
        <mxCell id="J40c5jk9J6KKINpNhk3b-67" value="Machine Learning" style="shape=image;verticalLabelPosition=bottom;labelBackgroundColor=default;verticalAlign=top;aspect=fixed;imageAspect=0;image=data:image/png,iVBORw0KGgoAAAANSUhEUgAAAgAAAAIACAYAAAD0eNT6AAAAAXNSR0IArs4c6QAAIABJREFUeAHsvQuUHFd17+2PBAzYPGyCY165iSHgAGt9xGAwhuBwFwmPxLHNI/iG4CTExtgGHLD5nHuzYp19RpaxFRzbPC5KkAIEbJA1L81b0sxImumeV897uruqTj1aFtiSheUXIywxM/Vxuqamq6urpe461V1V3dtrnVWPqaqzz69a3v/a55x9zjoL/0MCSAAJIAEkgASQABJAAkgACSABJIAEkAASQAJIAAkgASSABJAAEkACSAAJIAEkgASQABJAAkgACSABJIAEkAASQAJIAAkgASSABJAAEkACSAAJIAEkgASQABJAAkgACSABJIAEkAASQAJIAAkgASSABJAAEkACSAAJIAEkgASQABJAAkgACSABJIAEkAASQAJIAAkgASSABJAAEkACSAAJIAEkgASQABJAAkgACSABJIAEkAASQAJIAAkgASSABJAAEkACSAAJIAEkgASQABJAAkgACSABJIAEkAASQAJIAAkgASSABJAAEkACSAAJIAEkgASQABJAAkgACSABJIAEkAASQAJIAAkgASSABJAAEkACSAAJIAEkgASQABJAAkgACSABJIAEkAASQAJIAAkgASSABJAAEkACTUZgC5t5NajjHwR56hZQJr9DlalhUKZmQZnSQJn6BShTJ0FJ8XIclJQGLLVAlem9RE59G5TUlwhL/Tl/RpNhw+YiASSABJAAEogXgfsOJ19C2PifEzb1DVAml0CZNAtlygTFq6RMUMqVaROU6TVQpudBmb4f2PSVvI54UUFrkQASQAJIAAk0KIFN2vj7gU38ENjkCWBOp+/c93L+/Fw558/P5wWAe/sMUWa2UzZzhWma/0+DIsVmIQEkgASQABKIJgHyWOqlVJn8MrCJNLAJ0yqTZh0EgAnKzHqZ1agy84UHGTs7mpTQKiSABJAAEkACDUKApNMvomzyZlAnHis4/rAEgC0EZn5O5ZmvYvdAg/zIsBlIAAkgASQQLQJUHb8W2Lhe6vhDFwB2VEAHNn9ltKihNUgACSABJIAEYkqAGJMXAhvvADZuWsV2+O5tvbsANiIAtgAwQZk1QZ7t2KSlfi+muNFsJIAEkAASQALhE1j/6v9FwflzEeB2/PZxRAQAFwHK7HEiz14dPkG0AAkgASSABJBAjAjsNHf+FrCJrxc7/phEACwBkI8GEGV2Gx+3ECP0aCoSQAJIAAkggXAI3H1o5Dyqju/1dv6xiQBY3QGWGBi5+9DCeeHQxFqRABJAAkgACcSAAFGmLgI2ppR3/rEUACYoc4ub5bnXxeAVoIlIAAkgASSABOpLYLOe+B/AxnLAxtYH+9khf/fW7vN3byM1BsAZAeACwAR5Lkeyc2+uL1WsDQkgASSABJBAhAkQNv56YGOq5fwbVABwEaDMHcYZAhH+IaJpSAAJIAEkUD8CW7ITrwI2Jhecf0MLgHx3AI4JqN/vC2tCAkgACSCBiBIAZayt2Pk3vADgImAEZwdE9AeJZiEBJIAEkEDtCVB54k9KnX9TCACTKPP/XnvCWAMSQAJIAAkggQgSIGz8B3UQAEdBSf2IyqmvApv+cIs2/oe824F/gfPCw/EkO/Fm/jfKpv+JKNMPg5I6UmY1QEfWvzKZAB15APKZAfPH+f5/azCgNRaA769hsqAI/ijRJCSABJAAEqg9AWBJrUYC4CnCJr5JpIl3EdN8QbUt4Uv9UiX1HsKmvwnKzJPFYsDL8dvn8lkAXTMA+DlPAcDPH9+sLr6hWvvweiSABJAAEkACsSYAbGw5YAFwFJTJW/lywUGB2To/fw6w6a+AMv1zSwjYzt5rW6UAkOdMKs+1B2UrPgcJIAEkgASQQCwIABt7NiAB8Gtgk1tIOn1urRrOn02U6a2gzJwCxcv583PVCwCQ5/l9f1Eru/G5SAAJIAEkgAQiRwDYWEpcAIxnqTZ5ab0aR1jqElBmmLcI8CkA5HntvsPJl9SrDVgPEkACSAAJIIFQCYCapCICgCoTPYSNv7zejeB1gjzTUSoCfAsAE6T5W+vdDqwPCSABJIAEkEAoBNbT/54oFQHu9L/O4/UUwOrEd/mqgaEYftZZZ/G6CZv5z2IRICAA5PmfPcjY2WG1B+tFAkgACSABJFBXApSN/3O1AoCwie18pH5dDfWojNtQLAKEBIBJ5YXPe1SDp5AAEkACSAAJNB4B7kSBjf1HsQhwfvG79tWJ7/qZ2lcrcjwSUOgOEBMAIM+xKAibWrHC5yIBJIAEkAASKCFAlbEvABt72hICLqfP8sdPAxu/peTGCJzIjwnIDwwUFQDzJpXn/yQCTUITkAASQAJIAAnUjwB3pJSN3wxsfCew8RQoY5OETfwUlIkb7z40cl79LKm+Jmt2wOwp76mAZRIByXyZ4PmiQuT5/6y+drwDCSABJIAEkAASCI0AsLl/ExUAIM8/jVMCQ3uFWDESQAJIAAkggeoJ3CNJLwN57vFSEVB5BAATA1XPHe9AAkgACSABJBA6AarM3i4sAOT5fwu9IWgAEkACSAAJIAEkUDkBnjIYlNkni0VAlREAeX628hrxSiSABJAAEkACSCASBIg8+21BAbBK5NTvRKIxaAQSQAJIAAkgAVECRE28HdTk/cCSS8CSvwQ29sv8vpq8n/9N9PlRuZ+w6csEBYAJyuKfRaU9aAcSQAJIAAkgAV8ESDr9IsLGvg0suQosaRbKmOlIALRC2Ng3+bW+KonQTfnkRsrsEwURUHUXAM8K+MUINQlNQQJIAAkgASRQHQHu0ClLDhacflkBYIkBZWxfI4gAIs/+VEQAgLzwYHWk8WokgASQABJAAhEiQFiCf/k7vvqd+0URgEI0QJmIvfMDNvcVEQFApYWBCL1GNAUJIAEkgASQQOUE8n3+LLFStQBg4yuUTb6t8pqidyWRZz8mIgBAXpiPXqvQIiSABJAAEkACFRAANXE/sESZr38eCSgTAcjn/h+7r4IqIntJizb7h4ICQI9s49AwJIAEkAASQAKnIwAsmRYQAIune3bU/8an8YkJgMVjUW8j2ocEkAASQAJIwJMAsMRz/gXA+LOeD43JyQcZO1tMACw8H5OmoplIAAkgASSABIoJAEucFBAAZpxnAwQgAE4W08QjJIAEkAASQAIxIQAs8aSYAEieH5Omlpgp3gWw8IuSh+IJJIAEkAASQAJxIAAscUhIAKjJN8WhnV42BjAI0PB6Lp5DAkgACSABJBB5AmKDAMdNoiY/EvlGljFQeBqgshDrQZBlsOBpJIAEkAASaAYCwBJ7RCIAoIzfGldOwomA5IW+uLYd7UYCSAAJIIEmJ2BlAfSbB2DcJMr4w3FFCMrsTsFZALHPhhjXd4d2IwEkgASQgCABypL/JBQBYONH+cI6gmbU/fYgFgMCZfFLdTccK0QCSAAJIAEkEAQBUEc/KigATCIn3x2ELfV8BmUz7y18/c+aoFS/GiBk5z5cT5uxLiSABJAAEkACgREg6eT5wBKuJYArWAwonwp43AQ2bvIlggMzqE4PAmX2O4ICYJUYs6+sk7lYDRJAAkgACSCB4AmAMjrvYzGgvPPnAgDY+JNb5+fPCd6y2jyRpNPngjL7pKAAmKmNdfhUJIAEkAASQAJ1IgBK4kFBAWACm/hKncwVrgaU2a8VO38fXQDK/P3ChuADkAASQAJIAAmESQBY4ipxATD+c5IePjfMdlRS9z2S9DKQ5x4XFQBEmfvLSurDa5AAEkACSAAJRJYAMYZfDCz5lLcION1ywNYYgPVuABPU8Xsj28h1w0Ceva/U+VcZAVDmj8d5DYSovyO0DwkgASSABOpIgLDkdmEBwMZPETZ2SR3Nrqoqqk6/E5TZXwsLAHn+e1VVjBcjASSABJAAEogqAaKMfSgAAcAHBDLCxl8etXZ+XUu9ApQZ1dv5VxcBIMrCh6LWPrQHCSABJIAEkIAvAjvNnb8FLKmUioAqugA2pgZOdPDn+TKkBjeR4eHfBmVmNygzZgACIBPHxEc1wIqPRAJIAAkggUYhAEryxoAEAI8E/EcUHGU+45888z3L+YsLACrPX98o7xvbgQSQABJAAkggT+BB1ns2qMnHikWArwgAnxZogjLxff71HRZeHoUgyuy2gvMXFgBHiWG8OKz2YL1IAAkgASSABGpGAJTk1wITAFwEsImOMMYErPf5r4f9ueO3C+/v9ypnTgVMpfl/qhl4fDASQAJIAAkggTAJ5KMALKkWRIBABMASAFwEsHrODrBG+/MBf7bTd269nH9FgwDlbanUC8N8N1g3EkACSAAJIIGaEiBs7K8CFgBcBPyaqJMP1DIawNMRgzxNQJk56e38uRDwJwAw8U9Nf3L4cCSABJAAEogKAWDJXksEBBIBsMYEsEkT2OTjIE/exvPxB9VW/iyqpG4HZeYIKNOOcL/zy9/er14AUHm+Kyhb8TlIAAkgASSABCJNYLOcfB2w5C+ABS4ATFAmeXkS2OS3CBu/zM9sAX4PX9KXyNPfBmX6uOX4ufMPXAA8QdLpCyP9stA4JIAEkAASQAJBEiBq8uoaCgBbCPDtE0RO/RTY1FdAnvpoizT1li3ZiVfxdLu88H1+jv+NyqmvgpLaCUrqiWKnbzv/YAUAkWevDpIpPgsJIAEkUDcCRG27gOgdnwSjcxPROh8mWuf0Jr1TJ3rncaJ3niJ61ymi7z6+Sd+tE233NDF2P0SM3XeCtvsT/N66GYoVRZIAUcf+r7cIcK0DsJEEiJ/Pj/732Oa7AJyO37E/ZYLiVVImKOWK0+k79+1wv9e2ii4ANvetSL4UNAoJIAEkUI4A0TrfRYyO+4jesUj0jjWid5rly26T6F6lyyR61xroXQtE7/oG0XreVa4+PN+4BPgXOGXJwVIR0NgCgCrze8PMYdC4vyhsGRJAAoETuEfqfBnRO27fpHdkiN5hFhffAsAEvatQtO406N238boCbwA+MLIEiDH8SmBj6WIR0NACQLr70MJ5kX0haBgSQAJIgBMgh3eeT4wOIEb78WKn7xQBAQmADTHQ/SRoXeTuQ934P8km+RnywXpNJAD2+BmY2CQ/BWwmEkACYRPg/4Miesd1xGg/Sox2M19KvvxtERC4ADBB7+blSTC6biUmeUHYPLD+2hHgvzVQk91NJABMkOduqx1RfDISQAJIwCcBona+iegdoxuOPzwBYAuBkRbW+0afzcHbIk6AsvGbi50/nxrY0F0AJihzJ6m68M6Ivxo0DwkggWYiALmOa4jR/lSJ8+cioP4RAFsA8O0zYPR+upneRTO0lcjJi4GNLTehAOAigN0jSTjepRl+6NhGJBBlAjzMTvS2b3g6/vAjAOtCoMckeu9W7D+N8i+pctt47ntgyalS598UEQAuAEyQ5nZUTgyvRAJIAAkETIBPRyJG2w5itFl9/bbDd2/DjQCYoPesl+4f4cIpAf8IQngcKInN3s6/iQSAzFcJnP9fIeDHKpEAEmh2AttS215I9LZuy/nHRQD0mFTv6UIREN9fL1GTlwNLrqAAmDNBnn+KZGd/P75vEy1HAkggdgTyI/2Ntu8XnH98BACPBhCj58c4QyB2P7uz8qvqsaRSo8WAHNn/8msCrB97ZQHk58plAeTnndn/nPteGQDtc1VkAuRdADwCIM/zMoGCNn6/ZbQYCcSWgNXnz52+s6xP+XOH//lxZLoA7K6AHpNoPffE9gU0qeGEJbfXYDlgvhKgVazFgFxCIPICwARlgTbpTwKbjQSQQD0JEL39r4sdvy0C4iUAQO9ZI1r3x+vJDuvyTwDU5DUF5580Y94FkAF5pgMU++ufb31HAHgUYIUoCx/wTxfvRAJIAAmcgUDLo+1v3GS0Pd0gAoAPDHyKHOq+6AzNxj+HTICoiQuAJY/EXAD8CpSZnUSZ+VC+C214+LdBnkkURICQAOAi4PCWbPZVIb8qrB4JIIFGJJD/n5beOurt/OM1BqAwK4B3CfQewOmB0f3F8ncDLNlb7PxjEQFYA2V6nijTW0GZ+rP7Didf4qbMB/CBMvO0JQKEBYAJ0vwudx14jASQABIQJkByuz5HjFZXv78d/o+1ADCp3nudMCB8QE0IUJa4udT5hyYAVkGZes5aHjj1PCipY6CkNFBS06Ck9hA2/U1gqZtATX2QyKnfqQQIyNOfDkwA5AcFLtxQSb14DRJAAkigIgL5hX1yrcdqJACeIUbnQ0TvuJ5quy/dwnpfzacY8sL3+TnQu24gWtfDRN/9LNHzywEXVgLcWAiIrw6YXwfAY1sY/Ff89Z+PAPAowJGva3tfUREMvKhuBFqk0bcASy4HKADWgE2YpaXiQYAjtWg8KLM7BMcA2DMCeBRguUVZ/KNa2InPRAJIoAkJEKMNLOcfaARAJlrn58hjXS+tFCm/FvTd/0j0LqVoOeANEeBbAHAR8K+V2oHX1Z6Ale0vMeXt/H1FAA4AmzhV6vy5IKhMABA5BbVoOUmnzwU2K3uLAJ7wx6MUpgEWnL81LdAEeWHuQcbOroWt+EwkgASaiABhP3o5MVqPBygAToDefhvPIugXY9456F1fA73rV8VCQEgA/IKkh8/1axPeFywBoiZagCXMYATAxBNUGft7b+dfuQCgbPKKYFtZeBpVp98JyuzJUhHg4fyL8wB4CQATlMX7C0/HPSSABJCADwJEb7u94PxFIwDtClHb3u7DDM9biLH7MtC7Hi+IACEBYFKt56ueFeHJuhKwsv0lVoITAONXEWV8q6AAWK71VzVVZm8PTADIC2tEXvhYXV8cVoYEkEBjEdhktGYCEgAzW9jOVwdNh7De14PetWCJADEBAFrvYtD24fOqI3CPNPoyYAnNcv5BRADGvsctADY+LSgA9lTXkuqvJqb5AqrMDhSLAJ8RAHmBdwUcJen0hdVbgncgASTQ9ASItutdxc7fbwSgXamF87df0Ga14w1WJEBYAJiU9f6x/Vzc1p8AYYntBecvKgAmVN6tQ9LJ84GNr4oIAMpS/1wPGsSYvBCU2aMFESAkAEwqLQzgNNd6vDmsAwk0GAFi7LovAAFwIsiwfznENNf1XtC7n/eeCXDGWQB8EKAJWi9PDnRvuTrwfG0JWNn+uNN3Fj7gz6vwlf+8yrgJLF9+TdnEe7nFRBn7uHXOawZAZWMAiDz17tq2vvB0Is9+DJTZNUsEiAkAkBdMqizeXng67iEBJIAEKiBAcq2LogIAcu23VVBVIJdQo/tOYQGg9c4GYgw+pCoC+S9fljhW7PwFIgDq+EZ+fGDj3xIUAE/tNHf+VlUNErwYlNn7gxIAIC+cpNmFdwqahLcjASTQLASI2nYBMVrXBAWALDLav1rWJL3zXNC7Hy8VAVVEALTeVSJ3VZTEpVr78HpvAoVsf84vf3vf6+v/DNMAlbFJ5wp5wMYzQgJAnurwtrx2Z/mAQ1Bm5zynAFYyC8AaA8DHAdhF5tMNa2cxPhkJIIGGIUD01k+WOv8qxwDk2j5XbyCgdd8kKABMovXhIkF1fHFWtj/b4bu3VQuA5RZp6i22+UQafe16l4BHAiC7S+D0eQCokvqy/bx6bluU6T8CZW7ZUwScPg+A7fSLt9LCjnraj3UhASQQUwLEaCWCAuCZapL8BIVp65GBc0DvfrZYBFQVATBBxaRAQb2PMz2HyMmLgSWWS0P/thCoTgBQZeILzjopG/9bUQFA1KnApq46batkn8qznw9MAOTHAyz8TSX14jVIAAk0MQFitD0kKAAeCgsf6D0/ERIAWu+PwrK9meq1sv2NTpV3/lwEVC4AqDLW4x7xTtj4dkEBcMT9zHq/I1DmdpWIAD8RgHx3wOLTfBGiercB60MCSCBGBIjemhISAHrH9WE1l+rdnxcUAJNh2d5M9VrZ/kZdo/7tL397W7EAeIIPJHTzAzaeExEARJl62P3Meh/ffWjhPFDmHi0SAf4FgAnyYqKeY3PqzQvrQwJIQJAAMVpzIgKAaq2XCprg+3Zi9F4mJgB6dN+V440VEbCy/Y2uAAtGABA2/kl3xS0s8caC8+dTA+0+f/e2/BgAKqdCE7LO9lB5/k9AmVvZEAFiAsAk8lJN1jVw2oz7SAAJxJTAJqP1FyICIMyR9EQduEBMAPQei+lri4XZVra/UdVy/oEIgHy2P3fjQR27QVQAtLDUG93PDesYlDkalAAAeXGFKAsfCKstWC8SQAIRJkCM1pNCAiC980VhNe9B1nu2oAB4Pizbm6FeYCM7Cs5fVAAkNS4ovLgRZfxhQQFwyOu5YZ3jYXtgc6N5ESAYAQB5kXcFHN6Szb4qrPZgvUgACUSUAMm1/rqJBcCvI/paYm8WsMRVxc5fSAD8mrJEPtufG4yVW2D8cREBQJSJ7e7nhn28WV18AyhzxyEYAWBSebE17DZh/UgACUSMADFanxUSACEm0wmgC2A57JHfEfs5BGIOMYYvBDZ6LDABoCY3sv25DeRT94qdv48xAGzyM+7nRuEY5LlPByUAeCSAygufj0K70AYkgAQiQoAYrT8XEgB6e91yp7uRiQ8C5OsC9D1K9L4HiN7zgXqngXW3pxGOrS/y0d5S5+8zAuDK9udmRJWxL4sKACLNvNb93KgcgzS3A+R507tsZP8rTgRkTQPkof/iIi0utyiLfxSVtqEdSAAJhEyA5FqnRAQA6G03hNUEMHpuFBwDwAWAo/QeAa3vu0Tv/XNnitmw2hfHeikbudnb+fsSAMst0uhGtj8vHsDGO8QEwFTG67lROcfT+oI8LwciAPKCYGmOpx+OSvvQDiSABEIkQIzWNhEBQIyO0OZPg969M1gB4BQDfU+C3vd90AeuJMbwi0N8RbGpmjtrYCPLwQmAsZtO13gesQE2/pSQAGCT3zpdHVH4G1/gB+T5k6UioMoIgCUATFDS90ehXWgDEkACIRMgudYWIQGQa3+OL85T72aspwJ+roYCwASt3y7LVOvvomr/dfdInZ4j0evd/qjVZ41cH5kANmIGJAD6zzQ+g8jJd5c6/yrHAMgT10SNpZc9VJm/PTABIC+tAVu60qsePIcEkEATEQC97VNCAsBoNyHX/o/1RlaaBbDbBL3KtQC0/BgARxdAUQTAdv6u7cAJqg20U33P3xJj+JX1bndU6yPqSIvl/AMRAJ7Z/txtBzZ2h6AAWCXp5Pnu50bxmIshKi0MFIsAnxEAeckEeekoSadLMipGse1oExJAAjUisPnwzteJCgBitCvbUtteWCMTSx5L0jtfBHq3Vvz1Xy8BwKMCA3Y5SfWBPqrvuX4L6311iaFNcoKoBy4HdWQlKAFA1OTVlaCjbHxASADIk6lK6onKNdxhgzx/tCAChASASaWlAWKaL4hK+9AOJIAEQiBAjDapVAS0mcTwKu0mMUoL6G1fq5fpoHX971LnH4oAsIUA366ANjAE+p5bNsuDr6sXi7DryWf7U0dUUPmXv134gD+vYuf999purAXgme3P3c58Eig2viwkAJSJe93PjfoxkRc+BvL8miUCxAQAyEsmVRZvj3qb0T4kgARqSIDobd8QFQDE6PgVMXZfVkMz848mavfloHc/H0EBsC4G9pig5UsatAFCtH1vrjWTMJ+fz/bHnX8wAqBstj93GylLXuHt/CsfA0DUyY+4nxuHY1Dm7w9KAIC8dIoq6ffEod1oIxJAAjUgQIzWy8QFQLtJ9I7HN6sdb6iBiflHkkc7Xwt618+9nX/oEQC3ALCFAN+mQdtLCNv31lqxCeO5wA5elXf8wQiAVaIkKs5ZT9g4CAqAk3yKXRjcROvk0/hAnp+F/Hz/clEAVw6AjZwA+f5/PgbAWdg9koSDW0VfDN6PBOJIgA8wIkarUiwCvML//Fxp+H/jnN7BRcACYa2vD5oDFxagdy2C3mXGUACYoO21Sxr0PZQYe94RNKN6Pi+f7U8dORaUACDqWEs19oMyPiImACZGqqkvatfyhD4gLSyXFwFVCQATpMUdUWsj2oMEkECdCJDcrq8GJAC4CDhG9M6Kv+bO1ESa63ov6F2PW84/9gLAFgJ8myP6ngc2aXvff6Ypb2diVM+/c1tBHe0ucv5CXQDJVDWJl7bOz58DbPykkACQJ0g9mdWiLp7aNzABkB8PkP6bWtiJz0QCSCDiBO4+1H3eJqP16YII8B0B4AKAl+eJ0XEnn6/vt+n50f75AX9dzxecf0MJgHUxsM8Ebd9hou97gBp7roh6SuJ8tj877O/c+hsEeMZsf+7fD1GTHynv/CsbA0DZ5BXu58bxGKTFXd4ioMoIQL5LIP00yWZ/P44c0GYkgAQECRQnBRIWALYQeBy0zpuqEQL8WqJ3f36T3qUXO37u/BtWAHARYJejRN+3jeiDkUtJ3KKPvgXUg8slX//+IwCnzfbn9ZMGdfxeQQGw3CjpcO9eWDgP5IVHS0WALwFggpxJ8KROXtzxHBJAAg1MgEcBSK71mBUFCEwAmETv5OU5ou/+CRgdN1Kj4z1EbbuAf+Hni9p2Qf6c0fUFou/+KdF3P0f0LpOXJhUA60Jg0AR18DioQ98nbOivwk5JzMP0oB6YAvWgNerf+fXvQwBQJdHjp+sD2FhKRABQZWqgkf4ZE2XhAyAvrBSLAL8CIG2Ckim7+mIjccO2IAEk4CIARuuNNRIAthBwbXebRPcqKABAywsALgLscoKywS6qDl1HWO/LXa+u5oegHthsOf9ABMAxYkxWnYmOZ18ENrYiIgCATdxRc1h1rgCUBRqYAJDTqyAtfbDOTcDqkAASCJsAMckLSK51xDsJUEWzAOzQv2ObjwC4HL99zsv583OBC4ARMHquInrvD0DrPQ75NMB+UgEXZQJ0JgI63TRA58A/j/2N0L/dBeCMANjO37UdOkHVwXZgg5+tR0piK9vfwZWgBECl2f7c/x5ATV4DbMwUEQBUnrzU/dy4H+fXYpAXEgURIBABkNMmyOlHSTodizTJcX93aD8SiBSBlkfb37jJaP2ltwg44zRAh+PPDwYs4/jrKgCeJYcrhlyYAAAgAElEQVS6L7Ih50PZRt+HQe39D9D6niheEti5HsDGYkDu9QA8HL+dHngjEZAzD4CH09+YFuhy+k4xsPHl73L+/PyQs5yk6lAfqIM3bGEHA09JbGX7O6gWnL9oBCBZUbY/+305t4SNfVNQADwV9UGWzvZWs0+ys78P8sJTlggQFgAmSOld1dSP1yIBJNAgBH6THvjahhEARu+ny70WHvHYpPW9n+h9D4DWd7hYDMRGADjEwP5VUIdHQRu+NaiUxMAO7ih2/kICoOJsf17vDNhYRkQAUDbV7vXcRjlHpPlPBiYA8pGApRsahQ22AwkggSoIkFzb1lIREK8IANF7vl1pk62ESL2XEbVvK+h9mmM54KhHABwCYNgEdaOsgTqcpOrw7S3SgT+olIPzOqIevLrU+fsWACtETV7ufH41+3dlUq8BNrYmJACUyS9XU2ccrwVpYQdsZP5zRwKKMgA6swHysH9pkdLLPOlQHDmgzUgACQgQsBxi23eLRUC8BABovdN8poEfDJT1vw20PgJaf6pYDNjhfq9tKF0A5QSAUwyYoO5PAxsmhB2sKCUxURMXgDpyJDABoI4KjS4HNvYZy/n7HwNA2eTb/PwW4nRPPlGSvCh5i4AqBQAXBUpm8b7Dh18SJwZoKxJAAgEQsAYFtv13QQTETADoPSbRe6pKM+uFjSj7LgKt/1bQ+kZBG1hzLAnsGg8QaQHARYBdNKLuf2CTNuyZhdDK9neg29v5+4kAJKaryfbn+Q7Y+HZBAXDUz7RDL1uifo6w+UtAXjxZKgJ8CAA5w0XA/VFvM9qHBJBADQjwEcbEaP+JJQLiJwBA71nhqwgGhYaLAaoP3A7qwFipGIiNALCFgAnqAQ3U/fcSNnyZ7SAp238zqAfMgARA1dn+vN4VqGOGkABQJx7yem6jngN58bbABICcWSNy5mONygrbhQSQwGkI5L8I9dZ/JUb76sbiP+6FgawUwFGcBWCC3qvdI3UGvuIZH2gH6sCXqL5nGLSBlfWlgF0zALgocI76d+87R/479yueBVBpF4DD6W9EArgAcJbDwA5+B9QDy0EJAJ46+DQ/rYr+RJSpiwrO318XAGUT11dUWYNcxP/NUmlxoFgE+IwA8CiAnD1K0umqczc0CE5sBhJAAsRo+wgx2p/0FAHRFgAmMXq31/INbsnuexVV915Htb1doO05WSwG3E7feex0+s79UASAUwwEEAEY6bejCiLsQR27QVQAtEgTvgZCitgd9r1Enb8A5MXHCyJARABwEZDZQ0zzBWG3C+tHAkggJAI8TwDRO0ZLREDEBQDovSbk+q6pBzaeVpmLAdAHOkDbcyJGEYAgBcAxvmxwELxBHX9ISACoE0YQdsTxGURe+BjIi2uWCBAWACZV0rfHkQPajASQQEAE8oMDjbYvkFz7sQ0hEAcBoPceI0ZPIE6pUpQkPXwu1ff+NVH3/hS0vc+VigHnV79zP94RAD6FsFJGp7su3/3Exh4XEQCETdQ0+nM6+6PwN1AW7w9KAICcOUmz2XdGoV1oAxJAAiES+Lq28xUk1/afeREQDwFggtbbG0RY2g92vqAPsL1XEX3vD0Dbd9wSA06n79yPrwAgLBGYw+VT94qdv58xAJOf8fO+GuUevvohyIuzkF/2t1wUwCMPQD43QD70z8P/ziKTdPrcRuGD7UACSMAnATDab42ZADCp1ic8MM0nro3brJTEez/Ml/4Fbd9Rx3LAlawF4Bj450wLvJEEyJUDgJ93Dvxz7hcNAgyiC+CXRBnZSL280WCfO6COfUlQAKzxJEI+q2+Y23hCH5CWlsuLgKoEgAlSdkfDwMGGIAEk4I8AMdp/XEMBkAG9616id70b9K5brOWBu03QvUqPCXq50stnAljFWghouUXve4u/Fgd/F89PT9jePwV98EHQ9h22xEB8IwDARleAjQ5RdfSLm+Xk60SIUTbeLigA0iL1N9K9IC/dEJgAkDMmlTPXNhIfbAsSQAJVEiBGuyooAJaJvvsQ0XdPEH33T4nWSUDb/Ym79M7fdZqS7wvWunq9nT8XBOWcPz9fIgB4V8CUaHIap31B7fN2EmPvZaDvuxfUQc2xHLBjUSDnV79zPxIRABPYqLOsAhtNgpq4rdqUxFwYARt/SkQAEDbxzaDeTSM8B6SlXd4ioMoIgDU18GmSzf5+I3DBNiABJFAlgS0/a3sVMdrXhASA0fmRSqslatsFoHcf8RYBVQsAk+h9wlkCK7Xd73WUDb0N2CABdTBVEANOp+/cj6QAWBcDCRMYL8k0sERFKYmplri01PlXOQZAnajLzA+/77fe9xFj9pUgL+VKRYAvAcDHBUxEUUjXmyvWhwSajgDJdXws7/x5UiB/gwDXuIioBhwYPVcFJQBA61ulRu8V1dQf5rVWSuJ9t4I6NArq0JprWWCPfn+nIHD2+zv3Ax8D4Pz6d+zbAqBoqxE18cAmbdwzJTGwsTsEBcAKSSdxXXvXj5bK6T8BOb1SLAL8CoCsCYoktM6Dyzw8RAJIIA4EiNFOBAUA89NOMHp2lIqA6iMA68v/6oT1vtyPHWHes1kf/B982d91MbBqiQGnw3fvO52+cz9UAWBHBUxQkwZRx4rEAGXJAUEBMBXmO4py3aAs0cAEgJxdBUn6YJTbi7YhASQQMAFitPcICQBjt6/87DytL+jdWrEI8C0ATKL1BzZtLWDEFT2OpySm6uAXqTo8DOrwimNJYEdUwOn0nfsREQAsybsH1kviUVCT9wMbWxYSAOrEvRUBbMKL+BofIC+NFkSAQARAzpogSY+SdBqjLU34W8ImNyGB/GA1wURAYHTe6hcdX+AH9O6VggjwLwDykQC971N+bYnSfeRw//lUHbqOsuEuUPefLIgBp9N37kdRANhCgPf3e5VxE1i5MmEC2ygfjtK7iZotm9XFN4C89KQlAkQFQNakcrY1am1Ee5AAEqgBgXxKYOeCQH7GABi7LxMxDfTuzYEJAK3v2F25/oaaL06M4VcC2/8pUId+COr+57xzATSsADi5dX7+HJHfVzPcS6T0J4MSACBl+aJBNzQDN2wjEmhqAsRou3Yj/O9vEOCp+w7vfIkIxHwyHb07ZYkAwQiA1meC1h9alkARDpXcy/Pyg7r/6VIR0KACQJ04WAkXvOass0Ba3AH5rH9eUYCiDIDObIDc2RcKd/5WWW5RlD9CrkgACTQwAWK0/7ugAAhkgBZRO98EevdzPvIAmOuDAIu2UcgSWIufDWH7t5c6f94V0KACgE2QWnBsxGfySAnIaclbBFQtAPh4gMX7Dh8WEveNyBnbhAQahkDJioDVdgEYnd8JCgboPbcEJQBA64tUlsAgGBF1+Gpv59+4AoAok1u3sJlXB8GvGZ7BF/gBOX2yVAT4EgBcBNzfDNywjUig6QhsS217ITHaT4hEAMDo/LugwOWzBOo93eVFgGcmwKIvf1c0YJqkd74oKPvCfA5RBy4AdfhIswmA9YGAq8DGR0EZv5Ww8deH+R7iUDdf6jdAAbAG2eyVcWg32ogEkEAVBOih9ncWOX8fYwBacm2B9hPmHZ3ec8RbBFQtAEyiD0Q+S+CZXlleGKnD3dZMAOfIf+d+w3YBOGcDmMAmeUmDPEFIduLNZ2LXjH/P/17kdHexCPAdAeBRgCfuymQaamBtM/4usM1IoIgAMdq+ICgAniEmeUHRQwM4gFzXNUEJAND6V4g6cHkAZoX2CND23xTgNMBloh68B9SDaVBHzJLCRkzIl6J1AM6UCbCQCGgjB4A9BZBvvaYAVpkKeGNKYF4AmKBM2mUGlIl/aVHGAhWiob3sgCom6fSFIKePFkSAkAAwqSQNENMM/N96QM3FxyABJFAtAWK07RASAEbnYLV1Vnq9lSXQPSOg+ggAaP0m6H0aTzpUad1Ruq5FH3oLqPuXAxMA2sGb7PYRI3kxqCP/AurI9IYQiJ8AsIWACcrUPMiTN2BOe+sNEznzMZDTa5YIEBMAIEkmzWZvt387uEUCSCDmBIjRtiQmAHbfXSsEVpbAHq04EuBTAGj9scwSmJ8eqQ5PFpw/TwvsDPs798/cBUDVgz08POz1zvgKf1QdvR3YwSSwEb7yn+Or37lftAbA+pe/fc751e/cr2kEwCkAuAjgZZJkx3B1u9+8aKIs/XtQAgAk6SQfZOj1+8FzSAAJxIgAd7DEaF8VEwBdV9eyyVTtfR/oPSsFEeBfAOQjAWpfrFaUI+pwS7HzFxIAT/AcApW8r81y8nVUHf0isNEhYKMrxWLAdvZeW6fTd+7XXQCYoKQM3o5K2tvI1zzI2Nkgp2chv+xvuSiAZx4A3vfvVWSSTp/byMywbUig4QmQXNv/LHH+1Q4CfLTztbUGBXrv5sAEgNYfmyyBRB283Hs9AOdXv3P/9BEAwg5+0s+74qvwUXXkOsoSXcBGT1pLAXs5f37O6fSd+2EIAB4JmOz30+ZGu6clk/lDkDPPlRcBVQkALgp2NBojbA8SaCoCYHTcISgADtcDmJUlsCdliQDBCAAfDxCDLIH3SKMvA3VYLf369xkB0Ea+F8S7slISJz4LLNEBLHGiVAw4nb5zPywBMGUSZepDQbQ97s/gqX0DFAAmleVr484E7UcCTUuAGO2tQgLA6KzbgiHE6LoY9J5l0AMRAGbUswSCNvw9b+fvRwAcVEl6OPCQLX8mZaN/DSzxE2CJ5ywx4HT6zv0QBYA89d9N+4/c1XCQ0ru8RUDVEQATJPlpks3iOAsXYzxEArEgQIy2n4kIgE1G5/9Xz4ZaWQKDEQCg9f+Ksv631dP+SusCNnRVeedftQD4NWX731tp3X6vI8bwi4GNXEmU5DZgyaOlXQHhCQBQppjfdjXafcSYfSXImVypCPAlALgImMAZF432K8H2NDwB8pu+e0/nX8UYAMh1frCeoPLJTbTe3o0ogNZrwkbhCwCVK/mwPw/9u8rAVNT+52Ut9DN0LDgBsJ/W8x3xuog28eaICYBlPwyInPodokz/Jcgzt4Eyeysos39B0unz/TwrSvdQOf0nIGdWikWAbwFggqTU/TcWJZ5oCxKIHQFitF8tKABWw5hXz5f5Bb33WF4EbDh/LgTKOf/8yoAux28LgYFIZQlcz/bXC+qQGZAAmAxD4FA2dn3EBMBT1fwD3SzPvY7I0/8NyszzoMyYrrJC2cwgyLO3EGmm5gNgq7G7mmuJnIbgBIC8QhTlA9XUj9ciASQQIgFidNwtJACMzqWwzIdc3zVBCQDQBiKTJZCyoZst5x+IAFhu0UffEsY7AjX5UMQEwEilHECZ+jNQpp8BZdrt+F3HsyYos6sgzyZ4hKBFmv+DSuuIwnVkePi3QU6PFkSASARA5l0BjzZCdCQK7wZtQAI1J0CM9kExAbA71GlAYPTuKIT//UcAQBswQR8IPUugle1vaDkwAaDt38j2V/Mfk6OCfBSDJY9ETAD8i8PEsruETV8GyvTzlvOvSABwEeAoM9NUnv8/RF64uGwlEfoDH8AHcuYpSwQICwA+NXBXhJqHpiABJOBFgOfuJ0b7M2ICoPMLXs+u1zkrS2CvVhAB/roA8gJAGzCJNrC9Xra768lPc1SHpgrOXywCQNUDZbP9uesO+pioibeXOn8+GyC0QYDPVbKUcD5ZjjKtFpy/HwHAxcCcXZZAmaNEmX1H0IyDfB7ImU8HJwBkk2blzwdpHz4LCSCBgAmQQx1vLev8KxwESHOdfxywWVU/Lp8lUOtdsUSAmADICwF1TyhZAq1sf9zpOwsf7V+uOJP/OPfziYAqzvZXNfAKbqBK4suCAmCNqMnLqTp+O7CJJLCJtfXlgB0rApYsBuSVCjifEpjKkxU5JGAzny12/sICwBYCPEKgEmXuHqrMv6dcGuYK0NbsEpCyO0AOIgLAuwKk5RZFKVmUiajqBS1Z5eNUUltoVnkYJDZFJZajEjtOJXaKSiovx6mk6S2SOt0iqw9RWbsTston+L01azw+GAk0GwFitP+9oAA4sS217YVR4AZq7+bABIDWf4wYPRWlyg2q7Va2v6GVYufvPwJA1IM1Tc18pnYDS3YICoC0sw4rJfHEF4FNDAGbWLHEQMUCYLPzWafbB2W6u3YCYM4EmZd5Xh4l0vwDlC1csdPc+Vuns6lef+NpfUHOyhsiQMqasFE8UwGvpwfO9/3z/n9XUeZ4RIVI0rtAZv8GkiJRSTGtwkwqeRXVpFK5oq1RSVugWe0bmyXtXfXigvUggYYkQIzW7wgKgNGogMmHz7W+lN9ZAHYXgGPbW6+vNCvb35BW6vx9CgDtQCDZ/vy+W+7QgCWfEhEAhI19s1z9PJQP6uQNlE32AZs86VgO2B0B+DlhU1WlPQZl+midBIAtBPj2KJHnthG2+OdhzNZwciYscwnI2ZN5EbDh/LkQ8CUA+NTA4yApfJsvggLApJJWKFkt3ZLVb7tHkmK5uqeTO+4jgboTIHpbSkgAGLvvq7vRp6mQGAMXg9a3XF4E2NP+3NsB0+H4N/apNnDzaaoL7E+E7dvu7fx9CYCaZPurprFUS1zq7fyrGAOgTlTUDcMT2lBl4m+ATX4LlMk9POc/YRPfJMrkx0k6/aJq7ObXgjJ9IgQBsC4GFkxQFo6DvPB9Is3/FTGMF1drfxDXg5y9LUABsOH8uQgIVADYYiCrPwlZjdy9cOi8INqPz0ACDU+AGP/1YmK0nRITAJ2RywEOev8tQQkA0AaWW/S+mk6hA3XwGlAHXf3+vscArBD1wOVh/3iBJe4QFAArdx8aCeV/5qBMPxGqAJAXTCiUZ0Ge/wlIC5+q56p7+RkcSra/EP4XigDUQwCYNKvz8gRI2j/UK3IX9r8zrB8J+CZAc23vJUabKSQADnVf5NuAGt2Y/5+X1t/rLQLcX/72sXcEwIoK7KlZlkAr29/gsaAEAFEPtNQIa1WPpSwxICgAUlVVGODFoMzsiZAAcIiBxRNUXmwHefGzPOoRYJM9H0XS6QtByh4tiADfXQD1FAB5IQAZfaSFsTd6NgxPIgEkcNZZYLR9RVAAPBFVjkQduAC03iOlIsB2+O7taQWASfS9gTvWvFBR93Vbzj+QCMB02P3H/PfAw+7Akr8UEQBEHbsnrN8WlVPXR1QAmCAv2mUF5MVRkBZv5Y66VqyIJH0EpOyaJQLiIwDWowHPQMb4dK3Y4HORQKwJEKPtISEBYOzuiTIAUPuuCUoAgLYn8CyBVrY/7vjt4gz7O/fLTQEsWgxomScQisL7IEriA6KrARI1+ZGw2kIeS70UlJReLAJK0gA7sgE6EwA59+cc0/8c+4VZAM5BgIUxAIXwv+Prn3cLbDh/1356BeSlISqnv8hTFwfNjUjSv8dUAKx3C+S2YpdA0L8KfF7sCRCjTRURAGB0boo6BKL1by8WAe4vf/v49BEA0PaYoO8JLEsgMYYvBnVwueD8xSIAlO2vy2DFSt43YUkQFAAnt87Pn1NJXbW6hrCpPwVl+mRBBERZACyZIG+UNZCWklRZvD2olMT5xEiSNCswC6DuXQDrEYB1AWCYNJP77yhEx2r1e8XnIoGqCGz5WduriNG2JiQAcrs/WlWlIVxsZQns0woiwHb47m0FAkDbYxJtr3CWwPx0RXXfVLHz9y8AqLo/tGx/Xq8UlMSIkABQxw96Pbfe50CevgaU6V9aIiA2AsApBkyQ0zOgZP6lRVksSchTDU8iyxfzxD7lRYB7/r99XJj+V5NpgIVZAOvOPj8Q0LVvmDTLS64LRUA1bx2vbVgCkGv/qOX8fQ8CXOMiIg6ArCyBfSuWCHA7fvu4MgGQjwQIZgkEdXBzqfP3LQCO8YGEUXkPW+cHzgGWOCkkANgYiUp7WrTZP6Rsuh2UmVXXSoAR6gLY+Pp3OX9+Pu0saSIttVCW9pW5E2T5hngLAMNskXI/xO6AqPzrQjtCIwBG+yZBAcBCM95HxaD2bw5MAGh7fDtdqg69D9TBlaAEAFGHQ832534VvO/ecv4J0+8gQKJMRm45WZKd/X1QZr8GyswYKDNrxWLA2e/v3Hf0+xfWBXBmAgxoDEDFAsApBjSQMvcSlrmsGocI2eyMtwiwv/jd2yhFANYjAZIR2gBT978XPEYCoRAgRluvoAD4USiG+6w0v+Sp1jcBmv3F795WEQHQ9phU2zNQzf84udlbjwycA9qg4u38fUQAtOFQs/15vQpQk/cKCoDlB1nv2V7Pjso5noWQyjPXUWW2C5SZU8WrAMZFAGTMwvK/mSdAzvwQWPbK04XIiSx/DCRpLfYCIGuYLdncx6Pye0I7kEBdCXDHRXJtx0QEABidt9bV6AAqI2r/m0Drf85bBFQnAHhXANX2VTXwDrS9O0Djjr5ccY78d+57zQLYr/H0wQFgCfQRwBLTggKgP1CDavywLdmJVxXEwOzJYjEQ5QhAkQBwioFfgCzlxYAzi+JmWX4dSNIxb+fPpwe6v/zt4whGAPh4AMl4iiiHIpfDpMY/V3w8EjjrLHKo9aKC8/c3BoDmut4bR5ZWlkD31z8/rl4AgLa34ql3+Wx/2j4zIAGwwhcOihp/kk6eDyyxKiYAxu6IWrsqtefuQwvncTEA8mwHKHO/ciwHXDwdMPBpgH66AMoKAHNjISAle5xksz8ASboKpOz+8s4/hgIga5iQPXSg2ihepb8FvA4JRJYAGO3/S1AAnLrv8M6XRLaBpzGM/4MHrb+7NArgSwCYoO2dJumdp803byUl2ncUAhMAQ/Q0TQztT0QZ/XjB+fsbA0C0iYZY4e2+w8mXAJu/EuS5H4Iy90yRGIiLAODLAgezGFD40wDzswDs2QD2NmdC5tBnQ/sHgxUjgTAIEKPtPkEBEFqa1iB43ZXrfw1o/ceKRYBvAXDaLIGW4NjXazn/QCIANUtLLMoW2Oi3BAXAU1FZFleUhfN+vqAPsNmrCJv9AShzxx3LAYc4CLCCCEDtBcAzLbL6EJXZ9VTWLt3C2Kv5GARe+D4/B7J6A82qD1NJfdZaItixEqA9BZBvrXUAymxth+/e5vjUwCNf17RXON8X7iOBhiZA9LZRIQFgdH4n7oCsLIHOrgD/AgC0vWVD8qDvu6Xg/EUFwP6KuxzCeD/AEhlBAdARht31rJM7N8jOfZgv/cuXAAZ53iUCihYCqjATYI26AGomAJhMJfY5knrspZWy59eCxP6RSppStBywLQL8CwCzJZP710rtwOuQQKwJbEtteyEx2k6ICYD2v481hHXjrSyBtggQEgAm6HtLBuVZSxPvWw5KAPDUwVHlflfm4GuAJdaEBIA69qWotq8WdvFoB2ULV4C88CDI84ctMdDQAuAEZOXb+Iwcvzy5gGqR1K9RSftVkRAQEAA0m/sFST9xrl+b8D4kEBsCJNd6SbHz9zEI8FDHW2PT4NMYWsgS6HsQIB8DsFGcWQLzX3ravlSx8xeKAPRGecASsNHPFDv/6scAUDb5ttO8rob+E3+3hM1fBtLivSAvaI7lgB1RgHJrAcQiAqCQjPr2oF7i5oxxGZW0xzdEgJgA4F0BXw3KNnwOEogsAWK0fUFQADxDTPKCyDawSsOouud9oPWv+JwFsOH8N4TAepZAUPduLnX+vgWA78RDVeLwfTlhie2CAuDxKAsc32B83kiU9DuItNAC8kK6IAZiKgCyygzv0/eJouxthLHXU0lbyIsAQQHQks0tlq0I/4AEGoUAMdp2CAkAo32wUVjY7bCyBAp2ARQiAcdA2/sJ0PatBCcA9l9j2xrVLagJQ0gAqOMPRbVtYdtF5IWLQZn/F5AWp71XBIx0BECphfO338lmVX1DPhIgKABoNmfSdM5XimTbFtwigcgTIEbbkqAA2BL5RlZpoBWuH5gqHwXYY+bXAOArAhaVQvh/IwKwIQT4175XKZcEyDsTIGFDwosPVYmj6suJMnJRqfOvrguAsrHrq664CW/gK/zxlf5AWkyCvLhqCYLICoATQYb9y71ummXvpVn9+fIzAdyj/+3j/CwAHv7PF8jk7i1XB55HArEnwPu8idG2KigAIpV7PqiXYg3YG1j2FgFux28f11wAlAwsDKq9QT6HstHrRQUAUaYwK1uVL2WzPPc6Ki98EeSlIZDTK44lgR2LAhUtBuRYC6AO0wB/M+Cvyib5vpxmjTtFBUCLlJv1bQDeiASiTgByrR8sdf5VDgJ8tPO1UW+nX/tA33NLhARA2amFfttXq/tATTwkJADUMaNWtjXLc631CZaup/JSH8hLJwtiIDQBIIuM9q/2vZF0+lya1R/3FgH2F797WxwBoNncKpEf+51q68brkUAsCIDRdoegADgci4b6NNJK2jPQWyoC7C9+97aWEYDBzT6bUdfb8sxY4oiIACBsPPLdHHWFKlgZMWZfCfLiZ6m82A5y+oRrSeD1KEBtIwBUkj4n2Iyqb2+RtJsEBQAuElQ1dbwhNgSI0dYmKAB2xaaxPg210vYOHCkWAW7Hbx/XTACcMb2wz+YFfhtRE2/3dv6VjwGgSvJvAjcMH5gncN/hwy8BtnQlyOkfgpx+piAGaioAnqkmyU9Qr2rr/JFzaFZ/tlQEuL/87eOSCAAmBQrqZeBzokeA5NoOiwgAMDpiu1BLNW8D1D3XhCgAlokxfHE19oZ5LVUSXxYUAGt3ZVKvCbMNzVK3lZKYi4HM90HOPOlYDti5GmBhMSC/mQBlObQZHS2S/hMhAZDNxWqZ82b57WI7BQmQ3/Tdezv/yscAQK7zg4JmxOZ2og1sL4gA+4vfvQ0+AhDlbH9eLw9YokNQAKS9novnakuAz3whLPvnIGW/C3LmSLEYyBZEgI/FgKgshzajg2b1z4sIAJo1JmtLHp+OBEIgQHJtHxcUAKuE9b48BNNDqXLrkYFzQBtQLBHgdvz2cbACgGpDA3FKhsNT2QJLHBcRAISNfTOUF4yVbhAgpvmCTXL6/aBkvg5yhm0sB+wzAkBl+dKNh9d5J58hsCQngB3yd29Luy6VWBkAACAASURBVABoNqfX2WSsDgnUngAx2u4WEgBGx1LtrYxWDVaWwIGV4rn/tvPn20AFQOSz/bnfDtUSl5Z3/hWOAVCTkU9y5G53Ix/nB3VK2eUNEeAjAkBkObSR9ERVLxCLAOSONfL7xbY1KQFitA4JCQC983vNiA7Ugc11EQBs8FNx40vZyD8LCoAVkk6eH7d2N7q9IGdXhARAOv2isBg9yNjZggLg+bBsx3qRQE0I8Nz9xGh7RkQAgNFxY02Mi/hD+Vxm0PZMeIuAgCIA2lAsxRWw0T1iAiA5FfHX35TmgZw91cQC4FRTvnRsdOMSIId2vpUYraaIAKC5zqbNk21lCdyzXCoCAhEAscj25/7X8SDrPRvY6LKQAFDHMfWqG2wEjkGWnhISAPHuAngmAq8ATUACwREgRuvfCwqAE9tS214YnEXxexLVBm6ugQBYoerQ++JH46yzKDt4BbBRU0QAEDX5kTi2vdFtBjn7M0EB8O6wGAUwCPBnYdmO9SKBmhAgRut3BAXAaE0Mi9FDrSyBe3qLRYBwBCAW2f68XhNhoyAoAE5unZ8/x+vZeC5cAiBnJkQEAMjyDWG1oCVr3CgyBgAyhybCsh3rRQI1IUD01pSQADA67quJYTF6KAqA4pcFyuiIkABQxkaKn4hHUSFA5MxPRQQAycoPh9WWlqy+U0QA0Gyu4bOdhvVusN4QCNx3eOdLiNF6SkwAdF4bgumRqhK7AAqvg6SHzwU2elJIALAxUngi7kWFAMlm3wxydlREAIAkPxtiKuDnxASAAVF5F2gHEhAmQHNt77Wcv8AgwEOtTb1UKw4CLP4ZEnXkI5bz9z8GgCiJDxQ/FY/CJECUzAeoku0EObO64fx9JgICSTZBkv6x3u3xzgKomzTrTgBkH5cmAmrJ5j5eb7uxPiRQMwJg7LpVTAB0PlEz42LwYJ4yFbQ9U8V9/3YyIOExACaogyawwR0xQLFhIqij9woKgGU+i2DjgbgTCoH8FFc582mQM1NBpgK2BICi8H879WoYSadfRLO6Vvr1X5UAWCNp48J62Yz1IIGaEyBG20NCAsDo6Km5kRGuoG6JgNTB2GTEAzaaEhEAlCUHIvzKG940wtjLQc58BeRMrtjx2ysEiq0FYAkAHgVQvlYvmC1Z7X97O/+qBEC2XvZiPUigLgSI0aoJCoA762JoBCsh6sDloNUvFfBduYORXxWPZ+4DNroqIgCAjTXFqpJR+0mTdPpCkNMElPRxb8cftACQf0Uy7LJac9icVS+nWf15YQEgGffU2lZ8PhKoG4EtP2t7FTFa18QEQGdTztW+R+p8GegDWj0XAwJ1uDfqiwERZfTjBefvbwwAX0Ogbv8IsKKzCMtcAkr6RyCnT4GcNq1iO3uvbVARAB4FkB8njL2+Vq9hU1r7PSprR8o7/yoiAGnjPbWyE5+LBOpOAHLtHy04f1+DANe4iKi74RGoMKzlgIEN3xKB5pc1AdjotwQFwFN8FcGyFeAfAiGQn7aqLP4FldODBadvO3++9XL89rkgBYBigsQWaiECNqvqG1okbZFKmiksADK5TNTFdyA/DHxI8xAAo3WTkADItbPmoVVoKah7rrG+/AfM+kYAhkxQh5aJMXxxwZpo7QEbyQgKgI5otaixrCGG8WKQl24AeSkD8tL6177T8dv7trP32gYtALgIkB+nWfbeoGjnw/78y587/0AEgPFPQdmGz0ECkSBAjNYeIQFgtP84Eg2poxHE6LkQtP5jIQoALgJS9RxBXSneuzIHXwNsdE1EAFAl8eVK68PrKifAl+ClcvpOkJeOWo6fO/8oCQAuApTnqczuFMkAyUf75wf8SdrzG85fXAA8cY8kvaxy2nglEogBAZJrPSYiAMBovzUGzQzMRCvb30BvsfPnUQB72p97G9A0QD4VMF/yEQAuAPhx5NIEAxv9TLHzr34MAFETbw/sheGDziLZuTeDtPhdkNMnih1/JAUAFwEmleTHWyR2UzVCgF9Ls+rnqaTpRY4/gAhAS8b4Cv6UkEBDESC/Sd5T7PyrHwPAkwg1FJQzNMbK9meH/Z1bt+O3j2spAIYit1AQYYntggLgCPaznuFHWOGfibLwAaosdIK8uOrt+KMsALgI4IU91yKxn7RklRuporyHqOoF/As/X1T1An6OStoXqKT+lErqc1RSrXC/7fSd2ywf7Feu2Il/3NucSaVDj/Jukwqx42VIIB4EiNF2raAAOEWM/2qafxhWtr+B5dKv/7AiAPloQKSWCgZ11BASAGryoXj864mmlTxxD5WXrgV5cQrkRbNQbGfvtbX7/N1br75/+1wtxgDkuwDWIwAbAoCLAI/CHX25st7n73T+fL+s8z/9LADI5OqesTCavy60qqEIEGPXfUICQG9PNRSQ0zTGyvY3MOXt/EMVACawoUhkCSTKyEWlzr+6LgDKxq4/zWvAP5UhYCXuWfgKyIu5gtNHAVDUFeBLABwawIhUmR8dno43AWK0JsQEQMe34k2gcuuJ2n9XeedftQA4BtreT4C2bwW0fWZpsfv7vbbOMQCOfbb/U5W3pjZXgpq4QVQAcBFRG+sa86lW4p55AsrCcZAXHF/8TufP972+/O1z7i9/+9j+2vfaNkUE4Im7MrnIJ95qzF82tqqmBLaltr2QGK0nRAQAGG1/V1MjI/JwK9tf/0pQAoDo+z7Jmwbq3s2lzp8LAi/Hb59zOP38QED7ePhY2FkCiTLysKAAyEXklUfeDKKk3wHy/A9BXjhlOX7u/FEABDgGYK1F0v8q8j8ENBAJ+CFAcq2XlDr/KgcBHup4q5+643SPle2vTwOtf32+v3Pgn3PfHvTn3hYPAiTa3u12+61uhX2pUhFgO3uvre3w3dthM8wsgfnZEWz0iIgAICy5wcZmhNsCgTxjZfYvQJ4fKnb6tvMPVQCsgpTdTbPZK0g2ezdIEl/tz1XyWf/4fH9XKfT98xkA1iyAcMcAQNbYUiCPe0igwQiAsesmEQGwyWh/mpjkBQ2GpaQ5oPXvsJx/IAJAv0caLZpLTNThN4G277liEeDl+O1zbsdvH+cFgBlWlkA+dc/b+VczBmDsMyUvAE+c9SBjZ1N5/jqQ55dAnl//0nc6fee+O/RvH9vhfq+tHfJ3b71C//a5jS6A50GSfkhYeuNjIC9UJGlHXAVAS9bYgf3++A+voQkQo3WHiAAgevu+hgaUD9H3XVNw/sICYIWog5d7MQN93y2BCQB1fyhZAqky8mVBAbDGkwh58WnWc1vYzKupPHcnyPNHLcfPnX9kBMBRkLObtjD2aq/3k49uSdLuYhHg/vK3jyMVAfgxMc2G/7Dxemd4rokIEKN1SUgAGO0NHSIrZPvjjt8uzpC/e98d+rePrS4Aou9tKffzyn8xaft6CyLA/tr32tpf/O7tegRAzW/rniUQ2GiHoADIlOPTbOdbpPm3gDT3XZDnTxQ7/igIgHQW5OwNlcyLz4sAWf5+QQTYDt+9jYwA+DG3udl+b9jeJiPA+7WJ0boqKACublRslkPu7y04fmEBMHWm/7Hclet/DWj7jlkiwMvx2+fcjt8+LhIAfDxA3bIE8oV7gI08JSgAmmZGSbl/N5TNXEGV2U5Q5lZBnlv/2redvnPrDPm79+2Qv3vrFfq3z7lD//axHe7n2/QQUbJ/WW1oPP9vSZK+bokAt+O3j0MXAKstGeOOattW7j3ieSQQaQIk1/Y/vZ1/FYMAH+18baQbKWAc6P23lDp/310Ayy360FsqMQfY3quCEwD7VykbuqKSekWvIfLBdwMbMYUEgJq8RtSOON7Pw83A5q8EZT4Jypy5UaIhAFapnOkiLHOZKFsiy1eDJD9ZOgCQi4BQBcCzIBlXibYP70cCsSEARtsdQgIg1344No2t0lAr21//clACgGr7bq7GBKLt2+5zGiD/6neV/XXJEghs5A5BAbBK0snzq+EU92sJG385lee+CvJcbsPpR0cAPE2k9NbN6uIbguS8Ka39HkjywVIREJoA6CPKIcw7EeRLxmdFnwAxWtuEBIDeviv6razeQp5GFbS+CW/nX30EgGp7qs4itvXIwDmgDSrWwj922N+5tUP+7q3b+a8f1yFLILCRPYICoGkyShJj8kKQZwkos8dBmS188TudP98PJwLwGMhpcvfCwnnV/+up7I71LoFPgSQdKgiBuguAx2hGv64yi/EqJNBgBEiu9bCIAACj444GQ5JvDqj9m0Hrcwz6s/v+7a174J/z2B70t7E9RozhC/1wourQ+0AdXPEWAW7Hbx+XEQD5qMD+moXXH2S9ZwMbWRYSAGryXj+c4nQPYfOXEGX2x6DMnrIcP3f+UREAmSkqZ67lArheTEk6fS5ICgVJOV7nLoAnedrkerUT60ECkSJAftN3X975VzwG4E8j1agAjLGy/fWtBCUAiD6Qz/bn1zS+1G+AAqBmWQIpO3iF5fz9jwEgavIjfjlF+T7+tUuUmQ9RZbYLlNm1YscfugBYpfLiXmBLV4bJkM8moLJ8HcjKklMIWCsB5lcD9FgIiC8OVG4hoDOvBkikRxt2/FKY7xLrjgEBknvk44ICYJWw3oZS0FbYvVexnH8gEYDvif4U8t0RbHCiVATYX/zu7WkjACbV9lfdHVFJGwgbBUEBcJKkh8+tpK64XGMl7pm5DpSZJVBmTKvYDt+9dQz8c3YD1K4L4HmQ00WJe6LClabZ2yArE5DkVC0FAEh66OtmRIU52tFkBIix624xAdC21GjIiNa/veD8BQWAvkfj0yyDYESM4YtBHVwuFgFux28fn14AgLrfBHbgliDscj4D1JERIQGgJEacz4vzfj5xD5u5E5SZowXHHxkBcBTk9CZuYxwYk7RxIcjyR2mW/R8qsUeoxEappEpUYk9aywP7jwBARrs/DgzQRiQQOAFi7BoSEgB6u/DXbeCNEnggUXuvLnb+QgJglegDHxAwp+RWyoZuDkwAqPt/RdTht5dU4vPE1vmBc0AdOSkkAFiC+Kw+Mre1sNQbiTLzACgzy6WOP3QBwEBavJU8lnppZIAJGtIisR+KdAHQrN40g04FUePtjUSA5+4nxq5nRAQAGB03NgoTog5cAFrf0cAEgL6HBs0mP2pa3dddEAH2F797W0EEgEcB1P3TJJ1+URB2gjr6UVB5379deN5/r5IwgXkXoiQCFUxBtKvSZ2ySU+8HZWYnKNMroEyvh/pth+/eukP/9nHNugBGQVr4FE/SVGl74nJdS1a5UVAA/PoeSQokShcXZmgnEjiLHtr1NmLsMkUEADHa39EIKPOOVevrLnX+fiMAe6fPlO3PL7e8UFEHj1giwO347eOKBUBgWQKJenCroABY5rMI/HIJ4z4rcc/0laBMj1lOnzt+u7idvvPYdvjubaACgA/s66JK+j1hsKlXnXysgKAAMFsy2ofqZS/WgwQiQQCMR/5BUAAs13OqUC2hWdn+uLP3Kva0P/fWOe2vaH+5Re+rKNuf3zYBG7oqOAEQTJZAUEemRQQAZYkBvzzqfR9fxRGU1K0gp3IFh287fnvrdPjufbfjt48DEQDPEmn+gU1a+vfqzSWM+rh4t8YClBsHoJlU8ihZ3aTrBbJa7LuewmCPdcaYADF2/V8hAZBrb4gBW1a2v75lb+fvKwJwUz1+FoTt2w6q/cXv3lYTAdhvgrZf59no/NpNDifPB3VkVUQAAEtEPp+ElbhnioCSOg5KyrSK7fDdW7fTdx7bDt+9FRIAj4E8X9PEPX5/H7W+j8qsq3wUwMP5c0HgEAA0q++ttY34fCQQKQLE2DUtJAD09m9EqkE+jLGy/fVMlHf+1QkAqg3UZHqdV9OsQXc8S6Db+fPjKgVAflbAwR1e9VRyjmijH887f4ExAFRLXFpJXWFcQ5TJd4A8/UNQUqcKjj8yAmCGyvPX1arLKQze1dZJZe2fBQXAc40SzayWHV7fhASI8V8vJsauUyICAIyOT8cdHVF77wKtt0zo3+4OcIf+7eOisD/PGHiMr+JXTyZEHbwc1KGVUhHgQwCoB0xg+33NiQZt5FuCAuCpqA1QsxL3TH2IKpNdoKTWSh1/qAJglcrze/nCQfX8vUW1rs2y9n5BAWDSrPrOqLYP7UICgRIguUcut5y//0GALbndfxCoUXV+GFG7LwetdyUoASCa7c9v860sge4ogE8BoB7wlSUQ1JGMiACgLNHut/1B32cl7pm6DpSpJVCmTKvYzt5r6w7928fOkL973x36t4/P2AXwPMjzPyRs5q1BtzvOz8u/M0n9lbcIqKgLwGyRjFvjzABtRwIVEwBj162CAuCJiiuL4IU8OQ/ovZrl/MUjAEQb2B5WM3noF9ShqeIogG8BYIJ6oJd//Trbw9cxAHXkGqIevAvUgz8B9eAkqAcfBXXkOKgjv95w/j67AKiS+LKzvjD2eVIcYFObQJk8WnD8kREAR6k8d2dcEveE8f6opPLkQB5pgSsTADSj/zQMu7FOJFB3AsTY9ZCQANA7uutudIAVEqN3e8H5CwoAfSCwbH9+m2hlCRxaLogAIQGQzxJI9IPvBnX/vaAeUEA9aHqXEbPI+fsUAERNBJaQqFqGLdLUW0CZ+C4okydKHX/YAmA+A/LsDTxHfrXtarbrQWJfFxIAWf3nzcYM29ukBIixSxMSAEbbnXFFR4zeq0HnTt9Z7P5+r63d5+/e5scABJ7tzy9XK0ug3RUgKAD4eICiUlMBcNQdcfDLoJr7rMQ9UztBmVwBZdK0iu3w3Vuv0L99zg75u7fusL/z2A75u7frXQBsbhTYbEMm7qnmHVVzLWTZlYICwCTKoYuqqROvRQKxI7DlZ22vIsauNREBAEbHh2PX8N8YnE+io/ceDUwA6P2BZ/vzy5U7UVCHuq0oQIwEgJp4yG+bq73PStwzeSWwybGC07edP9+6Hb99bDt7r63b8dvHTofv3nc7/vzxKlXmuqgy39CJe6p9Z5Vef/fCofOopK6WioAKuwD4tMCMfl2l9eF1SCCWBEhu18cKzt/XIMA1LiLi1vi8g9R7uvPOP5gIQM2y/flla2UJHDriaxpg0Rd/XSMAx0FJ3sqds992n+k+K3HP+K3AJnLAJs182fjqD10APEuUuQc2aammSNxzpncl8neaVdNCAiCrbxOpH+9FApEnAEbrJiEBkGtlkW+kh4Gg99yy4fzFBUDNs/15NKGiU6AOXhMzAWCvDbCfqMk3VdTICi/arE6+gSiTW4FNPA1swrRKRASAPJuj8txXRRIwVYihaS6jsrpNTAAYDbe6adO8fGxoZQSIsatHSAAY7T+urKboXEWMrotB71kOSgBQre/m6LSu1BLC9m8vLwLyiwDxhYBcxf3V7zyu6RgAWwCYwJLPgJL4RGmLqjtD2NglhE38GNjEqYLjj4gAYDNTVJ65FhPPVPdOK7mayup1YgJAX7vv8OGXVFIXXoMEYkmA5FqPiQgAMNpjNV82P01O75kCvccMSACUTJOL2g8hH/JW92veIsDt+O1jp8N379dNAHARsEaU5NZquwR4Fw9RJv4S2PgQsPH1r33b6Tu3oUQAVqky00nZzBVR+600kj1EUS4SFABmi6TXdB2PRuKNbYkZgZZH299Y7Pz9jAFovSxOzSZ6912W8w9EANQ9259f1laWwOGVUhFgO3z31u30ncd1FQBcBJiEJX9cSXpbvoIgVSeuAza+ZDl+7vwjIwCeB3kGE/f4/RH7uI9K6s+LRUAVgwCzuknSaqDdUD6agLcggdoQIMYj1woKgJM8jXBtrAv+qVTtfR/oPSuBCQC175rgrazdE4k63BJXAcBFALDkbpJOv8iL0BZ28NW/Ce9vAjZ+tNjxR0IAHKVsBhP3eL24Gp9rkbSdAgLg1ySdPrfGJuLjkUA4BIix6z4hAaC3pcKxvPparWx/PVrB+YtFAIjWH1q2v+pbb91hZQkcnioWAe4vf/vY+cXv3q9/BGBdAPDxAT9y5glokUbfAur4d4GNnfB2/KEKgAzI0zcQYzg2Itnvbyuq91GJ/a1vASDpB6PaLrQLCQgTIMauhJgAaP+2sBF1egAxurcXO38BAaD3hZ7tzy82ou3/drwFAI8EjH2dsuQVwMZ2AxtbBTbGz62H+m2H7946+/2d+zUYAyBPD4GS+gunUPH7vvA+MQL3SNLLqKQ+URABVXQBZIxrxWrHu5FARAlsS217ITF2nRARAGC0/V1Em1dkFuS6ril1/r4FwApRBy4vqiAmB6AOf7rY+fMEQfYXv3vr/up3HocZAcgLgHWHbzt+e+t2+s5jp9N37gcmAPjSwD8iLHVJTH4OTWMmSNo/VC0AJP3gTtP8raaBhA1tLgIk13pJqfOvbhBgS67tj6JOjRg9F/5mzv+xoAQA0Qdaot5mL/uItu/NoA3/EgWA0/nzfWEB8DRRUlt5jgEv7nguGgSoxP7dEgEVRQCUuzK5ui7lHQ1KaEXTECDGri+ICIBNRtvTxCQ1y9YWxIvIZ/vTenq9nb+vCMBUJSPRg7A9yGfw9wTa/gOlzh8jAL4FgJzKAZv6CibuCfKXWttntWTVL1FJW6aShwjgqX+t0rWFsVfX1hJ8OhIImQAxWneICACit+0LuQlnrN7K9scdfbnSW8gFcObFgCKb7e9MIEDbf5O380cBULUAYFNTVJ7CxD1n+tFF9O93Leq/C1mN0Kw2TiXtSSppJ6msMZrV/qsla/xpRM1Gs5BAsASIsWtJSAAYrVuCtSjYp1nZ/rqXyzv/6iIAUc/2V44eYb0vB3X4WI0EwDOgHnyIsoPXU23/pXwqHo+Q8ML3qZa4FNSDNxBl5GFgo88CGzVLS8KR+c+9n5/6l88DUJgFEMoYgFWqTHUSZfID5TjjeSSABJBALAjwKXHE2LUqJgDar45qY/PT3fTuKdC7T/P1X40A6I98tr9y78J77r9zdUD34D/72Dnoz71/UKbayOfIY6mXlqvXfZ5fC2z0H4EllGIR4Hb6zuPQBcAJUKa+S7ITb3a3B4+RABJAArEkALnWD3o7/yoGAT7a+dqoNh707s2W8w9EABzjAwmj2tbT2fV1be8rQB16tvzXf9VdACdAPXCbSN76vDhTRr8GbPRXlhBwOnz3fmgC4Chlk3cSOfU7p+OLf0MCSAAJxI4AGI/cISQAcm2Ho9poK9tf90pgAiBm2f6c7wW04VtBHTIDEgAKUYff7ny+yD5ho5cBG30cmNvpO4/rLQCmMiBPYuIekReL9yIBJBBtAsR4pFVIABhtrVFsoZXtr1srOH+xCEAcs/3Z7yU/A0IdVAISADO8T99+dlBbwsZfDyyxUF4E1EcAUDY5CMoEJu4J6sXic5AAEoguAZJ75LCIAACj7Y4ots7K9sedvrOUmwFwhjEAMc72x98N0QffbTl/4QiAUgvnb/9+NqsH3lA+ElBTAcCXBsbEPfaLwC0SQAKNT4A8+vBrifGIKSIAiNEeuekyxOi6utjx2yLAlwBYJXpPrEd8gzp0bwAC4FdUH/l/a/2vgrLEe4Elni+NBNREADxL1PEHNmmp36t1u/D5SAAJIIFIEYDczmsEBcAKD7VHqVFWtr/uY0EJAKL3xTLbn/OdgDokByAAbnM+s5b7lI3eWWMBkAM2gYl7avkS8dlIAAlEmwAxdt0tJABybYtRaqGV7a+r19v5+xoDEMtsf853cpe+73cLzt93F4AsMtrfaU8l+yQ9fG5pV0AgEYApUMc+Xc+2VNJevCZaBFoy2odoVv8BzRgqzeqnaFZ/GjL6BM1qwJMHRctatAYJ+CRAjEcGhQSA0RapZXBB77oF9C5Xv78d/q9aAMQ225/z5wDq4DWiAoBqBz7nfGY99oElbiqOAvgWAKuUjWPinnq8tJjXQVT1AippvetpgO10wK6tsUwl48sxbyqa3+wEeE54YjzyjIgAAKP1xqhwtLL9dS0HJQDimu3P/T5AHdwsKACeqSbJj7t+v8db5wfOAZZ4riACfAmAUaJh4h6/76CZ7iOMvZ5KupZfG6CwFoDL+fM1Aox8gYxxfzPxwbY2GAFyaOdbLefvfxAgze364yhgsbL97Z6ynH8gEYDYZvtzvw9Qh34iKAAecj+zXsfAEj8RFAA/qZetWE98CfClfqmkjW4sDFSBAOBCACTjH+LbarS8qQkQY+ffCwqA5aj0pVrZ/rjjt4sz7O/cr2gWQGyz/Xn9oEEdmhIRAJQNX+/13Hqco2ry84ICYLwedmId8SYAkvaZDefPVwesUADQrHGUpNPnxrv1aH1TEiDGru8ICQC9bTQK4Kja+T7Qu1YKzl8wApDruyYK7QrKBlCHDgsJAG3/pUHZUu1zqDLyHkEB8Gi1deL1zUcAJC3hUwCYIOU+03zEsMWxJ0D0R1JCAsBouy9sCFa2vy6t2Pn7FwDE6I3UoMYg+II6dFxEABB5OLQc+ERNXCAoAI4HwRCf0bgE7pGkl1FJW/ErAFqyuZ3/f3tvHh3Hdd/56sWO5T1eE6/xWHbsxDpzzpjKeFXsiZ8nntiSl3iUnDdmNO/NO8NY8YvkLc8vcybm794GCXlkyyJlJ5Yt2RZ3NHaABAmA+75AJECya+laGztBkxRti6ZEAPV8q7rQ1dXVQHffqu7q7t8f99TS3VX3fm8Bv0/d+7u/X+Oqgy1rSAUenUi+DIz2F3gAgBidf1NrccDo/2mh8a8UAHbpcYtpEIa+RN3/AhcApFIvCaMelVxjozJwOycAPF/JffE3zaMAyMYf5xn/8qYAmEPgTPOohS1tCAWomfxwzvhX5gSYMPveWUsxiNn/BVia83fn/t2td97fu1/UB2Ae1J0fqWV7orp3cwPAqZtR6YrXbQwFEmnzTzgBwIJ05o7GUANb0RQKgNH+VU4AmKulUCzaH+j9l8MCANB31X20v2L9QdT917lGAOp7CuByMV3wPCrAFICR6ZdTSVvMg4DSnQCdZYGCfj+qiQrUjQJgtG/jAgC9c2ettUA7tAAAIABJREFUGsui/YHWN8CMf0gAUPfR/pbrC6Lun+ICAP3wB5a7fpSfOWmC3ZTAFcUB0KKsH167MRSgsnaRCwBE44nGUAJb0RQKgNGhcgGA0fHtWgnFov2B3mcb/xAAoCGi/S3XF0TZf4oHAIh68L8vd/0oPyPp43/H5QOQPnE6yvrhtRtDASrrT3ACQKoxlMBWNLwC6ye7Xg9G+yIfAHT9p1oIxaL9gd73XFgAQLWdf1+LdlTznkTZ38EDAKAe3F7N+nrvRZRjSS4A+G2KX+/1cB8VCFKAyur9nACwCKmJ1wVdG8+hArFSAMyOT+cb/7KdABcZRFS7USzoEOh9pxzjzz8CQPVdg2w6odrtqPb9QD2Q4AEAoh78FUvOU+16hxEKmKZP/M9q1xvvV38KQDp9BycAWETM3Ft/LccaN50CxGhfywUAZqdSC9FA72vJGX9uAGioaH/L9Qdo+/+KEwAsohz6v5e7RxSf5UcBZH4AFfgApE9+MYq64TUbTwEqqVNLEFCuE6ATFvjhxlMFW9RwCoCR3MUFAEbn1mqLwqL9gd43HxoA/HYJYbXbUKv7tcj73soNAOqhNMu3UK02QCr1EqIc03LD/xUBwCILJFStOuN96luBhKQleQCAimYsIqPWdy9g7SNXAMz2yzwAQIyOhyKvpOcGLDgP6H1avvGvfAQAjJ0NF+3PI1fgLlH3p3IQcMAiarFy0CJqUDlkEfXwPwZePIKTRDn6T/nGvyIAGI2ganjJBlUgIWkPcQLAzY2KcnuDyoPNagQFINN5R6HxL88HgJpdH66mFmD0P1Vo/CsGAK0Ro/0t1x+PThx/GVX3H+AHgEO/AeXAh5a7VxifgXr8I0Q5djMEAPhuGPXBazSHAlRU7+IEAKtFztzdHGphK+tSATCT/4UTAF5gYYSr1Xgw+j8fbPwrAoAF0Hd9rFp1j8N9QN33CaLul3LGf/8yb/9sVCDo7Z+dYyMAdplpUQ+9Paq2gXT0LUQ5NlVo/MsfAaDqybuiqidet/EUyKYE/qUNARX4AFDRZEGB/r/GUwZb1DAKgNH+fS4AMDvPVEsMJ9pf7+WwAAD0/oaN9ufvE5CG3kK0A8l8w8+MPzcAMBA4D8qBt/nvyXvMwIIoxy4EG/+yAeACb33w982nABW1YU4A6Gs+1bDFdaMAGO3HuABA7/xhNRrrRPvrHQC91woJABo62p/bJ0kr+SKq7n+QqPt84X9d4x8KADAImKHKwdCmgpxh/6OzxY1/eQAAyol1ria4RQVKVYCIGvABgHmlGZYWl6onfi9GCjwx8sTvgtF+gwcAiNHxX6vRJKL3fMUx/qEAQMNH+2N9QtX9dxF13whR91lO8Rp9734xB8CSpgDcqQC2vUm1g99m6/UrfSYcb3/m8Hf0JlGOWmEBAFFOPE+Vkw0f5KlS3fF3wQok0tonOQHAoqnMncFXx7OoQA0VAHPHqmDjX7oTYMLs+pOom+BE++t9LiwAaPRof6AMvJqo+zYSdd98zvgzCPAafe9+aACQhYHDM0Q7/EA5IMC+S9Uja4hyVHcMPzP+oQKARZSTrGyC6ZGXR/3M4vUbQwFIpV5JJe0WrdgHgPkBZNY0hhrYioZSAIy2L/MAwFqj81mw4HeiFMUepdB7z+SMP+cIgNY/0MhDckTfdx9R903lG/6qjQC4AMCWCLLyK6Ie3vHb6YG/o+kjH2Rr8Nkbvl3UY7/PztH00S+DcqSNKEd/lW/4IwMAi6RPjoF6/N1RPrd47cZRgEraCB8AGE83jhrYkoZRAIzkz3gAAMzO4ajFAL1nXb7x5wKAy+vMPW+Ous61uD6k995BtL0DRHONfdDW+9bv3Q99BMAFAN/2iEVUX1GOWMQursH3b9lcf7FSQSRAZxSAjQT8kmBUwFo8qnV3TyJpj/EBgIkZKOuu15ugwmAkU1wAoHdG6lgFas9HQO+dDwsAQO//z43WrSwaH9H2PkS0vb8i2l4LAYBBwYkixZ4CcKcC2HYR1JMbWE6JRnsusD3hKUAk/T5OALBAmQx9lUx4LcQrNZ0CdjQ9I7nAAwDE6PpcVMI9Mjv4CtB704XGv+IRgCejqmutrkv1vX9GtL0XHcPPjD8CgJMfoGQAyMLAqYNgnH5TrfoR7xtvBSBlvIkXAIiUuS/ercTaNZUCYCY/AUbS4gEAGO99S1SigdH302DjXxEA6I0U7a81s/O1oO/dQLS9C/nGHwGgMgBgIwOnJqlyKrRljFH9XeB1a6MAFXWtOAQYLOBPQGEOgE4hgvFYbWqOd0UFAhQgRvs/cQLAeMBlQzkFRvfnixv/sgGgYaL9MedFqg7fT7ThuULDjyMAueyA5Y4A2ADAIOAWUU59K5SHGC/SUApQUX+aBwCoaI40lCDYmPpWAIxkFxcAmJ3tUSgAatfvg95zKUQAoFHUs9rXBG3ve4g2vJdow5ZTXIPv3wY5/7nnvI5/3v2mdAL0+gIw4+8tWx4ZG6s4lkG1nw28X/QKUFFfwwkA89+RpFdFX1O8AypQggJgJCd5AGCt0fn/lnCbsr5iR/vTe3aC3mOFAgBa/zPVTFlbVmNL/DJL3EO0YSDa8M2c8WcQ4Df87rFr7IO2XqPv3UcA8AEAgwEhkT4ReYyLEh8D/FqNFYBU5n2cAGAlhMwna9wMvD0qcNttLRPJtzrGn8cHoP0/hK2lE+2PGf9QAOC5hN773rDrWM3rEXXfXxJ9WMs3/NUYATg4RbSD/wcoB7eWkAzIGwnQHwcgzssAlxsBcEcDroFy5rPV7HO8VzwVsKffRP1KMAQEzf+zczkfALZPRAPi2TqsVVMpAGb7X3ECwELYTnVOtL+e5xzjHwIAaDsfqNdOZbEKiDq0KdjwRwkABxdAPfgEiyTItGP/9IhyAIIhYCkbYCMDgEWU04ugnsalgvX6xxRivamo9/EAABXNyOOmhNhcvFSjKgBGspULAMzOUDOrOdH+es7kjD8nANRptD8ncc/gg0Qbuk60oexcv2vw/Vt3yN+/DRr6d895h/29+/YUwAhoB/406JmnyqG/JurBa/kgEAsAuA7KsXVEOX4t5wBYVhwAzyhAng+AOwLAAMAp6dN71ytn3xikD55rDgUSgvEtTgD4FRywMOZEczwu8W0lGMl9XABgdD0VZutA72nJN/5cAHCZpQ0Os37VuBZoQ39KtKERx/Az4181ALjOsgUy+FiunS36vncQ9eDhHATUGADSx44kpFPvZHVmYX1J+vhYDgIqXgXgMfwuECwBgEXSp8dpeuSDy+mEnzWuAlRSP8oJACwvwF2NqxC2LPYKsNj9YCSvcwGA3hlacgsn2l/PfIgAUFfR/ljAI6INPUy0ofl84x89AFBlX3+LeujtpT60zjLEQ/cT9eAMUWsGAFdI+vhDYFl5OSjAOPBSohx/kiMOQIDxZxCQBwAMAnCpYKkPTIN9b6Oi3E5F/TeFEFCaDwDzA0hImYcaTBZsTj0pAJnk+3LGvzInQGp2vD+MNtvRCPVerdD4VzgCYPSHOjIRRhuXuwbRh+4j6uBUoeGPeARA26+Dtv/Ty9Vtuc9AOflqUA4Tohy6EgwCdiIgnwMgO+fLA8COS88FcIUqR7/9sDbye8vVjSrH/p6l/g0OB1wQCricKQBm/HNFPoVZBZfriAb9jAj6ES4AEM1kg0qDzaoHBcBI/p+cAPBcWLHTweh+Ktj4VwQAWtiOiVH1p5O4Z3CAaIOWU1yD79/65/29x/65f/fYne8P2u5/gWj718N0fyjpcCF14JVEOfw1oh4S8kEgVAC4SNPHHvyOdLTkNdQ0feKDRDkxXggBIQKADQNnxkB9BrMKRvWHEsPrUtFo5QEAKprTMWwWVqlZFAAj+S9cAKB3Hg1DK2L2fAGM7uySP2bw/YVF/CtW+izQ88o8m0oIo15RXgNSyZdQfeh/EG3wRs74MwjwG3732Gvw/fuuwfdvgwy/fe4wVfbfGVX7qHLo/aAeeoSoh84T9fBiNh2wbxSg5BGAC6AcbQXl6Icqre965fAbqXpiOB8CQgcAi6TP4FLBSjupDn+XELV7OAHAgnTmjjpsOla5ERQAPTnCBQBGx6O8OoCRfBOY3ZfDA4DeBG+dov496IMfI9pQKt/wV2UE4BdU2//f2Px91G10rw/ygTcQ9cgXqHb426Ac2UrUw6eJelgj6pGrRD3yPFGP3MruTxDlyElIH9kO6rEEUY7cu04/+QfudXi3zLGRKCfXE+XEogMCkQAAg4BFooysX8mRkrc9+PvaKwCpiddRUV/Mh4DSfQDs2ABC5v7atwRr0HQKPDqRfBkYyRd4AIAYnX/DIxwzRMCi/bG3/zBGALS+Z9gyQp46RflbJ3HP4AaiDS4EG//IRgAWibpvE3sTjrJ99XBtkj71GaKcuEqUyACAQQArmFWwHh4IzjpS0bjIBQCi8QRnFfDnqED5CtBM20fzjX8lToDd/6b8O+d+QcyurywZf34AiG20P8djfs/9RNszR7Q92bl+943fv3WH/P1b/7C/99g/9O8e28P9adD2YtjR3GOXXSp4cqw4BLjL/vzbglUAOUdAx+i7xj+7HZmkylnMKujRvtF2iaj9iA8AzFSjaYLtqQMFiNH2NU4AmONpJhgdfwxG93NhAQDRemMZ7Q+0Xe8h2p69juFnxr9qAHCDaPtgozJwO08/NepvnaWCJ54MhgC/4XePywUANhIwcosoI5hVsEEfJCLof8sJAIvrxcnXN6g82Ky4KgBG+zYuADA7+ittG1s5AEb3qTzjzzcCMFjNee1S2s2mWIi2G4i252a+8a8KAOxP6PvrOvdBKRqH8R2qnlxDlJPP54OAa/D924oAgEEAK5hVMIwOi9k1mBMfJwBYRMzcG7NmYXUaXQEwkhoPABC9/Z8r1Qj0rnUFxr9yALi8zux8c6V1ieJ3oA58gmi7pULDH/kIwDRVh9GpqMxOperJu4h60shBgN/wu8dcAMAgQEikn8GsgmX2T9y/TkV9IgcBZToBssRAUubhuLcR69dACqyf7Ho9GMlFLgAwOj5ViSRg9nwEjO758ACgPzbR/pzEPbs3EW235RTX4Pu3/nl/77F/7t899s75+/f3LoC+dylxTyX90uy/AXnkDVQ5OehAgGvw/VtuAGAQcJ2kz3yx2fVupPZTQW/jAQAqZkJZTt1ImmJbIlQAzLZPFxr/spwAFxlElFtFFuoWjO50oPGvbATgyXLrEMX3WUhlqu5eQ7Td13PGn0GA3/C7x16D7993Db5/6zf6S8fnqLEfY9KH0LHOUsETQJRTC0TxG392HAoAMAhYhPQIZhUMoc/icAkqGQ9yAsBNMIyXxqEtWIcmUACMNuAEgHQlMoHR9dOixr9MAFir9+pxiPZHlYH3E233qXzDX5URgF8TbehbuN68kidx+d84SwVPXS2EgNAAgEGARdLP4FLB5buiLj6lonoXJwBYLXLm7rpoLFay/hUAIznABQBmx+ZyVQCj+/NgdDnr/ZmxDyoFEQDdiIAFUQAXQO/9WLl1CPP7TuKegYeJtns+2PhHNwJAteH+FnWw5MQ9Yba7Wa7Voh97B1FOncmHgNABgEEALhWs84cqaVkvoqL+SwcCyvcBoGLGSggZXClS589BXVTfDr5jJi9zAYDR8WA5jQW16/fB6LoUIgDQcu4f9neJPnAv0QbGiTaQnet33/j9W3fI37/1D/t7j/1D/+6xPeSvgzZUceKesHVo9Os5SwVPPZmDgEgAgEHALaKcRQNQxw8UFfUhHgCgYqavjpuPVa8XBRLjO94VbPzL8QHoLDkuuxPtr2unY/xDGAHQemsW7Q8yO+8g2sCAY/iZ8a8aALwA+tAGlnCnXp6zRqonVU/dT5RTN0L0AXCnAJjx9xZcKlinD05CNNZyAsBVf1rrOpUCqx1nBcBM/hdOAHiBrXEvtY1OtD9m+N1SZPi/NB+AmkT7e2Jk5HeJseshog/8iuiu4Xe3/rd+77H/zd899r7x+/fdN/6l7RGq7IkscU+p/djs33OWCp42bAjwpgJe2rfD//oiAdqBgLLG3o4F4NvPM/4uCOBSwTp82BKC9klOALBoKoN/53XY93VVZTDavs8DAGuNjtOlNtiJ9tf1XM74840A1CLaH9V3/hkxdl60DT8z/tUDgKtEG3qIrTAoVW/8XrQKrBdPvZ4qZwbJktE/vUIo4IoAwCLps9dJ+iwuFYy2O0O9+iNjs6+gon6LipX5ADA/ACpm1oRaKbwYKuBXAIzkcR4AAL3jB/5rBh070f66TuUbfx4A6KlqtD8ncc+uDUTftUD0XY7hrw4ALBJ1aNN6ZaDpE/cEPVe1PsemtIhy6lskfXohHwRCGwFgAMDKIqTP4lLBWnd4Gfenoj7CCQBPl3E7/CoqUJ4CLFMeGMkbfADQXlKkOSfanzvs791WNAVQtWh/7B881QfuJ/quOcfwM+NfNQDAxD3lPdI1+7a9VDB95moOAkIHABcEcKlgzXq5vBsTQXuMEwC08u6I30YFylCAZpJ3FTf+JTsB/vFKtwSz/SNgdM0Xvv1XOgLQU5Vof3biHn3n3nzDXxUAuEG0QUzcs9KDFbPPW/Sz7yDK6TMOBEQGAAwEcKlgzPo+qDpE0u/jBAALlMm3BV0bz6EC3AoQI/kADwCsNTqeXWlO+pHZTa8AozMdbPwrAYDeyKP9OYl7+oHou24GG/9IRwD2J/TdmLiH++muzQXspYLymSdJYDrgin0A3Ld/7xaXCtami0u+K6SMN/ECAJEy95V8Q/wiKlCOAmDs+BkPAIDZMbzS/cDo/CkYnR6vf+/wf3kAsFbviTzan524R98pE31ndqjffeP3b7MOgOE5AU5TdU9J0ykraY6f114BKp+5n6TP3CgEgSDvf/dc4CoAr9EP2D+HSwVr391Fa0BFQwuGANOiYrFiOwAyJ0CLCJnHil4cP0AFeBQAoy3FBQB6R8ty9wej4/OO8Q8FACKN9mcn7tH7NzmGnxn/qgHAAuiDmLhnuQepTj8DZWQVSY8Y+RDgGvugbUUAYJH0OVwqGNNnhIrG0zwAQMXMSEybhtWqZwVY3Hww2hZ4AIAY7Z8rpoET7a/zUngA0BtJtD87cY++cw3Rd17PN/5VAYBz1BjExD3FHqIGOG8vFUyzpYKuT0CQ4XfPVQwADAJwqWAMnxcq6ms4AWD+O5L0qhg2DatUzwqAmfwEGG0WDwDAeO9bgjRwov117swZf84RAK07kmh/1Ox9P9H7TxUa/shHAH5NtD2YuCfo4WnAc85SwZFvkfSZBSfpj2vw/VsuAGAQsAjpUVwqGKNnCFKZ93ECAMsL8MkYNQmr0ggKEKPtnzgBIFNMByfaHzP63uKf+3ePV1wGGHq0PydxT9/DRO+fJ3p/drjfNfrerX/e33tcmQ8A1fZg4p5iD06Dnyfpkc+Q9MjV4hDADQAMAlg5CEbqTQ0uZ100z15GLJqXCyGg2Pw/O5/zAbD9AMQM1EVjsZL1owAYbV1cAGC2twe11on21/lcvvGvfASAaN0PBN2n0nNE77+X6P3jjuFnxr9qAKCDthsT91TacQ3yO2ep4JkzwRAQGgBYJD2KSwVj8sxQ0ejjAQAqZlZ0to5JU7Ea9aIAGG2TPABA9I5/9LfVifbXearQ+FcMAKFF+2OJe0DrH8g3/FUBgBdA342Je/wPSxMfO0sFR54shIBQAYBBwC2ijGJWwRo/awnB+BYnAPwaDlgvrnEz8PaNogAonW9zjH/lPgDUSH7crwfoneuCjX8FAGB2hxLtj0U7JEbvQ6D3/wrst33X6Hu33mF/7753yN+/X9IUACbu8T8keLykgLNUcORGDgRCBwAGAazgUsEl1au/Q6XMRzkBgE0L3FX9muMdG1IBMHf8FScALLBVBF5xnGh/nfOhAYDOH+2PJe4Bo+8i6H0WM/5VBICrRNuDiXu8DwjuByqQWyrIHAIjAwCLpMdwqWBgD0R/cqOi3E5F4zf5EFC6DwDzA0hImYeiryneoSkUAGNHKycAnPcK5UT760gXN/5ljgDo3VzR/pzEPX0bQO9bcIx/1QBgkai7MXGP9+HA/RUVcJYKjgxGCwD2SMB1kh7DrIIr9kj4XyCCeYQLAMRMMvxa4RWbUgEw2vZzAYDekWegnWh/HT6vf2b0vcX1+vdv81cBrDW6K4725yw/7L8f9L65nOFnxr8qAJAGbQ8u12nKvyj+RjtLBc9+i6SfWSgEATsbYEAUQHbe9voP2NoG350CyG3l0UWQxnCpIH+XlXUFKhqtPABAxcxMWTfEL6MCQQqwwDdgtF3nA4DOpTzVTrQ/ZvxDAYCKo/2B1vUe0Hv2Fhr+yAHgBtF2YeKeoIcNz5WtgLNU8Jmr+RAQKgBYRB6ziDR2EFK4VLDsDqrwBwlRu4cTACxIZ+6o8Pb4M1TAUYBmtt2ZM/6VOgEm/x27mhPtr+OSY/xDAACzu+xofyxxD2i9AHrvTdB7s2/7rtH3biPwAdB2Y+Ie/MMKXQF7qWD6mdM5CIgAABgEyGOTVDn/4dAbgBcsUKD1fOa1VDQWchBQng+AHRtAyGCukAJl8URZChBjx//FCQDPseV+znB7+86c8ecGgLKj/YHa9wnQe2XH8DPjXzUAmKH6AP4xlvXk4ZfLUSC3VJA5BkYGAAwCbhHpPC4VLKdzKvwuFY2LXAAgTjxR4a3xZ6iAowAYbf/KCQCH2ZWI2fGVfOPPBQBlRftbZ3a+GfSeTfmGvyoAsAD6ACbuwT+mqilA5bP3k/TZG8UhoGwfAGcKwBkByO3jUsHI+5SIxo/4AGA8FXkl8Qb1q8B6JflG0Hf8Bcns+Acwd/wQzB3DYOw4D+YODcy2q2C2PZ9v/CuYAtA7vudE++t4LjQAMHv+vhTVk1byRWD0PAh67/Vg4x/pCMAIaLv+tJR64ndQgTAVoOmRD5L02fFgCAgJAGwgOD8GaurdYdYdr5VTgAj633ICwCKkJl6XuyLuNbUCMN3/cmLs+BwY2x7LGvpFMHdYwaXNApMZfH9JLpMQqN0Cw1f0jtVgdpwpNP4VjwAMsOmElToStN4/Bb1nBPSe7FC/+8bv33rn/b37FfsAXKfGrgcZfKxUR/wcFYhKgfXK2TfS9NnhQggIFQAsIp+/BtLYZ6NqRzNflznxcQKARcTMvc2sYdO3nXnxr81suxuM7U+Auf06mNutXClm/Nn5kADA6NgabPwrAACza8VofyxxD2g9D4PeM+8Y/+oBANV3YeKepv+Li48AuaWCZxdyIBA6ADAIwKWCEXU7Fc0JBwIqcAIUxy0iTTwcUdXwsnFWAIyfvZQYWx8Ac5uWM/he48/2qwEA7fNhAQAxO7+wnOagd/816D1TOcPPjH9VAEAHrR8T9yzXOfhZzRQA5exnSfrsNQcCIgEABgEWlc8Ps5GHmjW0AW9MBaONCwCE8SMNKAs2qZgC9jC/ue0bYG6bBnOb5RS/4XePqwIA2TX/7I3fX7yBf/z7/gBAXU8VbXOm8w4wenYXGv7IAeAFYuxazzQvVjc8jwrEQQFQn3k3SZ8drSAQUM7xz+8IKJ+3DT8z/p4yTtNjH4xDmxuhDlQyHuQBACqO32ShhRtBC2zDCgqQzLZ7wdxm5Ax/YwDAWqMzMNqfk7in+6G1RvevwejOvu27Rt+79c/7e4+98/7e/RV9AI5Qpe/OFboEP0YFYqOAs1Rw9MlgCCgaCbBcAGAwgEsFQ+p1ltSHEwCsFjlzd0jVwcvEUYEWfes7wNjWV2j4GwIA5sHs+Yhfd9B7PwZGd8o2/Mz4Vw8AfkG1nf+tFEdEf53xGBWIgwJEOfsASZ+7mQ8CoQKAReQLrGyC6REcHePodBZDhYrGL6lYmQ8AFcethJDBuA0cfRDrnxJj6+fA3Hq1uPFnEOAO+fu3dTAF4Iv2ZyfuMXo2gNG9kGf8oweARaL3Y+KeWP81YOVKVQCUsVUkfc7IQUAkAMAgQEikL/xJqfXC7xUqQEVjiAcAqDjeV3hVPFPXCmxUBm4HY+sGMLcugrk1O9fvvvH7t37D7x7HHgCWov05kQS77geje67A8Ec/ApAGbScm7qnrvxisvF8BJ6vguUEHAiIDAAYB10n6ImYV9HdAiccJ0VjLCQBXwbJ+p8Tb4dfirgBMJF8H5tbjjuFnxr8hAWAp2h/NdNwJRtdhMJhjYH42wLxj2+PfO/fv7nvn/P373nl/777tA3CD6jv/B6SSL4n7M4H1QwUqUcAOlqWcW0fSo4skHQAB8mglPgDuFIB3uwjyhXUYH6P8XkoI2ic5AcCiqQz6K5Uvffx+sc7c/GYwt47lG//GAwBidD9gJ+4xOgGMrpuO8a8iAGj9+xN673vj9wRgjVCB8BUg6XOfIenRqwUQEB4AODAgpQ6u0y/8QfgtaNwrPjI2+woqmreKQ0DGspP/iP7tuMV8AJySWcrI2rhKNXjLEvrm94K5NVNo/BsNADoGiNn5Geb9nzP87rLAyEcApkDv++sGf5SweahAgQLOUsHR0TwICBsA5IsWkS+O03QKlwoW9EDxE0Q0z/ABwPjTxa+On8ReAZjc8jYwtxQx/o0GAJ3HCg1/5AAwD3r/46AMvDr2DwNWEBWISAHmtQ/KuaeXICAaAGAQcJNIFx6IqBkNd1kiGI9xAoDWcKI0S4PA+NlrwNw8BuaW7Hw/M/j+4nf88x67Tn/+beydAK1CEIhiBKD3HDV68I2kWf6gsJ0rKkDlsftJevQGiQ4AGARYJH1hyyNjY69YsUJN/gUiZe7jBAALlMm3NbmM9dd829vf3HLMMf4IAHlOf36HwPKdAK+D0Y+Je+rvzwJrXAUFQB79AJFHx0lBBMCxrGNgXgRAbzRAr/Ofb9+eAnCMvzMdwPYxq+AK/blOMN/MCwAMIla4DX4cNwXA3Pp4zvgjAIQIAP0tas/b49bfWB9UIE4K2EsFpfODwRAQGgAwCMClgit0PBVMNRgC/M5/7rHrAOik7CHYAAAgAElEQVRsiTDx2Aq3wI/jpAAxN38x3/hHBgCzYO7YTjI7HiJG26dA2/Ge1szW17Llb6zY+9qO99ifGe1fBaNtOxjJWTD8qYF9qYCXUgP7cwC4x/74/95jd87fv+WbAlir9+qg9WDinjg96FiXWCtgLxWUx9YReWwxHwRCBQCLyKlFkFPrkpaFqbQDnggqGk/zAAAVx0cCLoun4qiAHd7X3HItQgC4AuaOx+n4jn9fSftZYB5qdHwQzOTjYCSvODAQawB4AYxeTNxTSWfjb1CB3yoA0thniTx2LQcBoQMAgwCLyqnh9YqCWQV9Tx0VM2s4AeAWpOZe6bssHsZRATA29xUa/1BGACbB2PbVR2Y3heZ4w65FjLavgdE+BUtv/V4YcN/4/VvvG79/3//m7x5XNAJwGBP3xPEpxzrVmwIJ5cK7iDw66kBANADAIIDIKVwq6Hs4IJV5HycAsLwAGNHUp2vsDp34/szYBxW/97977PX69+/b3v+3wNi+4TtS76uiajBLiwtGO4DR/nw+CPgNv3vsN/reY9fg+7dlAcBVYvQ+BBZgGMyoOh2v23QKgGG8lMhjT3pSAPscABkY2MmAAraBToBZp0Db8NujAFkIuEWki5jIJvuE2aOuojlXCAHunL9/m+8DwAICETEDTffA1lODYfqJl4O5xQg2/hWPAMjU3P7+aukAZucqMNuVHAS4Bt+/9Rp8/77f8LvHJQHAImg9PwO5/w3VajPeBxVoNgVo+sKXiXz+ZjAIhAIAWRgQMKtg9uGiotHHAwBUHB9utue0rtpLzC3fKG78KwKArijf+ouJC8qWV4PR3uNAgN/wu8d+o+89dg2+f7s8AKzVewRqdH28WL3wPCqACoSngLNU8Px4IQSECgAWkQVcKnjbbbex1L6cAPArOGC9OLwnAK8UmgIblY23g7l5KjQAyGz/GVgHatbZtvew0f4jMFyD7996Db5/32/43eOiAHADtG5gcRNC6xC8ECqACqyowHpRfD1JX9iTDwGhAwCDgOskLTZ1VkEqZT7KCQAsb8BdK3YqfqH6ChBj8wNgbi4y9+/6A7hz/v6tb97f2P5E9VtQeEc7ja/Z8eNgCPAbfe+xa/D92yAA6MLEPYXS4xlUoGoKsL9zIp3/FpHPLzggEAkAMAhYBEncAAdq92JTNVEDbrRRUW6novmbfAjwz/27x4U+AMwPICFNPBRwaTxVSwWYoxqYm7WQAKArTmk3nZGAjp5CCPAafP++3/C7x3kAMAV6NybuqeWDi/dGBTwKEGXsXiKfvxaSE6DrA8AMf16hstC0SwWJYB7hAgBxIunpMtyNgwLE3PrnjvHnHQHYrrD59zi0yVsHSCVfCUaHlA8BfqPvPXYNvn9rA8ACGN1PYOIer8K4jwrEQ4G1WuoPiXzhdDAElLUKoCgAOEAgTlBF/HA8Wl29WlAx08oDAFScmKlebfFOJSkA5uafhgAAL1TT27+khnm+ZK8OMDpeyEGA1+D79/2G3z22AaDTc1ncRQVQgZgpYGcVlC88XQgBYQIAGxUQbxJJaqqsggkxcw8nAFiQztwRs0emeavz6ETyZWvNzc9yA4Cx/eG4qwh6+3dDAIBfgvGzl8a9rVg/VKDZFaDyxfuJfOFGDgRCBwAGARZJi02TVbD1fOa1VDQXchDgzvn7t8E+AFScsKgweX+zP5uxaT8xnv5czvhXPAUwGWZ0v6jEYUsSweiYcSDA/9bvPXbf+P3brA+A1nVPVHXE66ICqEB4CoCc+gCRL4w7EBARADAIkMQxSKXeHV7N43slKpoXuQBAnIiFk3h8Fa5izcDY/Bg3ABjbvlrFKnPdipid3+AGAKP7X7gqgT9GBVCBqikAsvwGKl8YJrkUwP6UwN4IgL79fAfAfIdA0RkBcADAIpJ0DSTps1VrWI1uRMTMjzgB4GKNqo639SsAxubzPACw1tz6i3p4+3fbnXUIvAKG943fv+9/83eP3VUAXfgAu4LiFhWoAwWcrIKpdUS+uBgMAgWhgFdwArR9AHwAYI8ELIIsN3RWQSJk/pYTABYhNfG6OnhsGruK65WfvhHMzYs8AADm1sfrTSXQO3/IBwDdi+snu15fb+3G+qICza4AUS7eS+SL1wohIDQAYCMBFhXFhl0qmJDMd3ICgEXEqXub/VmsefuJselT+ca/fB8AOr6lopS+tWw8GJ0f4gQAC4yu/1TLNuC9UQFUoDIFnKyCF0fzISBcAGAQQCRpnKbTH6yslvH+FRXNKQcC/M5/7vEyToDihEWkidg7jce7B0KoHWQ2PcgJAJdYFK4QqlLVS9gRAo3O2eIQ4A75+7fuFIC9rRu/h6qKizdDBepAASerYOrJHAREAgAMAm4RSWq4rIJUMNq4AECYPFIHj0ljVxHMzT/kA4At2+pVITC62vgAoOdf67XtWG9UABVwFHCWCqZuZFMA+xwAGRSU4wRo+wDYUwDZEQDvfkMtFaRS5kEeAKDixE0GYfgc1lABMLcM8wAAyWyt27jOxOj6GhcA6N17a9h1eGtUABUISQFnqWBqPBgCQgMABgOjkFIbYqkgCOYqTgCwWuTM3SF1IV6mEgXA3HyBCwCMrZ+q5L5x+A2YHZ/mAgCjezQO7cA6oAKoAL8CTlbB1J5CCAgVACwiydeJmK77rIJJy3oRFc1fUtGd8/dvl/cBYAGBEsJEw02N8D+JVbwCmFsMHgBIjO94VxWrG+qtElrHH/EBQNdkqBXCi6ECqEBNFWBGjUipFiKnFnMgEDoAMAhoiKWCVDSGeACAiuN9Ne3wZr/5WnPzL3gAYP3k03W7FA7k/jfwAUD386B3r2Y5Blg45WZ/lrD9qECjKOAsFUxdcyAgEgBgEGBRUa7rpYIJMbOWDwAmrtSjE3mjPOe3gbn5eR4AgFTyJfUqxkZl4HZOALDA8KwK0HumQe8ZBr1nA+jda9ZqXXc/Mjv4inrVB+uNCjSzAk5WwdTpEJ0Asw6Bsm38GQBkywQVlbrMKkhSmf+dEwAsmsrc2czPWU3bjgDgjwDoHvuX/7nHHoPvNf5sX+8pUnqnQe8dBr1vA+h9a9ZqfQgGNX3q8eaoQGkKMC91kIWfFIcAfyjgZVcBFAMABgK3iKTU3Xz4I2Ozr6Bi5lYwBKzsA2AnBhIn1pTWG/it0BUAc9MVrhGAiWTdhnMMYQrAPwJQDAAs0HuDyjTo/QgGoT/VeEFUIFwFqCzcT2ThRiEIhAYAFpHSrNTdUkEiZs7wAcD40+H2Fl6tZAV4nQBhYnPdLmnhdwL0jQYUHwEIMv7Zc30W6HllHvQ+BfSdPWD0ryda/5eo0odDZCU/0fhFVCAaBZylgsJ4PgSEDgAMAupqqSCVMt/nA4AJLZoew6uuqADvMkAwttVtONwQlgHyjgD4jb/nuN8Cvd8iuTJF9f7/ydIZr9ip+AVUABWIRAGWVZDIwlAOAiIBAAYB10BS6iKrIJEy93ECgAXS+Fsi6TC86PIKYCAgd87fv3Xn/P1b31u/1w8gnBGALAQUAIALAwrVdv3b5XsVP0UFUIGoFHCWCgotRBYWCUsD7BbJnf9nWzsPQJHtkvOf6wSY3dpTAO5UANsuUlmJfVbBdYL5Zl4AINLkfVH1F153GQX4QwFv3b7M5WP9EZidyZBXAZTrA+B548+bBrDf/n0jAC4AWETfeTmh9f9RrMXFyqECDa4ASQufIWnxaoQAYFEpzcrBdRf0P4iznFTIqIUQULIToEWEicfi3L6GrVuTJwOaq1MAYDBwotL1s+x3VNlzJ2i7P80K26/0Wg37h4ENQwVKUMBZKiietiEg/BEAFwAsKimxXipIxczTPABAxYmREuTGr4StAOhb/oJrFYC51QJ96wfCrlfU16Nm8sPFjT+bDvAP/bvHNZ8CYCMATjF2fa4cnZj/AGgDhKgDU0QbsJyy2yKaXSZ/u10LqQOvLOea+F1UoNkVeHRi4mUgi0+TaAGAQcDNhKQ8EEe9qZhZwwkAtyA1h/97qt2565WfvhHMzYv5ELDFArNY2WoBM/r55QfVrjfv/cDo+Je6BwB9Z7JUHZjfANF36UR3Db+7XQIAFwTGqTLw/lKvi99DBVABRwEqSV8mknjTAYFQfAC8IwAMAOySkJRNMDL98jjpDqnM+zgBwEoIU5+MU5uapi5gbh7jBIArj8xuqpuId5BKvhKMjisNAAB6KQ9pwux7J9EHLtvGf2UAYCBwBdQ9dbu8sxRN8DuoQBQKgCx/gEjSeEhOgIEAkAWBWC0VtKcVxcwv8iGgdB8AFhCIiBMQRZ/gNVdQADKbvs8JABYxtn9thdvE5mPQ278JRofVAADwm5VEBQt+h+i7RpaMf2kAwCDgVKV+AeyeoOx9H9EH7yXG8KfAGPp3YBzAvN8rdRZ+3hAKOEsF5aHiEFDyKoDlAICNBlxLxGipIBUzfTwAQMXx4YZ4AOqtETC++bO8AADmtimYS8Z+DseeBzc6ZhoEAOZWetaItuuLRN9lVQAAFlF3f2Gl63s/Z3kPQBsiRBuaJNqQlV+G54k2rBB9uIdoQ+uJtvdLVBl+/6MTxzGJkldE3G8IBZylglILkaTFQhAIDQAsKqmLVFZjsVQwIWS+xQcAE7+CA9aLG+IBqKdGsEx2YG6+noOAYvP/7HzB/H/23DYLzG3/K+7tBr3je47xb4ARAG3n/pX0JvqujkoBANQ9bStd3/2crSQg2qCRb/S9EDBsES2wZMFgbw/R9iIYuILitiEUIKJ4L5Gka/kQECoAMAiwqKjWPKsglTIf5QQAi4rTdzVEx9dbI8Dc9FQIAPACmDtWxbXtNJO8C8yOW40CAFTr//pKWhN913ilAEC0PeZK12efJ5SBdxFt8CrRBn1v/SUBgEW0vUFlnmj7FKIiGJTSB/id+CqQUJR3EUkazUFABADAIEBSx2k6/cFaKbFRUW6nYuY3OQgozweA+QEkpImHalX/pr4vNTZ9PAQAsMDcroCy5dVxE/NhLfl7YHSoOePPMQJgdlMwelrB6OoFo1sFo3vBTgtcnUiA7jLAX5QSFpjou25yAMDNlfqR+QkQbfCMY/xDBQCLaPssohaUeaIyMNjfQ7T964l24EtUOYRTCSt1FH5eUwXspYIiWyrIVgdEBgAMAm4mJK1mSwWJkDnCBQDiZMkrm2raoY12c/aPHMzNmgMBFU8BsGkACzLbe5JW8kVx0QgOHHgxGB19+ca/YgCQ/M5xzhRK5yrQu1fbYKD39ILRo4Les+CkCA7MBFgsGdBKoYAZACyCtvOvStGX6LvmOABgdqV7EHXoCznjXxUAyELBfouoeWWeqPsVoh5AMFip0/DzmingLBWUbwZDQEEo4JWcAJ3hf+ftP28/Iak1WSpIxUwrDwBQcXKqZp3T7DcGY9OXQwEABgHmth/7DWUt9LXBRu94stD4VwYAxOz6SqntcMCgbxXovavB6GsFvbcXjF4V9N6FXHpgfwhg97hoLoB5qu38+1LrQPRdhysGAHXw4Er3IfrgjpgAQBYIDlhEzSvzRD2QBYOD64l2CEcMVupU/DxSBbJLBTOFEBAeANh+AZJW9aWCCTFzDycAWJDO3BFpB+DFgxXYqGy8HczNU8WDAK3oBOiMADgAwPZ/UsuRAPvNv6jxrwgAZpmne7B6pZ8tBIP+XjD6VdD7FnKpgQMBYJQafR8v/U633Ub1nd+sFACotntlHwNtcDzmAOABgoMWUZfKPFEPKkQ91EM0BINynin8Lr8CuaWC3umA0AHAopJ2LSHpVcsqCKmJ11Exs+BAQPk+AFSctKgweT+/wniFihQAc/PXQwQAezqgFj4Bzpx/sg+Mdiv47b8iAHiwIlFL/FEeGOh960Dv/zHR+39O9J3/TM3+D1cyosL8BIi+61IFywDnQBlY0ZeDaIM36hQAPDBwyCLqUpkn6iEEgxKfWfxa5QrklgrKi85oQCQAwCCgqksFqZi5yAUA4uQTlauKv+RSgBmhteYWvTgELLsM0D8CkD3erlRzdYDt7W87/DHjHxoAmBuVgdu5xK3Rj4m+8z6iDywuQcBSHgAWDrggFDA7twja7tJ8DLQ9lxsMALwwYBH1sFvmiXpYIerhHqIdXk+0oziVUKPnudFuS0TlXiLJ14gUGQAwCLCoqFVlqSARMz/iA4Cpi43Wx3XVHshsuSdkAGCrA9gSwe9GGSzIDvLD1vmb7bccwx8mAHR/vq460VdZaux+kOgD8zYELA8A80TfU7KfA9H2HGkSAHBBILs9YhHVLlkwONpDlMPricLA4DiuSvA9f3i4vALOUsH0qB8CsumAl/IAuPkAclt7+V+eA6Az/8/Oa0FlnKaMSJcKEiHzt3wAMLnIphKWVww/jVQByGzpCYaAikYAGAC4ZYaY274RJgjYsf31tm+C0T6bb/hDA4DeSMWu0sXB2P0fiL5rNJcJ0D8CsOcc6Ls+Vk51qDb09SYHABcELKIcyZajFlGOzv8WBhSiMDA4imBQzkPVpN91lgoqT3shIAIAsKioR7pUMCGZ7+QEAIuIU/c26WMQj2av1Z7+QzC3XC2EAG4AcEHgCphtPwBjx4cqmdtmv7FT+uptPwQjeRWMZHa43zX63i2b7w8qLO1vseKm/+262qL2vD0evcJfCxannyq7P0y1gW+DNvAUaHueIuqefwZj4EPss3LvAMaB1xBtcC4HAd7gP979wCiA2eiAgYGAisUBKLYMsNgqgGJOgMV8AIpNARQbASgGAAwCfOWYRZRj80Q5phDlWA9RjiMYlPvANcH3qZT+MpHSNxkIRAQADAKshKRHtlSQipkpKlboBChOWkSaergJujreTQRj8+fB3LKYDwGhAYAF5g63zIGxvY0lFCLmjr9M6Mn3rp/sej2kki9hhe2zc+wzMJNfBzOZBCM55xh9Zvjd4jX63v0g41+aEyAxu78Y716qfe2ovueviTa46ECA1+h79xEAiGIDAIOAgHJ8nijHFaIcz4LBCZxKqP2jXbMaOEsF05koAYBBABX1SJYKUiHTxgUAwuSRmomPN84pAMbWx6oAAC4IeLZtFphtFhj+4hr7oK3X6Hv3KwaAf80pgXvLKUDVwQeJNjhfQS6AoDDA2XMFUQA9kQHzggB5ggLlxQDwvP2z80tLAH37SysAfG//7PySE6Bvf8kHoNwRgADjz4DgeJFyYoEoJ7JgcHL9b/cRDJZ7EBvoM7ZUkMrpIQcClCJ+AGX7ANhv/1nj7+xLeuhLBamUeZAHAOzlgM6SwOepMHmVpiY1Kkydp8LUMBWmfphITf1DQpz+i/XKzBsbqMvj1xT7LdzcfCQHAZGMAHgMvzsqUHMAOMDaHr8eiW+NiLrnz4k2NBoMATgCEPzm744GFAUAiygnAsrJBaKcVIhysocoCAbx/avgq5mzVDDdQiVlMef454WBEADAGQlYpKIeWlZBEMxVIQEAiwtgUWGqWFlMCDNjRJh+jPkNMD8KPsXx1wUKtGa2vhbMLRccCGgKAJBhIoleqAVPwsonbN8MdeijLC0wVYd6iTaoEm1ooUgmwGb0ASh3BCDA+DMgOFmsLBDllEKUUz1EOb2eKKe/RJUzuCph5Uc31t9gSwWppFwrhIDQACA7MmCGslSQpfWlYuaXwRAwYbHEP8Fl0lp6+3dGAFYCAIsK095ynQozT1Fx5uOV+JbF+iGoZeVaJp5+K5hbzBXSAReLA+A6/vm27tt+0LZmIwBmi975jlpq3Wj3fnTi+MtA2beK6kOrQRtupepwL9GGVaINZ8GgqZwAowYAiyinggqCQZ3/YbGlglRSRvMhIGwAMCwqGeMtsv4BHrlgZPrlCXH8Qg0AIAcDqRmNpqa/zLIU8rQFf5tVALSn3wPm1iIQYMf/r3cAGIdMJ8ahrtITnwODvatB25cFg70q0fYuOCmC0QcgePh/2RGAIOOfPXfaIsppi6TzygJJn1KIfKaHKCM4YlClZ7/S27Ah7oSc/nkOAiIAANGwqGjcTEhG2VkFmeGn4vjXqZiZDTb+bGVAsbd/dp57BCAHAMKMRZ0yRcXpr+P0QKVPned3zkjAtguFIwH1DQBrjU4BjO5/42kq7tZIgTwwUBgY7Osl6j6VqPsWcumBm8YJsNwpgHIBIAsEZyySzisLJH1GIfJID8gjrUR55kugjKxifVOjxwJv61GALRWkknIzF/QnCAQCAwEVOgE6PgDZ87bxZwBgl4RklrxUkIjmF6k4nnFiAGSsGAGACwI6EWcxvoDnOapo1/EJ2HokHwLqGgAO4Zx/RY9CVX+0BAbK3tWgHGil6v5eou5Xibp/IZcauOFWAdQKALJAMGKRdF5ZIOkR1QGDswgGVf0LyL9Ziyx/gEpqpjgE8ANAFgRGITXx7vy7545aLky9nYqZPTnDz4x/LAEgCwLTPWtT03+YawHula2AvTogs+37YG5ddECgTgHA7NyI3v5ld3+sfpADgwNZMDjYS9QDKlEPLuSnBq7LZYBxAwAPEDxjkfRSWSDpZzxgcA5HDKrwV+IsFVSGgiEgNACwqGReS0jjBVkFiWR+iUqZa4XGP84AwKYGLl1NCJfqOrx7FR6vlW8BxrbPg7n1KuRSAAf4ASyFAY6NE+Bao+NZonfdt3IL8Rv1qkAwGBzMgoEXBmIdB6BeAMADA2ctkl4qCyR9ViXy2R6Q2YgBA4MxnEoI8Y/KWSqotlBJXcwHgRABQDQtKpqLVDTtpYKQSr2ECpl/pfZ5943fv608EuCSL4C9BHDZZYCeOf+81QDusH+R7axFhdlFIsw+xtoSYnc036Va1O1vB3Nbd3EIiB0AdMN471uar6ewxUwBBwwOr6IKGzE41ErVQ71EPawS9dCCJy1wNihQzQMB1TsAeGHAIulzblkg6XMqkc/1gDyKYBDCn6azVFC9loOA0AGAQQArw1QyDmf3s8P9fuMf9xEAGwAYBFhEmDnSej7z2hC6oLkvQcztnwFzm1YIArEBABXM9pLS3DZ3TzZn63NgcNgHBocXCiMCVi0SYKMCgAsC2e2oRdJ2yYLBmAMGEo4YlPPXmFsqyJwCIwMAFwSy2yDjXz8AwCAgIcxeaJF/8dZytMbvBijw6ETyZSSz9SEwt03mQKDmAHCJ6J3/gHP9AR2Gp1ZUIB8MjrRS9XAvUY+oRD2ykE0J7IQDzs8G6EsExBIDuVH/grZlRwIsFggorFUAxZwAi/kAFJsCKDYCUAwAXBBwtvKoReQxVhaIPKYSmYHB+VYincephCJPrrNUUP05AsDSMsCAaYDcCAADgGwxQbz8niKy4ulyFNioDNwOma1rwNyueFIBV9sHQAI9uYZBSTl1x++iAqUoUAAGyuFeohxRiXJ0oTATIAKA4xewNAVQLgC4IODZnreIfH6ByOdVIp9HMPA9tFTSvkwl7WYBCOQt+7MTAnmWBuYvA3SXA+aG++0pgIYbAchBwCUTRwJ8DxLPoR0adnz7n4G54ydrze3P5sNAUARA91zFkQB/CUbHz8BMfqKS9LY8bcXfogJMgRwYHFsNytFWqhztJcpRlSjHFoqPAuAIQHYKoNgIgMfw2yMCzPgvUy4sEPmCSuSLPSBfbNoRAxbRj0paJg8CEADcN/6A7SUrIVy60Hr+WfQJCPvfORg/e2nWT+B7YO44B+aOBU9KYF9CoLIAQASjfQOYHZ+G6f6Xh11vvB4qEIYCDhicWEUVFwyO9RLlWBYMEABCBgCLyBcCysUFIl/0gEHqS6AIDb0qwVkqqA0tQQACQIDhd6cBLrElghYRLh3B1QFh/Ndb5howve0NJLPtPxJz+1fA3PE4GG1DYO4YBXOHBmbbFTDbngejbR6MtqtgtE2BkbwIRnIXGG0/InryH+23fKP7NcvcAj9CBWKvQD4YHG+lCgOD4ypRjrNUwM3mBBjWCECA8WdAcLFYWSBySiVyqgfkVCuRXDBojOxyuaWCGsv65xny9+83/RSADQAMAqgw9/3Y//PACqICqEBjKpADg5OrQWFgcKKXKCdUopxgqYCbzQmw3CmAcgHAInIqqCwQWVCJLDQEGCRE7R4q6deKQ0AtAGByloqT2xPSxENEHP8UiJPvYcvy2Bs4K/a+OPkeIk5/igrTX6XC1HYqTM3mUgT71/+7x2U7AXqMvz0SsIjBghrzfyu2ChWoWwXyweBkK1VO9hLllEqUk1kwCMwG6CQCKkwGVCwXQNxWAdQKACwiC0HFBgOaFntBFlupJK0GgU0lxH/EgC0VTEj6uWAIqBoAXKHixONUHv/3lfwh2r5lqYkP0tTU41SYvuJLCZwNDsQNAHbEQBbquJI64m9QAVQAFaiaAjkwOL0aFAYGp7NgcIqlAkYAsH0Cik4BBL39Z88FAkAWCkSLyNkiiRaRxAUiCSqVpF4Q4wsG9lJBUf95IQREDgCTVJj86iNjs68I6w+DXSshTH+NCjNT+SAQCgAwCOgOq654HVQAFUAFqqoAG0alyuk7iXLqPqKcApI+kyTp0ymSPj2fSw2clwnQkxkwLxGQJwYAO7+UB8C3vxQG2BcDgJ0PfRlgkZUAQQ6Ay/oAhAUADAIsIklBZZqK4jBI0gYqymvWyvLdj4yNhWYIK3moqKDfT0X9Rg4EIgOAW1Sc2PAd6fKrKqlnKb9hqYhJagqoMP28AwKhAYCVEGfvKaUO+B1UABVABepCAWfEYGQVVU6vBvl0K02f6SXpMypJn2GpgHEKYMknoKwRgOUAIAsFskWkpbJAJFmlUroXRLmVSspqEJSqTiXYSwVFPeNAQCQAINOU+f5q/VGAMLWKCjMKFcIDAJq6pNXD9E61NMb7oAKoQIMqkA8GI600/UyvnQI4PcJSAXtGAXAEYGn4n00DOFMA5QKABwbSFpGWygKR0jYY0CqAgb1UUNSHcoF//CAQFADIPbdsKOCuKN/6i/0JgnLl1VSY7ikOAe6yP//WWQborALI308Icw8Vux+eRwVQAVSgoRXIgcEzq0F2wcnf7AEAAA3OSURBVOAZlaSfYamAPdMAOAVQZAogaASgGADYMECltOUUxaKSXRZ+O0qgUknppaIS6ogBpFKvpKJxIxgCXGMftC0GABNPsOWHtfqjYPemwvRPgiHAb/jd43yjnw8Cc5MbFeX2WrUH74sKoAKoQOwUcHwMRu8kysh9RH4GSPpskqTPpkj67LwnLXDWH6CpfQDCAAAXBLJblvRnqUxTUR2mkrqBiuqaFlm7uxxnu4Ro/F2w8WejAUGG3z0XCABPxOFBZasFEsLsjwshwDX4/u2yAGBR8fKaOLQL64AKoAKoQKwVyB8xONtK02d77RTA6XMs45/PIXApG2CtAgFVwwkwagDwwoCbDXCBSppKJbWXilorlfTVIJgFPgb2sjpRS4UDAONdtXzz9/9RZEcCfNMBfsPvHq8AAMKcwrTy3wOPUQFUABVABUpQwAGDsVVUGV0N8mgrTZ/LgsHoQkE44Fw2wLjFASi2DDAsH4BiUwDLjQAEAYALArmtEwlwgQqGSkW9l4pGKxU1Eo4ToCl/R5Ii8/Qv4fEK/IrjE+B1DHQNvn+7IgBYNDX3Z4E3wZOoACqACqAClSkQCAbyOZYCmKUCRgBwfADCAoAi4YD9zn/usTvcH7RdmgJ4oZre/uU+ZdnVAS840wF+w+8elwAAwtxPyr03fh8VQAVQAVSgAgWWfAyk8/cReQxIeixJ5PMpIp+fL54RMJZxAGoxBZB785c0Zz+iXABEyjxcQfdW9SckNfPdEADgWVwSWNVuw5uhAqgAKpCvwNKIgXRhNcjnW2n6fC+Rz6tEPs9SAYeVCyAoDLDnXEEkwHqZAgh7BGCyHIfD/J6s3hFbkkiFmRkquG/8/m1JIwAWES5/pnq1xjuhAqgAKoAKlKSAM2KQupPYIwYXgKQvJol8IUXkC/PLZANsVCfA6owACJmvltQ5MfgSTc18kxsAUpe+G4OmYBVQAVQAFUAFSlHAGTEQVlF7xOBiK01f7CXyRZXIFxccMAjMBuh52w+KCIgjAFTM/KIe3v7dZwRSc6+kwuyVYAgobQQgIcydc6+HW1QAFUAFUIE6VSAHBqnVIKdaaTrVS+SUSuTUgpMiOMjwu+cQAKg4/ni9dT0VLv2QBwCoMLcA8vQb6q3dWF9UABVABVCBEhRgjl6gsBEDFwzEXiILKpEFlgq43pcBhucDUGFK3xK6ILKvtAizH+IEAIsIl/5jZBXEC6MCqAAqgArET4Gcj0HqPiKLQNJikshiikjifC4fQGA2wEZcBXCpHgPj2IGPhNnZQggobQqACnNWQpj7SvyeTqwRKoAKoAKoQNUVsMEgxZwPpfuIKAKRpCQRGRhI8/m5AZYyAXryALBzS4mAlvYDcgHEKg5AQjS3VV3okG5Ihdk2HgAg4tzGkKqCl0EFUAFUABVoRAXsqQSBTSVIq0EUW1nqX5YCmEgySwXsgYA6BAApU7cZ8hLC7Nd4AIAKc4ON+Lxim1ABVAAVQAUiVsAZMVCyIwYyECmdJGI6RaT0vDsaEPcRACIan4pYpsgunxBmPs0DAAlhbiyyyuGFUQFUABVABZpPAWfEQFn127S/q6ko2yMG2RTALBVwvKYAlPF31WsPJYS5P+IBACrM6fXadqw3KoAKoAKoQB0pkBsxUO4jogIJSUlSUU1RSZ33pAT2JATKhv51QwC72xBDAUNq4nV1JGFeVdkyPk4AuJx3QTxABVABVAAVQAWqqUAhGGhZMNDmqWv0vdtQASD1kmq2Ncx7bVSU2zkB4GaY9cFroQKoACqACqACoSiQAwP9PiJqkJAYGGgpKurzTupfPSAWgJv9z78NygJoWuweoVS2BhdBAKiB6HhLVAAVQAVQgdop4PgYmKuopK+mov58Pgz4Db97HAwA68XJ19euJXx3xikAPv3w16gAKoAKoAJ1rACV9HEeAIDUxLvrtfnoBFivPYf1RgVQAVQAFeBWICFqz/AAAC4D5O4CvAAqgAqgAqgAKlB9Baio7+YBgAQGAqp+p+EdUQFUABVABVABXgWoYDzFAwBUNLfz1qFWv0+Il5I8qwAwFHCteg7viwqgAqgAKsCtABWMr3ICQD0nA5rjAQBMBsT9+OEFUAFUABVABWqlAJHMP+cEAKtFnvhArepf6X2peOnDhcZ/1qJCOdkAL32y0vvj71ABVAAVQAVQgZoqwCL58QIAEcd/UNNGVHBzIsz8CycALNTzEsgKJMOfoAKoACqACjSaAlTU0zkIcNf9+7fBcQCoyM5nrjwyNvuKetEFUnOvpMLsFU4AOFsv7cV6ogKoACqACqACgQpQUd/ACQBWQhj/WuDFY3gyIcz8Y7DxL2MKQLz8SAybhlVCBVABVAAVQAVKV4Ct5ecFACpmptibdel3rc03vyNdfhUVZmZ4ASAhzH26Ni3Au6ICqAAqgAqgAiEpAIbxUirqv3YgwD/07x4vOwXApgEsImT+V0hViuwyNDXzPSrMWJwAcI1pFlkl8cKoACqACqACqEC1FKCCvpkXAKiYeQEEc1W16lzufag4fRcVZm7xAkBCuPTjcu+N30cFUAFUABVABWKpABWNj4cAAGwkQAFFeXXcGpkd+pcd4883AtCSmrs7bu3D+qACqAAqgAqgAhUpYFnW/0ZFXaSiO+Tv3648BcCmAewiZHqSlvWiiioSwY/ggPVimprpyxl/LgBQmFYRVBMviQqgAqgAKoAK1EaBhGQ8FAoAiBkrIWZ+HAdDyeqQEKafzDf+HAAgXl5Tm97Bu6ICqAAqgAqgAhEp4DgDGpPBEFDGCEB2JCAhjv+cvX1HVN0VL8tGIWhq9olC418hAIhzExsV5fYVb4xfQAVQAVQAFUAF6k2BhKj/Q1gAQMVxiwrjPbXwCXhYu/p7hcP+zPC7ha35DyrLhAJOzT1Yb/2J9UUFUAFUABVABUpSgL3hUskYL4SA8kcAbABgECCOK9VcHeB4+0+rOWPvGn3vNsj4LxsISMWlfyU9QvglVAAVQAVQgXpVgIjmF0MGAAYBt6g4sSHK0QAWjpikpoAK089TYdrztu81/O5+eQBAhMufqdf+xHqjAqgAKoAKoAIlK0BFoysfArhGABgAuGUmIY5/I8yogXZs/9TMN6kwPesYfmb8QwWAzpKFwy+iAqgAKoAKoAL1rABI42+hovFsDgJCAwCLihOsXCHixA9ahMkPVbJagP2GipMfpsLUD6kwfTXf8IcKAFdg7Mrb6rkvse6oACqACqACqEBZChDB+JsIAcAFAbado8J4W0KY/BqRJ/4yIU29l6XahVTqJaywfXaOpGb+koqTX0+I00kqTM1RYcpyimvw/Vt3uD9oW9IUwCIRZ+8tSzT8MiqACqACqAAq0AgKENF41IGA0EcAvADg2Z+0qOgpwqRF7eIa+6Ct3/C7x0GG3z23MgCQ1KXvNkIfYhtQAVQAFUAFUIGyFXhiZOR3qWQcpmJzAQARLh16YsT63bIFwx+gAqgAKoAKoAKNogDI8huoaKaKQ0A2BLAbCnhpu+T45zoAZre2D4Dnrd977Hn7ZyMBNRgBSAiXLrSef/a1jdJ/2A5UABVABVABVKBiBVrkibdS0dSDIaCBAEC8NNFyYertFQuFP0QFUAFUABVABRpNgYQy/i4qmpOFENAwAGAmhLk/arR+w/agAqgAKoAKoALcCjjLA83RfAhoCAC4CGOTuNyP+wnBC6ACqAAqgAo0rAJwzngNFc0DOQiobwBgDn9w7tprGrbDsGGoACqACqACqEBYCrCcAUQ0f+BAQN0CwCJNzXwPvf3DeirwOqgAKoAKoAJNowCRjM9RMfMLuuT574WBWK8CeDaRmvnPTdNR2FBUABVABVABVCBsBUCZfBsVMzsLISC2ANCJ8/1hPwV4PVQAFUAFUIGmVSAhZD5JhYyQA4GYAUBqRksIM59u2g7ChqMCqAAqgAqgAlEpwHwDEqL5DSpmpjwZAGsbCEicmaCp2QfBMF4aVbvxuqgAKoAKoAKoACpw2223OU6CE/+diuNKIQh4I//590ONBKhQcXoNSyiEnYIKoAKoACqACqACVVQALOt3WuTM3VSc2EDF8csODPiNvveYGwCeTQjTmxLC1CcrSTNcRWnwVqgAKoAKoAKoQHMo4EwPZO6h0vj3E9LEOSpOLFDRa/zZftkAsECF6bMkNf1dNr+Pw/zN8SxhK1EBVAAVQAXqWAFITbwuIY7/BRUn/h8qTjxOxYnBhDg5RsVJjYqTV6k4+TwV7HKFpti5qVEqTA3S1NTjCWHqK+wtf704+fo6lgCrjgqgAqgAKoAKoAKoACqACqACqAAqgAqgAqgAKoAKoAKoACqACqACqAAqgAqgAqgAKoAKoAKoACqACqACqAAqgAqgAqgAKoAKoAKoACqACqACqAAqgAqgAqgAKoAKoAKoACqACqACqAAqgAqgAqgAKoAKoAKoACqACqACqAAqgAqgAqgAKoAKoAKoACqACqACqAAqgAqgAqgAKoAKoAKoACqACqACqAAqgAqgAqgAKoAKoAKoACqACqACqAAqgAqgAqgAKoAKoAKoACqACqACqAAqgAqgAqgAKoAKoAKoACqACqACqAAqgAqgAqgAKoAKoAKoACqACqACqAAqgAqgAqgAKoAKoAKoACqACqACqAAqgAqgAqgAKoAKoAKoACqACqACqAAqgAqgAqgAKoAKoAKoACqACqACqAAqgAqgAqgAKoAKoAKoACqACtS1Av8/R+j9uAQ7LIQAAAAASUVORK5CYII=;fontStyle=1" parent="1" vertex="1">
          <mxGeometry x="868.96" y="410" width="52" height="52" as="geometry" />
        </mxCell>
        <mxCell id="YZ4sF8L4maSla_xszP-e-1" value="" style="shape=image;verticalLabelPosition=bottom;labelBackgroundColor=default;verticalAlign=top;aspect=fixed;imageAspect=0;image=data:image/png,iVBORw0KGgoAAAANSUhEUgAAAgAAAAIACAYAAAD0eNT6AAAAAXNSR0IArs4c6QAAIABJREFUeAHsnQl8G1e1//vgsfQB5fEea4E/ZXnAa3lA63iRZjQz2nd5lZOW0gellD6gCzwgLQ9ogEIXuqVbmqRN2jRNs+9x9njftVrWZnmX7diOHWdfbd8/d6QrjWTJlrwkTjj9fO5nRtLMvXe+zqfnN+ece+4NN8B/QAAIAAEgAASAABAAAkAACAABIAAEgAAQAAJAAAgAASAABIAAEAACQAAIAAEgAASAABAAAkAACAABIAAEgAAQAAJAAAgAASAABIAAEAACQAAIAAEgAASAABAAAkAACAABIAAEgAAQAAJAAAgAASAABIAAEAACQAAIAAEgAASAABAAAkAACAABIAAEgAAQAAJAAAgAASAABIAAEAACQAAIAAEgAASAABAAAkAACAABIAAEgAAQAAJAAAgAASAABIAAEAACQAAIAAEgAASAABAAAkAACAABIAAEgAAQAAJAAAgAASAABIAAEAACQAAIAAEgAASAABAAAkAACAABIAAEgAAQAAJAAAgAASAABIAAEAACQAAIAAEgAASAABAAAkAACAABIAAEgAAQAAJAAAgAASAABIAAEAACQAAIAAEgAASAABAAAkAACAABIAAEgAAQAAJAAAgAASAABIAAEAACQAAIAAEgAASAABAAAkAACAABIAAEgAAQAAJAAAgAASAABIAAEAACQAAIAAEgAASAABAAAkAACAABIAAEgAAQAAJAAAgAASAABIAAEAACQAAIAAEgAASAABAAAkAACAABIAAEgAAQAAJAAAgAASAABIAAEAACQAAIAAEgAASAABAAAkAACAABIAAEgAAQAAJAAAgAASAABIAAEAACQAAIAAEgAASAABAAAkAACAABIAAEgAAQAAJAAAgAASAABIAAEAACQAAIAAEgAASAABAAAkAACAABIAAEgAAQAAJAAAgAASAABIAAEAACQAAIAAEgAASAABAAAtcIgWAweOPAwMD/nDhx4hPXyJRhmkAACAABIAAEgMB0CfT19X0y2Nu7uK+vr+/o0X40MDDw/en2BfcBASAABIAAEAAC85xAZ2fnl7u6gkuDweDZnp5e1Nvbh44ePYr6+we2zvOpw/SAABAAAkAACACBdAkEAoE72ts713R2dl7u6upC3d1BFOzpQb29vaivDwuA/nP9/f0fSbdfuB4IAAEgAASAABCYZwQQQv/U0tKiCAQCu1pb21Bbezvq6OhEnZ1YAHSjYLAH9fACAHsB+DBAwTx7BJgOEAACQAAIAAEgkCoBt9v9QY/Hc4/f72/2+1tQSyCAeAHQ1o7aOzp4AdDVhQVAEPFhgL5IGOCdVMeA64AAEAACQAAIAIF5QiAQCNzkcrkebna7gx6PF3m9PuTz+1FLSwAFWltRW1sbam/vQB2dnShJGOCE240+OE8eB6YBBIAAEAACQAAITEbAZrN9yel0vuBsajrtcjWj5mY3cns8IQHg8yN/SwsKBFp5L0A7CQPweQATwwCDg4O6ycaC34AAEAACQAAIAIGrTKC+3vF1q9W62mazX7I7nMjpbEJNTS7kwgLA7UEerxf5sABIEAbo6Ohq6OrqWhIMBsfjwgDrrvJjwfBAAAgAASAABIBAIgINDQ231dc3rmlstFy2WK3IZrMju92BHE5nSABgL4DbjUgYwB8NA7jb2tqWtLW1fZ30GwwGq3v41QB9ZDXA2WPHjn2M/A5HIAAEgAAQAAJA4CoTqKur+3ZNTd2aurr60fr6BtTQaEEWixVZbTZkwwIAewGamlBsGMDr9nr9S/x+/zcTTT8YDD6YYDXAPYmuhe+AABAAAkAACACBK0igrKxaVFFVvaequma8pqYW1dbVI14ANDSiRiwArLaQF4CEAVyuU263e1lzc/N3pppmR0fHZ4PB4GhcGGD/VPfB70AACAABIAAEgMAcESgvL/+vsrKKjeUVlaiysgpVVVWjaiwAautQXX09qscCAHsBwmEAh8PhdTQ1LW5qakqrrn8wGDwUCQPwVQH7x4aGhj4/R48F3QIBIAAEgAAQAAKJCBw5cuS2w4ePbDlSWjZeWlaOyssrUAURANU1qAYLAOIFaLSct1qta+x2uzhRX6l8FwwGf4TDAKGqgJGiQL9M5V64BggAASAABIAAEJghgZKSw1/df+DQOwcPHh47dPgIOnKkFGEBUIYFAPYCVFWjKiwAQmGAgfr6xt/W19f/+wyHvcF37NjHgsHgqbgwgGum/cL9QAAIAAEgAASAwCQESkpKvrBn7/6l+/btv7D/wEF04OAhdOjQYXQYC4DSMlSGvQAkDFBd3VFTU/ewxWL5l0m6TPun7u7gK3FhALxD4LS9CmlPAG4AAkAACAABIPCPQqCkpOSmnbtLntq9p+R8Sck+tHfffrR//wFeABzEAgB7AUrLeC9ARUVFZ2Vl5b2lpaX/PBd8urq6bg0Ge8bJ5kDhvQHenouxoE8gAASAABAAAv+QBDZu3Pj+HTt2PbBj566BXbv2oN17StCekr1o7979aB8WAAcOooMHD6NwGKCvtLz8Z7i+/1zDCgaDR+LCAOdOnDiRVkLhXM8R+gcCQAAIAAEgcE0S2Lx5u3rr1u3N27bvQDt27EI7d+1Gu3fv4QVAyd59aB/2AoTCAOcOHTr0p/3791+xLXqDwWBhfBhgcHDwoWsSNEwaCAABIAAEgMB8ILB58+bbNm3asnfzlq1o69btCAuA7Tt2op07d6NdWADsKUHhMMD4vn0H1h08ePD/Xel5I4TeHwwG3ZEwQD+/RXDzlZ4HjAcEgAAQAAJA4JonsHr1tn9dv37Dqxs2brq8cdMWhAXAlq3b0LZtIQGwY+cuJAgD+Pft2ye9mg8dDAYLcBigL7pFMBocHKSv5pxgbCAABIAAEAAC1xSBdevW3bnuvfVH31u/AW3YsAlt3LQZbdq8BW3Zsg1t3bYdbcdhgJ18GODi7t0lfyotLf3w1X5AhNA/9fT0NPT29qG+UFEgNDAwuPlqzwvGBwJAAAgAASAw7wmsevfdr7zzztq9a99dh95dtx5hAbB+w0a0cWNIACQJA/SVlJRs3LNv38P79+/PwIb4aj1od3efKi4MMDowMPDVqzUfGBcIAAEgAASAwLwmsHz58g+8/fY7v317zTvn1rzzLlq7FguA99C69zag9es3og0bN6FNU4cByGqAgYMHD+46cOjQH44cOaLbv3//p6/kw/f29u4LhQH6UX//AA4DLL2S48NYQAAIAAEgAASuCQJvvvkmvWr1W82r33obvfX2O2jNO2vRO2vfRe++iwVAyAsQDQNsxWGAE6EwwE4SBkC7d4eWA4ZWAxzgVwMc5IsCHeGLApWVlXWVlZfvLK+sfLKqququ6urq75aUlHxoLgB1dXV9pbe376wgDHB6ZGTkX+diLOgTCAABIAAEgMA1R+D55zfeuHLlm0vfeHPV+Jur3kKrV2MBsAa9vSYkAHAYYF3iMIBj8+adt23dseOB7dt3btu5a/epyGqAvcmLAvFVAcsro3sD1NRerqmtb62rq99X12B5tbGx8RdWq9VosTjvsFgsn8M1B6YLta+v76G+vqPoaGg1ABoYGPrNdPuC+4AAEAACQAAIXDcEli174/blK1a4V6x8E618YxV6c9VqtAoLgLewAMBegEgY4CIfBtgQHwbYGqm0t3y55QM7d5awe/bs/WtJyV7r3n37xyNFgQ5FigLxVQH5zYHCewNUR/cGCG0R3NiILGSLYLsdORzOMaez6WiTy+Vwudx73G73ao/H94TX2/Kg3+9f2NbWpmttbZW2trZmtLW1fb21tfeLXV1dn8BLAnEeQl9f33ZcFbB/gA8DBBFCH7hu/oDwIEAACAABIAAE0iGA36qXLVv+6LLXl198fflKtGLFG2jlG2+iN97EAuAttBoLgFAYYO/atWupdevWyda9t370PZwHEFkNEFkO+HCisXHMf+/eA3eHNgc61IOrAkb2BiivEOwNEN4ciN8iuAE14C2CLXiLYBuy2ezI7nAgp7MJNTW5kKu5GbndHuTxeJHX50N+fwtqaQmg1tZW1NbWjto7OlBnZyfq6upG3cEg6unpudDb23f6aHQ1ABoaGvrvRPOF74AAEAACQAAIXNcEXnhh2S2vvvpaxauvvY5eW7Ycvb58BVqOBcBKLACwF4APAwyuXrOmQAjivfc2PJ5kNcDotm278oTXJjovLS295dCh0rtLS8uXlZWVu8orKsciWwTj3QHJFsFYADRaQl4ALADsDuRwOpETCwBXM2p2u0MCwOtDPr+fFwCBQCtqbWtD7e0dqKMDC4Au1N0dRMEeskVwNAwwOHisBXsHEs0RvgMCQAAIAAEgcF0SePHFl+556eVXT778ymvo1deW8QJg2etYAKxEOAzwBh8GeKtx1apVX4wHsGTJkve9+97GQ3g5YILVAGe3bduVFX/PZJ8rKys/UVFRoa+sqnqyurq6sqa29nxtXX2CMIADhwFCXgAsAJrdyO3xIC8WAD4/8re0IF4AtLahtvZ2XgB0dmIB0I2CwR4ULQoUCQNgL8Ddk80NfgMCQAAIAAEgcF0QWLJk9YdfeGHpWy8ufRktfekVhAXAK68uQ6+99jrCAoAPA6zkwwBVa9euvSnZQ69bt+4z723YGMQCABcF2rw5FAYIrwYY2r1797eS3TvV93g1QG1tLVVf3/jrhobG9Y0Wi99itY2lFAYITBYG6EW4KFAoDDCABgYH0bFjx7zgBZjqLwK/AwEgAASAwDVN4Lnnnvvic8+92PD8C0vRi0tf4gXASy+/il55FXsBYsIA7tWrV0+5TG79+vWZ6zdsPB8tChSqChjeHOjonj17vj5bwKqqqj5msThom83xoMPpfKOpyVXrcjWPJAsDtJEwAJ8HMDEM0B9eDTA4eAyLgDtna57QDxAAAkAACACBeUXg2WefZZ559vn+Z597AWEB8MKLL6GlS19GWADEhQFOLV++POVKeRs2bLg7QRggvDnQru6SkpKU+5oOMJ/Pd7Pb7ZZ7vd6f+3y+pX6/f3sg0GprbW0fShgG6CV7A0TDAMeODbkRQu+bzvhwDxAAAkAACACBeUvgqaee+dnTzzx76W/PPo+wAHju+Rd5AZAwDLBsxb3pPsiGTZv+liAMQIoC9f69LPCt6fY5G9f39fX9S1dX161dXV10V1eXsaen555gsO/h3t4+R1wYAA0PDy+cjTGhDyAABIAAEAACV53ASy+99KG/PvX0G08+9Qx6+pln0TN/ew49+9zzvABIEgaonU7dfpwUuGHDlveEmwOFwwBo5y5+i+Dje/bsyb7aQFpb+z8d7OnZTPYGEIYBhoeH2xBCH7zac4TxgQAQAAJAAAjMiAC64YZ/Wvbgz+598bHHerEAeOrpv/ECgHgBImGAl6JhgJeXLaOmO+jGjRs/uGnT5pL4LYJ34i2Cd+9Bu/eUnNi7d698uv3P9L6uri5zd3f3IL8aIHEYAK8I+PlMx4H7gQAQAAJAAAjMCwIHOGrBVo1q75sP3N/77JNPIiIAhGGAl0KrAapmOmGcvb9585adW7aSLYIn7A1wae/evT+a6Tjp3B8IBL7Q3tGxAS8HxEWBgnxRoF7U28evBhjDmwOFVwNgATA4PDycdOVDOuPCtUAACAABIAAErjqBjWbz+/eLF/zffmrBuS35hrNvPvwQevHpp/lkwMhqgJdePfbqq69ve+W15b997bWVOdOtu493EdyyZdsavBwwLgyA9uzZi/DmQHv37n8Shw3mEkwgELgp0Nr6l7a2trN8UaAJqwH6fD09Pd/t7+93DgwMosFjx7AAQMePH39iLucFfQMBIAAEgAAQuOIEDoi/+91D4ozmg6I70AFxBtpp1KB37/8RWvH4H9DL4ZoAkaJAy1YMLl+x4ulVq1Z9ZToT3bJtx2Pbtu8Y275jJ9q5k88DwGEAVFIS2Rxoz6FDh/59On1Pdo/FYvmA3+//mb+lZZAUBWonRYH4qoDd48Fg7wrypn/06NGsgYGB0UG+JsAQTgY8OzQ09PnJxoDfgAAQAAJAAAhccwRKtF/70EEq42+HxBljh8QZiLSDbA7aWWBAG+//EVrzf4+hlS8uJUWBxla+sWrj6tWrb0n3Ybds367Yvn1nzw6cB7BrNy8A9pTsRXv37kPhzYE6Dx8+nFbVwGRzKC0t/We32/09j9fr56sC4r0B+KJAbZG9ATo6upq6urom5CH09w++GA0DDKORkZE3k40D3wMBIAAEgAAQuKYJHBLfLjoozggcojLQ4Zi2AB2hQu2AkkG7FhWizQ//HL37l79ceGvlyieWL1/+L4kefOPGjTdu3Ljx8+u3bv3Wli1bmM2bt+Vt3b79h9u27fjrjh27LoRXA0TCAPv27Uf7DxxEBw4eunjo0KH/nW5IwO12f9TpdD3scjV3RooCCTYHCoQ2B+psb2+/J9la/8HBwY8ODAz6SRhgePj46IkTJ+5I9JzwHRAAAkAACACBa57AwYyMjx+i7thMBAAx/EfoBYi0UnoBIu2INAftKzBc2P3D7we2PLbYu/6ll/1r177b++669ef/vkEQCu0NsBlt2rQF4dUAW7eG8gAmCQOgAwcOoYOHDqPDh49UlZeX/0eqUOtcrs/Y7c4nHA7nsLOpKbQ50MS9AQYDgbZHAoHAh6bqd3Bw8LuDg4Pnjx3jwwA4F6AumWCYqi/4HQgAASAABIDANUHgCL3g/iPUgovE6OMjMfqRo2QBKpNkTmilcjE6UJyHSn52P9rxx8fR1mXL0KaNm+L3BuCLAsWGAfbzYQDsBTh48DDCWwQfOVJ29siRsl/iOH4icLhGQUNDA9tota6xWm3nQ3sDkM2BXKHNgfAWwV6v0+/33xcMBm9M1E+y7wYHB392jE8GHMYCAJ04ceK+ZNfC90AACAABIAAErgsCR+iM7CP0gs4Jxl+yYKhMkjkSb/zLmUwU3yqYTFTBZKFyFYMO3W1G+3/xINrz5BNo5xtvoJ3btvNFgXbv3oNwHgBeDSAIA6BD2AtwpBSVlpahsrJyb2VlpYGAraqqurmmpu6xuvr6lnqyRbDVingBwG8R3ISamlyjLlfzFpfLy5H7pnMcHBrahFcDDA8fx7kAx06dOjXriYrTmRfcAwSAABAAAkBgzgjsE4n+rZResJd/65csQKWhN/7eciZTjG644X3VYvGn8XmFJOu+cibzb+VMZnk5k3mBGP4KNguRVslmIWGrkIlQWbEJHf75/ejgnx5H+19/He3bvh3t338A5wGQMAA6UlqGSsvKUXl5BaqsrDpQVVWzs7q65nJNbR2qi2wRbEEWixVZbTZktzsbHQ7HLx0Ox6xk7uPVAceGhnzDw9gLMIKOnzixfM6AQ8dAAAgAASAABOYLAVwz4IhkwfNxb/wXy+jMnyaaY41IdGM5kyUr57KeqGCzfEKjz59zWaiSy0JVfMtGVVy0VXPZqDJPjSp+fA8q++2vUdkLz6LSd9ei0oOHUFl5BaqoqESVVdWoqroG1dTUoloiABoa+ywWy+/tdnvKOQOJ5p7su+Hh4VuHhoZP4zDAyMjI2MmTJzOTXQvfAwEgAASAABC4rgiU0Zk/LJNkXsBCgLj6y9jMlZaMjITxefLwFZKcOyqYzL9Vcln9SQ2/NBtVJ2g10myEW7VMjKoLdaj6pz9C1Ut+i6pfewVVb9mCaquqUV19A2poaBxrbLRss1qthmT5AmQ+0z0ODw+bh4ePj4+MjOBcACtC6J+n2xfcBwSAABAAAkDgmiJQIVlAlTOZA0QA4GMFk7W/Ljt7ynK51WyWqIrLHo9545/E6NdIc1CNLNpqZTloQlOIUO1CE6p/6Ceo/i9LUMObK5B1z67jjsb61x0OBz3bcIeHh5/FYYATJ07g9tvZ7h/6AwJAAAgAASAwbwlU0plfKWeyAji5j298nD+zqZTL/sJUk67ict7CAmCyt32h0cfnE4w+/k6eg+omNBGqk4davYpGDd8rQJaf//h4g0H2ZIMip7hOnv3tgFY75fK/yZ4Bv/UfP368lPcCnDx54fTp07dNdj38BgSAABAAAkDguiLAJ/+xWY1xCX6d5Uz2pDH4KiV1c7U0+5xQAGAXf6006zfVsuzvV8uz/7damvNcjUy0pkYm2l8ry2mqleX018pyxqc0+nIRqlckbw0KEWpQiEYbtGyv7ef3nXU88bsTzW8uH/GW7D7eand0dnZ2urq6ui3BYPBwMBjc39fXt7Gvv39tf3//8oGBgeXHjh1bPjw8vPz48ePbwmEAdPLUqQYIBVxX/7ThYYAAEAACQGAqAvtV3/5IJZtdEpPkh+P80qzvTHZvtTTrOSwASHw/9MYv+ttk97jNt36wUZ75lVp5jqJOLrq/Xp7zVJ1CtLFOJqqqV4jaEhn+sMHHRj/UlCLUwDcxalCGWqNSjEiz5CqR/b7vIdcfHkW+5a+itu2bUVdjA+rr60MDAwNocPAYOsYvBwytBsBhgJMnT6JTp049Otnc4TcgAASAABAAAtcdAfett36wks18Lya5j80ermYzk2bJV6vEn66R5pwXuvprZTk9aMkN094NEPfZoBTJG+TihxoUOSsaFCJrg1J0aTKDTwx/zFElRo3hZlGJEW5WgxQ13X838j6+GLWueAV17dmB+h02dHzwGBEAOBRw63X3x4UHAgJAAAgAASAwGQG8TLCKy1obl9w3UinNzkh2X4005634+H6dPFua7PrpfI+XIzaoROJGhegRi5La2qgUH09k7Imhn/pIIYsqpo07inTHm+//fsD90P07rUrxD2xKaoHFmJFwb4TpPAPcAwSAABAAAkBgXhPAIqBamr0Gr+MXxPeHaxjR7YkmXi0XZ8Yk9+GEPlnOikTXztZ32MNgVdEZVhX1a4tKXGFRiUcnGv2ogbeqKBRpagpZU29jVjXValFT220q6q82DX2nTU1/B4cxZutZoB8gAASAABAAAvOGADaw+M2eCIBwjH+oTp6d0D1eK8upj0nsU4iOX0kjadNKPtWoon5kUVF90zT0vCiwqSmUYrtsU9Mem4beZFeJH7epxEUWleibpRwH9QTmzb9imAgQAAJAAAhMiwAWAdXS7HUh4x9Zw9+Fs//jO6xXiO4JLeWLLt+rU4hz46+bq89WtehrVg21f7I3+xQNO7JpqPRbVDhctKkph00tXmfXUI/ZNJTJrsm5Za6eG/oFAkAACAABIDAnBPBbPF7CR5L8sKu/Tp5tr9PGFgsq5bgP18lFI3jtfn10Cd+aOZmUoFM8rlVDL7GqqfNC4x829pesanqF0PDbNdQGm4ZeateIl9s04nX4Dd6moQ7aNJTFpqE6rBr6lF1Do3SbTUOjaEsoIIZtGvEhq4b6m11N32VV5PwnDrUIHgVOgQAQAAJAAAjMLwKlHPdR3sVPCvngGL9CtD++bHC9XLw2bgnf0FwaOatGpLaqqYDQwEfONXS1UyX+FhYI0Td6bNglP5iKLn4ui1ryOZuOWhB6g6d/atPQf3Zo6DV2DV1t19L96QoEfH0CgXDGpqFqrCrxq1a1+IcONXXbTFZPTPVc8DsQAAJAAAgAgbQJWLiMT9bKcrzCOH+tXPQWuuGGfyKd1SnEhUQAkPX69WpKQn6frWODjvusXU1tiBh77H4nbns1NWJTUw8IDaldQ5+MGGw1/cRszMPNcR/FyYB2DW226+gldi29ya6lPXYtfTkyVoqehJAwiDzDSd5ToKb+gsWHS579mdmYL/QBBIAAEAACQGDaBGo40dfq5DnDpEQvf1SK/kQ6dKq+/ZEGhegcMf64QE+jUvw0+X02jja1uNCmpo5FDD5v+EMue5tash6Lg/hx7BpJgDfKWhrZtJL18b/P5mccMnGqJXfYtZIfO3T0604t3ejQ0hcdWhrZSZtCGMQJApyU2GlTU+utauoRi1pyx1x6VWaTBfQFBIAAEAAC1xGBcPW+y4I4P2pQ5kTc6g0K8Q5SsCe8Tt8zG49vUWR83Kam3o4a/mic3qahu21aSptsHIeGrsYGmDfCGtqS7Lq5+h6LAoeGoh0a+ndOHX3QoaXPRuaTgiiIEQShZMOTNhW1x6amF9tVInF8KGaungP6BQJAAAgAgX9wArhCH3H142ODQnS+ThUqFFSvpO4Lv/lHyvLiDP2ZILNraM6moToTuNbHHRr6DYtC8fHJ+ndo6W3E4Dq01InJrr0Sv2FBYNdKqL+HC/7PoaUPOLT0GTK/qbwECcQA9hCctWqow9bQckQGliJeib8ijAEEgAAQ+AclUK8QvRl19YtQvVLcaeG4T+LsdmGFvnBxngeng4lP4NPSz9o19NgE46+l+xwaiTqVfh1aZrlTJ0Gk4ZoBqdx3pa7Bb/AODfWoQ0tfJkKAHHlBkCRkEPWGxNYusKqpk1a1eJtVQ/3EqWK+fKWeA8YBAkAACACBfwACuERug1LULHT3NyjF+3B8mi/TG669HxYA29JFgr0Gdg3tiDH8YTe+Q0fvTseIO3T0n4nxx8cmAytKdz5zdb3dQHNNWkmpUytBTvJ8SY7JxEASr0Ck2qFFTfltKnppo5LSQWnjufpLQr9AAAgAgX8gAo0q8bcalOJzwjf+BpXoV1aVqCS2LC81kk7iml0rybNrqBMR4x81iBedOvph4cqDVHC7dPRDTdjwh5tLR38/lfvm8hqXgeacOkm5UJjEnIcEQaNDS20m3gDhMbkYCK8miBYmigiBcJ2E8zh/AFdNTEdEzSUL6BsIAAEgAASuQQIWJfUAEQBho3/RqhbvCJ2H6++rKdSoFmVN9Xh46Z5DQz9p19Dj2MAJDZ5DS/fjRLqp+kj0u1MvWdSklyDSnAZmSaLrrsR3zQb6O016yV4iRoRHIgAcOvqAUyOR4/k4dJJV2DuAWTi1kt/iJYcODb3XoaWP4+9mIATwZkijFiVValGJH2xQMV+8Es8PYwABIAAEgMB1RKAxYvBDW+5aVNQYX49fsOGORUU9OtkOBYLfAAAgAElEQVQjO1Wqj9g19NYEhh9X5bO4ZmCgnFpG5tJLkEvPkLZ2srnMxW92DXeLS8++49JLxvBciBiJHHWS8SadZFuTno7ZdbFJJ3ETYeDSM/9J5oa9IE4N9Q2Hjv6+U0uvcGhpX8RjIsgZiOQJJPMIRHZEFI9bVOJ6i0r06EyTNskc4QgEgAAQAALXOQGbkrrZohKfiLz1Cww/djuHC/YcTIbBYRB93qalrXFv/Pxbb5NOsrvGLLox2b2pfO/Uc98SGH/UpGfqUrlvNq4JaLNvchnYZ1x65qJwDtFzXgzsdemoBfHj4dUNTTrJGBEAU7ns3Trusw4dVWzX0K/Y1bRHKAjihYCwbDJ/HhUCCP8dG1XiGouaeqBJT38ifl7wGQgAASAABIBAhIBVRd8f/9YvMP64Ut+ZROvVHTr6604t3RVv/LHbu0lHb0h0T2TQFE+c+eJPNxsYJGhDKd467ctwOMOlZ+5tNjD9gnH5ObgMxBMhKXUbuKRhjSY9rRCECEaF1Q1TmZhNJ/6SQ0P9xK6mt9k19KlEyYIxQiBOBISFwPlGJbXRqhIZYHlhKtThGiAABIDAPxgB7JK2qsRlxKBEyvSGS/Tit1Gnjs4WYnFomdsdWnpAaPz5bHidBOHYdzqJg8J+489xP80GZkxoiOfyzdalZ8TNBtYiHC/u3Osy0ob4ecZ/dhmYJZEQgZ7uj/89nc98hUItI7NrqGdsGrqJ9wiEvTPkb0aOFl4IkHAO7w0gNR36GxWi5+vk2d9OZ2y4FggAASAABK5zAo0a6htWNXUp1vhHK/bZtdSvCAK7nhHjojzE+BPDj93dTVpm62wZfzKe28AMug0MIq3ZyGaS32briEWFx8SucBvZcbeRRZEWHXfIbZD8PFWvhksvKSWhgmY9XTFb88T9OLXcF+xa8Y9tGmqLTU2dxH8zIgD4YyJvQKi0MxED1Q0qamGqzzKbc4e+gAAQAAJAYB4SsGmol0i8WRiD5s+1kh14yniXPWL8hYYfG3+HTlI905h/IixuI9scMchGFjUb2TsTXTfd77xG5i6Pke33GFmEm3Ast5G93GxkXrDncf+aav8dHPdhl4E5HxUAzPJU7033uoBW+yGrijbaVdQ7oSJCYTGQSATg/ACBEGhQinsbVOLfVavEn053XLgeCAABIAAEriMCFiP3SZuaGok3/uE3/WG8g55TKxnCn+ONv0snafHmy/99LnC4jewRbJSJgfaY2N/PxjjePO4WTy6732NiEd+EY4TOa9067rvpjuXRMYwwbOAyMA+n28d0rsfVF+1qca5NTb1rVVOnsDdgkpAALwZw6ecGpehCo0L0dr1yYjLjdOYB9wABIAAEgMA1SAC7+iMCYOJ6/pPxhj+c6HYxfgncbD66x8itFxh/bKzfnkn/OOfBZ+Ie8JrYU14Ti4QtLAaOu01czLbE6YyH4/8xAsDEKtO5fzauxZ4Yq4bOt6ro9ywq6kxolUcoN6BxoicAiwC8LwSqV4hqapU5pnQLNs3GnKEPIAAEgAAQuIoEsEvZrqF7SHxfeCRL2sgxkuWupxfP5ZS9uexL5C09bKyrpzueRyf7ktfEHfSaOJS4sZtcJvlnpts/vs9tYOoi+Qp41cAM+5vJXPC9WAw0qsRFVpV4s0UlvhheIRAfDhCKACwEbPVyUR4IgZnSh/uBABAAAtcQAYdG8osYw49L2wo25IkYfpz0p5eUp7vELV0UPhP3u+hbOjbc7EC6feDrfSbpvb5c9qQvl0MJ2jFfnrR4Ov0K7/EbuU+6jexYNI+ACQh/v9rneNOnRhX1C4tS5J7CE4BFAKqX5zgaFDkFIASu9l8OxgcCQAAIXAECuLKfQ0sfSxTrjxj/cEW8UHU8pqpJzyx2m7gZbR2c7NG8udxPyNs6MdwBrfamZNfHf99mVnzcb5KuI/fGH/0mbpfPpLw5/r7pfHabuLtJuCIsAlZNp58rcY9VRWc0qsTLG5Xi0yQ5kM8JCG0THRIAobAAqpOLmusVontme4XHlXhOGAMIAAEgAATSIODQSv6QJN4fKYVLstzJsdnAjDcbmPpmPbPYY2D+I43hJr3Un8vmxxttj0F2x6Q3hX/057ISXy7b5c/l0MTGnvSZuO+l0k+q13hN3NqYhEIDd1+q916t66pM1McaVKL7G5Xi+lBSoJjPBwjnBESEQJ1chGplIleNXKS5WnOFcYEAEAACQGCOCbjVon9z6iTnses/8tYfcvmjuNr8wip9kfNQDJxtcpu4JS6TZEbFZ3wmKSUUANiQT+WuR2bz+/15siX+POmoP0+KErT6QJ7sq7OJERfs8ZnYERyuIDkLfiP3zdkcY677ssqzv92gpF5pUIovYwGQSARgIVCnyNlToxJdU8821+ygfyAABIDAdUPAoZesjRj/qMufbMrDH4XZ7vicN/xGJmYtfdglHvAY2KfdudLsdOPJ2JsQeXvP45Aft1zpb5OBDpgln2rJ4w605ElRgjbekid92nJ/xgeS3T/d7z0mqZ6EKsI5C73pPut0x57pfW6O+2iDgipoVIpXNSrFg+HlgRMEQD02/nzLQXXynEs1ctGLlTTsOTBT/nA/EAACQGBeEWjSSlheACQy/rH1+fk3/5DxjxbSIbFw/hh+Kw4bxqA3V/qSz8RK8Zv6VA/Nx/B5wx99k2/JlyaMrQfy5aKWPGkwxvDnS1FLqB0L5MlUU4033d/9udxq7KkgIsBn5FZOt68rcR/eRtiiEv9Po4raa1GJz6eUFKggAgAfeRGAamU5Q3Xy7J/BfgNX4q8GYwABIAAErgAB/PbaZJD4cE17Eufnj3HGnyx5i2a+xxTt4d3hsVn8HPKSTHwTN+gzcW/4c6U6vAQx2WO15EkvxBj1PG5Ced2WAtmDLfnSi4F8KUrQLO0Fsi8l63+m37vN5g/6crnjwlCFJ5fNn2m/s31/o5z+ilUt/o1VQzUmKhssFAFT5QMQT0CtPAeLANzc9bIs2WzPGfoDAkAACACBq0DAZZA8JjT+iV3+yd/6Jxh+U8IleKEEvTzuhC+PfbclT1rYZzT+i/BxI2/10bf5PvI7Nr6BAukbCYw+EQKrOn7AfZhcPxdHn0lq4nMTiLDJ5S74TNTH5mKsdPu0qkVfs2moR20aykL2epi4d4BgA6HYcsGkPoC7XiGq4JcG8ssDiScg7AWIioDxWlnOijptdsqrNNJ9HrgeCAABIAAErgABp4b6BhEAMcZfz652G5idbiN7hrz5R1z+se7+qEs8ahwj6/D52D6J64eT9cJv+uda8rmtgTzu7o487l9b8qXWOAM/jpcr4nh/a76sIpAvQ6S15stQawHfLrblyx64Aphu8OdJt4dyE0KrDby53MErMW6yMVwq5osOLb3YrqVskcqOGhpv7YwSiYAJJYOV4ouNKuqgRSV+CHsN+JUCClF7RADEhQIEXgDeG1AtzemG1QLJ/jrwPRAAAkDgGiHg0jOeGOPPJ/uxP8TTx5nvboNU7jGxz3gMbBPJfg+9+Qvi4XHGfxLDH0rcC7/ph40+duufjQqAsLHPk9/dWiDrCBt7YvRDx0LZ8UCRgrsSiD0Fks+15EkvR1cacKjFxF0R4SF8PotC8XGHlr7XqaGPOLT0GCnmFCsAkoiA0OZBgxYV9TauGhj/Bt+oFC2LWxVQVq8QnSVhAJwPIBQBNbIchFu1LHt1KffdlDdSEj4PnAMBIAAEgMBVJuA2Sv4iFAB8zN/EPpZoWoEC7gseI/Mjr4nb5DNxI8KYOD6PzeYPJfXFxPZjDT9x4Uff7kNv9sTYjyc0/gWy1naz9BuJ5jcX3wVyucXkGcIi4BKuCDgXY8X3ibf0dWppY5OO3kCWbeKlm8T4k2OsCKAingCrmnLZNNSTdpVInKzIT6OKUjYoxeOC/QJ8eOOhKiV1c71cvLJOLhoVJASSfABeAPBCQJrdWynLMcbPHT4DASAABIDAPCfg1tHZRABEMv0N3ItTTRtnhfvzOdqXyz3hy+Us/lx2jHeThzP6idHkj5MY/iRGnhcBbQUyFNMKZVX+O6+M8cXPj5YseV9LvqyFX2VAlh3mSndPxWamv/OhGQP7TJNBMoCTNMlyzUjJZm2sCLBraRQWARftGsl+q5r6uV2Tc8tU88CegEaluAtXCgxXCRxvUIkZ4X0NUuq2OrlodzIvQI00G1XjJst+x6LI+LjwXjgHAkAACACBeUwAG/JmA3M6YvyNOOmPW5/ulFvzVZ/25XF3+/KkONFvMCIAEmbtR+L45G0/cowz+KitUEba5dZC6a/nMts//pkDuTIjCU2ElxqiQP7sVhckY+JNfVxG9vsuI1Pu0jPjodwMfj+GUHVGwX4NvBCIioCzDi212a6m78JhAtJfKsdGpeiNuDLBy5PdVyfPltbKclzhFQG8JyDkAchBEREgzW6rkYmykvUB3wMBIAAEgMA8I+A2SA6SZD989BiZsplMEb85+wvkmS0F0t8HCqTVgXzpaMiQJjb8EaMfNfZhoy9H7YUTW1uh3NpRJFuMQxIzmedU9wbyZWWh5MPw0sMC6Rm3mfvoVPel87s3l/kvj4F5pdnAjBBPjAvvMqgnLSwCwlUbw16AE7iQk0NDFViMGTErKlId26IW6xtV4nEiABqV4l47x00az8chiVpZzuJaWc5ZLARILoBAAGBvwKUqLvtX10qRpFR5wXVAAAgAgeuSgNvI/oEIAJzt7zay3tl80C49/YlAobQ4kC9/szVfdpK4/RMb/okGPyICiuSoXdA6iuRj7UWyQx2FsjvxcsHZnHNbgTyTzDMiAgqkb8zGGNjr4jaxZreRKSPcsQeGCAB8jAoAhuzPcNKlY95u0jA6nJw5k3nYtJJPWVTifn7r4PCyQFwpMNU+61VZX66V5ewRCoAYEcBloyouezdUEUyVKFwHBIAAELhKBNxGRhZ68w8X+TGxQ3MxldYC2Q9aC2SXExn+iJEXvvGHjX1HkRyl0I52Fsn/1Fmg/txszL21QLqeCAB8xCIAi4KZ9O3WcZ/1mNjfe0xsD1lWGREAWHhNFAFnXXpmg8vA5ndws1frwKqmdmDjzwsAfFRSW6fzXDUykblGltMfTgYM5QKEcwKqeBGQ1Vohz57RXhHTmRfcAwSAABAAAikSCGglnyIGKbzU71KKt6Z8WVuh7NHWAtk4b/wFrv4Jhj89o486i+SRFhYJ59uL5K/OJFcgUCi9ra1ANornKhAB1pQfNu5Cv5HN9BrZd70m9iIpniTcVTAiAkIC4GIzX4OBuWu2ww14WlYVfb+VXxYYKQ50wqakpr1dcoVE8qkauWh7jAdAynsAsBcAtzOVbNadcUjgIxAAAkAACMwXAl4jO8CLABOLsJGarTdOnA/QWiB7aeJbP+/qH20rkL/Hi4Ap3vI7zQqUZrvUaVa81n6n/DPpMm4rlG2LJB8SEZAv+3E6/eAYeItJqveZuDKyXJLsI4D5kpoKRHi5jWyD28T9fC6XGNqVzH9Y1dQZXCkwUhxITc1KTYNaLue+Gmn2aX5FAPYChIx/WARkoQpp5l8hLyCdf0FwLRAAAkDgChHwGNlSbJTIGyrO6p/p0Lj+f1uhbGO88Q+/9V9qL1QUt5nl2xK49y/h79I0+MmuP9VZpPhdquWCOwql2e2F8vG2QjlZfYCXIg6n+jaOn9mXL73Xn8e648oH8xUSQyIgxNljYrvdBvavf3fz/+dMWU91P847sKqpOlImmBcAanElWnLD+6a6N9XfazjR16ql2bVEBIQ9AKiKy0KVXBaqYjI3WzKml7SY6hzgOiAABIAAEEiTgMfIvhoVABwK5Mm+mmYXMZfjXf5a86WlsS7/SILfhY4iRS6O13cWyS8LBUBnkeJy90LZV4NmxX91mZUPd5oVezrNigtdZgVK2IoVqEvYElyHhUSHWdHSaVZNuZlNR5H8sDAsEfIESP8Y83AJPgS02pv8edLHWvKkfXgJZKhoUKg4EvEA4KPXxJ33mri1PiMjm03jm2BKMV/Z1fQTuEwwEQBWFXXBohJ9M+aiWfiAhUYVl/23amn2eFQAZPMCoJLNQpVsVmMVNf2QwyxMEboAAkAACAABIQGPkVlM3v7xW2pLHvdd4e/pnPtMyptbC2TOJMb/fGeRTIv76yiSPxZj/ENu/nfjxwp8T3tT90L5oq5i+c6uYsXlGIMvNP7JzqOiYLyzWLEK9xc/Bv7cbpaa8Hz4lQbRZMSzkxUfcpvV/xbIl/4xkC8dERYMEpYOxp4Aby7r9uVxj+DrE409l9/Z1LTCpqbGhALApqF/N5dj1siyzFVc9mkiArAHICwAUAWb1VnKZcy6+JjL54G+gQAQAALXLQGvkftBSACEavy3mGQxFeFSffCOQu6bf8/270xi/M+0FSnluC8cD+4olLfGufrH2wvlk2aNd5i5zwaLlb/pLlZ2dRcr0eQtzjuABUJIDLR1muUi4TPhHQo7iuSdRJBERECR7CXhdeQcb1QUyJc92ZovO0WKBeFjnAg4589n38YVE8l9V/rokmd/xqahj5KNgrAHwKam6/Gb+lzPpUKefWsVl+0LiYBQGEAgAoYqpTnZcz0H6B8IAAEgAASmIOA3sloiAHhXdZ5MNcUtE34O5MtFrQWyodiYf8Ttf6q9ICoquoqU8jjjj2P4KZfZRRz3z90LVYu6Fypd3QuVKKYlFAZxYsCsuNxZrPgVeYgus+JJYvzJsb1IfiF+NUFngeRzbfnS59oKZGfICoFInYCoAGgN5Ep/gXc6JP1fjSMOMeDSwLhMMBEANjV1tlFDXbG9FHC54So2ewfJAxAIAOwJOFPFLuC9QVeDD4wJBIAAEAACeOc/E3M7yVLHAsCfx6b1P+ZAoczYWiA7i42i8O0/HE8f6ShQ5AhBdxTJ34tP8usyK9J+U0Zm8/u7i1X3BouVweBCJRK2iCiIEQQCIYBDDkWKdV1mVUanWXGRzxUQrkYolEf2ROjJl/97e6H8mbZC2VkicIgAwMdAvmy8NU96EJcPxisfhM96tc5tGupRslFQRACoxA9e6flgIVLNZb4YFwbAAgBVMFmXytgs85WeE4wHBIAAEAACYQI+I/NloQDw5nOGVOG0FUrvxQV+khj/oVazNEPYFzamOLFPKAC6zIpK4TXpnmMXfk+x6rHgQuUJoQgg57wYiAiBWBHQhb0BgmWGYQ/AyYBZ+ymfifpYh1n+h/ZC+QksZuKXB4Y8AdLXce2AdOc8l9fb9YzYrqEvxwgALXXgai7Fq2CzflHJZo1hLwBv/EMCAJUzmZfLmczvzSUP6BsIAAEgAASSEPAbZJ/HAiCSsW6SmpJcGvN1S57sd7jAD3kbjr79867/gUQx/Y5CxS+EBhfH5TvNCn1Mx9P8cNSs/VRPsXITMfzCY6wIUEZXD4STBIVzai+S/6XTLP9lZ5H8WCQfgBcAYRFQIOtvK5A+hsscT3Oqc3Zbk57+hFNLdwl2CcRx/xGnNntO905I5YEq2SxzJZt1Pk4AYBEwWsZm/jCVPuAaIAAEgAAQmEUCeN2/UAD4c9n8ybrHrvdAgew1YvgTvP33deYrEq5v7zQr3MTYho2/c7bfTIOL1Hf1LFIOCwUAORcmDkZWFAg8APzcihTHSS4APgpEQHtbkfSnQbPoxsn4XK3fMEeHlt7mwFsER7cJRnYtNW/esCu5bLqCzRoJhwCw8SdtrFSSdd/VYgfjAgEgAAT+IQngt0ahAPDmSQuTgcDFbgL50g04+S2xAJB2txUq/yPR/V3FSkpo/LEA6C5Wzkmp2IE75Z/pWaTe0ZMoNyBJOIDMDR9jBIBZ5movUtxzJbLnE3FL9TuHVvIgNv6khUMA06r1n+qY07munFlwewWbNRQSAREBgIXAWKkk8+7p9An3AAEgAASAwDQI4Fi3UAD4TGzCxCzs8m7N5yoSbe8bcv9L2zvNqi8nm0KXWb6aGFl+Sd5CRRv2JiS7fibf939f9ZHeheqVPYtUaDIRkNwLEN6EqFD25Gx7KGbyXMnudWiZ251ayQVi/HkvgIbuq5dn/Xuye67m99Vc5ncr2KxjFVEPAO8JKJNkXj4iWZBUgF7NOcPYQAAIAIHrjoCnQPI5b64gB8AozY1/yEAB94WWfGlzdN37BA9AS2uu6ovx95HPuDpgp1lxVigAuouVs1KLnoxBjsG71Fm9i1QtvPHHAiCRCIj3AiTIBQh7AUY7i2R/ttyf8QHS/3w7YgHn1En8Tq0k8vbv0NLjdg2lm29zFc6nnBH9VwWTOSAIA6AySSZuF49IsmYlL0Q4HpwDASAABIBAHAFvvvzrkQRALARMnEZ4ScAova0lX9odNf7SGPd/a4HMg9fIC++JP+8wK/5HaPy7zIqjqdboj+8r2WfsTehbpPpd352qS72LVAi3qAhIsEwwLAKSeQFiwgBF8vpkoY1k87lS3zv0krVOnQTFCAAd/fqVGn8m41RRmbeVC0RAWABgEXDuMJMpnknfcC8QAAJAAAhMQcCbJ80QCgBvHseRW3Alu5Y86XFc5S6JAHCmsnlQp1lhjREAxcrFZIzZOPZ/X/XlvkWaqr47VaiXtMQCoA0nBApXBaQoAFB7ofx0W5GiYDbmO1t9NOmYn/DGP1YA+N0c99HZGmOu+6mQZNxRzmSexJ4AgQBAZZIFw+XMHQmTSed6TtA/EAACQOAfggA2+EIBEMhn+VK5/jwuryVPeg5vcJNEAFi8+fIpY8xdZikuthPZsa/LrDiRrCb/dIAfvUt9T99d6pN9d6rRJAKgM7hQ9b3gQlXrDAQAFgHj7QXyP82Hgj8uHbWgSSe5ECcAztt14mnv5TAd/rNxTxmbLS1nMi8IBUCpZAEqoxd0HRaJPj8bY0AfQAAIAAEgEEfAa2TvjBEAJub2lnzuAX+edJQ3/gkFgLw21XK3HUWKZZ1FAgFQrPxr3BSm9bHrLv0neu9UbwgZ/pDxjwiAaAjgcs+d6ucGzdxHg4IaAdP0AGABwBcEai2S7ZhNEZMuALda9G9NOklHE37zJ00rQXYN/dN0+5ov11dIFhSWSTJHiQjAAqCU5kWAs4qiPjZf5gnzAAJAAAhcNwS8udyjwiRAv0m6zp+HSwKHtrZNIALKceJZKgBwNn5HkfwkjqeHvQDn2u+UfyaVeye75uhdamnfnapubPBJi7j+cQiAd/8rG3oXKW7H/QQXKh4ktQB4D4AgCbC7WL61y6wYCdclIPOMXQqI6wGEdwkkFQHbC2S2dtPMn2Wy50z0Gy6v26SX7MbGP0YA6JiNia6/lr4rpxfcHy8AsAg4Qi/YvXGOVoxcS3xgrkAACACBWSXgMXHLYpYB4v0A+D0BEgqAMrc59fhyZ6HiXpJMxwuAIvkrM5k8zsbvvUu1pPdO1ViMwRfE/XsXqc4EF6kXkyWG3YuUC4ILlReIAIh5+1+oWIPngwVNV7FycadZcTw8z1gBEN0iOKYkcFuBtL3VzH1tJs+U7r0uPf1/TfqQ8RcIgDaLQvHxdPuaj9eXMplPYRFAPABhAYAO05nPzsf5wpyAABAAAtcsAZ+R3ZNYAIS8AMQDEMjnStLN3O8oklcLBMDlyeoETAXwqFl7a89ClZ1k+Cc5bg2aZZGYMQ5TBBcq2xMZ/+5iZX388+Dlih1F8qc6iuQXybwFlQBRG9kToCBmGWRvaz73ranmPxu/u7WMzKWXjMYJgAs4H2A2+p8PfaAbbnhfmSRzV7wAOEIvQKXUgh/NhznCHIAAEAAC1wUBr4nzTSUAAnmybW6z+YPpPDDeJAcbT2JIO4vk76RzP7kWF+LpXaj4ec8i1bnosj7hEj/+vKt3kTJmDwN8X3ChYhsx/rGuf9VRoVAgY5EjXvLXXiTfjeceKwBkIQ9ArADAOwIem+tNgRwG2eddBmaAN/5hDwCO/zt0zE/IvK+XY0l29k1ldIabvP1j44/bYWrBxSN0Rvb18pzwHEAACACBq0bAqVJ9xGtiRycTAP486YbpFMJpK1K8IBAA4635qrTfkjvM3GeDC5UlxIjjqn49i0jjDf9ozyLV8zjJLx5iz0LFI+Q+odu/u1h5sXORLKU15u1mqam9UN4XSv6LbAbEb3ssLIWMSyMH8qVH2/LlX4+fx2x8tmRkfMClZ6pcegYJBYBDJ1k1G/3Pxz4OizO+WipZMESM/xGKFwDoMJXRhgXCfJwzzAkIAAEgcM0Q8BpYkdfEIiwAEosA6RoSS0/nobBrvb1QPsQnzmEvgFm+M5378bXdZqWpe6FykBjxBMfG3oXqOxL1G1ykyg4uVF7E98QafwXqXKhMa9MZvIVxW4H8PZL8h8seJzD+fJ2ElnxpEG+vnGhOM/muWSd5Dht/F37zj8b/LR0c9+GZ9Dvf7sXZ/hWS7FsPMxmqUknmD8okC/YkEADoCJWxdr7NHeYDBIAAELimCHhM7P9MIgBWTne9e1uh7E6SNY+9AJ1Fqb1xY3h45UBwoWK5cOc+bMSjAkBxKrhQ+XAyYRI0q/8tuFDZGWv4lai7WIE6ixWvTvcP1F4kM7cVyE5MIQBQS5404Ddyn5zuOPH3NRslhS49Mx4jALSSIY9O/KX4a+f752qx+NNVXHZOOZP5vQpJ5u/L2MzV5UzmgXIm010myTyVZAUA7/4XeACwFwAdpO7Ime/PC/MDAkAACMxbAh4TuyIkAEJeAFIPwJvLvTKTTXDaCmVHcMJcWASUpwqge6E8s7NY4SfV+WJEAL90T7Gt53vapHvb4zl3Fyt3xt6nQLi/zmJF2XRCGcK544z/QIHMQTwAYdc/efvHxp+0SrxzovDe6Zx7dfTXXQbmZMj4R9z/oy4dq5xOf1finlIu45PVskymUpp9fxWX/bcqNntLJZflqGSzTlWyWYjfBRAfmSyyFTDZCChSCTBRAmC8ADgkzvjllXgeGAMIAAEgcF0S8BhZj4cPAUTDAN489rmZGH9sJNsKZeMhlzn/9q+dCh5+m+8sVv6206y4xO8UiHyzaLMAACAASURBVDfnKY627mJFd/dCxYRNiuL77S5W/Cpk/KP38v0sVHQeNWs/FX/9dD4HzaIbAwWyVa2huH+kRDKulkgEAK6h0JLLrZ0JR4sx41+aDYyTGH/i/ndpmf+dzrxn+55aLueWGrlIUyvP+WWtNGdFDZddUS3NPlYtzUbVXDaqirQsVMllIWz8YwVAzFbAEeOfaAkgHwagFgwfpjM8R6g7Dh6hFvzlYEbGdbHscbb/LtAfEAACQGBKAm4d91mPkR2PCgBeBIx7c9lyf670D/586Xem7CTBBYF82ZOh7YFxxrzcPpUR7FjE3dJpVlQKywXj87AQGO1aKH8xlcJD3Yvkkq5ixWWhcAj3cbazMFQQKMF0p/1VIF/6i0C+dAzvkRBv/ENFlDgsAv5vugM0G5m3mg047k8ajv8zb063v+neVyMS3VivpBbUynLuq5flvFQnzy6vk2WP1MpyUA1p2OgLWtT4Zycx/tgDECMA+sskmdVlzIK3y+kFj5dKMu4rozONOOO/nMn8Yon2azP2pkz3+eE+IAAEgMB1R6DZyN7pMbKIb3FegGgogHW35EofSrX4D3axtxbIjmIXOR8rL5Ivmgxce6H87o4i+Qm83E5YLjgsBqxdZlXGZPeT33B1wS6zojfiPYhu7zveYZYvJNfN9rEV75dQID0zUQCEiin5crlRn4mVpjtus4H9cazxZ3DVvzK3+da0lmKmO26dNvumOjUlbVSIft2gzHmvXiHy1CtEo3VyEQq1HFQrz0HY+E9DABytYLMOl7OZyyvYrN/g0r+VdNZ3SrlbJ6zgSHfecD0QAAJAAAikQQDH/ycKgGgogIgAfGzJ5Y778qS/iS+cEz9ca4Esn8THWwtkgWSJerhAT1uR/D1SI0B47CySn+4oUjyS7N74MfnwgVlxJN6DwH8uVvw5/vrZ/uwr5Ba05EkHsPufvPnjSooCfkextyXVcT0GyR3NBuZ8rACQtKay8VKqY+DrcIihUZlDNShFDzcqxe80KsS+BqV4rEEhQrjVkyYw/nXY+E8tAIar2OzyKmnWa5XSzJ9WSDPZennWlJtGpTN3uBYIAAEgAARmQMBtZDvcxAOAjxEvQGxCIDFkofLAXCveIjjZsIF8WUlUAMgTFqgJFCm49kJ5t3CVQFQAKHa0LlJ9MVn/ib7vMiueTGj8zfKt013FkGicyb7zmaTf8OdJu5MIAOQ1sYdTmUuTnv5Es4FpjzX+zAmXnpnxtrgOHf11i4r6b6uKet2iopwWlXi0USVGjcpQa1CKUYMyzvgryJs/PsYa/1pZzqUaWY61WpazskaW/Ugtl6OokGR8bjJO8BsQAAJAAAhcZQL4LRMb/3gBEBUBE+sCYCEQEgHsmC9P+vv42H6bWfH/AvnSURwTb82X98VnweNKgm1F0qfbCmVjOEEwIgD48rrynk6zLD9dLF2FMmNnkXw8KiAilQedqYYt0h0z2fXePO4Wfx4XiHv7j9RY8JrYSbPWMc9mA7OTN/7R2P+l6WT847d7m07M2FTUozY1tcOqpgatagpZVRSyqMSRRow/Pk4mAOrlogt1clFjnTz79Tpp9v110uyMuQ5HJOMM3wMBIAAEgMAMCLj1zBNuA8MLgHREAC8A+I2C8D4BsndKOe6fyTT8BbIl2PiHk+J+Tb7Hx5Z8xX+2FshsfHIgzg8ojLTR9kL50lSS/IT94fOuAvlXOooUxycaf9kgTiyMv/5KfPYUSD7ny+W8xGuCd1kMFVnCXhX2nMfA/EeyebgNzKPY+Ave/sddesndya4Xfo83ArKrJXq7ln7aoaFrbRrqkk1NIdx4wx8+WgQCYOLbv5h3/TcoROfrlKL6eoX4tXpZzn01CtHtuBKhcDw4BwJAAAgAgWuUQLOB8WBD4zbyIuCc28gOpJoPIBQBvjzpuzgGj1tLnrQLJ8MF8qUjxKDjt9pAgfSnrQWyc9HQQChBEG+n21Ygz5wOQpyL0GGWW4XGn6/ZXyS/2F4kl0ynz9m6x2dS3uzP5QJYBAiMPx9i8RjZSrydb/xYzXpW6jYwowLjj5oN7G/iryOfLUbuk3atJM+plbzg0FI2u5YetWtohJuNbyHjHyMABMYfewEEb/+BeqV4TYNK/NNGheh2oagj48ERCAABIAAErgMC7lzJreRNM+wF2IONksvELfCYmD97jOxQNBSQOCkwGg7gwwJP+vNkWrIGviVf9gTG1G6Sf6YlT7on5BWIKZ97OlAo/+VMDE17oWyFMIQQOS+Qz4vd4twGxf/zmrgOUmQJ84wILCP7U+E/I5+JurnZwPTzxp+4/g3MUuE1AW32TU49Y3LqmKVOHe1yaOlxh5ZGpBHjHxIACYy/Grv+cROdsarEZRaV6K+NSspk00pmpTaCcK5wDgSAABAAAvOUQLOBeZIIAP6oZxYLp4rf3t1G9rceE3uSGLBEewUIRMC4P0/ayhe/yZOebc1XfTqQKzO25EsHSEggciyQ7cS5AsLx0j3vKJD9IGLwo9UGcc2BF9Ptay6vb9HTX/Ga2B7e+AsEgNvIDpOMfiyCmg1MBfl74DX/zXpmY41ZdCP2Crj0zBNNOqbWqZNcxjv/8U0riRh+LABijT/2AMS4/lutKuodq5L+Gbzdz+VfG/oGAkAACMxzAtjguPRMHzE4+NhkYEWJpo3L0HpMbFOKIgD58zhcCe/NllxuWUuedJz3CISL5ATypT0tedLCROOk8117ofzbbYWys4IcApJPsH8mHoV05pDOtd5c5r88JnaEvP1HEi8NzCu4H5eReZb8LcIFf0Zdeqa8SS85J9j0J2T4sQCIN/6xAmDMpqbsVrX4RbtKkudUiT+dzlzhWiAABIAAELiOCTQbWCOpLBc2PGcmS/DC2eReE7sxJRHAJweyJ0NL4SJlcccCedzLAa12xtu3tpkVH28rkLVEEgnDxYbaCmT+Lj39ifn6Z3PrWYnHyOI8i1DSZSjR73Kzgflds4EZx38H8jfBR+F2v03krT98JC7/8BHH/S02Df2cU0sb8RLC+coA5gUEgAAQAAJXmUCTXrJdaGzcRmb3VFPC1f28JnZvNC+AJLfFFLvhC9+ElgniFQK4Se3+PFnWVP2n8jtOJmwtlG0RJhKGz0fazdJvpNLH1bzGbWLNvAAIZ/mTt/5440/q/WPDH2/8nVr6skNH1zt11DM44x9X7buazwRjAwEgAASAwDVCwGaibm7SSy7jN0wiApoMzPdSmb5TpfqIx8jWR0VA8uRAXy53piWX+9VsuuRbC+T/izffiRMAo4FCqTqV+V+Na/CmQR4jl+c2smvcRnYEJ1wKDX8Kxv+SUyupadLRTzp1tIasrLgazwJjAgEgAASAwDVMoEnLPMW/WerxpjK8CDiTarEcj0mq9xjZXj6WHVcxcGKCINs70213hZgD+XJRIF96KZJIGK41ECiQPSK8bj6c8yETA2v0hIz+qTi3f4wAICIsdAz9TZp0krYmLbO8SU+b8dr++fBMMAcgAASAABC4hgngN3inTjJMXMvhOPPaqR7Jnsf9q9vILieGjCSzkcz2+NwAXPiGL4JjYs1T9Z3K7/xSwnxpT7zxb8mXvpXK/VfiGhx79+Qy93iN7EaPkT2DGRFeKbj9j+Gs/yY9fb9HJ/7SlZgvjAEEgAAQAAL/QAScOuZhsowsIgK0lHYyBC69RN9sZPqEFQOxQYuIgND+AaNeI/cDb2S1QKSEcMVkfafyGw4h+PO5I5H6AnmRxMJKXFY4lT7m6hq8uY/PxD3gMbEHPSb2MmESb/gTuP3PN+uZQ016ZrHTILkjUVGguZoz9AsEgAAQAAL/YASwIXXq6HYiAPCxSSfxJzM+2PXsMkhWCePVIREQLR0cFgLjbhNzL8aJiwt5TexZoUfAb5B+Zyao/bnck+HaAnh5Id/8edJOXGdgJv1O916PTvYlj5F7xGNiKz0mdoz3gggEUbzxJ/zcBqap2SB5zq3jNDhEMN3x4T4gAASAABAAAmkRcGgkd5PlYxERoJX8T6JOXEZG5dIx3TguTQyY8BjnDXhI2IfbxP5VGBrwmNjXhL+nc+4zSU3+PG48tJogsqrgtD9/ZqIinTnga7358q97c7lHvSa20Wtix8nzkTf+RO5+t4E53mxg3/v7rn73eNQS2B0vXehwPRAAAkAACMycwEaz+f0OLe0jAgAfcS4AzgkQ9o7fTJ0GZmmTXjIem5w2UQjwIkDP/lZ4Pz7H1e08RvYUbxxx5TsT2xe/Y2D8PYk+ewpkX/LlckN8LgHZgTCXG/flSYsTXT/b37mN0ts8Rm6x18RUEY/GlIbfyLS5DcxSj55TwC55s/0Xgf6AABAAAkAgbQI2DfUju6BmPC8EdPSfhR059Ky0SSfpiF0hEF0qyAsCwRI2l4H9q/B+4bnHxCwTvh1786QZwt+nOu/guA97czkbMf6Ro4n73VT3Tvd3LFJwvQJfLveU18QGJjP6gjf+i24Djv8zD7u0sq9Od2y4DwgAASAABIDArBPAb6J2Dd1JasWHvQCn8E5yeDDsBXDoJS87dZLxcF4AX3wmVgjEVqlzGSUvTTZRl4HjSCwcG0uvgXl8suvjf/MZuZVkWWFkRUEut346noT4voWf8e6FHpOM8RrZpT4T2z3B6Atq9xNBg3dMdBvZVc1GaSGsyRfShHMgAASAABCYVwSsavpnxPiToyP89u/QULRdS7eGQwLRWvPhCnSxIiDsDdBJVk1liHFiYdhQ8kvhmo2sJVUo4dUEiBhjLAR8Js5uMRpnJXGOr2hoZFReE7vca2L78TgR134Cgx9+27c1m5g/u3Ol2cmSJlN9PrgOCAABIAAEgMCcE7AoMj5uU1MD/M5w4X3i7Wp6xKakbsa14x1aeizsEeB3lsObzEQSBIUiAJ/zhYPoDTifIJWJNxvYTXyegIFfNTAeSGHLWZ9J8m2PiT0nNMheEzvozeNuSWXMZNfgkILPxJg8JvZtj4k9LuyfvNkLj958+WjggbvdbiPzE6eW+0KyfuF7IAAEgAAQAALzkoBVQz1vU4f3hcfbw2ooZNdI9tg1tC/iDYjPDQglCE4QAk6dZNdkGwbFA2jWSx4Rrhxo1ksmLdeL3ekeI+sTGmKPkb3kNXBcfN+pfMbVDd1GpthjYjd4TOzpuH5j6xjgMEWxdrzn2T+jk9XlaOz8eYQQGkplHLgGCAABIAAEgMC8ImBRib5pVVOXrEQA4GNEBMTuHz8hQRCLAKE3QC85hN+i03lAj45hhALAbZA8Ntn9HiO7juQNCI4PTnZP/G98NT4Dc4/XwO7wGNnziYy+oG/kW6Qf733hSXSqvhqNX7qEjb7wv3GEUFrPHD8f+AwEgAAQAAJA4IoTaFRRe7HxF7ZYb0CcCNDQfBhAGBLgcwO0TK2b4z6a7gP4TNTNMSsHjMzGZH1gV7sgXBDKGzCxbye7Xvg9v+wQr7U3srvcRvai0MAnOvfdZUQ9z/8lZPQvTzD6QgGAz6EsrxA2nAMBIAAEgMD8JtCopEwWlRhZVBSy4hYSAtPwBlA2vA/AdJ4WJwq69MyZaD0BSWuiftw67rvNBua80FvgMjC1Aa32Q4mux9+5cpkvuo3sQ24jW+42sqOJDL3biHMPGISFhf/uXNT36nPojN2CxkdH4438ZJ9zks0BvgcCQAAIAAEgMK8IVJmoj1lU4u6QAIiKAIuKetSqplzEIxDrDcC5AXEeAS3ttqWQuDfZwzfpJQ68t31YBIwH4vaux5+bDUyL0PjjfQew9yC+X7eJ+1qznlncbGDqmw3MeMw9gvoE5HvfPfmod9kL6HSTDY2PjU1m5Cf7rSB+HvAZCAABIAAEgMC8JNCoFL3cqBSjRt4DgAUA32px9r5NTf2RCAB8jIiASH5ARAS04pUCM31Al06yObzjYGjrYZPk28I+XXpmbdRDwNcauOTUsxJyjdtI3cYbfT1TRQz7ZEfffxfyRv9Ukx2NXr6ExsbG0Pj4ON8ms/KT/PYzMhc4AgEgAASAABCYtwQaVCJxo1I8xguAqAg416ihvoEn3aAUf1cQEiChgagQCCUJdts1M1t2RwA16SRPR3YdxEsJBTsPOvX0T7E4EHgIsKfgRy4dt6DZwDzZrGf8ceKAeBJijt4fFKGela+gk81OdOniRXTp0iV0+fJlNDo6ygsAIgImMfLkp4vkRHB8gjwLHIEAEAACQAAIzEsCOGbeoBS5G7DhFzaF6BHhhC0qUXtcboBQCPQ7w2JBeM90z506+qGYugJayY9xX3gL3Cad5IKw0FCTXnLKqZd0RkXBBHEQMfzuRQbUtfRpNGxtROfPnUMXLlxAFy9eRBcvXooRAEQEYC9Agv8GEEK7EEKL/37MQAiJE1zz5nSfHe4DAkAACAABIHBFCDQocv7coBChBiVuYr41KsRH4ivXWdTi52LyA8IrBWxqatiqiXXRz3TiTp2kME4A/BFvM+zUSVonlB1OWHiIFCCSIFeBErU/9TgarCxFZ06eRGfPnkPnzp1D58+f5wXAhQtYAEQ9AJdHRyNegLAA6EEIrUUI3Y8Q+mb8syGEbkQIXY4TAXvjr4PPQAAIAAEgAATmDYEGmUhcrxCN1mMBQJpSNJgojm9RUHRUAESSBE81qkVZs/1ATi2VQ5YV4roCTVrmTadeskkoCuLPhSEDl0mGWn//K9S3bxc6OXQMnT59Gp05cwadOXsWnT17NiIAzl+4EPECkBDA5cuX+0ZHRzeOjY1hg39bKs+GEHLFCYCGVO6Da4AAEAACQAAIXHECVRT1sXq5qA0bf9IaFKLxeoVYn2gy2CPQqKKOCkTA2QaliE107Uy/c6mYLxIBED6eJp/5QkPCYkO6aBli70P3oeCmd9HxniA6cfIkOnnyFDp16lRUAJyJEwAhL0DbxYsX11y6dOn+8+fPf3k6c0cIvR0nAFqm0w/cAwSAABAAAkBgzgnUycWr6+QihBsRAPUK0fPJBsbr8xuVopLwSoGLVrVIk+zamX5v14gzE1UZJCJAeGz+fgFqX/4SGnA3o+PHj6ORkRF04sQJdOIEFgAnIwLg9OkzvBfg7Nmz4+fOnVt/7ty5hWfPnv3cTOeK70cI/SJOAAzORr/QBxAAAkAACACBWSVQIxPl18lzUKiFRYBcZMFbACcaqE6e/ZkGpXhHOElwtEFBFSe6bibfOVXMlx1aerFDQ3sn1BbAtQYEew84TTLkf/w3KHigBB0bHERDQ8NoeHg4IgBGRrAAOBERAKdOnY54AXAI4OzZc6Pnzp0rP3fu3K+m+9YvfFaEkCFOAFwS/g7nQAAIAAEgAASuOoFqmfhLtbKc4dqIAMBCQDRSw4m+lmhyDYqc4gaFaCiUKCgea1CK70503XS+w0bfrqEes6kpB9lvIGYHQmGRIS2DPL/6GerYthn19/SgwcFBdOzYMXTs2FCMADh+fGR8ZOREOxEAE8IAE/MAxi9cuFB+6dKlHyCE0i5djJ8bIfSfcQIAf/zIdJjAPUAACAABIAAEZp1AiVb7oVpZTkOtLAdFmjzncp08Wxk/WKWe/kS9QrSOhAf4/ABlzgPx16X7GScYWtXUI1Y1VZe0uFCkwBCFHHeaUMtrL6KeJic62t+P+vsH0MDAAC8ABiMCYIj3AAwfP46OHx/hSwefOHEiY+TkyaUnT54aIHkAp3Ei4JkzkUTAc+fPR1YDhFcCnLp06dJShNAX03kuvPkPQii+bODn0+kDrgUCQAAIAAEgMGcEaqSiV2pkOQg3IgDqpNk/jR8QC4I6uShYL8wPkOf8Jv66VD/zCYTqHIVFTW20qKhLyeoJEEFg10pQ8y8eQG3bt6Ce7iDq6+tDfUePoqNHsQDo5wXAwOAgGhzEHoBjaGhoCA0N4zAAnwMQs3kQQugDp06dMp06c2b36dNnxmIEwLlYASBYDnhxdHR0VTpCACHUHecFSGkFQaoM4TogAASAABAAAtMiUCXNKa6RZiO+hUVAjSznZWFnNSLRjfXynKfq5DljMfkBspzHhdeleo7f9i1K8WKLStwhWD1Aygzzmw4JxYDjnkLke/UF1OF0oGCwB/X09KLe3l7UiwVAX1QA9A9gLwAWAOEwABYA0TyAxcnmd/78+S+dPn36z2fPnu2bsh5AqCrgubGxsb8ghG5K1if5HiFUGycAKPIbHIEAEAACQAAIXBUClfKsr1dLs09WS7MRblgEVHM5/5+984Bu7Kr2fmiPFkp4EEuWIQECfARSJ1NSZyYFyAshoQQIgVAeBBJ6f8ADBh4Zjz0uM+69V7lLlqxqyZYlq9myumRZbpJ7793741zpytca2ZbrOMmZte667bT70yzf/91nn70FknPn3koOqPn8mdPNj56xE5aBzf4BV8gyweyJr/3HzjyueeJBpuaJB1Y2RRf83DW5BqDlqbNg+NNvoL2uFnq6u6Gntxd6e11eAeAGNxIAfaQAQCJgoNUzDUARABQ/gLGxsWumM/zHjawCs7OzLy4sLJhQQKCFhc3xAJaXV/zDArsAYNtVDwDA9RMAAZdT+o8Fn2MCmAAmgAlgAodCQPv4iffJzp22kC9/794qOXc3ka4Xef4rHjt9UfHomVVyWoDcKx87nYKW/wUzMO3jD35E/cT9/1Q/fr/bE1WQElmQGmLYe9z6gxfAnJ0GTpMZurq6obu7G7p7eqCnhxQALnC7SStA/9jAwECc2+2+G41lcHBo0ucHQEwDIAsA4QewNjk5eVMw40VlAOBNc4uLX1xYWGjyhQVe9gsLvLZGJgdCcYHTtnLuA4BCPwHwjWDHgcthApgAJoAJYAIHSgBl8ms6d5rbdO40oE2OtvOn+2WPnfwY6kjxyP13KM6f1vlNC5D+Afn+4YADDU792AMnlY8/UKJ6/P4VisMgNbLgRojhZx4Hw//9FewSMXQ4neDs7ITOzq6tBMBar9vd5HL1v9Tf3/8uat+Dg4NmJAAC+AEYqeV2c7y4uPj40tKSjuIHQIQEDpAXQA8At/q3DQAJfgLgO/5l8DkmgAlgApgAJnAkBGRnT0XLzp2CJmI7DU1nT4+hlz4SBvLzp/4gP39qkbQM+PkHVFKnB/wHi4RB8/kzX1I+dn9DgGBC1MBChBBo+f7zYMzLBLvJDA5HB3R0dHgEgJMUAF3QhSwA3T3Q29vb09PT84+urq5rXrLkOAYHB4WB/ADGxsZSyTJ72QPAm5eXl7+7vLzcizIDUrMD+qUHHgSAM9Q+AOBffgLgh9T7+BgTwAQwAUwAEzgSAk2PnPqu7OwpIDYkAM6empOdO/1Q87kzt8rPnZISFgGvTwApAoj9udMCtFww0CDRdcX5+19sfuyMZSOQEBFHgIgoSEQVJFcOfP5haP39L8BUXQk2ux3s9nZob3eAw+EABxIAHU5wEgKgEzq7upa6u7vZPT09z/37RerzSwg0BnRtcHCwkuoHQFkO+OJWdXZzHQDetbS0dGllZWWVtAAESA88CwCPkO0GEADXrK4gy+I9JoAJYAKYACZwKATQi77x7KklnwA4e2pedu7k47Lzp19qOndqhpwSIPcUAdCgffrEJnM7GiCKBKh47P5/Nj96ZoT0DyCdBTcHFDoD6q88CbroS2BWKsFqtYHVZgObbUMAtCMBQFgBCAFgcHZ1/dLtdv/nbkAMDg5WbYoH4PUDGB4eDhjMaDdtU8suLy+fWVtbM62u+vwA/D7yYQoATqM6/44FcMnv5qZ0ytR28TEmgAlgApgAJnDgBGQPnfpk4yOnRhrPngLvNi87e/o7jWdPcUhrwKZpAa9/gOzsaRVKEEQdEPIVkD96Kl1x/tQiGT+AGkOAKgbUP/oO6PKzwaQ3gNlsAYvFCharlRABpACwtxNWgKmOjo6Uzs7OPWcR7O8frPbFAyCWAxLxAFzUsR/UMQC8fXV1NTmABYB83w+heAEAEE1e8O73HDfhoMaO28EEMAFMABN4gxBofPieDzU8crK94ZGT0PjIKbQtNp49nd141iMIKBYBQCKAIgQMqsdO+b7CZY+f+Ij8/Omr2/gIeIIJfe4hUP/h16DjcsFgNIHRZAKTyUwIALPFQhUA6za7vdFut7/o79C3l59mYGCAhQSAnx9A/l7aCrbO6urqd9fX1+eRL0CAfyoASPW7/tdg28blMAFMABPABDCBPROQnLv9xoZHTmrQy5+yDRNCYMMaQFgF/ISADZn4UccoT4Ds/Om0pnOnl7fyEUDOgs1fewo0sZdBp1CAXm8AvcEIBqMRjEaPADCZLUAIAIu132azXbJarZ/c84MFqDgwMCC7Jizw8PB/Byh6oJcA4O719fUBvxc9ebpIHnj3/3egnePGMAFMABPABDABfwLIq1/68Mka6cMnAW0UAeA79hcCXhHQi176DY+c/LDs7OmrsnOnFnwrBrxTA1QhoPj+t0CTnQGtLS2g07VBW5se2ggBYACDwScA1oxms9BsNj+n1Wrf5j/WgzjvHxiwe8ICe/ICoOWAQ0NDxNLGg2h/uzYA4JMAgAID7fTv0nbt4HuYACaACWACmMC+CKBAPdJH7sskX/7Uvb8QaCSnBgiLwMm+xvMnz8rOnk6UnT216LMKbJ4aAPnnHoHmP/8BNFwutLS0QktrK7S26igCQE9YAUgBYDQaX97XAwVRub9/YIyaF2B4eLg3iGoHVgQAPgYA3TsogKgD6xA3hAlgApgAJoAJ+BOof/C+SMlD94HkYbR5LADbiQAkChofObnW+MgpceNZ5CPgcRb0CQDv0sGmLz0BzZdeBXVDA2g0WtBqW0CLBEDLhgDQIQtA24YA8E4DDJjN5g/4j/Ogzs1m83/09w+sDwwMEImBPH4AI3kH1X6w7XhTAKNVAFv9iwi2LVwOE8AEMAFMABPYFYH6h0/+rR69/Knbw/cR0wBUEYCO/a0BXiHgcRak+AjIvvEMKK7GglKuAJVaDWq1hhAAGkIAtPgEQKuuDXRtbaDX6zX+fgBGozlrVw+yi8Iul+sT3AhKkQAAIABJREFUKDsgEgCkH8Dw8PD3d9HEgRUFgGcAIKBX4L/zDbx6YB3hhjABTAATwAQwAZKA+IETP0cvf3LbJAK8FgF/EbCdEJC9+E2QZ6ZDs6IZmpUqUKpUoFJ5BIBaowWN1mMF8EwD6KBVR0wDqJVK5Xvb9IYBvWHDD8BoMq+bzebHyLEe5L6/v//z/umBBwcHP3qQfeymrX8vAczcwgTwz920g8tiApgAJoAJYAI7EhA/eOKH4gdPrIsfvA/q0baVECCmBbaxCJw/A42/fAWaystBLleAQtEMimalRwAoPQJApdbMqjUeK4BvGsDjB7DW1tZGrOXX6fWvICuAzw/AsxywQ6vVXhNUaMeH26GA2+1+2S89cPcOVQ7lNgDcDgAV21gA/nYoHeNGMQFMABPABN6YBMQP3fe8+METq+IHT4Bn84qA3QiBxx6Ehj/8GhpYLJA1yaGpSU4IADkpAJqVoFQqm1QqzfNqtfYf5DSATwAQfgBtGeQvgLz99XpjOxIAm5YDmiy5ZJmD2rv7+6Op6YGHhoayD6rtYNpBiYDW1tZy1tfXV7f48icv/yWY9nAZTAATwAQwAUxgRwLi+088J3rgxIroAfLlT91faw24xj/giYdA+offQENtLTQ0yqBR1gQyWRMhAJrkCpArmufk8uZ0uVxNpN1FDncqlbqfFACEH4CW8AMYb21t/RB1wHq9/mvUaQAUEMhkNoPJZH2JWm6/x66+Pr5HAHj9AAYGvrvfNoOpDwAhq6urcWtra0vbRAUkX/5o/8dg2sVlMAFMABPABDCBbQkIKC9/JADIbcMSQIqBAELg8+dA8tc/g4THA6m0AaQNjf4CwCGXN/9GJpPdRB2EUqn8TmA/gJYfU8uRx3qDoXpjGsAjAMxmy4LFYrmXLLPfvdvdN9jX1wekH0B/f/8t+21zu/oA8P6lpaVXV1ZWZlFiIDI5kF9EQOQIuER9+wPA77ZrF9/DBDABTAATwAR2JCC4/57nhfffuyp84ASgjXz5U/cBhcAXPwfiiHAQC4VQL5GCRCKlCoC1xsam2qampidRGtxAg1CpVK1IAKjUGqD4AdQDwJsClTebzTSDwTh6TVhgs9VpMBg2iYtA9Xe61tk5FOJ29wESAF4/AOdOdfZ6/9/Jfd6xuLj4+6WlpbHl5WUiNXCA9MDoxV/z7+0eAEDhgKn/cDKgvcLH9TABTAATwARuuEF45t6vC+6/d0V4/73g23YSAk89DqJLr4JIIASRuB7E9RKor5eQAmCsoaHxskwm2zZynkKhfkxJrAbwCgDPcsA5rVb78e1+F73e9E2qHwBKDOQJC2xrdLlc79yu7k73enr6nnC73eBGAqCPmALI3KnObu8jMbSwsPDiwsJiz+LiIiwtLQESAMvLK4QIoFgA2ABwgmwfAJqob38AOPSASGTfeI8JYAKYACbwOiPAP3PvC4L7710V3H8vkJtPBCBB4C8EnnkSBNGRIOALQSgUgVAk9ggAMRIA0pb6+oYfKBSKoF7CCoWy0bMcUO1bDqjRtAT1VWs0Gos38gJ4kgMR2QEttmoAeMtef6be3t7fuZAAIKwA/Wga4Nt7bStQvdnZ2c/Nz8+3zc8vwMLCApACYGkJCQCPFWB1dZWzvAwn/esDALKMUP+94F8Gn2MCmAAmgAlgAjsS4J259+v8M/eu8M/cCwK0UUQAOqYKAcEzT67xIy4Bj8cHPl8IAoEQBB4BsCgS1ReIRKL7d+yQUkAuVz3a7LccUK3WKLaaKqBUJQ71ev27jUaTjpodcCM9sDXNv3yw5y6XK29DAPSB2+0OC7buduXm5ubumZ2dFczNzcHc/DzMz8/7BMDi0hJhBVhaWuItLy+f2aodAOBR3/4A8KWtyuLrmAAmgAlgAphAQAJ1p+55nn/mnlX+mXsACQBy8xcC/Ke/sFgXHQVcbh3U8fjA4wuAjzaBsFcoFP9FJBIRWf4CdrLNRYVC2eCJB4CWAxLxAJDp//9tU+WaWxaL5Raj2TwcKD2w1WqP3sqP4JqGKBd6XS69y0VaAPraKbf2dDgxMXHL9PR03szMzNrs7CzMIgEwN7dZACwu8lZWVh7YqYMAAuDcTnXwfUwAE8AEMAFMwEeAf/qer/FO37PCO30P8AgBgETAZiHA//z56brwV4FTywUOtw64dTwkANbr6vjiujrhVyQSyVt9De7yoKmp6fzmeAAqUKrVr+yyGaK4wWB5xGQyL1HSA4PVagObzQ52uz01WIsCagwtSeztdS15BIAbOQLu2ZIwOTl50+Tk5OWpqemF6elpmJmZAUIAzPoEwPr8/Dxrfn6ZCHQUzLMDgMjPAnBgKx+C6R+XwQQwAUwAE3gNE+CdvuerdeTLHwkAciOFwLkHJjj/+Nsym10LtbVcqOUQAmC6ro6XUFsr/PR+Hx19lcvkChUhAFBIYM80AGcvX+vkWIxG41dMZvMKcgZE0wBIAFhtHhFgs7UXBitWuru77+ntdYHL5QI0DeBy7X7+v6ur6x2Tk5O/m5ycHJ+cnIKpqSkgBcDMzCwSAWtzc3MVaEqAHH+wewCQ+gmATwRbF5fDBDABTAATeAMTqDt511fqTt29XHf6HiA3UgDUPXRyuPZ//zJSU10DLHYtsNkcqK3lWDgczk9ramrec1DYGuXybxIBgTbCAg8plco9TSNQx2QymZ43my2rG34ApBWgHezt7YJgsgd2d/f+oLe3F3qRACCmAdyfpPax3TGyNIyPj397fHy8e2JiAiYmJmFyctInAKanZ9ZmZmaKZ2ZmPrtdO9vdC7AKYN/ctusP38MEMAFMABN4HRBAL3/uqbuXuafuhjpi84qAMydG2T9/xVZdXgnVNSyoYbGBxSIEAGs/X+WBkHG53LfLmhSdZFhglBegubn56UBl93LNZLJ+12yxrFqsHisAmgaw2e1IAEB7uwP9u327dnt7exMoAmAs2OcfGxt7YmxsTDc2Ngbj4+MwvlkArExNT+dNT0/vyr8h0DgBoM3PAhDUaotAbeFrmAAmgAlgAm8AAuxTd32Ze9Lz8kcCwCMC7lqoO/9wZGVZ+WJVVQ1UVdf4CQD2sweNpkEm+y01L0CTQply0H1YLJZnLRbrnG8aAAkAOyEAwOFwTHV0dHxjqz57enrkPcgCQEwD9PG2KkdeHx4evnt4eJg/MjIKo6OjgATAGBIA48gCMLE8OTmZMTk5uW1MA7KtYPYA0EMRAMvB1MFlMAFMABPABN6gBDin7voi5+TdS5yTdwMXbafuBs7pu4Xs03d/orKy8q7KymqorKreEAA1bGQFWGIymTceJLLGxsYPNcqaxil5AWx8vf7dB9kH2ZbFYjljtdqGST8AjwBoh3aHAxyODujo6MhzOBzvJcujPYod0N3TM9vT4xEAbrd7y1S7KDXw0NBQ/tDw8Nrw8AiMjIwQAmB0bAxGR8cXx8fHk5D3P7X9gzgGgGmKABg6iDZxG5gAJoAJYAKvQwLce+98lHPyrgXOybsACQDOybvHau+76yW44QYizG5FRc0jFZVVGwKgmuW1ArA0B42jsVGW1dgoIxIDyZrky3K5/JpANwfZp9lsvs1qtRk8qwEIPwA0DUAKAOhwOrs7Ozt96+i7u7s/3d3dAx4B0AvdbvdT/uMZHh6mDQwMxg8ODi4NDg3B0NAwUATA/Ojo2NXR0VGGf72DOAeAt61vTg6gP4h2cRuYACaACWACrzMCnBN3nq69767p2vvugtqTd61zTt2Vxz5x4oPUxywvr37aJwCqaqCanAZgs4up5fZ73NDQ8EBDQ+M6EgBEdkC5/EjS2Gq12nfZ7fZswg/ANw3QAY4OZAVwgtPZCZ2dXayenp7bu7u7X/AIgB5A0wADAwO+TIRdXV3vd7v7X+3vH5gdGBiAwcFBGBwkBcDwzMjIyOWhoaFDdcgDgJs3v/9BsN/fBdfHBDABTAATeJ0R4Jy44w72fXehr32oPXFXO7IEBHrEssrKrxACoLIaNvkB1LD/L1D5vVxjMplvkUobdA0b2QFl6Npe2tprHVt7+/ft9vZpZAEgpgEoAsDZ2QmdXV1rXV3d3RQB0In66u/vf5fL5fqju69vfFN6YI8AmBkcHLzY39+/SVTtdYw71QOAT/kJgLyd6uD7mAAmgAlgAm8gAuy77/4E+8RdA+wTd82z77v7Ave2296+1eOXVVY+QwoAqh9AdTXrh1vV2e31eqn0Fyg9sFcATDU0NHx0t20cRHmr1Xqr3W6v3/ADQBYAJxACoLMLurq6obu7G7p70DRAT3lvb+/LLperfyMsMJEXAPoHkBVgKOKoXvzks/87CuAZPwEQSd7De0wAE8AEMIE3OIHqk5/9MOvEnd2sE3dI2Cfu2HHZWVll5RcrKqrANw2ApgCqWVDFYn3vIFCKxeJbJBLpNBIAUmQBkMlePIh299oGWtbncDhedjg6JjqQFQAJAM80AHR1dUEXEgAeP4A1ynJAb2Kgvrn+/v7owcHBm/fa/37qra6u/hcSABQR8Nv9tIfrYgKYACaACbxOCFTeeefNrHvvbGDfd+eLpJPfTo9WWVn5hfKKyg0B4F0OWMVi/fdOdXe6j1629fUSnkQiBQkhAGSlO9U5qvudnZ0hjo6O3I4O57pHABDTAF4rAGEBIPwAPMsB3fNutzu2a3iYdlTjC9TP6urqD9fW1qgCAGcCDAQKX8MEMAFM4I1EgHnixPuq773j1/5OfjsxYDKrTvkEAOEH4FkOWFPD/tFOdXe6LxZLvldfL4F6jwBwyWSym3aqc1T3Ozo6bu7o6LjS0eFcQgIg8DRA71JPjyuut7c39KjGtV0/K2trF/wEwGPblcf3MAFMABPABN4ABPh33rmn9fQVFRW3EAKgogo2xQOoZv15P9gkEglNLK4fFyMBIJWuicUNAZ0Q99PHXuqazeYbbQ7HH9sdjilPPACnZxoAOQJe4wfQu+5yua6iBEF76eug66yurmb6CYDPHHQfuD1MABPABDCBNwgBJpP5TlIAbPYDqMndDwKRSMwSiesBCQCJpOHyfto6iLpoOaDNZvuj3W4f84YFpsYDQH4A0x4BsMkPALx+AKre3t4Di+a31+dZXV3lkwLA6wfwvr22hethApgAJoAJYAI3VFRUjvimAVBEQE88gOa9ohEKhT8SicTgFQBtKP7/Xtvabz2bzfYeq9X6P1arbciXF8AXD8Cx7ujoqOvo6Hiys7Pzz52e5YDID2CZshzQGxbYNeV2u7+z3/Hsp/7KyooZCQCvCBjdT1u4LiaACWACmAAmcENZeaXEJwA2wgJPBZtCl4pQLBZ/XCgUzQg9AmChvr7+upipDQbDTWaz+W9ms2XMPz0wigfgcDjibTbbp8ixO53OctIPoLOz+3c9PT1/7O7pWSTDApPpgd3uPoHL5bouKXhXV1enVld9AuDAIzWSLPAeE8AEMAFM4A1CoLy8Ip6cBqD6AVRWss7uBgEK7iMQCJsEQhEQAkBU/4vd1D+Isnq9/maj0fyq0WSaMpnMYDZbgJIe2G2z2f7gdDo3mc7RaoUOp7OfXA7odPbeh8bS29v72Z4eVyuaBiAEAJEeuA/6+voW/h0N8O8Oh+PILBsA8N6V1VVYXV0lLABra2vHZkXFQfxuuA1MABPABDCBLQiglxTatri9r8tlZRU/Li+vhE3xAKpqoKaGHbGbhvl84V/4AiEQAkAo4h3WeAONyWAw/L+2NkOqwWBcMBhNYDSZgBQAZovFaLVav7eVM19nZ+edlHgAE1TLh1arfVtPT88/el2uZRchANxIAEBfPwoKNOAcGBh4ESURCjSmg7y2tLT0mZWVFaoACD/I9nFbmAAmgAlgAseQQF5e3rsP82XKZDJvRwLANw2w4QdgDbZfPp//CI8vWPEKgBEej0c/CpRtbW3ndW1t7LY2/bpebwC9wQgGoxGMRiQALBKLxfJfOz1De0fH78m8AE6nM2AOBJfLdafL5W52u93gRgKgjxAAKF8ADAwOWgcGhr8OAG8+rGdeXV190k8AvHRYfeF2MQFMABPABI4BgaSkzE8hAXDYQykrq+jzCYANPwCoqan5wk598/n8m+t4/D4eXwBIAAiFwq/uVGc/95HpvbW19TstLbrWVp0OdLo2aGvTQxshAAyrBoOJaTQaCTN+MP20t3eoPQKACA38ra3qoBd8b1/fT93u/kkyL0A/EgADZGKgIcPg8PB/u1yud27Vxl6vLy8v/5gUAGgaYGVl5fG9toXrYQKYACaACRxjAmg+PSUl5YnU1NR3HcUwy8or80k/gM3LAdn12/V/4cKFN9fV1fHreHwgBABfULZd+f3cU6lUH9VotJe02pZhbUsrtLS2QmurTwDMtbW1JRgMho/tpo+Ojo7bKPEA5v39AwK1hQID9ff3l3mnAbwCYBCGfOmBh0dHRkYiJiYmbglUfy/XlpaWXkUCYGXF4wcAALt6zr30ietgApgAJoAJHDGB7OzsdySmpHzjKDPmlZeXf90zDUDJC+BND1xTU/PgVgi4XO5fuHU8IAQATzAqEokONCUu+upWqVRfVKk0HLVas6bRaEGrbQFCALQQAmBYp9P/XavV7ikjn93u+AcSACg9sMPhLNjqOQNdd7sHzvf397f50gNvCAAYGRmBkdHR1dHRMfHY2NiPpqen/zNQG8FeW15ezl8mBADhB7ACAG8Lti4uhwlgApgAJvAaIBAbG/v+xMTkX6emph7pH3giIFB55SR1GoCSHtiG7vvj43K5ZznculVCANTxoa5O8G3/Mns9R1/7CoXyb0qlqkupUoNKrQa1WgNIAGgIAdDSodXqXkEBfvbaB3L2a293uMn0wE6nc9ehdZEDYH9//48HBgeHBweHCCvA8PAwDCMBMDIKo6OjMDY2BmPj48vj45PcycnJH05MTNy62zEvLy83LC8vI9M/2my7rY/LYwKYACaACRxjAvHx8aGJickRcXFxR7a8jIqjvLwigyoAqOmBWSz2VWpZNO9fy+X2cbh1gAQAl8tjU+/v5VipVL5XplD8QK5QNigUzevNzUpoVqpAqVKBSuURAGpNi1qr1T53ENYRu93+5fb2dkACoKOjo2s/TnxdXRPvHxoaihgaGpobQgJgGAmAEUIAjCIBMDYO4+PjMDExAROTkzA5OeWYmppKnpmZ+drCwsJHduK1tLTURQqA1dXV8p3K4/uYACaACWACrxECCQkJn4xPSGInJibeeL2GzGRWPhTYD4AF1TWs9ZqaWuILH83719ZyBLUcLhACgMub4XK5YXsZN1pm19TU9KRMJi+SNcnnm+QKkMsVoFA0g4IUAErVmlqtrmnWaM7tpY+t6tjtdvlGWGDn37cqt5vrIyMj9KGh4YShoZEl7zQAjI4iATC2IQAmkACYhKmpKZienobp6RmYmZkZmZ2d5c/Pz1+anV341vz8/P1zc3PESgpkZVhaWlomBcDKysqF3YwJl8UEMAFMABM4pgRiEhI+Exef2I5EwPUeYnl5hdxnBfAuB6yqrkECAGrY7GU2m/19Npvzv+xaDhACgFMHXC73j7sZN5utfVd9Q8NXpNLG/IaGxvHGRhk0yppA1iSHpiY5IQDkHgEwrlAoL6PpgN20H0xZm832qM1uB7snLPCa1dq1a7P8dv0MDAzcOjw8nDMyMrpCFQDj4xOEFYAUAFNTSABMIwEAs7OzMDs7B3NzczA/Pw8LCwuwsLC4sLi4aF9aWgIkAJaXCR+A57brG9/DBDABTAATeA0QiE5I+OTVuPj++Pj4Lx2H4ZaXVz/tEwBEeuAa8AmAGjawWGxgsWvXCAFQywUOh2tnMpk7ZsuTSCQfFIul35FIJJX1UumcRNoAUmkjNDQ0QgMpAGRNhABokisMCoXypf3M7+/E0mqziVFuACQAHA5H1U7l93p/YGDi1tHR0bixsbG5sXE0DbAhACanpnxWACQAZggBMOsTAPOEAFiAxcVFQAJgiRAAy+j403sdD66HCWACmAAmcAwIxMbG3nrlarzralxC0jEYDjEEFDSnvKJSj6ICUsMCV1ezUGRAqPEIAGCzOVBby0Ff/08GGrtIJPpPgUDwZYFAdFUoEhtE4vp1sTc7YL1ECh4B0ADSDQEw39TUlN/YqNhV+OFAfe90zWq1PmC12YAiAO7fqc5+709PT39wbGzswvj4+AjFD8AnAKaRAJhBFgCPAJibn/dZAXwCwGMFWASAt+53PLg+JoAJYAKYwHUiEJ6UdFPMlTjzlavxg8jz/zoNI2C3lZWVj24KC4ymAKoJP4BNAoDN4bBQA2w2+10cjuA+Lpf3ozo+P5HH5+v5fMGagAwLjBIDicSwSQBIpCCVNiALgFba2PiyRCI5MgYWm41jtXoEgM3WLg0I4ZAuAsDbx8fHn5+YmJRMTk6u+/kBbAiAuc0CYHFxibACLC8v6w9paLhZTAATwAQwgcMmcOHChf+IiY2TxF6Jg9i4uBcOu7+9tF9eWVnqCwhURZkGQBYAVi2aBgB2Lcdey+H2cwg/AM9qAG88AOB7owJ68gJ4BIA3PTDU10tG6uulcfX1srv2Mrb91LFYLGcsFus6KQDsdntAC8Z++gi27vT09KcmJycjpqamnTv4AfimAZaXlwuDbR+XwwQwAUwAEzhmBKJiriTHxF6FmCtX5TvFqb9eQ6+urv5wRWX1ApoGoMQDIKYBvH4ASABArccPwLMaAAUEquMDj4wKiCwAAhEIieyAon6RqD5RLBY/ehBL+PbCBbE2my3NlPTAbceF/+zs7F0zMzMXZmZnW2ZnZ1dIR8Br/ABWVv60l2fHdTABTAATwASuM4HLMTHfj465AoQAiLn65es8nE3dM5nM25jMipfKyitLyysqh4P1A6AsB4Q6MiogsgDwRV18vjBWKBQ+hJYObursOpyYzeYXNqcHtm4Z9/86DM/XJQC8e2Fh4ezcwkIduRqA9ANYXFz8vK8gPsAEMAFMABN4bRCIioq6PSr6ygISALGxVzqu15cwSSs/v4JeVFr67ZLS0qwSZlk3k1kOzLJyKCuv8GQGrKCEBd7KD4BcDogCAnHrXNw6PpPH4/1EIBB8guznOOzRigKTyexCAsBssYLFajUfRRrf3T77xMTE+2dnZ381Pz9vm7vGD2BxHQA+sNs2cXlMABPABDCB60gAhfa9HB3TEhUdC9ExsRAVe/XnRz2cwsLCmwoKir9cWFwcX1RUYikqLoXiklIoKWVCaWkZlDLLNgRAgPTAvuWAm/0AUDyA7r0GAjoqBkaj8YLJZAaPALCA2Wx75qj6DqafycnJ+6anpzNnZmbmtogHgPwA2oNpC5fBBDABTAATOEYEIqNi/nY5KgaiotEWuxoVFbWn5DW7eSSUSTAnp+BzeXkFEXn5hZr8gsLVgsIiKCwshsKiEigqLvEIgBImlFAFQFkFlFEFACU9MBEQiLoc0OsHUFtb99+7GdtRljUajR82Gk1zSACYzEgEmJuOsv+t+kIJfaampr45OTmlIlcDEPEAKMsB0RTA/DwKCERsu0pWtFW/+DomgAlgApjAERGIjIz8eOTl6AUkAAgREBWrOIyukZUhMzP3oaycvL9l5+Q25OTmLeXm5kNuXgHk5RdAfkEhFBQUQQEhAIo9AoCwAiABwPRYAJjlY8yyilpmeUUbGRb42ngArE3LAVE8gFoOdwzlBziM59pvm0ajkWU0msBoMoHHCmB+aL9t7qc+MvOPj4//YWJiotebF8AvHoAnKiByBPSLB/DL/fSL62ICmAAmgAkcMYGIyCh25OVoQBsSANHRsX89iCEgx7qMjIx70tMzf5uRmcXNzMyZyczKgazsXMjOyYWcnDzIoQqA/ELIJwRAERQWFUNRUcl6UXGJtaikNKuYyfxvJpN5O/KKR1nyyssrelF64E3xAIj0wJR4AKxaYHuWAxJhgWtr647dF6rBYPiWwWAEw4YAqDkI9ntpY3h4+LbR0fH4sbGxGZQYaBwlBqLkBZjayAuA4gHoZ+fm6sjVAMgCgPID7KVfXAcTwAQwAUzgOhC4GBn5YERkFESizSsAYmJi7tvrUJKSMj+Vmpr6clpaellqesZoWnompGdkQkZmFmRkZoNHAOQQAiDbJwDyCQtAXn7hXH5+kbSwsPjVgoKSL+bmVgbMUV9aXv4s4QhInQbw5AVoq6pmqYhpgGv9AMATD4D74l6f7aDr6fX6m/V644ieEABGMBrNq2az+TMH3c9O7Q0NDT0wMjJSNTIyukZJDxwgLPD00tTUVPH09DRhoZibm0ukCIBlALgmJfNOfeP7mAAmgAlgAteJwKXIy+KIyMtAiACPAFhFgYCCHU5cXHpYYmLKi4lJKbnJyamu5JQ0SElFWzqkpmVAWnoGIQDSM0gBkA1Z2TmQTVgB8npzcvKKc/LyfpGXl3cf+rIPpl9mWZmgjPAD8K4GqPSEBa6oqHmqooJzSzWLNbYpLDDpB+DJDjjH4XDuCKafwy7T1qYvadMbQG8wAGEFMJgSDrtPsn1kSRkcHHx6aGhItlN64MnJSdfU1NT/zs7O0sj6aD83NycjBcD8/GIL9R4+xgQwAUwAEzjGBMLDo++5FHEZ0EYRAJ3bDTkhIeE/4+ISvxYXl5SUkJBkS0hMgoTEZEhMSoGk5FRITkGbnwAgrABZyxmZ2aqsrOwrmZk5X09PL9hTet6SkpJPMpnl60yqAPAsB5SR466pqXmKSA/slxeAEg/AzuVy30uWvx57nU73bFubHtr0etDrCQEwqNPpDj3csNls/o+BgYHvDgwMmgYHB2FoaAiGhoZheHgEUHpgZAHwZAccXx8bGxNNTEx8JVBsfyQg/r0ccJLwA5gjMgMem3wR1+P3xH1iApgAJvCaInDpUkRG+KXITQIgMjJaQH2IxMTEG2Nj45+MjY2/fOVqXOuVq/FrV+MSIC4+EeITEiEhgSoAUiCZEAGEABhJTU1npaVl/CklI+MR5PFPbXevxyUl5fErWdQdAAAgAElEQVSl1HgAxDRAFZRVVz9MbbOaxfozkRjIzw9gIyxwHT+YLIHUNg/quLW19UM6XVu/DgmANo8AMBqN3zmo9gO1MzIy8h632/2bvr5+V3//AAwMDAASAIM+ATBMCICR0dHJ0dHxuNHR0f8XqB3y2sTExK3EckDkCOhJD/w8eQ/vMQFMABPABI4xgZiYmHdeDI+YoQoAZAWIuBydERV15ZGoqJh/REXHyqJjriyjqIAoL8AVtF2NB58AIEQAIQDWEpNSTElJyemJyWnfQ34Ah/HoxcXFoaWlZQu+eABlFYAcAcsrqjiB+qupYWdS8gIECAssKD3qCIDoy7mlRVfbqmsDXVsbKQCk6HqgZ9jvtc7OzpDeXverbrd73N3XB319/dDf308IgAEkAAaRBWAIhoeHDUMjIz8ZHh6+MZg+Z2ZmvuqXHpgRTD1cBhPABDABTOA6E7h4MeLZi+ER4BMAm6cBIIqICYCCAnnCAseSIsAjAGbi4hPEV+MT/xkfn/TkUWULLClhxvuWA6KIgJ5pgNXy8vI7A+FMTdW+rYbNFnoTAxECwDcNQOQF4AGXJ0gOVPewrmm1ul+2tOqgVacDnY4QAMttbW0H7vjncrlu6+npTe7tdS24XC5wud3gdm8IgP4BZAUYXBocHCwZHh5+ZLfPOz09fZlMDzw7O4sDAO0WIC6PCWACmMD1InDxUkQaVQBs9gPwLAf0RAVEAuBKV8yVq4VXrsT9LC4u7p4LFy4E5ax3kM9WUFARVlzCXPAJAO80QHl5xbZzz3w+/92s2tomNpvjSQ7kcQQELpcHXF9eAH7SUVgCNBrNPdqW1sWW1lZobfUIAF1bW8RBcnI6nfd1d3czu7t7Vnt6eqG3txd6kQBwkQKgD/r6+90DAwN/HRkZoe+17+npGRkKCoSmAebm5tL32g6uhwlgApgAJnDEBC6GR1pJAeCzAniWAi5FRkY3R0bFxERHX/lqRER86BEPLWB3hcWlCZvDAqO8ABXjRUXsHSMWIoc/NpujJrIDIgEQID2wQCAoPUyfALPZfKNGq7VrW1qhpcUjANra2qwKheJAls51dnZ+rrOzU9TZ1QVdXd3Q3d0DPT090IMEQC8hANbdbrfY1d//1UBOfQGhb3ERRQicnp6eJwXA7Ozst7coii9jApgAJoAJHCcCly5det/F8Ih1JABIEUBaACIioh87TmNFY8nPZ95WVFyySAgASljgsrKKoPMV1NbW3sSu5ai2Tw8sENTUNL3nMJ5fo9HmarQtoNW2kAJgRavXn95PX2jZZHu783mn06lzOjvB2dkJnZ0bAqAbCYCe3qneXld8d3f3p/fTF7Xu1NTUqenpaSDCAs/OogBAH6bex8eYACaACWACx5TAvyIi7iNf/lQBgETA5cuXj1UKYISwoKi4lsgLUFwKJYQAIMICm1Fo4d0gRtMBHA6H7+8HUMfjAw+lBxYIQSAQ2kUi0e27aXenshqN5mdqjRY0Wq1PALS06F7dqd5W9x0Ox9vtdvuLDofD7nB0QEeHE5xOp58A6Lb19PT8saur68CXFk5OTv4FCYDpmRkkApxbjRNfxwQwAUwAEzhmBC5ejPjKNQLAuxwwMjL6e8dpuEVFRU8TYYFRYqCN7IDrxWVl5/YyTolE8g4Oh1vFIdIDU/0ABMAnRYBQNCWor//SXtr3r6NWq8+q1JpltUYDGo1HAGhbWg3oJe5fdqdzu93+Qbvd/ne73T5ib2+H9nYHeARAB3QgAeDsXO7s7Crt6uo6u1Nb+7k/OTkpJQTANOEDkLWftnBdTAATwAQwgSMkcPFixPf9BYDPD+Dy5V8d4VC27So7O/sdBYVFTm9eAPClBy5hZmxbcYebTCbzLVxuXRwhAkhHQN4mAQBCoWhdLBaH78cvQC6X36JSqYdVag2o1R4BoNG2LCNnwB2GuOm21Wq91Wq1xlmttlmbzQ42ux3s9g0B4Ojo6Pu3BeDv3d3de3bq29ThNidomeDU1NTS1NQ0IBEwOzt7bEIrbzNsfAsTwAQwAUwAEQgPj3iFKgA2TQNERv3juFDKLyz8e4D0wINMJvMDBzFGDof3U24db6Wujg+8TdMAIiQAQCgSg0gsbq2vr9/1Mj2tVvuuZpWqValSg0qlJgQAmgZQa7W/C3bsJpPpLpPZXGg2W1YsFitYrTaw2myARIBXAEgcDsdzWq12V1MhwfYfqNzU1NRTk5NTZHbA9bm5uUMXHYHGga9hApgAJoAJ7IHAq+GR39tKAERERBbtockDr5KXl/fZ/PzCRf/0wCUlJd88yM44HN4XeDzehM8PgE/4AYCAFACiehCL6xdE9fW/QZaDYPpGQX2am5UlzUoVKJUqnwBQabTVwQT8MZlM5w0GU53RZFr3pAe2ABIAFishAqZttvYkh8Oxa1ESzNh3KjMxMXGVFABTU1OtO5XH9zEBTAATwASOEYHw8MtfDiQA0DRAeMRl/fUeKjK75+Xnt+Zfmx44YMS//Y6Xy+V+vI7HbyMcATf8ADwWAMIKUA/iegnUS6Sa+vr6Ezv1p1AoLiualdCsVPoEgEqt6ZQZDDdtVReJC53B8JzBYFD7pQcGs9kCZgvx76cOh+O65jCYnJy0TE5OkhaAi1s9D76OCWACmAAmcAwJvPpq5L3XCgBfVMDF6xHoh4opJy/vX3n5BbBZAJRMFBcXH9pyM+QcyOfzM3yrAZAFQCgCEVUA1EtAKpWu1Usb80QiUcBUxXK5/BW5ohkIAdDsEwCLSqUyoHCw2WzvadHpXtK1tdnJvAAb6YFNayaThW2xWB4PxnJAZXgYx2NjY2ETExNAEQCb8i8cRp+4TUwAE8AEMIEDJBAREfGei+ERa9eKAE9ioItRUdsmgjnAoVzTVF5e3uncvPyVvLwCyCMsAIXg8QMoeeGawodwgScQ/JAvEM4IBFQ/AGIaAOo9VgCQSBtAKm0YkkobX6amMJbL5d9skivWCAGgaIZmwgqApgA0P/Yfqkql/2hLiy6mpVU3RQkLTGQG1BsMAwaD6Z9tbW3HKr7+2NjYD0gBMDk5NYkCAvk/Fz7HBDABTAATOOYELoZH6LcSAJcuXf7R9Rh+IpN5Y05unj03Nx9yCQFQAPkFhVBQUMw8yvHweLzbBAJhs58fADkNABKJFAkAkDY0QoNMZm1sbHymsbHxMVmTfKlJrgC5XAEK0gqgUkVTx67RaB7UaFrKtdqWVRQRkMgL4A0L3Naml+n1+m+ilL3UOsfleGJiohwJgImJSWQFKD8u48LjwAQwAUwAE9gFgYsXL8UFEgAeP4DIml00dSBFkYk7OzeXmZOTBzmEAMgHzzRAwUBRUdGO4X4PZBCURtCXvUAg+ptQKF7ZPA0gJQQAYQVAAqBBBo2NMmiUNa3KmuTQ1CTfEABKJRMA3qzX69+tVKpfUqk1OnI5IIoI6A0LPKvT6VJbWowBExpRhnRdDwcHB989Pj4+N74hAH54XQeEO8cEMAFMABPYG4FXX4047y8A0Lk3HsDshQsX3rG3lvdWKzMn57fZ2bmQTRUAeQXreXmF/7W3Fg+mllgsPiUUie0isdcRkDoNQAiARlIAAFUAyOXNMoVCcU9zsypOqVRNEssB1Z7lgCggkEbbYtNqtb/UarXvO5iRHm4rY2NjXxsbH4fxcWQBmADkD3C4PeLWMQFMABPABA6FAPI6vxh+ye0vAsiAQJeiop48lI4DNJqVlXU2KydnJcsnAPIgNy8f8vLyYwIUP/JLKISwUCxJFovr1/38AKABiQCPBQBksibCAoCmAZoUzXqFonmd9ANQqojlgKsajaZKo9E8cRyc+nYDcmRsrGRsDAmAcSQADLupi8tiApgAJoAJHDMC4eERf91SAERcLj6K4ebm5jIys7IHs7JywCMAciEnNw+9/NX7icJ3GGOvr6+P8C4H3OwHgARAo4wQAIQVwN8PQKlaVSqV4Vqt9iOHMa7DbtPlcr1zdHRsZmxsjBQA/zzsPnH7mAAmgAlgAodI4PLlyzdfDI+YoYoAwgfAkxdgKTIyknaI3d+Ql5f37szMLHVmZjZkEgIgB7JzciEnJ28iLy/vo4fZd7BtC4XC9wmF4p+JRGLTxjSAvx/AFtMApCMgsRxQLdBqta/JqHmjo6PPjo6OIbM/KQB2Fco4WNa4HCaACWACmMARErh4MTKcKgDQMTkNEBEZFXVYQ0FTEOkZWayMjCzIoAqA7FzIys392mH1G2y7PB7vXj5fmCYQiGY3wgKj5YASv+WAjSOBpgHQSgDqckAUEVCpUg+pVKpvvebM/yOjBaOjo4QAGBsf7wqWIS6HCWACmAAmcIwJXLgQ+/6L4REDVBFACoBLEZfnYmJiDmUtemp6ZkJ6eiak+wRANhDTAFl5V68Xrtra2pvq6upeqavja3wBgVCKYDIsMHIE9DgDdkskDeENDQ13SCQNFwIJAGI5oMKzHNDPDwDlBZCoVK13Xa/n3E2/KGvhyMjIJBIAo2PICjBxLPwydvMMuCwmgAlgApjAFgTCwyNeuFYAeIICRURElW5Rbc+X09IyfpeWngFpPgGQBZlZ2ZCRldOYmpp6pMFlkCWitrbu81xuXTGXy1vgktkBUUhgvgAEpAAQi4dFIlFifX39g9QveKm0oZmIB7DZD2D9mngAlLwARHZAjWZdo9FUtLS0HOvlfyMjI18cGRmBESQARokpABz9b8//83FFTAATwASOIYGL4RFFpAig+AFARGQURERFPXtQQ05OS/tmalr6WmoaKQAyISMzCzIzs93p6ekhB9XPTu2wWKzPsNmci+xajquWwwUOpw643DrwCQBPeuAZvkCUzxeLn6RG/CPblslkN0mkDauEAGig+AHIFC/J5fIfyeUKl39YYM9ywE3pgdc1LS0irVb3LBIjZNvHZT80NFRICIARQgAMAsCxG+NxYYXHgQlgApjAa5LAhQsXbrwYHmmlioBLEZc9AiAyajQ6OnrfcfiTUlOfTUlNW05NTYdNAiAjazE9PfvMYYOrqqq6tbqa9T81NWw9i8UGFrsW2LUcqK1FAoALHI8AWKqr49XU1fG/yWaz37XdmOrrG77uDQtMXQ7YTabnRfkF5HLlb+Xy5pGNaYCN9MDeeACAggKhqICtrbr+1ta2+NZWwyMogNB2fR/FveHh4RuHh4dnh4dHYGSE8AFIO4p+cR+YACaACWACR0zg1Vcvf/ZieMQcEgEUPwBCBFy+HN2GcgjsdUhJSWlPJqekLqWkpEGKTwBkAPIDSMvMPrTQwxUVFfSqqpqfVVRVy6uqa9arq1lQU8OGGlIAsJEA4CzWcji1HA7v+zwe7wPBPmO9pIEnkRB5ATxhgYlpgMaX/esrlcr3Njc3/2+zUt1HTQ+sJgICaX0CgAgLrNOBTtcGbW2G/rY2Q7zBYDgbyPrg38dhnA8NDb0wNDwMHgEwglYAHFlsiMN4HtwmJoAJYAKYwDYEwsMjn0eJgvynASIvR0NkZLTowoXUbb+KAzWdkJDyWFJyykJyciok+wRAOqSlEQLgwJ3+mEzmR8oqKn5VUVEpq6ioWquorILKqmqoqq4BJACqa1hIAMzXsGsr2WzuC2ipX6Bxb3dN0NDwiXqJdH1TXoAGmZvL5b59q3rIMtDcrP6GSqWSef0AAFkBfGGBWwkrACEAdG16aNPrieRABoNxxmg08Yxm85+MRuMDpIVhq34O6vrQ0BB3aAgJgGFAjoAAcCxzFBzU8+J2MAFMABN4wxMID498KfxS5DppBUB+AJGX0RYNly/HSC9duhT0CzMuKenhxKSU2aTkFEjyCYA0SE0jBADnoOa9mUzmp0pLy/5YymSqmWXl62XlFVBeXgnlFZXgEwBVNTNV1aySmpqa51B0v/380OL6+hgUFRAJAEpegJeCbVOj0dyj0WiSNRrtqIbIC+CbBoBWXRvo2pAVwCMAKOmBwWQyg9lsmTVbLEKz2Rpus9meczgcH6c6JgY7hu3KDQ4O3jw4OLRCCoDh0dHs7crje5gAJoAJYAKvEwKvhkf+mioAPCIgGi5HxUBUVIwtOjr6kzs9akJCyhMJiUmziUnJkJi0WQCkpKYb4uIK3rtTG1vdz87OfkdRUdEXikpK4opLSjtKSphQUloGpcwyYJaVQ1lZBRAioKJyoqKqKq+ykvVMdrbkQPIbSCSSG8Xi+nG/sMDmvZjq0de8RtP6pFarzW1paZ3aPA1ACgADGAxGMBpNhAAwmQkRABaLFaxWG1htNrDZ7JPt7e2S9nZHrN3h+KHD4bi/q6vr/Vvx2+n6wMDAzwYHh2BoaIiwAAwNjX1upzr4PiaACWACmMDrhEB4xOW/IEdA0hmQsABExXhEQHTsTFRs7JYZ4eLjk56NT0haTEhMgsREqgBIhZSUtMGEjIxbdoupsLDwlryCgp8UFBSzCwqL5wqLiqGouASKi0uhmBAATI8AYJa7SssqUpiVlV84jHDCQqH4gjceANQjCwCxyb642+fxL4+cBlta9E+3tuqSdLq2TmQBoEwDEALAaPKIALPZQggAi9UjAmw2O9jt7WBvb4f2dgc4HB3Q0eGEDqfT7XR2Cjs7u652dXX9uKur66zDMfAh/779zwcGBhWDg4OEABgaGsbe//6A8DkmgAlgAq93Amg64FLE5RXSAkCKgKjoWIiOuQJRMVeFUXFxt1M5XImP/3ZcfOJKfEIiJCQkQYJPAKRAcnLqXGpq6mlq+a2OL0gkb83Lyzubk1MQkZtXYPSkBy6E/IIiKCgsAkIAFJVAUXHpanFxqaK4tPTPTCbz7q3aO4jrEomEJhKJZ6hhgaVSqfgg2vZvQ6/Xf0qn1/9KrzdwDQbjlMFoAqoAMFssQBUANrt9kwBwdHQgAQBOZyd0dnZBV1cXdHV3Q3d3D/T09I729vY2ulyuVLfb/av+/v7P9ff3E6JsaGjo4wMDA+tIAAwODcHg4PCB+2n4Pys+xwQwAUwAEziGBC5divr8pcioqUjCF8A7DYAEgFcExMReXY69GpcZE5N429Wr8T+5GpewFhefCPFo8wmAZEhKSllJTk7b9ks5IyPjtszs7B9lZecys3NyJzalB84vgLx8nwAYLCwqKigqKv12UVHRB48Km0AgShGKxEARAEsiUeMmAXQYY0G+Emaz+W6j0fxzs9lcajJZ3IQAoE4DIAFgJy0ADiAEQAcpADqhEwmALlIA9EBPby/09rrA5XKD2+0Gd18f9PX1z/T3D/QODAzAABIAg0gADAYl2A7juXGbmAAmgAlgAteZwKVLMXdEREb1blgAYoC0AsTEXoXYK2iLW71yNX79alwCxMWjbbMASEhKvWbKID09PSw9PfPF9IysnPSMrB5PXoBsyMrOgezN6YHn8vIKeHkFBb/NLSq686Cd3oLBKxKJbhcKRSs+AUCEBpb8K5i6h1HGbrczzGbbMxaL7V9Wm41vs9nHPAKgHdodG9MATmQF6CStAEgAdEN3D2EF8AoAF7iQAHATAgD6+/uhHwmAAUIAdFwP1ofBC7eJCWACmAAmsEcCKHtg5OXoOuQISDgD+iwAV8AjAuLgytV4uBqHNqoAIPwA/o66TU5OvjklJeUbyalpKSmpGe2egECeeACevACesMBZWTmzWdm54uzs3AtZeXmPxsXFbbm8bo+Ps6tq6AuczxcqfHkBRERegA6FQvHOXTV0yIWtVuutdrv9WbvdccHh6Kjp6HD2bDMNAL3ICuAirQBIAPRBHxIA/R4BMDAwgFP/HvJvhpvHBDABTOA1QQB9DUZExfz2clTMEmkBQL4AGwKAFAGkACD8AOwJiclXE5NSjEnJKeuB4gGkpWeOZGRk1aRnZv4WRQU86pwAO8EXCAS/4ZN5AYRiEInE6yKR5PGd6h2H+y6X6wNOp/Oxzs7u33Z2d+d3dXWbPX4A104DEAKgjxQAA8ga8Onj8Ax4DJgAJoAJYALHhEBUVNSJqJjYdlIE+ATAFaoASAjkB4DiAUwlp6Q1JaemX01JSX8xLS3tM8fZzCwSiT7G4wtmCQEgEAFKDywS1Scck58i6GE4HI73dnZ2vtTV1W3ZSgB4/QCIaYCBgYGWoBvHBTEBTAATwATeOARQaODo6Jir0TFXVgkBQPgCUATApmmAZGI5YEJSStxxftn7/3pobX8djyfbnB5Y6NhvICH/fg7z3OFwfMbpdCY7OztnPasBgvQD6O//9WGOC7eNCWACmAAm8BonEBMTcyom9orOZwXYwg+AXA6YmJwmSE5OZrwWHpvL412q4/GBEAB8IUoPvMoXix847mNHWfvs9o4vOxwd4o5tlwP2TLtcLmYAP4ClgYGd4wUcdw54fJgAJoAJYAKHTODChQtvjbkS9/vYK3FzV65SrADESgDqagAUEZCICjiWnJz29UMe1r6a53B4z3DreOuEAPCkBwY+X3hhX40ecmWbzfYpq90ebre3u8mAQAGWA652dfXwuru7X+jv739XT0/Pc/7LAd3u/opDHipuHhPABDABTOD1RCAqIeGW2KtxBVeuxq+RywEDxAOg5AVIZWXsISrgYTPj8Xi3cbi8CW4dD+rq+MDj8aGOLxAfVO6Cgxy/0+l8n9Vqfclqtcm9YYF98QA2LwfsNHZ0dv6+t7c3lNp/d3dvsUcAuDzxANx94HYPPEUtg48xAUwAE8AEMIGgCFy9evXElbgEcdwmP4CAYYFReuDZ1PTM3x8Xz/+ampr3cDhcPYdbB1wuEgA8qOPxB0QiUUhQD38EhZAQMRqNnzOazQVms2Ue5QUgogJ68gJshAV2OIY6OjquOByOewMNq6ur6x09PT3TpADwxgPoA4C3BiqPr2ECmAAmgAlgAkERiItLeiouPtHkiQjoFxY4xS89cHqGKS0ta9tIgUF1uo9CKDkPu5bLq+VwgRQA3DreCo/HO7+PZg+kKnJINBgMjxsMplSj0TSyOSywVwBYicRAi+3t7WUOh+PpnVIH9/b2fqmnB0UE3IgH0NfXd+lABowbwQQwAUwAE3hjE7hw4cKb4+MTvxGXkKQnHQE3pwdOJ9IDe4ICZUJ6eqY0KyvruoSfZbNrM9m1HCAEAKeOEAF1dfzr5g2PXvo6ne4JnV6f1tamH9HrPZkBDcaN7IAoMZDZYlk1m631Vqv1xwaD4aZg/8d1dfXk9qCogBthgdf7+vo+FWx9XA4TwAQwAUwAE9iRAFr+l5CQ8kxiYrLGPz1waioSARmQlp4J6RmZkJGRtZ6emVWZnpNzYseGD6gAi8X6G4tdC4QAqOUCh7AC8HIPqPmgm2lqanqPRtP61ZYWXVZrq26kVacDna4NUHZAJAD0BjI9sHnVZLJITBbLK0ajcdfTE2az+T+6u7vHqWGBe3t7m4IeKC6ICWACmAAmgAnslkBiYsoXkpLTJMkpRHpg5AfgFQDUsMDZkJmVDVlZ2bysrLyzu+1jN+Wrq9k/rWGx1wkBwOZALWEF4KhQit7dtLPXsgpFy20ajeZXak2LUKPRLmm1LdDS0gotrTpobd0QAG16w6rBYJDo9aZXzGYzba/9oXrd3d1PUbIDeqYBent/sJ82cV1MABPABDABTCAoAikpKXclpaRlpKSmL6SmpUOazwqQBRmZWZCZiURADmShxEDZucrs7LzvHHRegOpq1o+ra1jrNSw2sFi1wGZzgM3h9LLZ7EOLVaDX69+tUCi+0KxSRSuVKptKpQaVWgNqjQY0Gi0gAaAlBEArEgBrOp1eqtMZfrrflz71R+nu7s6jCgDkDDg8PHwjtQw+xgQwAUwAE8AEDpVAamrqB1PT0/+cmpbu9k0DZCIRQAqAHMjOyQVveuDh3Nz8S3l5eR/d76AqK2t+UFVds1ZdwwJSALDYtRMsFu8z+22bWh854zU1NT0sk8kvyOWKRrmieVnRrITmZiUolSpQEgJADWq1RwBotC1rLS0t0paWlp+q1ep9felTx0Eeu1yud3Z2dU1R0wN39/YmkffxHhPABDABTAATOFICaClgWlrml9MyMmvTM7JWt0kPDHl5Bev5+YUN+flFP8zOzn7/bgdaWVn9/cqq6rWq6hogBEANG4mARRaLte/pBqbZ/B9SqfT+xsbG3zc2yuoaZU2zMlkTNDXJoUmuALmiGRSKZkIANJMCQKWeVqs15RqN5gdKpXLXc/q7eX6n0/kV/7DALpfrjt20gctiApgAJoAJYAKHQiA5N5eRnpXzl4ys7I4schogJxdycvMgNzcfcvMKIC+/APILCqGgoGihsLCkvKio6Hkmk/m+nQZUWVn964rKqvXKqmogBEA1C4mANRaLtafohEKh8H1isfhJsVjyr3qptEEikc5LpQ0gbWiEhkYZNDbKAAkAGSkA5ApCACiale1KpTq2uVnzOHLK22ncB3Xf6exkegRAF3inAWQH1TZuBxPABDABTAATOBACaPVAZmbu+azs3JzsnNzJnJw8yCEEQL5HAOQXQn5BERQUFkFhUTEUFZUsFZWU8opKSn5cWFFxC3UQqK2KispXKyqqoKKyCggBUFUD1dUsqGKxfkUtu9UxWtbI5YpuFwgE3xMKRYlCoVgvEonXROJ6ENdLoL5eChKJFCSkAGhoJARAo0cALMvlclFTU/OvZSrVJ7fq4zCv22y29zidnXNIAHR2kQKg+4XD7BO3jQlgApgAJoAJ7ItAdnb2O3Jzc7+cm1vAzM3Ln88jrAAUAVBYDIVFJVBUXALFJaVQUsKE0tIyWwmzPL60vPzpsrKKlPLySiivqPQIgMpqqKqqQVv0VgNjsVgf4XB4X+VyeRF1PIGEx+NP+7IDCj3pgYUiMWwIAAnUbxIAssHGRllWY6P8a0ql8r1b9XNU151O58tOZyd0dnZ6BEBX95DD4Xj7UfWP+8EEMAFMABPABPZFIDMz8z25uQXfzssvZOUXFC4QFoAAAqCklAmlzDJglpVDWVkFlJVX+AmA6hL0VY+sA2w2+xNoGoDFZoejiIBsNnfIFxXQm9FmCpkAACAASURBVBfAlx1QQGQHBAESAaQAENdDfb1kvl4iFUokDf8jlUpPAsCb9/WgB1y5o8NpdDqd4EQCoLMLurp6wg+4C9wcJoAJYAKYACZwNASYTOaN+flFXy0oKM4vLCoeJywAxaVQXMIEnwBglgOTKgA80wBzlZXVKVXVNY3V1axp32oAFBDIFw9gIyywNy8ANT0wEgCrQqFYKRLVvyoWix89qtgBeyHb3t7+SEeHEzqQACCsAF1r3d3d+15NsZex4DqYACaACWACmMCBEkDhc4uLix8rKimNKy4pcRICoLQMSgkBUO6xABDTAP5+AN7VAL54AN6ogCgiIAclBqoDIjsgj7/E4wnkfD4/XCAQ/BeXy73uZv1gATocHaV+6YFrg62Ly2ECmAAmgAlgAq8pAoWF5Z9gMpk/K2WW1TLLymfRNEBAPwDKckAUEMgvLPAwh1MXXsvjnWcyFe98TQHwDtZisdDbHY5lqgBwOp3XNfnSa5EjHjMmgAlgApjAa5AAl8t9e1lZ2WPl5ZWRFRWV2orKqtXKymrPagCKACCCAlHyAnj9AFa4PJ6uro6XzuPxfiIQCO5jMplHtnRvv7jb29v/2e5wgMPRAWgawOl0dhw3/4T9PiOujwlgApgAJoAJBEUA+Q5UVFQ/XllZfam6uqapupq97O8H4MsOiKYAuDxyGoD0A1gRCIRmgVCYJxCJfikUCh9CIiOozo+wUFdX1/vt7e0T7e2kAEAioOMXRzgE3BUmgAlgApgAJnB8CdTW1t5UU1PzpWoW6xKLVdvAYtfO+QTAZj8A4PEEwOcLgI9WAxDLAcUg8qwGWBCLJa1isaRYKpX+VSqVPtfQ0HDH9RQGNpvtX3Z7O5ACwNHRMYniAVB/iQ984APvZdBoz/lvNBrtdgaDcTcjJGTTdMFtt932dlSWRqN9iNoOPsYEMAFMABPABF7zBJBDIYfDua+2lvtzDodbyOHWOQlHwDo+8Hh8jxWAWA7oFw9AjAICUeIBSBugoaFxtaGx0dEga2LJZLIImUzxg6ampjMSrfaDhwnKZrOF2mz2GVIAeKYBnDH+fYaEhNwcSqNdQhuDThti0ENSiGNGyGOhdPpVBp22SqPRbiXrhYaGfIlBp61/mE5/hLyG95gAJoAJYAKYwOuWAPL6r6ure4jHE/ySJxDkEVMAAuGaLx6AqB7EZFRAMiAQGRUQhQVGEQE35QUgwgIvKhRKZ7NS2aRUqZhKpfqqSqX9o0qrfU6r1T6k0Wg+ttf5eqvNVmCz2QEJAHt7O7Q7HKvt7e0f2+4HYtBDdB8JCfGV8QoASSiN9juyXhidXsSg01RYAJBE8B4TwAQwAUzgDUcA5QIQCoXnhGLxz0QiUapIXC8X10smiYiAEikEmRcAmpWe7IBbpAdeaGltdbS26hQ6XRtbp9Pn6vX62LY2w1/1etMrRqPxOyaT6asWi+Vxq9V6v9lsvttqtT5ttdrWPQLA7hEA7e2VO/1AgQRAKI32UwadLkd1Q0ND38Wg07iMUBoTC4CdaOL7mAAmgAlgAm84AkKh8CNSqfRJqbTx99LGxrSGhkZpY6NswJsXgMgOKCezA16THlhDTQ8M2pYWaGlphdZWHbTq2kDX1gZtbXrQ6w2gNxjBYDSC0WgCk8kMZrMFzBYLWCxWsFptgASAze6xAqBgQDv9EAEFQGjINxh0uuDDN9/88dDQkG8yaLSXsQDYiSS+jwlgAm94AmFhYe/8CI32mQ/T6Z8Po9O/wAgJORMWFvaBNzyYNygAlBNAJpOdkMkUzzc1Kf4mb27Oam5urvdMA6iWlSo1ICuAWq0BtUYLGm0LaLVUAaADnY4qAAxgMGwIAJPZIwJIAWC1eUWArb0lGORbCYAwesgPQ2m036MXP/IZwAIgGJq4zGueAINO016z0Wis/T4Yg0Yr8W83jE4PmJkrlB5SSZYNC6Vd3m/fuP7hEzhxww1vY9Bp0Qw6bY5Bp4H/RqfTN2WrQyO6/fbbXzNryw+f4BuvByaT+Ra1Wv1hlUr1sFqt/rZaq/2tRqOJ1Wq1RS0trQ0tLTpba6tulhQAbXqPFYAUAEbThhUACQCLdcMKYLfbXwyG6JYCICzsA+hvUBg9pAq1gwVAMDRxmdc8Af8/3OT5h0NCPrvXh0NONsiLlmxrY0//TaA2GXSanSyDxECgMvjasSLwJkYojU3+ZgH20zfccMObyBEjK0FYKO0CI5SWRF7De0xgKwIKheKder0+rNVkukuv1z9qNBq/rjcaXzaazX8ymSyXTCZLotlszrZarUyr1S6w2Wx8s9kclLhEDn5hYWEMsu9QGu1vDBrtKXTOoNPy0BQAOg4LpSWE0WinyHJ4jwm8LgkE+OPt+ZoLpf1zrw/MoIf8KXC7WADslelxqseg0b4W6PcNo9OmGHTaGoNGU5DjRWusGXSakyhPo2WR1/EeE8AEMAFM4DoTCPSH3HvNutehMWg0feB2sQDYK9PjVC+UTi/c/PuGxN56663v947xLR+76ab3keNl0EPcvrK7EADo6yuUTg8npodotBq0XCs09OYnqJYFsg+8xwQwAUwAE9gDAd8fZ8887jT1PCwk5I7dNklE19qYE/abBggsAEJDb34gNDTkcbSFhd185277xOWPlgCDTlNT/p/03HDDDW/ZagS7FQBISDDotAr04kcBWZAvAYPBCGN4grakh9JpDYH8C7bqH1/HBDABTAAT2IIA5Q85MGg0lteMu+dpgLBQ2j98bdJoCt8xIQoCC4AthoYvH1MCDDrNSv6uoXQab7th7kYAECFb6TRVGJ3+VQbj5vsZdPpLYXT6j9A0wq0f+hAN9YNWGSALExYB21HH9zABTAATCIIA+Yec2IfSmMgRhnJt19MAVIe+sNCQX1DaAgYdC4AgfpJjX4QRSuvw/a40WvF2A96NAED/98Lo9G+j9ogVBqG0fu8KERWDTltg0GjfRfeQxSiMTmvE0wHbkcf3MAFMABPYgYDvDzn6QkcCwOO05VvWtRuTPJ1Ov3ejPXo7+kO9cY6Wih24AHgLmqZAX4xhoSHfCg0NecY7bbGlSXoHHDeEhIR8NIxO/wqajiC/Oneqg5KGMEJCHg1FAUVotK+hCGIMBuM/d6q33X1iJQWN9lRoaMjzoaGhz9Lp9If32+YNN9zwVmJuPTTkS6jdMBrtSTqd/undvkipAgB5VW/3HMEKABSExftSJ5rzCgA22XZYKC2SQaf1kucMGi0LxR4gz/EeE8AEMAFMYJcENr2gQ2lMtFabQaeNb1wP+b9gm/T+kfZNHwQrABg0msjrKY68xZN36g+Zf9EyHQadNrIxzk1r0ccZ9JCY0NDQLZORoNCfZJ/ekJ9vDqPR4lFiEEqbaww6rYwaO5wcG7EOnkb7HoNOawm85JG2ygilNXuXFfmWxJH1A+2R8xwjlPZP9KKjjMEnxggPezpNG0qjvbKbNfVIxDHoIfkMOm2Tj4evj1BaP4MeEnvzzTeHBBoXusag02wkL0YobdlXl06b8V2n05xhNFqmJ7Qq4fmPfs8VSlnUP7pGbGFhH/oE2V9oKO1nYaEhPyfPrxUAIf+D6pH30cs/lEaLI8/xHhPABDABTGCXBCh/nAkLAKqO/ohTrtuCbPJNDDqtm6yHviyDFgC7iAOAXhQMOm2e7GeH/TD6cg40fgad5iLrogh26GVCnvvvQ0NDP0VtA517X/zUl/M2x3T5LR/8IJ3ahv8xiqa3zYs/UNv2IObB38qgh/zLT9QEaou8NoMsA/5jQ+cMOm3Jn8sW5xwGnf6/W9wj+yH26JnJvlAAKPQ7kOdeAdDhyeAWksJAIsW7XhuVQZYa5LNClsd7TAATwAQwgV0S2PSHOpTGRNXR1xX1ejDTAJtf9vQ21M7ma1tPAVD9BrYLBMSgh/yZOi7i2DNPXIC+YNHXOoNOG/QrMxtoNQNVADDo9ItbfMUjUdRMRcpgMD4ZwPKAvnIlRJpRekgagx7S5P1ap77werd6YRNf/nRaz+Zx09sZdFq5R5iEpCBnu2uFD719G0vAm7xf/dQxoOMudN1r7UC8xjb3iwI40X9FfWZ0fOgWADo9nJqXnRQAaJyEYyqN9nXqmJD1YLv/K9Sy+BgTwAQwAUwgAIFNf/y9AgDNFW9+yYX8K0DVTZeoX9BhobQ/opsHKQDCaLRzfi9V5BT2sv8StJCQkHczQmlRm56LTkNxwjeZ4TcJgA2T9hiKWId8CTwe6CF8Bp3+E/JBkZd6GJ3WuantUBo7NDT0I2QZcu8VCtJNZek09f9v70zAbSmqe3/u8H1Gv2ci5HJ6rao+1xvDM2oGHKLBp0meGuchxqgxxtkEjfoeRhyeqMkLCJnEoEYcg4pJREENKsQ4gLOC4gAKAuExCMokIFzGy73nfau7eu/avbu7VvWwh3P/5/vOt3t31/ir2lWrq1attf/++9+pCFN8ZtbIxkcnd4vme/HM/8xslOdbF96kzgf5YYrrUpoS/irRTyieF58iQEh7lZb175Bjd0WY8ucQOgDG0PPFgFSRl78FYJlfJEKAb8FN9D7ETkARHp8gAAIgAAKRBCYmqLEAsCJvs96z8wLJbjFMP3Hh9xDRDgnfpwBgmL7plUcmydFycVXZSuVfLyuMTQgATOtSflFEq0qruGeJ3uCVYd0pwNUqHDp9ilMm4yQHF+kVn5b5u0UYMbJT3K/6zBQOPR0Nw/Qf5XCy3VBaLbjWGHOvcjj/uygaTgpYfH5ZuCrCDyEAiP6B2GkX4VPy8QWAlZWVzZKn6H14ZfjUGtEDi+/4BAEQAAEQiCRQTDzZpy8AJMnDJ57Z1QPqkhYN+HHY3K+2hO1LAJCBfpy+bCUk76wrS3E/Mx4jZmlHb9aTcaYEAKKXFnGrPnfs2PFzlpPrxunRpdu2bbtrVVj/npuw/WV20WTPJrki3OQyfFjp0hp6u0yWbovgL4t0is8JZczc/sKzi2dNn06xcry6ULFiIPGHEACydJmPkBWY/JqOEn8DRXlTTg6Wo4Ai3IiegpxYKZ7hEwRAAARAoAUBb0IbKQG6ZPy3epl0a7cBTLbvnWvh+5rcfQkATpFtNDFV7elXVV3eImUPWbTm0yT5LT9MWQAIHfmbFHIyIWS0XO2nW3UtCm4TnJPkQD+c218v6nfp2to24z+PvbZMZ3v5/ajuTb6crqzc+KsAdasRQwkA2dYT0UliTEq2W/bbb7//5pVxi7gZzny1E31NnnvPcAkCIAACIBBLwJsoygJA5hHLe165DeDcwhZvuHf4E2lvAkB+TDCbIGWpPraOVeFLAsDoeFlVWLnnjucVk/R6jLfE7Az/aCWC1o2hV/v5iJc8j7Pk8VPRfncnGCZWC/x4Vde5noDviTF5V1W4unuW6dvjsiSXVYUbUACQ7Lbk1iT5u6LHIPoYxiRPNESvFIVMOSYqeh5V5cI9EAABEACBCALjwT43BORHLU9c1tr7+s/lWo5mjdPgz/rPexMAmM7x8viMn0fb6wkBgOhzoXQMJ/8yLgPdrH2rlnTlTdaLK6spE5OyM4IjnvRGAoZ3fa019GFL9DxfuKorr6x0eHHF+NJIibEujn+/dAR0XbY+/OdyPbAAkGUnRo9S5j9xboQPMyZ5oa8EWC4TvoMACIAACEQSmJgspvdVN09YcmM+opy8bzrYmOQF/vMeBYBrRuUMmJ7182+6nhAAmE5oCivPRNluVAaufjNuSsMy7RzHpxPLYcXT3aQuQKUwsCdXhuRX1G0TpESP8/IRRcWnlPNq+i6a9X78qnxmIQA0lRHPQAAEQAAEeiDgD/ZVilXufL17M800w0e5pml6Z8950K3bt2/fZ/SwPyXAzRNn9CNcyvplKV+XBIDjys/L38XHvceqcjukHMf/nh3DG7/hn+I/K67lDV8sGFqmK728qlYF5N6tNhfIJrYIxPKgH7d8+qHIq+5z6qRDut/+5bAQAMpE8B0EQAAElpCAP1lUCgDifW08ca372wCZ1zb3LGX+93L1e1wBGFv+G2YFICwAMH/G4yCKdVF/mTObMcepFQA/MdGrMMY8SpQYDdP3vXyrhIEP+HGnfDlErgCkRH/n54cVAJ8urkEABEBgAxHwB/sqAUAM6OTW44ol6fE2gIQv4jub9xNkehMAMlv1ef4pJ/85kUnLL9ErALIPP57Ao3QAnKU/b/KePJIYqoIxZi3l5E/l2F9JkMjSdL4MsmSMMQ/xyik6AC8Kpe8/t0wf8OLvnpcOgF8mXIMACIAACAxAwBvsp04BFNmVzpVnvgGMMXfx9rV3Vmlm9yYAMH15VE6iy4tyhT7FWJBojRuiV4kVPN8KXwsBQJz0jCZx3459sBy5FcNR3PIpgFB8/7k4OJLz8X5Z5BRBEabiFEDQZkIRVz4t01le2pUrHdgC8InhGgRAAASWlIA32NcKAMz8AD9c5riG6KnFvTqXsH0JAOVlaTGzq8GdMr+3KKM1dL1YlCvixQoAU/4RnLnjIr2mz8yqnSc8+G/swlKOuElZxR2u6FU0pSXP3IqC72VvQqegbFdAe2Ihc7AzYTxpWllR8ocAEGohPAcBEACBJSAwmiBlgpo+BTCqgSW6YBRWTOJ6S+JyTnsU0LvoSwCQCXOUd17ON3nZVF7KROr7M0g5+bgfMFYAcCsehb0DeZu/uGrVw89DruU4m2Uan2Jgutp34FNW2vMd4pTT8r/7SoVlAay0YrNe5+HPT0+ufX8OGW+i55XDyPc4ASBz/ZuvfjT0r6p8cA8EQAAEQGBAAqWJtda8qmicF2FTph94y//X+hOaX9S+BABJc8JAjaHbU6IH+XmVr52Hv9Gyu+9K1qU3cgcsRxnL8au++wwyFobeV3YyVIq3VTzWFdzyz0mLitmSPtMtRRg55lfHs0jbmOT3ivDyWd5SEJ2BknOfq0N+DtwKh2c6ma4QoafI0/+MFABGVgkN0xf9dHANAiAAAiAwRwL+RNK0AiAugSfCuiVtw/yeuuL3KQCkRL874dfe0PV13u2cJ7w9XnlPK0/UsSsAUscdO3bczZ/8XPonVBnoEQ+Bk7YDMv2BC0vmbTN0wtArqwgtp4jN+yquztDPVV74nbLKUA5riP7KCyOrOz8WGwHlcLI9YIhemh8rHOs4VCl1FnF9BuXVhyJM8SnbGl45dlmi5wqbbOujRsAo4uITBEAABEBgQALe4Ny4BSBFsEznToQXIaDBbWyfAoDkn7mtdYKHV45zxTmQmM61ht5niS73nq3L98I7oY+xjQAg8Y0x9ys5BZIJ+xanmHeUnON3E/9tE+VgurrOfHC2TVAuN9NthunT4trYLekfZ5m+VUpzT53rYNF3kKOZpfDrbvVGFCOF1/snDT0VAsD4pIfPrLiOEQAM81vKZSi+p0SPLdLEJwiAAAiAwIwJFINx9hnYo83MsvoTsKEfNymY9S0ACJrMGQxTeXIdL/X75WM6h5nvXYW0rQAgaYlr3ZKiXV3+xf0z0gqDOn65jDG/MnncspiMaz9v9h0v+Wl511ss89EThpQm+RTlKz53akwHxwgAwr/q6GLW34gO8cqKSxAAARAAgVkSsLlv+Wuzz3xPuzZ7N5jnYZmulTfT2sDyxk70ID998cpXFT43b0su3eSDVWH8e9uT5B7Z26tsA1RNaNnbdPLauj1sScsZ2CnyjDoqJ/Fln94tnY/2uEtlkS2Ib1ii55Td//p18a9FqdBtX1xUSquYoOXzakt0rDDw4zZdM/P9nS7CTTXpXikWH0V3oCmd4pllOrNo16YtoCJ83g+Sr0wLInx0EQafIAACIAACIKAmkHkiTJIDjTFPFkM5KfMfuPP5m9SJ9BDQWpuKEl3K/CzL/Gy5Xl1dTbokLfvkoriYmuSZ4mNBTgfI9kPTiksoPzHqI6sywsnxeopzrbwlFLeP56JDQUT3kdWOKgNDfeSBNEAABEAABEAABEAABEAABEAABEAABEAABEAABEAABEAABEAABEAABEAABEAABEAABEAABEAABEAABEAABEAABEAABEAABEAABEAABEAABEAABEAABEAABEAABEAABEAABEAABEAABEAABEAABEAABEAABEAABEAABEAABEBgLyAg5nnTNLVrRA/MfMwTPc3m/0+XT7mX+bNPkgPFLGyVe9wlx7SFme8ubnulnsYkT3T1f5qY4M3qblcfLGHEY9+S1xXFH5hA5nPCmDWbJAemzI/xf0tybYx5lPQp8bcgTqqa/F8MXFQkDwIgsJcR2Gytva9lfrk19JHMwY6h22sczvgObUrXyXWW6ezcfS2/LiX6n+IYZ9FZGmO2ZRM88xGW+bOW6UIbV3/xavjD3FEPv0KEJq3joFmySdP0zuJ8KPQvwt8sy7UB89qaTeREr7JMH7VM51mmXfG/J7rGMn9X0jBErzLGPBS+FzZgb0GVQGAeBORtxBC91U77sC9N7LWubDXhdlnmz1iipy7SxCJufS0nh7oBVlOPuDDi4ZDoWEv0sEVZIRCBTDMJiZOfefTHJc9zk/A1nLw78/RY5d2yn3u3WaKTxMFUF4dSS84axQcBEGhJYLMxyTMs0xmayaDXMIZ+3LLMfUXbakzyx5bp9F7rFR7YL0k5OXjey7oQAPrqRhPpSJ96oax8zbhPrYvwOlESfAEBEACBOgLZvjUn35n9QDVaQdhdV7Yh78vKgzH0Mst00RzrLisIV1iiQ+a1EgIBoN9eJu6rZetnbn1q/gJ1v0CRGgiAQP8E9t133583zO+xTHvmNljlb8kzFwBSot9NmX4w53qXtw/Olu2X/lu6OUUIAM18tE+JaD/RlZl7n4IAoG0yhAOBvZOAaOhb5vPnPljNWACQUwnW0PsWQOgpT/7F993W0JtmqSwIAaD7GCCnQiwnly3E7wkCQPcGRQogsFEJiAKaZbphIQarGQoAcozKMp2zQPUuJv3pT0OnyhvlLPogBIBulFPmp1imWxemX0EA6NagiA0CG5XAGvPvWKadPQ5Wsn1wY8f0Bt8CMCb5/QUTeqYn/WmlwYtFaBm6L0IAaE8461dxR0ND7b678+8TAkD7BkVMENioBMQ4jWU5QzxSvgsNRuPnRJeLvoAhekl27ni//ahk5Gfz9u3b95Gz5MaY+2VGgphfLnHcXnuTnsGgAoAxyR+1PG89rj/TLZbpNEP0t6LdLYJUmq7+htR3bW2bkU9rVw+QyTTX/uYjLdHnLNNNrXi7NjJMP2Hmew/ZJyEAtKObJsmvd2jfi6yhYyzzQbJ9sLq6mpROg2y11v6i9Ctmvr8c7zNEr7SG3m+JLmjsUxAA2jUoYoHABiaw2TJ9o3HgmBYMdhvmf5UJouuZ9SRJVt2xqFMs0x2lcgwmAKTMf1KRnz+xN13faomOFwttbQ2tiGa/tckjnN5B222XK0RnY6i+CQEgnqz0B2fIp6n/lJ/tyuwB5Iqem+JzHcew1qYijFtDp07ps0AAGIPCFQiAwMqKvGmUJt3y4FT+fpq8yQ/BzhizXd6kva2DQQSAlOixLSf/m1KivxNLgH3WX05dWObXWaafRraFtM3FQ+kEQACIb2VL9IaoNiT6xFCGlKy198wMd+WrVOsWAkB8gyIGCGxUAvvvv/+dZClZPWDlWuhbhuaRmdoVi4OGbu87L1k2t2J1b3pVoyzolL+fePdt27jv8vjp7dix425tjl+mTF8S2/F+Wn1cQwCIoyhbXZ7wWu4/5e+7LSevXVlZ6fTGrymhrAq4LYLLNeERBgRAYC8gYJmfrZ8Ik0NnjYSZH9BnntkAHdonnRYMbkhN8sw+yxFKSxy9xOpkpIb+KZRu7HMIAHHEsr346f5Tnviz77LtFZd699B9/566lwgpgAAIzI1AZnNfMWClnPxn173+uVXSyzh7C1LU1xOKLhWFPi+JmV3mvgeirMbtEcuNfRYQAkAcTUv0Pa/vVE78+fPkg3EpIzQIgAAI9EhAvO4pzyjvGWqPssfqBJNy+/4Ng/LUCYjzhl7yDxVaFCQt07m6SSUr/0Xbtm27ayhd7XMIAFpSKyvZMrvOcuZtQ+ls6EuLkCAAAns1AXfuXzEhJl9ZdlCZlT+mH0VMpJeIQuIi1NtNLBfry568ua9yQwDQk7RET1O20Uf1qSIkCIAACAxAwDK/SDdg8esGyH6mSVrm1+vqmr1F3zjk0bo2FV9j/k3lao0IdLf2JbxAANC3liH6S00fSzn5U32qCAkCIAACAxCwzEdoBixL9JwBsp9ZkrlmdnKdqq5M62IcaGaFi8jIeSdUrNjQekr0zxFJ1waFAFCLZupByvxeTR8TQ1hTkXEDBEAABGZJwJ0PDk4oyz5gqQUdmfw5efcs2yAyr02W6GuaSUasGyZJ8kuR6U8FhwAwhaT2hjX0YVXbWHvf2kTwAARAAARmQcAyvUM1YBE9fRblGSIPZ5VNa1znClktGKIcfaWZmX6dtpZYI8TxkV3zhQCgJ2g4+Zjm9yTupvWpIiQIgAAIDEDAMP+NasDi5OABsp9JknJ+X1PHLMySbHWICWJlna7oahwIAoC+m1qiYzXtYkzyDH2qGyuk9MftRL+ae0nkl4shpNzyZ3J4aug1YpXUmNVH9rF6tQjkRPlY6iL2F0SvSHyDtDUdvgj1WZQyiH8MGZuMSV6Q9RtDh7l+dKhlfoUo5IrelJx0W5QydyjH1h377Ufyu5F+JD5AenlR1RotSTn5eIfCzzWqNfR5zaBsmX64srIyuIXDPmBIJ1DWad0SPbVLnhAA9PRSQ/+ga5fknfpUlz+kTHr5WMOfiXSQdIVl+qj47Cg5FxsEiijOZic55DRHzb8cJQ5lLqt0YpTLOTqrWp3blW3lJckTqtLKvEjW5O+Xax6TW3YsWVG2tdXVX66qW4d7W/Jj3Mm7rKH/0v3OMoXuXZbpDMt8pDjo6pC/OmpK9Di/naqujTFrTQlKfzdEL7VMJ9d6qiW63HKzPRGxJZOa5H9bTt4owpI4ERvla4mergR52PMYQAAAIABJREFUY59ny0cFGPgi4lz2ulhEHLg4vSZvmL6oa7vmDhIqFASAEKHx89Qk/0vXJvQjcQQ1jrkxr6xdfbAl+kRLnxvliXOnYX5LaODsQtI5ByvnW/rO59flIbZSnJfPUpwp+yLueXJ4VVqW6URNP5LyVsUf8p4h+itF2faID4o+yiHzjvOREnOEu5a/YfqmrD4NadQuZfp/QUb12+pb8pUwujaYRm7Qbk8d5/zkG79OVgzusc8+vyD+e6yht4uAmcVJ09QqM1lPDf11XUaLej/CydFVyzYgR9Ttmi4rGxAA9L3b6WfUDj4TvzWiP9envFwhM/fXhj45Ud8465tNDG8RZ0tdt7aqiHYRALK3q2j33jUCQJI8QcXO0Cer6jHkPct8vqJsp/VQhs3u1NPVivya+kvds9OHsvDaVgAQo3OW6cuR9a0UAOStX1ZMnJfd062hr4uPGfH9I3N5SvSgrI0s04XKDHcOBayHzlKZhGxd6OqW/GNlAgt8M03TfS3TbZr6GWMe2rYqEACiyG1JmX6maRPLdBUR7YhKffEDb3LLljuVDOoGZ8X95Dt982srAKScHDzldlkl8FQLACsrK1uVDtpu62UvWNmvZNLQtGtXvykiQIpzM01encIYut0yv1xZfXWwNgKAbJO1cCEuv5MpAUCEY1HwlwJbokNEkHLXx8uWcP48eVdWodTQ30dAFOt4jXsXakoDB3QQbtTUTd7cBi7OIMk7f++KwbK9IScIAHFNZ5k+oOlzEsYwfX9iTy4uq4UKLYpthvlftXXvKdzVNkkO7AtEGwHAOVPb064+tQLAilafRFYe+qp/KB3ZglHU85ouSo7WJo9o6RJdMQ5Wb8U4mym96X/FCgCiy9GgLxKq15QAIEv9Rb8QAUDc1+fjOH+12JpJid6WtbdoqFqm3YqGzQoikikz/3aos8z7ubOcF4JX+Ecf3B3rEDy0lufkeFrb/CEAxJHTviUVv7dssLCrB8TlslihZX8xwj5F+Depent2g7mh6+W33geRWAEgTff77xGunyvqXS8ArCXJrxV9pOnTOWnro/qhNLZaJlHKrKiHf6/9aqoYnBP7JeE8/Px6ujb0vr70AmIFABFAOtR5SgBYI3pgodMmAkDu8C/5jm/gTmwAjRpce355VMh86eT1i7xvnjL/2ai8TZ02b/gRi2W60PtyoEvb1gsCQDw5y/xVVd8b98ubRIGwrwEovsTtY2RKWnrjVFWTxy0299GhWq2r4XqlKPy2r0UeM1YAaLFfW6p/vQAgJcq114MT3K5ZOJZKmR9Tw36iTm1NqDv2d2jyqAlzlds2aZ+GocO69iGJHyMAtHBQN8G7agsgd/LHR2d9yG0ByMq9nJ5wqzObJgzeuVWAm2rAljMcfyf6nkgbfUDrOw1r6BhVfYie23fes0ov15Al1fJj20ECAkB8azplwBZvMvzVtgNofCl7ibE1Tus9m8wutpy8WYwh7dix425+KdI0vbMx5l6yL+vSVfXt7Hdu6OtdX0hiBIDsqN5YgBuPiVH3mgUAp0+hSJtf7HMc4lqOm4XH03ZO49wkqP+9ZC+gdLK85IkeSKndN8lYZ3NFyncodSkKxrvlCF9XfhECwGa9+/BaQXBqBUDKbzk53NrVA6QPFb5HMsN/RM8TH0BT9TSGXh1u4MpC3CHahWKooCu4PuNrlySXTbGxzMgyqbwEjrQ+ywkEvkMACACqeWyZjmr5e7pNJshZKnfVVCF4W/YRI+p4pc1PPmwNJuwCyMtFjDKYIXqVNu2qcBECwKZMf6Nmss+eGTpMJiGx2SHnz92RyKfJeWzL/N2cW7MA4BR9b1Uw7kPrvgpJdi9/o6TwCk2Ll6ns6CRH+Gnh5GOy9VJb2NIDY8xd3FapUjE1uazrkXetABAwUneTJfpQpsVvVx8sW0LSl4xJfk+U+lLmf3PbT5UCgAhFlpN3Sh7FiRkRuOUEjZwQKGHKvorm6acVna2QlsqfN8p5TZHiqxKf9T3dfhXdWpIeZ13Mzvk5QxHltpj6njL/YZvMIAC0obayIr8D5RLuVFu53+BPRbt8Ufun7CeqxwpDnxI9gXYkV1asTKY1k23p/s4uWwFaAcASPayUb96Ghv7LmOSJKysrQZ2iQiAIMbGGPlKZ1ySP3aJFHkqr7fPAROX6b3KdTLYxeciRtCZBqlTvGxzbmCxGYUX5TfuyJML7KGKLC60AULNVKKsQb9Os2IqxoNDxfLd1c5RlPlp+R2JNsLZKmTIP0+kl8HUDVM395DJD9JJC6qjNbMAH7gSARrHxnAGLMZOk1VsdzH/RpkAQANpQy+PIqphlOrfT70msnuUmqnvTUm5fozxmtsTKdJWmXk7buHPZc2WmyhXIiXFINNXb1i9CAPhQue5y5HgIy3yZVbnJyX6ivkU5RFhsW+9QPM1Lhlg+DKVTfp6vhoTbNNMR6UFRNjcMp7JjcLOYGi6XV/tdIwDIxF203ejT0PXGmEdp8xkknNPo/dyoUIrOVxP2Ytl7mMcbjOwL1ZSp9OPhzw4CcYaJak8CyHHPNsWCANCG2jiOEwLO0PXHxsHwh8Ykf7wIioL6o47urPEYR6crpbfFm4wx29pkpBMASHSlJuxvyMqpnN1vk6cizhabmXxt7Bti8vtrirSig2SmfzWa+ZETtOi6KDX+r5VtguiC10TI9HNyHYLSXFDm296RmkYAsDxl6e82UequKfbMb4s5QrFrrlfCqRMUMrvNmZndzm8BWgpi+EY14Bp6vzbNRQ2ntgho6O1t6gABoA21yTiiedvxqI8/WJ2dMv+BZpl5shT9fMv2s3XHhk/rW/iXiV2ztVe3xxkioBQA/LZYl/PbXbY3QmWS53KOWzGe7WHmu2vSiwnjrPFN1LmiLKfHpClhlSfPdoljqNi0Q+Er377L85ehH7e1oKoUACaYGkPPD5V75s+dr4Cw8kcZXvX3c8QpwiwGLkv0+IpOOgE8e27oTTOH2nOGYtlJVVeiY9tkDQGgDbXqOKJ9a5k0Sl3TfXX6N/WtKU3e6mx7vauyrmno+i5LqE0FtpwcGurvYu+9KY26Zy0EADmCd5+69Pq6z8z3DtVZnndVgqwqr5iQDeVdaJlXxa+652y0KF4um5Ukq9LW3Mv2zhUWO9eYH61JrxymhQDwgXIaC/NdpErNHlCok4yfJ98R7dghKygKb+P8yks7/vdhOtiQdSunLYoxqroSHV+Oq/kOAUBDSR/GDeax9r4bBILkK9JG+hK0D+m21hS6NfyK9rk0xxTBorwEX9H/97RRiosVAEbW1JqL3MtTy/SNinqW+8WZvWTmEhFPcopV4BtiPTUqt5B+NIRORcFHdBaCPNuummqcAY0F+p3ik6co18J+ig9zzfJbEOq44icP5fM7ZX6WrhztTeQuSkPJEpmmrm2tAUIAGKSlN+VbN/rjT8E2JvqQOBMZpLQuUct8hKIcFwytAGyJTgqVQ8aAWBZxAkBy3SzNOFvmF4fqLM9jjsiF+Oj0i+L0PNzRxpvDdRnWO2tuLc9/Gay8Fhfx0X8xKwDCODqDeUWQs8niTtCqlCgqgZYl1pssJ6/te8CQJalwB6N1sX0wL5Z95SsGVTR1tVgB6At5b+k471/iO0DxVq34PYkWMdFLh1IUtEwXhfqaIXplb4BqEtLYLJmwdFaTTvl2jADQRuu9nF/M9+wMN5NYTSyPoaXv/PqYdJvCapzTxJphVo7NV/U9J1TUU0wbB43fiRJkRdzGWxECwEysODYWts3DbGmISI7CKPZxQh2WMkUaa+1925SlKo5aMY7oDVXxl+medgXAtlR4xArA8L0hU6wz9Knw4B7+Lbk0zujzTVAIOOW/0mRTKo+h24fa+/dbQSX0Gvq6H0dzHSMAGGMeokmzzzBiGEbRR87uI0/lG/K3Y/PSrN6IIazYdNuE15hyFsM7sWlHCACnxKa9UOHlSIU4o1B0yuaBI5dqby48GHWtpPPQpciTj+ia17zjq3UAOG6prqgXBICCxPCf4mSrxjiIoi9PTcbXp8xP6avUqaHXKH7nJ/eVX1M62Upk8E2YboxVOI4QAC6KTbupPtpnopSmaIP1RmMvyswywzEhxrllR2WKKyvOPkvwrXtW3lmz1exQHVu4C9YLAMNuc6gbpmtAN0n0o9hEdGxXa4IRSoAzkTS78m2KLycrNIOCHCVqSqfuGQSAOjLD3Xd2zL+taddAmD02P+nS+Yy65tiWCAnDUZlIeZNlCjp9ibUHoBUAnPvYiQLN6MsW5zipWSDs7tRG4/lvZ+zxRzFlG+ivshr8s6G2sMptpDoOyPHeDbUCQBtF1XIdFuq7O3//hVAjK55/OVaz1AehtZ4l/sv9eMt4LfbVFTzXLSwBLl3zyvKjZTpT176lFQDvzUYm765n8jUTzyzdhFumq0NcZNsiptHVAkDuuTEm6d7CWuYjQ/UWr29dMlR5/mtxrFijyDhD98YrmdMp73dSydXQh2NZKgWAK2PTXZrw7hx+t4HL0OdjbUsXgCJ8sn+hiLOsn1o76TK4takjVgDaUOs1zmZnd/+cygEqNICNn5/Y1lqdU0BrfuvM8uGX5/o3fNDwn2EBIHb/VisAzNNiW+48p17YK/pIl2V0y3RckU7tp119cGwv1zmP4s8M33eK/kmigBvq19GOljQCwCwFndh26iv8JmPMky3TDxWQKxvBQYq2IOjMr1amOVGWjpJyX6C6pCOeGCfqVNehiR7WJh8IAG2oDRJni9NtuUTV3hX9oO2Kl3jMbJvnPOMZkzwppiW0AkDs1kJMGTRhNXoibbf85KXLeZlrGj9bKRrqFACDE3JTuYZ4doamTfwwGgHAttha8PNYmmtZenRa+cElu8rBop2mvuwRKo7M0B1tVxkWpQEsk2rLpe0ZcQgAi9LSeTlEP8Yp5N1Q+XupmPgnw/FBsTVyOglDDK7Dpkn09Ji6KgUAcb8a/VISU45QWDeehthd0kZRUeP5r62p5bEb5IWb5OtZEn0v1B7l5xoBYKnO/5cr2Oa7nKeUs7ktzjzvSpPkt2Lz1JxhlYFRjrvEpr1I4TV7odbQ9W3LDAGgLblh4xlj1pTHwsqD285Y5yrijXBSiFiWATxOy1opAOwctmXDqTuvrWFjOklyYDi1yRA2fBz1FjHmMxlL980yXbqE/eg8Xe3GoTQCgOgfjGPsRVcp0WMrPCGVB6ny97NipVmlH21Rjot+I1qU5nKGZMqspr+3OBNd1BECQEFiMT/FQ6Bl2hk1sBr6fExtNMpbUfkHVyl6EjByN8rqqqoEgNxJjDrNoQIaTv4lzDxOgz1z8xw08pZ8sG2dVC8rs+ob+nwGEQAW0vlP24aNjbe2uvrLluh74Q48HgiMSX4/Jh9xjKFKv6WFvJiyDBVWznmr6sh8dNsyQABoS2528bI9+szr5vj3EuwXEW+HcoIkmJ5+QJ0WUIeKO4QAQHTB7Fq2Pid3QiTAMrks5kidWJEMtXMXBchoQXWofhGX7iACgDjaq2/dveDJvvvu+/OW6VuhDuc9j3I5qZ24LNM1MT+SRWoanSELEl/h4oWx1Z+WY+yycqvCIFItAee3Xa9wS3RSbWKlBxAAfMGKzy/hmdfXzZYpqBAqVhO1BVR4/hPb+Ju06ZXDQQDw+tHeLgBI53BL2Fd4k3yjRGuMuVe5U9V9FzsCWterxqz+j7p0Fvm+Vs/BWpu2rQcEgLbkZh9PzP9aJq1y4G6tMxtsAXgDNy+MALBiOXljcOw0dIymJ2arsiHT7kSHaNKqCyMvW8Hyxr2dN84XPeWFFYC6Bu3jvt6ULa2nkQY4DNN/KDvBO/qoyyzTEN8Jqrq10GL16wEBwKex+NdKZyv5wKl8C7FEz9P0tSHdt86CvEoHYIEEAKW7XjE4E7QEaYneEGjj20RHoEs7WE4uC+QhOllLb55dpQSo/O114b00ca2hU8Mdg9atoU/GVEpvJY+u3bFjx8/FpD3vsJbpKCWzw7qUFQJAF3pziStLw2dp+kbK/F5NCUX/RpPe9iS5hya9RQ2zbAKAcNQ5tFl9ZIh50F5LD7pSlunsUD+ao5nlECL1cwgAalR5QK09e8t0YUzSsvStP3bIL45Je55h5Sy4Zboy9GOS58aY+3UpKwSALvTmE9cYepmmb1iir2lKqPQMt76sW2kFg2UUAIxJXhhq65CgJy59Q2nEWlUsmPqfSsdxM3Eo5Zer72sIAJFEnalRjU908fAV9WeZTg51bnkujdbVXnpUwToE1mjrZnXuuPwvRYQA0KGh5hTV6QKE90eVljDTNLW631B/3gfngW4ZBYBt27bdVaFcd6144qtjKlbpGts37yetlf+KfK2h9zXmk+//n1mEX9ZPCAAtWs4yXaToHPJGe5eY5GN0DGTLICbteYTdf//972SZLtaxopd1LSMEgK4E5xJfLGGGDcUw3aAsnWwr3Bjuc/w6ZXoLGWwZBQABqbLdnyRPqIG+xTD9pLltk9fWxI26bTk5tDmfTNlSXvLmamkxqlIVgSEAVEAJ3dJ6PZPVglBapefiQlM1YYqBIjlOVYq/UF8t8+sVPyJ5+7uxBaupukIAmEKyFDd0Cld0q7YyiiNi0To62rxnFW5pBYAkeXh4TKg24GOMeVRjXEO3i2+VPtpAa1Ja7Fr0kd+80oAA0IK89kibRqO1nL3Sdna2ZJoy/1s5/qJ8d0d1NG92622dgZTrCgGgTGQ5vov558aBPV9uFRsYqj/LyTsV6d0oK1SqBBcw0LIKAGLHJLSCmjL9THSHytgtN3vEE1fS5Thtv2fmqxXH/MSIW9s8FiEeBIAWrSAdVDHAaJcsyyXYqhUw8jIsnnlgt/R/uoKRCDI7ux7ZKQBCAChILM+nUxIN6wBEWLUzJnmGpu/JltvykJos6RILACupob8OtY9YDvVr7Dz/NdqNENPtfpyu11ZjsbKD6fKu5esjPgSASIpq971MrRVExPRi6AfiPb+ljQOiyGpHBVdb/csk7OTwqMQbAkMAaICzoI+sXT3A68u1goDYydBWIbMTzxRW1I08qqvNfxbhllkAkCOYNmTIx9CHfY4Koe7ivq2kWqZ3aPrmMm8DQADwe5niWmtprK0/c1eETcpjKMWAec12ol9VFH/wIJb5dZofjQtzcayiZFMFIAA00VnMZ4bor3T9JXlzTA00fuizY7d29YCYdBcl7DILAMJQ4Rr8Bn+LJuQwbQiXtSnR41R9swe7A/PqV0sjAKSG/i8R3WdeoIp8LSdfUXWKjp77jDHblVsNuRBAdPm8hQCl5mwhtKzHOk0q2qDuEwJAHZnp+9bQm5j57tNPZnpHtrtUPgFi+4plfpHqd0r0uS4242dKy8ts6QUAhcXGNeZHuypvtZxc19Ced3QxIe5hLV9uDZ86yE4D7DHGPKQceRm+L40AYImOz4735MffNs8DriV6bkMnHE1ssrxFRDu6ljFl/jNlfnnehq7vwwhGbLlFUherWFFlJTo2Np9QeAgAIULj5+4N7JrUJM+c1wRoDL1a2WduFYdc49KHr7Zv376PZbpJk74hekk4xX5DNJ111+S07AKA83/SeFwzJXqbsGDm325sxwG3clJDf9+Y91hR8Dypk6btegyzqas9mGUTALKJzjB9UzpFjyCDScnbdYSDiNOCCSoDWEPvV3bAQgDZZQ0d1rVjKIu3kibJr1umMyLLeO4QttghAGhbbWoJ9jRmvr8+dveQ1q4+WHn+XzxEHt8mR8vJm5X98jbpO23yaBMnn7yTd7WJW8RZdgFA6qEwtnORhAspDRqTPKng0vfn2to2Y5luUfUjok/Myi6AOKcTvRgxpNWlzkspABSNkTJ9SfZp+lb+KAN1g9VPi3yDnz06TxC7/5bpG8E8x5JoIQh8O8a9ZrnOoe9pmu5rmP/GGro9smzXDrWVAwEg1Grj5zV7sKe4ibCzJbVxTtNXKfNjFBbhin4sx0TVbmL93KIGbzEelCQP9+P3fS1bLiknH89+Ly2FmqJMG0EAkHYNjR1i2TFl/vf6cMllbY5bFxw1n3FKzXRC19WdQJk2u5XhzFvhXi0AeJ3iUsvJ4TEueAOQs8erq6uJNXSMZdrl5TUamKruyepE30uqbiBTWR8sl8kwfdqYzMFGL9smcr4/m/j1rlx9XreuMf+Ohn2bMBAA9NRqBADXVny+KHMmSfJL+hTDIUWvxVmCC2vojwXaU8Ip14eIMEYlxoFuN0Sv7PuFwhizzf1mxlsSEACk0cQK5IXlMcv/ngmLRBf49yav+ztFVNeLpP0s09WT+fpul6euz5Bxsi69tvflZVfmF78cEADGA0U+eGWdJXmzWHJqc75ctNJT5j8UIzs6k6ITjb/LJsmBbRu4KZ7oFERYCfQn3eL6YjG4I8JAjOa97O8bYx5qOXlty5WIIv9bYxW5mnhUPVMLAOJ62dBHZvkvbzJVZZ7XvWYBYNynDdP3DdHfykAs++qx5b3HPvv8gugZWKaPqpdSx7/pncaYX4nN0w8vb2NSB3/QVFyf6YTmTishmRvs/AVieq8bAkDWTKK939Qe7nmdwLi7D10rv7/UXVui5zSVs+LZzZaTN1prf7EuTc190StwbrPPrMhjHQLAeLAoJpryp0iYJ4tCSWqS/yOW9lLmZ4nfcHFUkxp6TWroH/KlOXnzoTuqQOvu9WOHuq5jyBuZZbpEV5bxID4VPl+2P88SfULOusoAL298steWCQnM73GOic61TLdNxQ8zL7fBjdYmj6irV1/3tQJAD/Up1y/4nZnv3Vc9+0hHKwCUWO2xzOfn/YaPzpX4+CCZ4I2h54tnP/k9ZXvvhj7p3u7qBu8gM2OSF/RRV6e/Mz0Jh/vx2fK7cF4qg37qZVtMBCX5DVmmc0rsJusLASBrWvdi09RHat+8ZXWzj/6hTcNy8sHGNq3uT7Lqc5wYNpKVBEVeW3K9Kn6RJToppMgKAaAa+uSPbQZhnBvLTm8Mis6x4rYDtFb2Zs6h4gdyYVc3vxouEgYCgJbUlBLgIvSTUhn4SH1twiEt0VP17rYrheebLNH3cuFHJoLkXU6J7YT8aHByWUXfL9XJSxcCwKjRrKHPR7Fz47ms1I4SmcGFs1pZ+SYeUf5LDNMXZfXRcPLurB8Rfcga+pRbqRpvEynmLQgACkgRjVP/g23Ix03+M/MK5RQDjxu6Xp3TJzqpDyc/2t82BAAtqcUWAGS/XF8TfUi3lNr0ttnq99/qdwIBYNRwLZbXpZ2umNVJp1FBV1ZWnJXJs1q1ecMc0jY9CAADQFU3hiylEx3id5BZXju7BPrTCTNiJcYz3PnyWeLACkAE7ZZbAENPkDfLVkJENaKDytZfT9ta3VhAABi1nRwJtpFKxbJtOUpgxhfihbWjPlS3vuON43uNAJAa+if1xOwBGi5O8p1ZLW039W/nm+CE4erpLVuGud4o+5+i+NVU5qGeYQVAT9YynbggfSYbDOVIr7X2nvoatA+ZHeslunyO9f9y16OwG+EYoN+CkYbE9qTpfvv78Wd9nRk/Y37vHPvQTsv8F13tDiyNHQA5MiLKey00enuTtlxjXyxvEV3B991h5fSBGIaYU4e8QjRelUoufVd9lB4EgBEKzcVWS/TnKo9nYcGvy2/sXNmf7/vobAiAbE05t8Gz2xIgukDGsD7qutEEgKC1P78PGvp8qH1n9dwSPT7k3rjnMXmXbDmLu+I+6rhMAsCovtJZRKu/F414v2PVX++2RJ+TgWoe+06jiisuUqIHiTQd5Uegvt5NA7u45jxRrHAtChMIAIoOMh1kszHmUaKQpLR73tQntM92Zcp0RI/v+8z9dPWa77ijeh/uqCDYVO891tCpxiR/1KfBmo0mAGQ2ARrP+49XIsUzYHOrzvZpfnQ8OdgyXdrzZO/3qytl26Nv2xxLKQD4zSvHqzLlntxk7rdbnDX2IY+v8yXCE8XqkhgE8vNchmvRWHUuND/Qs6B0iVhMG9jaVSvE2XGvGZ/v19oSWDQ7ADWAN8sRJLGNL94sLZMoO/VxDFR+V5fktjX42XJcrib/ud2W42j5MWGSMWRPx4H8WjlGK8eM+3pTK4PJbHME+rphfks53iJ/t8zPDv2epA/5XgIXqT6ZzQmTPCn77Ri6vmMfkpWps6QN3RHq4DHUNiyyrfVAP5ItszZpzyvOFtkfMsY8WYzX5Ect6ITsDZ7pW+5sstgGOM/m30+zRB8yRG9NOTlYzvEugJe03tllNgSInirntN3b3qct0+mW+buOSYT9g36PaPVeWSTYJ4GtYmEzO0ZH9AZZfsyM+uRHt2SylN+S/IvNiG/Jka5ceOCj8wlw9ZFydLXPAg2dVuZIKFva5ddne9OGTs3HisxOSFHfs6yhr8tKRr5/nRwqjJw10sGPAw/NAOl3JrAlTVd/w3mlPMpw8rF8vM2EateHsv4kv5lTneG5oyS8mEiOdX7VubRIYO8mkEnfUW8+/Pq9mxhqDwIgAAIgAAIbhIAz9zveBgnoBhiiV22QqqMaIAACIAACILB3E7BMR8XsXc3zPO7e3VKoPQiAAAiAAAj0S2CTwk/35CqBoWPmrc3dLwKkBgIgAAIgAAJ7IQE51hdrU0CcKW3btu2ueyEuVBkEQAAEQAAENg6B3Dxn8pWY7YCU6Qezsua2cUijJiAAAiAAAiCwYARyX9T0pUgh4GeW+cV9WDtbMBwoDgiAAAiAAAjsPQRECGjpOOYLa8y/ufeQQk1BAARAAARAYIMRcN66TotZCSjCGqZP2yR5QgvrXZuwnbDBOhKqAwIgAAIgsHwExN61s6Y4eQIgYCugEASsmMY09BGxRLjG/Oi1JPk1MZMqVtcyj4bW3tMSPcyY5IVibc7ZqD5j+UihxCAAAiAAAiCwwQiIrWvLJL4F2gkB8fEgAGywPoTqgAAIgAAILDEB8ZkwoPc0X7iAALDE/QRFBwEQAAEQ2IAEMucwTDcPvBoAAWAD9h1UCQRAAARyxNWmAAAC6UlEQVRAYMkJiJa/5cyjlf/W3uc1BIAl7yMoPgiAAAiAwAYlkB0TNPT2gbYEIABs0H6DaoEACIAACGwQAsz8AGvokzbKpXBQmRACwAbpH6gGCIAACIDABicgx/ss03G2H/0ACAAbvL+geiAAAiAAAhuMQGY8iOhpluh4y3RltLKgoR/D1fAG6xSoDgiAAAiAwN5HIE1Ta4keb4kOsZwcbojemhL9szV0jGU+UgwEWeaDUqLHMfPd9z5CqDEIgAAIgAAIgAAIgAAIgAAIgAAIgAAIgAAIgAAIgAAIgAAIgAAIgAAIgAAIgAAIgAAIgAAIgAAIgAAIgAAIgAAIgAAIgAAIgAAIgAAIgAAIgAAIgAAIgAAIgAAIgAAIgAAIgAAIgAAIgAAIgAAIgAAIgAAIgAAIgAAIgAAIgAAIgAAIgAAIgAAIgAAIgAAIgAAIgAAIgAAIgAAIgAAIgAAIgAAIgAAIgAAIgAAIgAAIgAAIgAAIgAAIgAAIgAAIgAAIgAAIgAAIgAAIgAAIgAAIgAAIgAAIgAAIgAAIgAAIgAAIgAAIgAAIgAAIgAAIgAAIgAAIgAAIgAAIgAAIgAAIgAAIgAAIgAAIgAAIgAAIgAAIgAAIgAAIgAAIgAAIgAAIgAAIgAAIgAAIgAAIgAAIgAAIgAAIgAAIgAAIgAAIgAAIgAAIgAAIgAAIgAAIgAAIgAAIgAAIgAAIgAAIgAAIgAAIgAAIgAAIgAAIgAAIgAAIgAAIgAAIgAAIgAAIgAAIgAAIgAAIgAAIgAAIgAAIgAAIgAAIgAAIgAAIgAAIgAAIgAAIgAAIgAAIgAAIgAAIgAAIgAAIgAAIgAAIgAAIgAAIgAAIgAAIgAAIgAAIgAAIgAAIgAAIgAAIgAAIgAAIgAAIgAAIgAAIgAAIgAAIgAAIgAAIgAAIgAAIgAAIgAAIgAAIgAAIgAAIgAAIgAAIgAAIgAAIgAAIgAAIgAAIgAAIgAAIgAAIzIrA/wfOTcNsqP3HzQAAAABJRU5ErkJggg==;" vertex="1" parent="1">
          <mxGeometry x="235" y="40" width="37.5" height="37.5" as="geometry" />
        </mxCell>
      </root>
    </mxGraphModel>
  </diagram>
</mxfile>
